<svg width="220" height="220" viewBox="0 0 220 220" fill="none" xmlns="http://www.w3.org/2000/svg">
<rect width="220" height="220" rx="22" fill="#B5FF4D"/>
<path d="M107.403 167.448H64.6058V206H107.403C113.338 206 118.154 201.14 118.154 195.151V178.297C118.154 172.308 113.343 167.448 107.403 167.448ZM102.274 197.154C102.274 199.92 100.053 202.162 97.312 202.162H80.4802V171.287H97.312C100.053 171.287 102.274 173.529 102.274 176.294V197.154ZM26.9624 167.448H57.996V171.287H38.7007C38.2423 171.287 37.8745 171.658 37.8745 172.12V184.134H57.996V187.972H37.8795V205.995H22V172.456C22 169.69 24.2217 167.448 26.9624 167.448ZM181.541 157.301C186.775 155.333 192.312 152.918 198 150V206H182.125V164.261L169.742 187.296V205.995H153.863V171.602L141.479 194.637V206H125.6V172.451C125.6 169.741 127.736 167.53 130.421 167.448C134.139 167.336 137.827 167.026 141.479 166.66V186.584L153.042 165.079C158.472 164.139 164.09 162.852 169.742 161.22V179.248L181.546 157.301H181.541Z" fill="#222120"/>
<path d="M155.976 13.7197L65.4171 31.0877L65.7228 31.5702L65.4601 31.4248L24 85.0778L32.8983 90.0321L34.3956 88.0919V127.803L119.76 156.28L190.225 126.594V77.1795L196 75.2342L155.976 13.7197ZM114.816 144.93L83.99 134.646V104.819L62.869 99.507V127.598L45.0357 121.648V74.324L71.3087 40.3242L111.699 103.613L112.995 103.18L114.816 102.568V144.93ZM179.585 120.994L124.203 144.328V99.406L179.585 80.7617V120.994Z" fill="#222120"/>
</svg>
