<svg width="198" height="63" viewBox="0 0 198 63" fill="none" xmlns="http://www.w3.org/2000/svg">
<path d="M96.0784 19.4514H47.9315V62.4294H96.0784C102.755 62.4294 108.173 57.0112 108.173 50.3345V31.5464C108.173 24.8697 102.76 19.4514 96.0784 19.4514ZM90.3087 52.5677C90.3087 55.6508 87.8092 58.1504 84.726 58.1504H65.7902V23.7305H84.726C87.8092 23.7305 90.3087 26.2301 90.3087 29.3132V52.5677ZM5.58265 19.4514H40.4955V23.7305H18.7883C18.2726 23.7305 17.8588 24.1443 17.8588 24.66V38.0527H40.4955V42.3317H17.8645V62.4238H0V25.0342C0 21.9509 2.49943 19.4514 5.58265 19.4514ZM179.484 8.13877C185.372 5.94538 191.601 3.25325 198 0V62.4294H180.141V15.8978L166.21 41.578V62.4238H148.346V24.082L134.414 49.7621V62.4294H116.55V25.0283C116.55 22.0076 118.953 19.5421 121.974 19.4514C126.157 19.3268 130.305 18.981 134.414 18.5729V40.7846L147.422 16.8103C153.531 15.7618 159.851 14.3279 166.21 12.5085V32.6061L179.489 8.13877H179.484Z" fill="#222120"/>
</svg>
