<?xml version="1.0" ?>
<!-- Uploaded to: SVG Repo, www.svgrepo.com, Generator: SVG Repo Mixer Tools -->
<svg width="800px" height="800px" viewBox="0 0 64 64" id="Layer_1" version="1.1" xml:space="preserve" xmlns="http://www.w3.org/2000/svg" xmlns:xlink="http://www.w3.org/1999/xlink">
<style type="text/css">
	.st0{fill:#FFFFFF;}
	.st1{fill:#101820;}
</style>
<g>
<g>
<circle class="st0" cx="32" cy="32" r="32"/>
</g>
<g>
<path class="st1" d="M32,35c-3.033,0-5.5-2.468-5.5-5.5S28.967,24,32,24s5.5,2.468,5.5,5.5S35.033,35,32,35z M32,25    c-2.481,0-4.5,2.019-4.5,4.5S29.519,34,32,34s4.5-2.019,4.5-4.5S34.481,25,32,25z"/>
</g>
<g>
<path class="st1" d="M32,19c-1.93,0-3.5-1.57-3.5-3.5S30.07,12,32,12s3.5,1.57,3.5,3.5S33.93,19,32,19z M32,13    c-1.378,0-2.5,1.121-2.5,2.5S30.622,18,32,18s2.5-1.121,2.5-2.5S33.378,13,32,13z"/>
</g>
<g>
<path class="st1" d="M21,39c-1.93,0-3.5-1.57-3.5-3.5S19.07,32,21,32s3.5,1.57,3.5,3.5S22.93,39,21,39z M21,33    c-1.378,0-2.5,1.121-2.5,2.5S19.622,38,21,38s2.5-1.121,2.5-2.5S22.378,33,21,33z"/>
</g>
<g>
<path class="st1" d="M18,25c-2.481,0-4.5-2.019-4.5-4.5S15.519,16,18,16s4.5,2.019,4.5,4.5S20.481,25,18,25z M18,17    c-1.93,0-3.5,1.57-3.5,3.5S16.07,24,18,24s3.5-1.57,3.5-3.5S19.93,17,18,17z"/>
</g>
<g>
<path class="st1" d="M29,30c-0.276,0-0.5-0.224-0.5-0.5c0-1.93,1.57-3.5,3.5-3.5c0.276,0,0.5,0.224,0.5,0.5S32.276,27,32,27    c-1.378,0-2.5,1.121-2.5,2.5C29.5,29.776,29.276,30,29,30z"/>
</g>
<g>
<path class="st1" d="M37,54c-0.235,0-0.445-0.167-0.491-0.406l-3.56-18.69c-0.666,0.131-1.231,0.131-1.897,0l-3.56,18.69    c-0.052,0.271-0.313,0.445-0.585,0.397c-0.271-0.052-0.449-0.313-0.397-0.585l3.658-19.205c0.026-0.138,0.109-0.258,0.228-0.331    c0.119-0.074,0.262-0.096,0.398-0.057c0.91,0.254,1.504,0.254,2.414,0c0.135-0.04,0.279-0.018,0.398,0.057    c0.119,0.073,0.201,0.193,0.228,0.331l3.658,19.205c0.052,0.271-0.126,0.533-0.397,0.585C37.062,53.997,37.03,54,37,54z"/>
</g>
<g>
<path class="st1" d="M37,54c-0.235,0-0.445-0.167-0.491-0.406L35.444,48h-6.888l-1.065,5.594    c-0.052,0.271-0.313,0.445-0.585,0.397c-0.271-0.052-0.449-0.313-0.397-0.585l1.143-6C27.696,47.171,27.902,47,28.143,47h7.715    c0.24,0,0.446,0.171,0.491,0.406l1.143,6c0.052,0.271-0.126,0.533-0.397,0.585C37.062,53.997,37.03,54,37,54z"/>
</g>
<g>
<path class="st1" d="M32,54c-0.276,0-0.5-0.224-0.5-0.5v-6c0-0.276,0.224-0.5,0.5-0.5s0.5,0.224,0.5,0.5v6    C32.5,53.776,32.276,54,32,54z"/>
</g>
<g>
<path class="st1" d="M37,50H27c-0.276,0-0.5-0.224-0.5-0.5S26.724,49,27,49h10c0.276,0,0.5,0.224,0.5,0.5S37.276,50,37,50z"/>
</g>
<g>
<path class="st1" d="M28.356,46.882c-0.209,0-0.404-0.133-0.474-0.342c-0.087-0.262,0.054-0.545,0.316-0.633l5.644-1.882    C33.893,44.009,33.946,44,34,44h1.286c0.276,0,0.5,0.224,0.5,0.5s-0.224,0.5-0.5,0.5h-1.205l-5.567,1.856    C28.461,46.874,28.408,46.882,28.356,46.882z"/>
</g>
<g>
<path class="st1" d="M29.106,42.947c-0.184,0-0.36-0.102-0.448-0.276c-0.124-0.247-0.023-0.547,0.224-0.671l3.895-1.947    C32.846,40.019,32.922,40,33,40h1.524c0.276,0,0.5,0.224,0.5,0.5S34.8,41,34.524,41h-1.406l-3.789,1.895    C29.257,42.931,29.181,42.947,29.106,42.947z"/>
</g>
<g>
<path class="st1" d="M29.737,39.632c-0.184,0-0.36-0.102-0.448-0.276c-0.124-0.247-0.023-0.547,0.224-0.671l3.263-1.632    C32.846,37.019,32.922,37,33,37h0.953c0.276,0,0.5,0.224,0.5,0.5s-0.224,0.5-0.5,0.5h-0.834l-3.158,1.579    C29.889,39.615,29.813,39.632,29.737,39.632z"/>
</g>
<g>
<path class="st1" d="M34,45c-0.052,0-0.105-0.008-0.158-0.025l-4.97-1.656c-0.262-0.088-0.403-0.371-0.316-0.633    c0.087-0.262,0.368-0.404,0.632-0.316l4.97,1.656c0.262,0.088,0.403,0.371,0.316,0.633C34.404,44.867,34.209,45,34,45z"/>
</g>
<g>
<path class="st1" d="M33,41c-0.062,0-0.125-0.012-0.186-0.036l-3.274-1.31c-0.256-0.103-0.381-0.394-0.279-0.649    c0.103-0.257,0.395-0.381,0.65-0.278l3.274,1.31c0.256,0.103,0.381,0.394,0.279,0.649C33.386,40.881,33.198,41,33,41z"/>
</g>
<g>
<path class="st1" d="M33,38c-0.062,0-0.125-0.012-0.186-0.036l-2.744-1.098c-0.256-0.103-0.381-0.394-0.279-0.649    c0.103-0.257,0.395-0.382,0.65-0.278l2.744,1.098c0.256,0.103,0.381,0.394,0.279,0.649C33.386,37.881,33.198,38,33,38z"/>
</g>
<g>
<path class="st1" d="M31,23c-0.276,0-0.5-0.224-0.5-0.5v-2c0-0.276,0.224-0.5,0.5-0.5s0.5,0.224,0.5,0.5v2    C31.5,22.776,31.276,23,31,23z"/>
</g>
<g>
<path class="st1" d="M33,23c-0.276,0-0.5-0.224-0.5-0.5v-2c0-0.276,0.224-0.5,0.5-0.5s0.5,0.224,0.5,0.5v2    C33.5,22.776,33.276,23,33,23z"/>
</g>
<g>
<path class="st1" d="M27,25.013c-0.089,0-0.179-0.023-0.26-0.073l-3.289-2.013c-0.236-0.145-0.31-0.452-0.166-0.688    c0.144-0.235,0.453-0.31,0.687-0.166l3.289,2.013c0.236,0.145,0.31,0.452,0.166,0.688C27.332,24.928,27.168,25.013,27,25.013z"/>
</g>
<g>
<path class="st1" d="M26,26.745c-0.089,0-0.179-0.023-0.26-0.073l-3-1.835c-0.236-0.145-0.31-0.452-0.166-0.688    c0.145-0.235,0.453-0.31,0.688-0.166l3,1.835c0.236,0.145,0.31,0.452,0.166,0.688C26.332,26.66,26.168,26.745,26,26.745z"/>
</g>
<g>
<path class="st1" d="M20.892,31c-0.225,0-0.429-0.152-0.485-0.381l-0.979-4c-0.065-0.269,0.099-0.539,0.367-0.604    c0.268-0.066,0.539,0.098,0.605,0.366l0.979,4c0.065,0.269-0.099,0.539-0.367,0.604C20.972,30.995,20.932,31,20.892,31z"/>
</g>
<g>
<path class="st1" d="M19,31.681c-0.225,0-0.429-0.152-0.485-0.381l-1.146-4.681c-0.065-0.269,0.099-0.539,0.367-0.604    c0.265-0.066,0.539,0.098,0.604,0.366l1.146,4.681c0.065,0.269-0.099,0.539-0.367,0.604C19.079,31.676,19.039,31.681,19,31.681z"/>
</g>
<g>
<path class="st1" d="M28,38.682c-0.076,0-0.153-0.018-0.225-0.054l-2-1.012c-0.247-0.125-0.345-0.426-0.221-0.672    c0.125-0.245,0.427-0.343,0.672-0.221l2,1.012c0.247,0.125,0.345,0.426,0.221,0.672C28.358,38.581,28.182,38.682,28,38.682z"/>
</g>
<g>
<path class="st1" d="M27,40.417c-0.076,0-0.153-0.018-0.225-0.054l-2-1.012c-0.247-0.125-0.345-0.426-0.221-0.672    c0.125-0.245,0.425-0.343,0.672-0.221l2,1.012c0.247,0.125,0.345,0.426,0.221,0.672C27.358,40.316,27.182,40.417,27,40.417z"/>
</g>
<g>
<path class="st1" d="M24,19.522c-0.206,0-0.399-0.129-0.472-0.334c-0.092-0.261,0.045-0.546,0.306-0.638l3-1.056    c0.261-0.093,0.546,0.046,0.638,0.306c0.092,0.261-0.045,0.546-0.306,0.638l-3,1.056C24.111,19.514,24.055,19.522,24,19.522z"/>
</g>
<g>
<path class="st1" d="M23,17.755c-0.206,0-0.399-0.128-0.472-0.334c-0.092-0.261,0.045-0.546,0.306-0.638l4-1.409    c0.259-0.092,0.546,0.045,0.638,0.306s-0.045,0.546-0.306,0.638l-4,1.409C23.111,17.746,23.055,17.755,23,17.755z"/>
</g>
<g>
<path class="st1" d="M43,39c-1.93,0-3.5-1.57-3.5-3.5S41.07,32,43,32s3.5,1.57,3.5,3.5S44.93,39,43,39z M43,33    c-1.378,0-2.5,1.121-2.5,2.5S41.622,38,43,38s2.5-1.121,2.5-2.5S44.378,33,43,33z"/>
</g>
<g>
<path class="st1" d="M46,25c-2.481,0-4.5-2.019-4.5-4.5S43.519,16,46,16s4.5,2.019,4.5,4.5S48.481,25,46,25z M46,17    c-1.93,0-3.5,1.57-3.5,3.5S44.07,24,46,24s3.5-1.57,3.5-3.5S47.93,17,46,17z"/>
</g>
<g>
<path class="st1" d="M37,25.013c-0.168,0-0.333-0.085-0.427-0.239c-0.145-0.235-0.07-0.543,0.166-0.688l3.289-2.013    c0.234-0.144,0.543-0.069,0.687,0.166c0.145,0.235,0.07,0.543-0.166,0.688l-3.289,2.013C37.18,24.989,37.089,25.013,37,25.013z"/>
</g>
<g>
<path class="st1" d="M38,26.745c-0.168,0-0.333-0.085-0.427-0.239c-0.144-0.235-0.07-0.543,0.166-0.688l3-1.835    c0.235-0.144,0.543-0.069,0.688,0.166c0.144,0.235,0.07,0.543-0.166,0.688l-3,1.835C38.18,26.722,38.089,26.745,38,26.745z"/>
</g>
<g>
<path class="st1" d="M45,31.681c-0.04,0-0.08-0.005-0.119-0.015c-0.269-0.065-0.433-0.336-0.367-0.604l1.146-4.681    c0.066-0.268,0.338-0.433,0.604-0.366c0.269,0.065,0.433,0.336,0.367,0.604L45.486,31.3C45.43,31.527,45.226,31.681,45,31.681z"/>
</g>
<g>
<path class="st1" d="M43.108,31c-0.04,0-0.08-0.005-0.12-0.015c-0.268-0.065-0.432-0.336-0.367-0.604l0.979-4    c0.066-0.269,0.335-0.433,0.605-0.366c0.268,0.065,0.432,0.336,0.367,0.604l-0.979,4C43.537,30.848,43.333,31,43.108,31z"/>
</g>
<g>
<path class="st1" d="M37,40.417c-0.183,0-0.358-0.101-0.447-0.274c-0.125-0.246-0.026-0.547,0.221-0.672l2-1.012    c0.246-0.124,0.546-0.025,0.672,0.221c0.125,0.246,0.026,0.547-0.221,0.672l-2,1.012C37.153,40.399,37.076,40.417,37,40.417z"/>
</g>
<g>
<path class="st1" d="M36,38.682c-0.183,0-0.358-0.101-0.447-0.274c-0.125-0.246-0.026-0.547,0.221-0.672l2-1.012    c0.246-0.123,0.546-0.025,0.672,0.221c0.125,0.246,0.026,0.547-0.221,0.672l-2,1.012C36.153,38.664,36.076,38.682,36,38.682z"/>
</g>
<g>
<path class="st1" d="M41,17.755c-0.055,0-0.111-0.009-0.166-0.028l-4-1.409c-0.261-0.092-0.397-0.377-0.306-0.638    c0.091-0.261,0.38-0.398,0.638-0.306l4,1.409c0.261,0.092,0.397,0.377,0.306,0.638C41.399,17.627,41.206,17.755,41,17.755z"/>
</g>
<g>
<path class="st1" d="M40,19.522c-0.055,0-0.111-0.009-0.166-0.028l-3-1.056c-0.26-0.092-0.397-0.377-0.306-0.638    c0.091-0.26,0.377-0.399,0.638-0.306l3,1.056c0.26,0.092,0.397,0.377,0.306,0.638C40.399,19.394,40.206,19.522,40,19.522z"/>
</g>
<g>
<path class="st1" d="M19,54c-0.017,0-0.033-0.001-0.05-0.003c-0.275-0.027-0.475-0.272-0.448-0.547l1.203-12    c0.028-0.274,0.274-0.48,0.547-0.447c0.275,0.027,0.475,0.272,0.448,0.547l-1.203,12C19.472,53.808,19.254,54,19,54z"/>
</g>
<g>
<path class="st1" d="M14,54c-0.061,0-0.122-0.011-0.181-0.034c-0.257-0.1-0.385-0.39-0.285-0.647l5.056-13    c0.1-0.257,0.389-0.386,0.647-0.284c0.257,0.1,0.385,0.39,0.285,0.647l-5.056,13C14.389,53.879,14.2,54,14,54z"/>
</g>
<g>
<path class="st1" d="M19.786,46.155c-0.113,0-0.226-0.038-0.32-0.116l-2.075-1.729c-0.212-0.177-0.241-0.492-0.064-0.704    c0.177-0.211,0.492-0.241,0.705-0.063l2.075,1.729c0.212,0.177,0.241,0.492,0.064,0.704    C20.071,46.094,19.929,46.155,19.786,46.155z"/>
</g>
<g>
<path class="st1" d="M19.339,50.616c-0.113,0-0.226-0.038-0.32-0.116l-3.039-2.532c-0.212-0.177-0.241-0.492-0.064-0.704    c0.177-0.211,0.491-0.241,0.705-0.063l3.039,2.532c0.212,0.177,0.241,0.492,0.064,0.704    C19.625,50.555,19.482,50.616,19.339,50.616z"/>
</g>
<g>
<path class="st1" d="M45,54c-0.254,0-0.471-0.192-0.497-0.45l-1.203-12c-0.027-0.274,0.173-0.52,0.448-0.547    c0.284-0.032,0.52,0.173,0.547,0.447l1.203,12c0.027,0.274-0.173,0.52-0.448,0.547C45.033,53.999,45.016,54,45,54z"/>
</g>
<g>
<path class="st1" d="M50,54c-0.2,0-0.389-0.121-0.466-0.318l-5.056-13c-0.1-0.258,0.027-0.548,0.285-0.647    c0.257-0.101,0.547,0.027,0.647,0.284l5.056,13c0.1,0.258-0.027,0.548-0.285,0.647C50.122,53.989,50.061,54,50,54z"/>
</g>
<g>
<path class="st1" d="M44.214,46.155c-0.144,0-0.286-0.062-0.385-0.18c-0.177-0.212-0.148-0.527,0.064-0.704l2.075-1.729    c0.213-0.178,0.527-0.147,0.705,0.063c0.177,0.212,0.148,0.527-0.064,0.704l-2.075,1.729    C44.44,46.117,44.327,46.155,44.214,46.155z"/>
</g>
<g>
<path class="st1" d="M44.661,50.616c-0.144,0-0.286-0.062-0.385-0.18c-0.177-0.212-0.148-0.527,0.064-0.704l3.039-2.532    c0.213-0.178,0.527-0.147,0.705,0.063c0.177,0.212,0.148,0.527-0.064,0.704L44.981,50.5    C44.887,50.578,44.774,50.616,44.661,50.616z"/>
</g>
<g>
<path class="st1" d="M45,11h-4c-0.276,0-0.5-0.224-0.5-0.5S40.724,10,41,10h4c0.276,0,0.5,0.224,0.5,0.5S45.276,11,45,11z"/>
</g>
<g>
<path class="st1" d="M12,32H9c-0.276,0-0.5-0.224-0.5-0.5S8.724,31,9,31h3c0.276,0,0.5,0.224,0.5,0.5S12.276,32,12,32z"/>
</g>
</g>
</svg>