<?xml version="1.0" ?>
<!-- Uploaded to: SVG Repo, www.svgrepo.com, Generator: SVG Repo Mixer Tools -->
<svg width="800px" height="800px" viewBox="0 0 64 64" id="Layer_1" version="1.1" xml:space="preserve" xmlns="http://www.w3.org/2000/svg" xmlns:xlink="http://www.w3.org/1999/xlink">
<style type="text/css">
	.st0{fill:#FFFFFF;}
	.st1{fill:#101820;}
</style>
<g>
<g>
<circle class="st0" cx="32" cy="32" r="32"/>
</g>
<g>
<path class="st1" d="M23,54.5c-0.276,0-0.5-0.224-0.5-0.5V42.5h-7V54c0,0.276-0.224,0.5-0.5,0.5s-0.5-0.224-0.5-0.5V42    c0-0.276,0.224-0.5,0.5-0.5h8c0.276,0,0.5,0.224,0.5,0.5v12C23.5,54.276,23.276,54.5,23,54.5z"/>
</g>
<g>
<path class="st1" d="M22,42.5h-6c-0.276,0-0.5-0.224-0.5-0.5v-8c0-0.276,0.224-0.5,0.5-0.5h6c0.276,0,0.5,0.224,0.5,0.5v8    C22.5,42.276,22.276,42.5,22,42.5z M16.5,41.5h5v-7h-5V41.5z"/>
</g>
<g>
<path class="st1" d="M16,42.5h-2c-0.276,0-0.5-0.224-0.5-0.5v-8c0-0.276,0.224-0.5,0.5-0.5h2c0.276,0,0.5,0.224,0.5,0.5v8    C16.5,42.276,16.276,42.5,16,42.5z M14.5,41.5h1v-7h-1V41.5z"/>
</g>
<g>
<path class="st1" d="M24,42.5h-2c-0.276,0-0.5-0.224-0.5-0.5v-8c0-0.276,0.224-0.5,0.5-0.5h2c0.276,0,0.5,0.224,0.5,0.5v8    C24.5,42.276,24.276,42.5,24,42.5z M22.5,41.5h1v-7h-1V41.5z"/>
</g>
<g>
<path class="st1" d="M21,34.5h-4c-0.276,0-0.5-0.224-0.5-0.5v-6c0-0.276,0.224-0.5,0.5-0.5h4c0.276,0,0.5,0.224,0.5,0.5v6    C21.5,34.276,21.276,34.5,21,34.5z M17.5,33.5h3v-5h-3V33.5z"/>
</g>
<g>
<path class="st1" d="M17,34.5h-2c-0.276,0-0.5-0.224-0.5-0.5v-6c0-0.276,0.224-0.5,0.5-0.5h2c0.276,0,0.5,0.224,0.5,0.5v6    C17.5,34.276,17.276,34.5,17,34.5z M15.5,33.5h1v-5h-1V33.5z"/>
</g>
<g>
<path class="st1" d="M23,34.5h-2c-0.276,0-0.5-0.224-0.5-0.5v-6c0-0.276,0.224-0.5,0.5-0.5h2c0.276,0,0.5,0.224,0.5,0.5v6    C23.5,34.276,23.276,34.5,23,34.5z M21.5,33.5h1v-5h-1V33.5z"/>
</g>
<g>
<path class="st1" d="M20,28.5h-2c-0.276,0-0.5-0.224-0.5-0.5v-4c0-0.276,0.224-0.5,0.5-0.5h2c0.276,0,0.5,0.224,0.5,0.5v4    C20.5,28.276,20.276,28.5,20,28.5z M18.5,27.5h1v-3h-1V27.5z"/>
</g>
<g>
<path class="st1" d="M18,28.5h-2c-0.276,0-0.5-0.224-0.5-0.5v-4c0-0.276,0.224-0.5,0.5-0.5h2c0.276,0,0.5,0.224,0.5,0.5v4    C18.5,28.276,18.276,28.5,18,28.5z M16.5,27.5h1v-3h-1V27.5z"/>
</g>
<g>
<path class="st1" d="M22,28.5h-2c-0.276,0-0.5-0.224-0.5-0.5v-4c0-0.276,0.224-0.5,0.5-0.5h2c0.276,0,0.5,0.224,0.5,0.5v4    C22.5,28.276,22.276,28.5,22,28.5z M20.5,27.5h1v-3h-1V27.5z"/>
</g>
<g>
<path class="st1" d="M21,24.5h-4c-0.276,0-0.5-0.224-0.5-0.5v-4c0-0.276,0.224-0.5,0.5-0.5h4c0.276,0,0.5,0.224,0.5,0.5v4    C21.5,24.276,21.276,24.5,21,24.5z M17.5,23.5h3v-3h-3V23.5z"/>
</g>
<g>
<path class="st1" d="M21,20.5h-4c-0.173,0-0.334-0.09-0.425-0.237s-0.1-0.332-0.022-0.486l2-4c0.17-0.339,0.725-0.339,0.895,0l2,4    c0.078,0.155,0.069,0.339-0.022,0.486S21.173,20.5,21,20.5z M17.809,19.5h2.382L19,17.118L17.809,19.5z"/>
</g>
<g>
<path class="st1" d="M19,16.5c-0.276,0-0.5-0.224-0.5-0.5v-6c0-0.276,0.224-0.5,0.5-0.5s0.5,0.224,0.5,0.5v6    C19.5,16.276,19.276,16.5,19,16.5z"/>
</g>
<g>
<path class="st1" d="M20,15.5h-2c-0.276,0-0.5-0.224-0.5-0.5s0.224-0.5,0.5-0.5h2c0.276,0,0.5,0.224,0.5,0.5S20.276,15.5,20,15.5z    "/>
</g>
<g>
<path class="st1" d="M15,54.5c-0.276,0-0.5-0.224-0.5-0.5V42.5h-1V54c0,0.276-0.224,0.5-0.5,0.5s-0.5-0.224-0.5-0.5V42    c0-0.276,0.224-0.5,0.5-0.5h2c0.276,0,0.5,0.224,0.5,0.5v12C15.5,54.276,15.276,54.5,15,54.5z"/>
</g>
<g>
<path class="st1" d="M25,54.5c-0.276,0-0.5-0.224-0.5-0.5V42.5h-1V54c0,0.276-0.224,0.5-0.5,0.5s-0.5-0.224-0.5-0.5V42    c0-0.276,0.224-0.5,0.5-0.5h2c0.276,0,0.5,0.224,0.5,0.5v12C25.5,54.276,25.276,54.5,25,54.5z"/>
</g>
<g>
<path class="st1" d="M18,44.5h-1c-0.276,0-0.5-0.224-0.5-0.5s0.224-0.5,0.5-0.5h1c0.276,0,0.5,0.224,0.5,0.5S18.276,44.5,18,44.5z    "/>
</g>
<g>
<path class="st1" d="M21,44.5h-1c-0.276,0-0.5-0.224-0.5-0.5s0.224-0.5,0.5-0.5h1c0.276,0,0.5,0.224,0.5,0.5S21.276,44.5,21,44.5z    "/>
</g>
<g>
<path class="st1" d="M18,46.5h-1c-0.276,0-0.5-0.224-0.5-0.5s0.224-0.5,0.5-0.5h1c0.276,0,0.5,0.224,0.5,0.5S18.276,46.5,18,46.5z    "/>
</g>
<g>
<path class="st1" d="M21,46.5h-1c-0.276,0-0.5-0.224-0.5-0.5s0.224-0.5,0.5-0.5h1c0.276,0,0.5,0.224,0.5,0.5S21.276,46.5,21,46.5z    "/>
</g>
<g>
<path class="st1" d="M18,48.5h-1c-0.276,0-0.5-0.224-0.5-0.5s0.224-0.5,0.5-0.5h1c0.276,0,0.5,0.224,0.5,0.5S18.276,48.5,18,48.5z    "/>
</g>
<g>
<path class="st1" d="M21,48.5h-1c-0.276,0-0.5-0.224-0.5-0.5s0.224-0.5,0.5-0.5h1c0.276,0,0.5,0.224,0.5,0.5S21.276,48.5,21,48.5z    "/>
</g>
<g>
<path class="st1" d="M18,50.5h-1c-0.276,0-0.5-0.224-0.5-0.5s0.224-0.5,0.5-0.5h1c0.276,0,0.5,0.224,0.5,0.5S18.276,50.5,18,50.5z    "/>
</g>
<g>
<path class="st1" d="M21,50.5h-1c-0.276,0-0.5-0.224-0.5-0.5s0.224-0.5,0.5-0.5h1c0.276,0,0.5,0.224,0.5,0.5S21.276,50.5,21,50.5z    "/>
</g>
<g>
<path class="st1" d="M18,52.5h-1c-0.276,0-0.5-0.224-0.5-0.5s0.224-0.5,0.5-0.5h1c0.276,0,0.5,0.224,0.5,0.5S18.276,52.5,18,52.5z    "/>
</g>
<g>
<path class="st1" d="M21,52.5h-1c-0.276,0-0.5-0.224-0.5-0.5s0.224-0.5,0.5-0.5h1c0.276,0,0.5,0.224,0.5,0.5S21.276,52.5,21,52.5z    "/>
</g>
<g>
<path class="st1" d="M18,54.5h-1c-0.276,0-0.5-0.224-0.5-0.5s0.224-0.5,0.5-0.5h1c0.276,0,0.5,0.224,0.5,0.5S18.276,54.5,18,54.5z    "/>
</g>
<g>
<path class="st1" d="M21,54.5h-1c-0.276,0-0.5-0.224-0.5-0.5s0.224-0.5,0.5-0.5h1c0.276,0,0.5,0.224,0.5,0.5S21.276,54.5,21,54.5z    "/>
</g>
<g>
<path class="st1" d="M20,40.5h-2c-0.276,0-0.5-0.224-0.5-0.5s0.224-0.5,0.5-0.5h2c0.276,0,0.5,0.224,0.5,0.5S20.276,40.5,20,40.5z    "/>
</g>
<g>
<path class="st1" d="M20,38.5h-2c-0.276,0-0.5-0.224-0.5-0.5s0.224-0.5,0.5-0.5h2c0.276,0,0.5,0.224,0.5,0.5S20.276,38.5,20,38.5z    "/>
</g>
<g>
<path class="st1" d="M20,36.5h-2c-0.276,0-0.5-0.224-0.5-0.5s0.224-0.5,0.5-0.5h2c0.276,0,0.5,0.224,0.5,0.5S20.276,36.5,20,36.5z    "/>
</g>
<g>
<path class="st1" d="M19.5,32.5h-1c-0.276,0-0.5-0.224-0.5-0.5s0.224-0.5,0.5-0.5h1c0.276,0,0.5,0.224,0.5,0.5    S19.776,32.5,19.5,32.5z"/>
</g>
<g>
<path class="st1" d="M19.5,30.5h-1c-0.276,0-0.5-0.224-0.5-0.5s0.224-0.5,0.5-0.5h1c0.276,0,0.5,0.224,0.5,0.5    S19.776,30.5,19.5,30.5z"/>
</g>
<g>
<path class="st1" d="M23,24.5h-8c-0.276,0-0.5-0.224-0.5-0.5s0.224-0.5,0.5-0.5h8c0.276,0,0.5,0.224,0.5,0.5S23.276,24.5,23,24.5z    "/>
</g>
<g>
<path class="st1" d="M24,28.5H14c-0.276,0-0.5-0.224-0.5-0.5s0.224-0.5,0.5-0.5h10c0.276,0,0.5,0.224,0.5,0.5S24.276,28.5,24,28.5    z"/>
</g>
<g>
<path class="st1" d="M25,34.5H13c-0.276,0-0.5-0.224-0.5-0.5s0.224-0.5,0.5-0.5h12c0.276,0,0.5,0.224,0.5,0.5S25.276,34.5,25,34.5    z"/>
</g>
<g>
<path class="st1" d="M26,42.5H12c-0.276,0-0.5-0.224-0.5-0.5s0.224-0.5,0.5-0.5h14c0.276,0,0.5,0.224,0.5,0.5S26.276,42.5,26,42.5    z"/>
</g>
<g>
<path class="st1" d="M22,20.5h-6c-0.276,0-0.5-0.224-0.5-0.5s0.224-0.5,0.5-0.5h6c0.276,0,0.5,0.224,0.5,0.5S22.276,20.5,22,20.5z    "/>
</g>
<g>
<path class="st1" d="M21,22.5h-4c-0.276,0-0.5-0.224-0.5-0.5s0.224-0.5,0.5-0.5h4c0.276,0,0.5,0.224,0.5,0.5S21.276,22.5,21,22.5z    "/>
</g>
<g>
<path class="st1" d="M49,54.5c-0.276,0-0.5-0.224-0.5-0.5V42.5h-7V54c0,0.276-0.224,0.5-0.5,0.5s-0.5-0.224-0.5-0.5V42    c0-0.276,0.224-0.5,0.5-0.5h8c0.276,0,0.5,0.224,0.5,0.5v12C49.5,54.276,49.276,54.5,49,54.5z"/>
</g>
<g>
<path class="st1" d="M48,42.5h-6c-0.276,0-0.5-0.224-0.5-0.5v-8c0-0.276,0.224-0.5,0.5-0.5h6c0.276,0,0.5,0.224,0.5,0.5v8    C48.5,42.276,48.276,42.5,48,42.5z M42.5,41.5h5v-7h-5V41.5z"/>
</g>
<g>
<path class="st1" d="M42,42.5h-2c-0.276,0-0.5-0.224-0.5-0.5v-8c0-0.276,0.224-0.5,0.5-0.5h2c0.276,0,0.5,0.224,0.5,0.5v8    C42.5,42.276,42.276,42.5,42,42.5z M40.5,41.5h1v-7h-1V41.5z"/>
</g>
<g>
<path class="st1" d="M50,42.5h-2c-0.276,0-0.5-0.224-0.5-0.5v-8c0-0.276,0.224-0.5,0.5-0.5h2c0.276,0,0.5,0.224,0.5,0.5v8    C50.5,42.276,50.276,42.5,50,42.5z M48.5,41.5h1v-7h-1V41.5z"/>
</g>
<g>
<path class="st1" d="M47,34.5h-4c-0.276,0-0.5-0.224-0.5-0.5v-6c0-0.276,0.224-0.5,0.5-0.5h4c0.276,0,0.5,0.224,0.5,0.5v6    C47.5,34.276,47.276,34.5,47,34.5z M43.5,33.5h3v-5h-3V33.5z"/>
</g>
<g>
<path class="st1" d="M43,34.5h-2c-0.276,0-0.5-0.224-0.5-0.5v-6c0-0.276,0.224-0.5,0.5-0.5h2c0.276,0,0.5,0.224,0.5,0.5v6    C43.5,34.276,43.276,34.5,43,34.5z M41.5,33.5h1v-5h-1V33.5z"/>
</g>
<g>
<path class="st1" d="M49,34.5h-2c-0.276,0-0.5-0.224-0.5-0.5v-6c0-0.276,0.224-0.5,0.5-0.5h2c0.276,0,0.5,0.224,0.5,0.5v6    C49.5,34.276,49.276,34.5,49,34.5z M47.5,33.5h1v-5h-1V33.5z"/>
</g>
<g>
<path class="st1" d="M46,28.5h-2c-0.276,0-0.5-0.224-0.5-0.5v-4c0-0.276,0.224-0.5,0.5-0.5h2c0.276,0,0.5,0.224,0.5,0.5v4    C46.5,28.276,46.276,28.5,46,28.5z M44.5,27.5h1v-3h-1V27.5z"/>
</g>
<g>
<path class="st1" d="M44,28.5h-2c-0.276,0-0.5-0.224-0.5-0.5v-4c0-0.276,0.224-0.5,0.5-0.5h2c0.276,0,0.5,0.224,0.5,0.5v4    C44.5,28.276,44.276,28.5,44,28.5z M42.5,27.5h1v-3h-1V27.5z"/>
</g>
<g>
<path class="st1" d="M48,28.5h-2c-0.276,0-0.5-0.224-0.5-0.5v-4c0-0.276,0.224-0.5,0.5-0.5h2c0.276,0,0.5,0.224,0.5,0.5v4    C48.5,28.276,48.276,28.5,48,28.5z M46.5,27.5h1v-3h-1V27.5z"/>
</g>
<g>
<path class="st1" d="M47,24.5h-4c-0.276,0-0.5-0.224-0.5-0.5v-4c0-0.276,0.224-0.5,0.5-0.5h4c0.276,0,0.5,0.224,0.5,0.5v4    C47.5,24.276,47.276,24.5,47,24.5z M43.5,23.5h3v-3h-3V23.5z"/>
</g>
<g>
<path class="st1" d="M47,20.5h-4c-0.173,0-0.334-0.09-0.425-0.237s-0.1-0.332-0.022-0.486l2-4c0.17-0.339,0.725-0.339,0.895,0l2,4    c0.078,0.155,0.069,0.339-0.022,0.486S47.173,20.5,47,20.5z M43.809,19.5h2.382L45,17.118L43.809,19.5z"/>
</g>
<g>
<path class="st1" d="M45,16.5c-0.276,0-0.5-0.224-0.5-0.5v-6c0-0.276,0.224-0.5,0.5-0.5s0.5,0.224,0.5,0.5v6    C45.5,16.276,45.276,16.5,45,16.5z"/>
</g>
<g>
<path class="st1" d="M46,15.5h-2c-0.276,0-0.5-0.224-0.5-0.5s0.224-0.5,0.5-0.5h2c0.276,0,0.5,0.224,0.5,0.5S46.276,15.5,46,15.5z    "/>
</g>
<g>
<path class="st1" d="M41,54.5c-0.276,0-0.5-0.224-0.5-0.5V42.5h-1V54c0,0.276-0.224,0.5-0.5,0.5s-0.5-0.224-0.5-0.5V42    c0-0.276,0.224-0.5,0.5-0.5h2c0.276,0,0.5,0.224,0.5,0.5v12C41.5,54.276,41.276,54.5,41,54.5z"/>
</g>
<g>
<path class="st1" d="M51,54.5c-0.276,0-0.5-0.224-0.5-0.5V42.5h-1V54c0,0.276-0.224,0.5-0.5,0.5s-0.5-0.224-0.5-0.5V42    c0-0.276,0.224-0.5,0.5-0.5h2c0.276,0,0.5,0.224,0.5,0.5v12C51.5,54.276,51.276,54.5,51,54.5z"/>
</g>
<g>
<path class="st1" d="M44,44.5h-1c-0.276,0-0.5-0.224-0.5-0.5s0.224-0.5,0.5-0.5h1c0.276,0,0.5,0.224,0.5,0.5S44.276,44.5,44,44.5z    "/>
</g>
<g>
<path class="st1" d="M47,44.5h-1c-0.276,0-0.5-0.224-0.5-0.5s0.224-0.5,0.5-0.5h1c0.276,0,0.5,0.224,0.5,0.5S47.276,44.5,47,44.5z    "/>
</g>
<g>
<path class="st1" d="M44,46.5h-1c-0.276,0-0.5-0.224-0.5-0.5s0.224-0.5,0.5-0.5h1c0.276,0,0.5,0.224,0.5,0.5S44.276,46.5,44,46.5z    "/>
</g>
<g>
<path class="st1" d="M47,46.5h-1c-0.276,0-0.5-0.224-0.5-0.5s0.224-0.5,0.5-0.5h1c0.276,0,0.5,0.224,0.5,0.5S47.276,46.5,47,46.5z    "/>
</g>
<g>
<path class="st1" d="M44,48.5h-1c-0.276,0-0.5-0.224-0.5-0.5s0.224-0.5,0.5-0.5h1c0.276,0,0.5,0.224,0.5,0.5S44.276,48.5,44,48.5z    "/>
</g>
<g>
<path class="st1" d="M47,48.5h-1c-0.276,0-0.5-0.224-0.5-0.5s0.224-0.5,0.5-0.5h1c0.276,0,0.5,0.224,0.5,0.5S47.276,48.5,47,48.5z    "/>
</g>
<g>
<path class="st1" d="M44,50.5h-1c-0.276,0-0.5-0.224-0.5-0.5s0.224-0.5,0.5-0.5h1c0.276,0,0.5,0.224,0.5,0.5S44.276,50.5,44,50.5z    "/>
</g>
<g>
<path class="st1" d="M47,50.5h-1c-0.276,0-0.5-0.224-0.5-0.5s0.224-0.5,0.5-0.5h1c0.276,0,0.5,0.224,0.5,0.5S47.276,50.5,47,50.5z    "/>
</g>
<g>
<path class="st1" d="M44,52.5h-1c-0.276,0-0.5-0.224-0.5-0.5s0.224-0.5,0.5-0.5h1c0.276,0,0.5,0.224,0.5,0.5S44.276,52.5,44,52.5z    "/>
</g>
<g>
<path class="st1" d="M47,52.5h-1c-0.276,0-0.5-0.224-0.5-0.5s0.224-0.5,0.5-0.5h1c0.276,0,0.5,0.224,0.5,0.5S47.276,52.5,47,52.5z    "/>
</g>
<g>
<path class="st1" d="M44,54.5h-1c-0.276,0-0.5-0.224-0.5-0.5s0.224-0.5,0.5-0.5h1c0.276,0,0.5,0.224,0.5,0.5S44.276,54.5,44,54.5z    "/>
</g>
<g>
<path class="st1" d="M47,54.5h-1c-0.276,0-0.5-0.224-0.5-0.5s0.224-0.5,0.5-0.5h1c0.276,0,0.5,0.224,0.5,0.5S47.276,54.5,47,54.5z    "/>
</g>
<g>
<path class="st1" d="M46,40.5h-2c-0.276,0-0.5-0.224-0.5-0.5s0.224-0.5,0.5-0.5h2c0.276,0,0.5,0.224,0.5,0.5S46.276,40.5,46,40.5z    "/>
</g>
<g>
<path class="st1" d="M46,38.5h-2c-0.276,0-0.5-0.224-0.5-0.5s0.224-0.5,0.5-0.5h2c0.276,0,0.5,0.224,0.5,0.5S46.276,38.5,46,38.5z    "/>
</g>
<g>
<path class="st1" d="M46,36.5h-2c-0.276,0-0.5-0.224-0.5-0.5s0.224-0.5,0.5-0.5h2c0.276,0,0.5,0.224,0.5,0.5S46.276,36.5,46,36.5z    "/>
</g>
<g>
<path class="st1" d="M45.5,32.5h-1c-0.276,0-0.5-0.224-0.5-0.5s0.224-0.5,0.5-0.5h1c0.276,0,0.5,0.224,0.5,0.5    S45.776,32.5,45.5,32.5z"/>
</g>
<g>
<path class="st1" d="M45.5,30.5h-1c-0.276,0-0.5-0.224-0.5-0.5s0.224-0.5,0.5-0.5h1c0.276,0,0.5,0.224,0.5,0.5    S45.776,30.5,45.5,30.5z"/>
</g>
<g>
<path class="st1" d="M49,24.5h-8c-0.276,0-0.5-0.224-0.5-0.5s0.224-0.5,0.5-0.5h8c0.276,0,0.5,0.224,0.5,0.5S49.276,24.5,49,24.5z    "/>
</g>
<g>
<path class="st1" d="M50,28.5H40c-0.276,0-0.5-0.224-0.5-0.5s0.224-0.5,0.5-0.5h10c0.276,0,0.5,0.224,0.5,0.5S50.276,28.5,50,28.5    z"/>
</g>
<g>
<path class="st1" d="M51,34.5H39c-0.276,0-0.5-0.224-0.5-0.5s0.224-0.5,0.5-0.5h12c0.276,0,0.5,0.224,0.5,0.5S51.276,34.5,51,34.5    z"/>
</g>
<g>
<path class="st1" d="M52,42.5H38c-0.276,0-0.5-0.224-0.5-0.5s0.224-0.5,0.5-0.5h14c0.276,0,0.5,0.224,0.5,0.5S52.276,42.5,52,42.5    z"/>
</g>
<g>
<path class="st1" d="M48,20.5h-6c-0.276,0-0.5-0.224-0.5-0.5s0.224-0.5,0.5-0.5h6c0.276,0,0.5,0.224,0.5,0.5S48.276,20.5,48,20.5z    "/>
</g>
<g>
<path class="st1" d="M47,22.5h-4c-0.276,0-0.5-0.224-0.5-0.5s0.224-0.5,0.5-0.5h4c0.276,0,0.5,0.224,0.5,0.5S47.276,22.5,47,22.5z    "/>
</g>
<g>
<path class="st1" d="M39,49.5H25c-0.276,0-0.5-0.224-0.5-0.5v-2c0-0.276,0.224-0.5,0.5-0.5h14c0.276,0,0.5,0.224,0.5,0.5v2    C39.5,49.276,39.276,49.5,39,49.5z M25.5,48.5h13v-1h-13V48.5z"/>
</g>
<g>
<g>
<path class="st1" d="M36,54.5c-0.128,0-0.256-0.049-0.354-0.146c-1.488-1.488-2.951-3.483-3.646-4.472     c-0.695,0.989-2.159,2.984-3.646,4.472c-0.195,0.195-0.512,0.195-0.707,0s-0.195-0.512,0-0.707     c1.942-1.942,3.918-4.894,3.938-4.924c0.186-0.278,0.646-0.278,0.832,0c0.02,0.03,1.997,2.983,3.938,4.924     c0.195,0.195,0.195,0.512,0,0.707C36.256,54.451,36.128,54.5,36,54.5z"/>
</g>
</g>
<g>
<path class="st1" d="M32,15.5c-0.276,0-0.5-0.224-0.5-0.5c0-0.827-0.673-1.5-1.5-1.5c-0.534,0-1.032,0.288-1.3,0.75    c-0.139,0.239-0.446,0.32-0.683,0.182c-0.239-0.138-0.321-0.444-0.182-0.683C28.281,12.979,29.111,12.5,30,12.5    c1.378,0,2.5,1.122,2.5,2.5C32.5,15.276,32.276,15.5,32,15.5z"/>
</g>
<g>
<path class="st1" d="M32,15.5c-0.276,0-0.5-0.224-0.5-0.5c0-1.378,1.122-2.5,2.5-2.5c0.889,0,1.719,0.479,2.165,1.249    c0.139,0.239,0.057,0.545-0.182,0.683c-0.237,0.139-0.545,0.057-0.683-0.182c-0.268-0.462-0.766-0.75-1.3-0.75    c-0.827,0-1.5,0.673-1.5,1.5C32.5,15.276,32.276,15.5,32,15.5z"/>
</g>
<g>
<path class="st1" d="M33,15.5h-2c-0.276,0-0.5-0.224-0.5-0.5s0.224-0.5,0.5-0.5h2c0.276,0,0.5,0.224,0.5,0.5S33.276,15.5,33,15.5z    "/>
</g>
<g>
<path class="st1" d="M40,22.5h-3c-0.276,0-0.5-0.224-0.5-0.5s0.224-0.5,0.5-0.5h3c0.276,0,0.5,0.224,0.5,0.5S40.276,22.5,40,22.5z    "/>
</g>
<g>
<path class="st1" d="M54,13.5h-5c-0.276,0-0.5-0.224-0.5-0.5s0.224-0.5,0.5-0.5h5c0.276,0,0.5,0.224,0.5,0.5S54.276,13.5,54,13.5z    "/>
</g>
<g>
<path class="st1" d="M12,31.5H8c-0.276,0-0.5-0.224-0.5-0.5s0.224-0.5,0.5-0.5h4c0.276,0,0.5,0.224,0.5,0.5S12.276,31.5,12,31.5z"/>
</g>
</g>
</svg>