<?xml version="1.0" encoding="iso-8859-1"?>
<!-- Uploaded to: SVG Repo, www.svgrepo.com, Generator: SVG Repo Mixer Tools -->
<svg fill="#000000" version="1.1" id="Layer_1" xmlns="http://www.w3.org/2000/svg" xmlns:xlink="http://www.w3.org/1999/xlink" 
	 viewBox="0 0 290.625 290.625" xml:space="preserve">
<g>
	<g>
		<g>
			<path d="M290.625,46.874v-4.688H262.5v-18.75H225v18.75h-89.063v-18.75h-9.375v18.75H112.5V28.124h-9.375v14.063H93.75v-18.75
				h-37.5v18.75H32.813V28.124h-9.375v14.063H0v4.688c0,0.394,0.53,36.881,42.188,41.663v89.587c0,1.388,0.028,2.681,0.042,4.036
				c-0.605,3.234-8.953,47.02-20.911,65.766l-17.977,5.391l1.345,4.495H0v9.375h290.625v-9.375h-6.361
				c-7.575-17.461-7.702-41.93-7.702-42.188V85.729C283.092,81.314,290.625,71.025,290.625,46.874z M234.375,32.812h18.75v9.375
				h-18.75V32.812z M65.625,32.812h18.75v9.375h-18.75V32.812z M43.758,216.505c0.802,9.333,1.819,17.264,2.869,23.831
				l-12.689,3.806C37.772,235.846,41.081,225.913,43.758,216.505z M21,257.811l27.286-8.184c0.652,3.272,1.27,6.037,1.805,8.184H21z
				 M59.789,257.813c-2.316-8.761-8.227-35.498-8.227-79.688V89.062h51.563v126.563c0,1.064,0.108,23.503,6.98,42.188H59.789z
				 M126.563,168.267c-1.936,9.525-7.205,30.609-14.063,45.38V89.062h14.063V168.267z M127.162,201.908
				c0.375,7.523,0.895,14.423,1.523,20.569l-12.656,4.219C120.38,219.927,124.134,210.862,127.162,201.908z M120.197,257.811
				c-2.813-6.483-4.598-13.898-5.728-20.719l15.333-5.109c1.566,11.953,3.37,20.588,4.664,25.828H120.197z M144.164,257.813
				c-2.316-8.762-8.226-35.5-8.226-79.689V89.062H187.5v126.563c0,1.064,0.108,23.503,6.98,42.188H144.164z M210.938,163.527
				c-1.964,8.653-7.275,27.534-14.063,39.342V89.062h14.063V163.527z M211.195,194.408c0.131,4.397,0.3,8.597,0.52,12.53
				l-7.327,1.467C206.939,204.163,209.222,199.326,211.195,194.408z M204.572,257.812c-5.799-13.374-7.233-30.793-7.58-38.368
				l15.347-3.07c1.659,21.094,4.434,34.355,6.319,41.438H204.572z M228.403,257.812c-2.32-7.908-8.091-32.33-8.091-79.688V89.062
				h46.875v126.563c0.001,1.063,0.108,23.502,6.98,42.187H228.403z M267.188,79.687H51.563c-32.208,0-39.83-19.032-41.63-28.125
				H56.25h37.5H225h37.5h18.647C279.877,78.713,267.633,79.659,267.188,79.687z"/>
			<rect x="150" y="107.812" width="9.375" height="9.375"/>
			<rect x="168.75" y="126.562" width="9.375" height="9.375"/>
			<rect x="168.75" y="145.312" width="9.375" height="9.375"/>
			<rect x="168.75" y="107.812" width="9.375" height="9.375"/>
			<rect x="229.688" y="107.812" width="9.375" height="9.375"/>
			<rect x="248.438" y="126.562" width="9.375" height="9.375"/>
			<rect x="248.438" y="145.312" width="9.375" height="9.375"/>
			<rect x="248.438" y="107.812" width="9.375" height="9.375"/>
			<rect x="65.625" y="107.812" width="9.375" height="9.375"/>
			<rect x="84.375" y="126.562" width="9.375" height="9.375"/>
			<rect x="84.375" y="145.312" width="9.375" height="9.375"/>
			<rect x="84.375" y="164.062" width="9.375" height="9.375"/>
			<rect x="84.375" y="107.812" width="9.375" height="9.375"/>
		</g>
	</g>
</g>
</svg>