<svg width="1705" height="1580" viewBox="0 0 1705 1580" fill="none" xmlns="http://www.w3.org/2000/svg">
<path d="M720.575 17.2481C718.708 17.7814 713.775 19.9148 709.508 21.9148C704.175 24.4481 700.708 25.3814 698.308 24.8481C696.441 24.3148 692.975 24.5814 690.575 25.3814C686.975 26.5814 684.975 26.3148 679.375 24.0481C671.108 20.8481 669.908 20.7148 669.908 23.3814C669.908 26.0481 662.041 26.0481 658.441 23.3814C655.108 20.8481 653.241 20.8481 650.708 23.3814C649.641 24.5814 645.908 25.9148 642.575 26.5814C639.108 27.2481 635.641 28.4481 634.841 29.2481C633.108 30.9814 627.241 31.2481 627.241 29.5148C627.241 28.8481 623.108 27.5148 618.041 26.7148C609.641 25.1148 605.908 25.2481 587.641 27.6481C583.908 28.0481 581.908 27.7814 581.908 26.8481C581.908 24.4481 579.508 25.1148 576.041 28.7148C572.975 31.6481 571.641 32.0481 562.175 32.0481C543.508 32.0481 526.708 36.9814 517.908 44.8481C512.575 49.6481 510.441 50.4481 509.641 47.7814C509.241 46.5814 508.041 46.7148 505.508 48.4481C503.641 49.6481 500.575 50.7148 498.708 50.7148C496.841 50.7148 492.841 52.8481 489.375 55.9148C482.441 61.9148 477.775 63.6481 466.841 64.4481C460.175 64.9814 458.575 64.5814 455.508 62.0481C452.441 59.3814 451.641 59.2481 448.041 60.7148C445.508 61.6481 437.641 62.1814 428.441 62.1814C413.641 62.0481 412.841 61.9148 408.175 58.3148C404.708 55.7814 403.241 53.5148 403.241 51.1148C403.241 47.9148 403.108 47.7814 397.108 48.7148C393.641 49.1148 390.175 49.9148 389.375 50.1814C388.441 50.5814 385.508 56.1814 382.708 62.8481C379.908 69.5148 374.975 78.4481 371.775 82.5814C366.175 89.9148 365.241 90.7148 349.508 97.3814C335.508 103.248 331.641 105.648 324.175 112.581C316.841 119.248 315.241 121.515 315.241 124.848C315.241 127.515 313.508 131.248 310.308 135.515C306.041 141.115 305.108 143.381 304.441 151.381C303.775 158.448 303.908 161.248 305.375 162.848C306.441 163.915 307.241 165.781 307.241 166.848C307.241 169.248 290.708 185.381 280.175 193.515C275.908 196.715 270.308 200.981 267.908 202.848C264.441 205.515 260.841 206.581 251.241 207.781C239.508 209.248 230.308 212.715 230.841 215.515C230.975 216.181 230.575 217.248 229.908 218.048C229.375 218.715 227.775 223.115 226.575 227.648C223.908 236.981 223.241 237.781 212.708 243.381C206.041 246.981 204.841 248.315 200.708 256.715C198.175 262.181 195.908 269.381 195.241 273.915C194.308 282.315 195.108 281.248 179.375 294.448C175.641 297.648 171.908 301.515 171.108 303.115L169.508 306.048L172.708 303.381L175.775 300.715L172.708 305.381C169.908 309.781 167.641 314.448 162.175 327.115C160.975 330.048 158.708 332.848 157.108 333.515C155.375 334.048 153.241 336.315 152.175 338.315C149.775 342.981 146.575 363.248 147.775 366.315C148.575 368.315 149.108 368.048 151.775 364.715L154.841 360.848L157.775 366.448C160.575 371.915 163.241 373.781 163.241 370.315C163.375 369.515 164.441 370.848 165.908 373.381C169.108 379.248 169.508 388.315 166.575 387.248C165.375 386.715 164.175 387.381 163.641 388.848C163.108 390.181 163.375 391.381 164.308 391.781C165.375 392.048 165.375 393.115 164.308 395.515C162.975 398.181 163.241 399.248 165.775 401.781C169.375 405.781 170.575 410.048 171.775 422.848C172.708 432.448 172.575 433.648 167.908 445.515C164.708 453.648 162.841 460.981 162.441 466.581C161.775 476.848 158.041 484.048 149.241 491.781C142.708 497.515 142.041 498.715 145.375 498.715C148.441 498.715 156.575 507.248 156.575 510.581C156.575 512.315 157.375 513.381 158.841 513.381C160.575 513.381 160.708 513.781 159.508 514.981C157.241 517.248 157.508 519.115 159.775 518.315C161.108 517.781 161.508 518.181 161.108 519.381C160.575 520.581 162.041 522.315 164.841 524.048C168.175 526.048 168.575 526.715 166.708 526.715C165.241 526.715 163.108 525.781 161.775 524.581C159.641 522.715 159.375 522.715 158.041 525.115C157.241 526.581 156.975 528.048 157.508 528.581C157.908 528.981 158.175 533.515 158.041 538.715C157.775 547.115 158.041 548.448 160.841 550.715C162.575 552.181 164.575 553.248 165.241 553.381C166.041 553.381 166.708 554.715 166.841 556.181C166.975 557.781 167.775 559.781 168.575 560.581C170.175 562.181 178.975 562.315 182.441 560.715C184.441 559.915 184.708 560.048 183.908 561.248C182.708 563.381 185.375 565.248 189.908 565.515C192.708 565.648 192.841 565.781 190.575 566.315C189.108 566.715 187.108 567.648 186.175 568.315C184.308 569.915 184.041 572.581 185.908 571.381C186.708 570.981 187.241 571.515 187.241 572.715C187.241 575.115 190.308 578.715 192.441 578.715C193.108 578.715 194.175 579.915 194.575 581.381C195.641 584.715 197.775 584.848 200.041 581.648C201.641 579.648 201.775 579.781 201.908 583.115C201.908 585.648 202.441 586.581 203.508 585.915C204.441 585.381 204.575 585.515 204.041 586.448C203.508 587.248 204.175 589.515 205.375 591.381C207.775 595.115 218.708 603.248 223.108 604.715C225.241 605.381 225.908 606.448 225.508 608.048C225.108 609.515 226.175 611.648 227.908 613.381C229.641 614.981 231.375 617.781 231.775 619.515C232.308 621.248 233.241 622.715 234.041 622.715C234.841 622.715 234.708 623.781 233.775 625.648C232.441 628.048 232.708 628.848 234.708 630.448C237.108 632.181 236.975 632.315 233.508 631.515L229.641 630.581L232.041 634.581C233.241 636.715 235.775 639.115 237.508 639.915C239.241 640.715 240.575 642.181 240.308 643.248C240.041 644.315 241.375 646.448 243.108 647.915C246.175 650.581 246.175 650.715 243.508 650.715C238.975 650.715 238.841 653.115 243.508 654.048C251.108 655.781 271.108 666.048 273.641 669.648C274.575 670.981 277.775 673.248 280.708 674.715C283.508 676.181 285.908 678.048 285.908 678.848C285.908 679.515 288.708 681.381 292.041 682.715C295.508 684.315 302.708 689.781 309.108 695.915C318.041 704.448 322.441 707.515 333.375 712.715C340.575 716.181 348.175 719.781 350.308 720.848C353.641 722.715 354.708 722.581 365.641 718.581C372.041 716.315 377.908 713.915 378.708 713.248C382.308 710.315 393.241 707.781 409.241 705.915C426.575 703.915 449.908 703.781 449.908 705.648C449.908 706.315 452.441 706.715 455.641 706.715C458.708 706.848 463.641 707.781 466.575 708.848C476.041 712.448 476.708 712.448 480.575 709.648C482.575 708.181 487.908 705.915 492.308 704.715C496.841 703.648 505.508 700.315 511.508 697.381C517.641 694.448 524.841 691.648 527.641 691.115C530.308 690.715 532.575 689.915 532.575 689.248C532.575 687.781 528.575 684.048 526.975 684.048C526.175 684.048 525.775 683.648 526.175 683.248C527.508 681.915 532.308 685.248 533.241 688.048C534.308 691.515 538.575 690.581 542.841 685.915C546.975 681.515 560.308 678.581 577.108 678.581C586.975 678.581 591.375 678.048 593.641 676.581C595.375 675.381 597.108 674.848 597.641 675.248C598.041 675.648 597.641 676.048 596.841 676.048C595.908 676.048 595.241 676.448 595.241 676.981C595.241 677.648 598.708 678.048 602.975 678.181C612.708 678.181 621.508 682.848 625.241 689.915C626.708 692.581 628.708 694.715 629.641 694.715C630.575 694.715 630.975 695.381 630.575 696.181C630.041 696.981 630.841 697.915 632.441 698.315C634.841 698.981 634.975 699.381 633.641 701.115C632.308 702.715 632.308 703.248 633.641 703.648C634.441 704.048 635.241 705.515 635.241 706.848C635.241 712.715 642.175 721.515 648.175 723.248C649.775 723.781 651.375 723.648 651.775 722.848C652.175 722.181 653.775 721.915 655.241 722.315C656.708 722.715 660.041 722.581 662.708 722.181C666.575 721.381 667.108 720.848 665.908 719.248C663.908 716.981 666.041 716.715 668.308 718.981C669.508 720.181 670.308 720.181 671.508 718.981C673.775 716.715 676.708 716.981 675.775 719.381C675.241 720.448 675.641 721.381 676.441 721.381C677.375 721.381 678.308 720.581 678.708 719.648C679.108 718.315 682.308 717.648 688.308 717.515C693.241 717.381 697.508 716.715 697.641 715.915C698.441 713.915 700.575 714.581 700.575 716.715C700.575 718.048 701.908 718.715 704.308 718.715C707.108 718.715 708.441 719.781 709.908 722.981C712.441 728.448 719.775 732.981 722.441 730.848C723.775 729.781 724.575 729.648 725.241 730.715C725.641 731.381 725.375 732.048 724.708 732.048C722.175 732.048 723.108 735.515 727.375 741.381L731.508 746.981L729.508 756.715C728.441 762.048 727.908 768.048 728.175 769.915C728.708 772.181 727.641 775.515 725.108 779.648C719.508 788.848 718.975 790.715 721.241 791.515C722.308 792.048 723.241 793.781 723.241 795.515C723.241 797.781 722.308 798.848 719.908 799.515L716.441 800.315L719.375 805.248C720.841 807.915 721.375 809.248 720.441 808.315C717.508 805.515 716.975 806.448 717.108 814.048C717.108 820.715 716.708 821.915 713.108 825.248C710.175 827.915 708.441 828.715 707.108 827.915C706.041 827.248 704.841 826.715 704.175 826.715C702.975 826.715 706.575 835.381 709.641 840.048C711.775 843.248 712.041 843.915 712.441 846.715C712.441 847.381 713.908 848.048 715.508 848.048C717.775 848.048 718.041 848.448 716.841 849.648C714.308 852.181 714.841 853.248 719.641 855.381C722.041 856.448 722.575 856.981 720.841 856.581L717.775 855.781L721.375 861.381C724.308 865.781 725.775 866.848 728.175 866.315C729.775 866.048 730.841 866.181 730.575 866.848C730.175 867.381 730.975 868.181 732.175 868.448C733.508 868.715 732.975 868.848 730.841 868.715C725.641 868.448 726.841 870.448 735.775 877.115C739.908 880.315 746.575 886.981 750.441 891.781C754.441 896.715 759.775 902.848 762.575 905.381C765.241 907.915 768.575 912.181 769.775 914.715C771.108 917.248 773.375 921.648 774.975 924.448C776.575 927.248 777.775 931.115 777.641 933.115C777.508 935.115 780.841 944.048 784.975 952.981C789.108 961.915 793.108 971.515 793.775 974.315C794.575 977.115 796.975 982.981 799.241 987.248C804.441 997.515 804.441 1001.78 799.241 1004.98C797.108 1006.18 795.241 1008.18 795.241 1009.11C795.241 1012.18 806.175 1038.85 809.641 1044.58C812.841 1049.65 812.841 1050.31 811.641 1062.71C810.175 1077.65 807.641 1082.45 799.108 1086.71C796.041 1088.31 793.908 1090.45 793.908 1091.78C793.908 1093.11 791.775 1096.18 789.241 1098.71C786.041 1101.78 784.575 1104.45 784.575 1107.11C784.575 1109.11 783.908 1112.18 782.975 1113.78C782.175 1115.38 780.975 1119.65 780.441 1123.38C778.975 1134.31 774.175 1148.71 770.708 1152.45C767.908 1155.51 767.641 1156.31 768.841 1163.38C769.508 1167.65 769.775 1171.78 769.375 1172.58C769.108 1173.38 768.708 1172.98 768.708 1171.65C768.575 1170.45 767.908 1169.38 767.108 1169.38C766.175 1169.38 766.041 1170.31 766.708 1171.65C767.241 1172.98 767.908 1179.78 768.041 1186.71C768.175 1197.25 768.841 1200.58 771.641 1206.71C773.641 1210.85 777.108 1215.91 779.375 1218.05C781.641 1220.31 784.841 1224.71 786.575 1228.05C788.308 1231.38 791.775 1237.51 794.441 1241.91C796.975 1246.18 800.175 1252.71 801.375 1256.45C802.575 1260.18 806.308 1267.11 809.375 1271.78C812.575 1276.45 815.241 1280.98 815.241 1281.91C815.241 1282.85 816.841 1284.98 818.708 1286.85C820.575 1288.58 823.241 1291.78 824.575 1294.05C827.375 1298.58 829.641 1308.85 827.641 1307.65C826.841 1307.11 826.575 1312.45 826.975 1321.78C827.508 1333.91 828.175 1337.91 830.708 1342.85C832.575 1346.58 834.175 1353.38 835.108 1360.85C836.841 1376.45 837.908 1381.51 840.041 1384.85C841.108 1386.31 841.508 1387.91 841.108 1388.45C839.908 1389.65 845.108 1402.45 850.175 1411.11C853.775 1417.25 865.375 1429.11 869.508 1430.98C872.441 1432.18 878.308 1442.31 882.708 1453.51C888.975 1469.65 891.508 1474.58 899.508 1486.45C903.108 1491.91 906.975 1498.31 908.041 1500.71C911.908 1509.91 909.508 1518.71 903.108 1518.71C899.508 1518.71 899.908 1522.71 903.908 1526.58C905.775 1528.31 907.241 1530.31 907.241 1530.98C907.241 1531.65 908.441 1534.05 910.041 1536.18C912.441 1539.65 912.575 1540.71 911.241 1544.85C910.308 1547.38 910.041 1550.31 910.441 1551.38C911.508 1554.31 914.841 1553.78 915.641 1550.71C916.575 1547.11 920.308 1547.38 920.841 1550.98C921.108 1553.38 922.308 1554.18 925.641 1554.45C928.041 1554.71 930.441 1555.78 930.841 1556.85C932.441 1561.11 948.441 1564.85 950.575 1561.38C952.708 1557.91 963.641 1554.85 974.041 1554.85C983.775 1554.85 985.375 1554.45 990.175 1551.25C995.108 1547.78 996.708 1547.51 1009.11 1547.11C1032.31 1546.58 1035.37 1546.71 1042.97 1548.71C1049.51 1550.31 1050.71 1550.31 1052.57 1548.71C1054.04 1547.38 1057.51 1546.71 1062.31 1546.71C1068.97 1546.71 1069.77 1546.45 1070.17 1543.65C1070.57 1540.98 1071.24 1540.71 1080.57 1540.58C1089.37 1540.58 1091.77 1539.91 1099.91 1535.78C1112.97 1529.11 1127.37 1518.45 1139.91 1506.45C1145.77 1500.85 1153.77 1493.91 1157.64 1491.11C1164.84 1485.91 1180.97 1465.38 1185.77 1455.38C1188.97 1448.71 1194.97 1442.58 1204.84 1435.78C1213.51 1429.91 1215.51 1426.71 1217.91 1415.38C1218.84 1410.98 1220.71 1404.45 1222.17 1400.71C1223.64 1397.11 1224.44 1393.11 1224.17 1391.91C1223.77 1390.71 1223.91 1385.65 1224.44 1380.85C1225.24 1372.98 1225.11 1371.78 1222.84 1370.31C1220.31 1368.71 1220.31 1368.45 1222.44 1364.31C1225.51 1358.45 1229.77 1356.05 1249.24 1349.51C1261.24 1345.38 1267.24 1342.58 1271.24 1338.98C1278.44 1332.85 1283.77 1321.25 1278.44 1323.25C1276.71 1323.91 1276.44 1323.25 1277.24 1318.45C1277.77 1315.25 1278.97 1310.98 1280.04 1308.85C1281.24 1306.31 1281.51 1304.58 1280.71 1304.05C1279.91 1303.65 1279.51 1299.91 1279.64 1295.78C1279.91 1288.05 1277.91 1285.11 1276.44 1290.98C1276.04 1292.71 1275.64 1290.71 1275.77 1286.71C1275.77 1281.91 1274.84 1277.51 1272.97 1274.05C1271.24 1270.58 1270.44 1267.25 1270.84 1264.45C1271.37 1260.85 1270.84 1259.38 1267.37 1256.18C1263.51 1252.58 1263.11 1251.51 1263.37 1245.51C1263.64 1239.78 1264.17 1238.71 1266.31 1238.71C1267.91 1238.71 1272.97 1234.58 1278.44 1228.98C1283.77 1223.65 1289.77 1218.85 1292.17 1218.05C1294.97 1217.11 1299.64 1212.98 1305.51 1206.05C1310.57 1200.18 1316.97 1193.78 1319.91 1191.78C1326.04 1187.65 1342.97 1180.45 1349.91 1179.25C1352.44 1178.71 1356.04 1176.98 1357.91 1175.38C1359.77 1173.65 1363.77 1171.11 1366.97 1169.51C1370.17 1167.91 1373.11 1165.51 1373.51 1164.31C1374.71 1161.25 1383.64 1149.25 1387.11 1146.18C1392.31 1141.51 1396.04 1123.38 1392.04 1121.91C1390.97 1121.51 1390.44 1120.18 1390.84 1118.58C1391.24 1117.25 1390.97 1116.05 1390.31 1116.05C1389.77 1116.05 1389.11 1110.18 1388.97 1102.98C1388.71 1093.38 1388.17 1090.18 1386.97 1090.45C1386.04 1090.71 1386.44 1089.65 1387.77 1088.18C1389.64 1086.18 1389.91 1084.98 1388.84 1083.78C1388.17 1082.85 1387.11 1076.31 1386.57 1069.38C1385.91 1059.51 1386.17 1055.38 1387.77 1050.71C1388.84 1047.38 1389.24 1044.58 1388.57 1044.31C1387.91 1044.05 1387.77 1042.98 1388.17 1041.91C1389.11 1039.38 1384.31 1034.31 1376.97 1029.91C1373.77 1028.18 1371.24 1026.45 1371.24 1026.31C1371.11 1022.05 1368.17 1009.91 1366.97 1008.45C1366.04 1007.25 1365.24 1005.65 1365.24 1004.85C1365.11 1004.05 1364.31 1001.78 1363.24 999.781C1361.77 996.715 1361.77 994.848 1363.24 988.981C1364.71 982.581 1364.71 981.381 1362.57 978.315C1360.44 974.981 1360.44 974.581 1363.11 970.315C1364.71 967.781 1365.91 964.981 1365.91 964.048C1365.91 963.115 1362.71 959.115 1358.71 955.115C1354.71 951.115 1351.11 946.448 1350.71 944.715C1350.17 942.848 1351.37 937.781 1353.77 931.781C1355.91 926.448 1358.17 920.448 1358.57 918.448C1359.11 916.448 1360.71 914.448 1362.17 913.915C1363.91 913.381 1367.11 908.315 1371.51 899.248C1375.11 891.648 1378.71 885.115 1379.37 884.715C1380.04 884.181 1380.57 881.915 1380.57 879.648C1380.57 874.048 1383.64 869.781 1388.31 868.848C1392.71 867.781 1401.64 859.915 1400.84 857.648C1400.57 856.715 1401.51 856.048 1402.84 856.048C1406.17 856.048 1409.51 852.315 1416.04 841.381C1421.77 831.781 1446.57 804.848 1464.31 789.115C1472.17 782.181 1480.31 776.448 1489.24 771.781C1501.11 765.648 1504.44 762.981 1519.91 747.515C1540.57 726.715 1548.44 718.048 1551.64 711.915C1552.84 709.381 1557.77 701.781 1562.57 694.981C1567.24 688.315 1571.51 681.248 1571.91 679.381C1572.31 677.515 1572.84 674.715 1573.24 672.981C1573.51 671.381 1576.31 666.315 1579.24 661.648C1582.31 657.115 1585.77 650.715 1587.11 647.648C1588.44 644.581 1590.57 641.115 1591.77 640.048C1593.11 639.115 1596.31 633.915 1598.84 628.848C1601.37 623.648 1604.57 618.181 1606.04 616.715C1607.51 615.115 1609.11 610.048 1610.04 604.048C1610.97 598.581 1612.57 592.981 1613.64 591.648C1616.17 588.715 1618.04 574.448 1616.17 573.115C1615.24 572.581 1615.64 570.048 1617.11 566.048C1618.57 562.315 1619.11 559.381 1618.31 558.581C1617.64 557.915 1614.31 556.981 1610.71 556.581C1604.84 555.781 1604.17 555.915 1600.57 559.781C1598.57 562.048 1595.11 564.315 1592.97 564.715C1590.97 565.115 1585.91 566.448 1581.91 567.648C1577.91 568.848 1570.71 569.915 1565.91 569.915C1561.11 570.048 1555.77 570.848 1554.04 571.915C1551.77 573.115 1548.44 573.515 1542.71 572.848C1535.11 572.048 1534.44 572.315 1525.64 577.515L1516.44 583.115L1508.44 580.848L1500.57 578.715L1493.51 582.581C1489.77 584.715 1483.77 587.248 1480.44 588.048C1474.97 589.381 1473.37 589.248 1468.31 586.981C1464.97 585.515 1460.31 581.915 1457.77 578.715C1455.24 575.648 1451.91 571.515 1450.31 569.648C1447.77 566.448 1446.57 566.048 1439.51 566.048C1430.84 566.048 1430.97 565.515 1441.64 560.715C1449.64 556.981 1450.71 555.248 1448.71 549.115C1447.11 544.448 1441.37 537.248 1439.64 537.515C1436.84 538.048 1435.24 537.248 1435.24 535.248C1435.24 534.048 1433.51 532.448 1431.24 531.648C1428.71 530.715 1427.11 528.981 1426.57 526.581C1425.64 522.581 1421.77 518.715 1415.51 515.515C1413.24 514.315 1409.77 510.981 1408.04 508.181C1403.64 501.248 1399.11 497.915 1392.44 496.848C1386.44 495.915 1379.24 492.581 1379.24 490.848C1379.24 490.315 1378.04 488.448 1376.71 486.848C1375.24 485.115 1373.77 483.115 1373.51 482.315C1372.57 479.381 1369.64 483.115 1370.44 486.581C1370.97 489.648 1370.84 489.515 1369.24 485.781C1368.17 483.515 1366.57 481.115 1365.64 480.448C1363.24 478.981 1360.57 471.648 1358.57 460.715C1356.71 450.581 1355.91 448.448 1348.97 433.648C1346.31 427.915 1343.64 424.048 1342.44 424.048C1341.37 424.048 1337.64 421.381 1334.17 418.181C1330.71 414.981 1326.57 412.048 1324.97 411.515C1323.37 410.981 1321.51 408.848 1320.71 406.581C1318.84 401.248 1316.17 375.515 1316.97 370.315C1317.24 367.781 1316.84 365.381 1315.77 364.315C1313.24 361.781 1313.37 359.248 1315.91 361.381C1319.91 364.715 1319.37 361.648 1315.24 356.848C1312.57 353.915 1310.71 350.048 1310.17 346.448C1309.37 341.781 1307.91 339.515 1301.91 333.915C1297.91 330.181 1292.57 326.048 1290.31 324.848C1284.97 322.181 1279.24 311.648 1279.24 304.581C1279.24 300.048 1279.51 299.781 1282.57 300.581C1284.44 301.115 1285.91 301.115 1285.91 300.715C1285.91 300.448 1283.11 297.515 1279.77 294.448C1276.17 291.115 1271.77 285.115 1269.37 280.048C1266.97 275.248 1261.37 265.381 1256.97 258.048C1252.44 250.715 1247.51 240.848 1245.91 236.181C1244.31 231.515 1241.51 225.648 1239.64 223.115C1236.71 219.248 1236.44 218.315 1238.04 217.248C1239.51 216.315 1238.57 214.848 1233.51 210.048C1230.04 206.581 1225.77 201.515 1223.91 198.715C1222.17 195.915 1220.04 193.248 1219.37 192.848C1218.57 192.315 1218.31 191.115 1218.71 190.048C1219.11 188.981 1218.31 186.048 1216.71 183.648C1213.64 178.715 1213.11 174.048 1215.24 172.715C1216.04 172.315 1216.57 172.981 1216.57 174.315C1216.57 175.648 1219.24 180.315 1222.57 184.715C1226.17 189.515 1228.57 194.048 1228.57 196.181C1228.57 198.848 1230.84 201.915 1237.77 208.315C1242.71 213.115 1248.04 217.248 1249.64 217.648C1253.51 218.715 1257.24 214.181 1257.37 208.181C1257.51 203.648 1258.84 198.981 1264.84 182.981C1266.71 178.181 1267.11 175.515 1266.17 174.315C1265.37 173.515 1262.17 166.048 1258.84 157.781L1252.84 142.848L1256.04 139.915C1257.77 138.315 1259.24 136.448 1259.24 135.781C1259.24 133.781 1255.64 134.715 1253.11 137.515C1248.17 142.981 1243.51 144.448 1233.77 143.515C1228.04 142.848 1224.57 143.115 1223.91 143.915C1222.71 146.048 1215.77 145.648 1213.91 143.381C1213.11 142.315 1210.97 141.115 1209.51 140.581C1207.91 140.181 1205.77 138.981 1204.71 138.181C1202.84 136.715 1196.44 136.048 1183.24 136.048C1168.97 136.048 1167.24 136.315 1167.24 138.981C1167.24 140.848 1166.44 141.515 1164.17 141.115C1162.57 140.981 1159.37 142.048 1157.24 143.515C1151.24 147.781 1144.97 150.715 1142.17 150.715C1140.71 150.715 1136.97 149.515 1133.77 148.048C1130.57 146.581 1125.64 145.381 1122.97 145.381C1120.31 145.381 1117.64 144.715 1117.24 144.048C1116.84 143.248 1114.57 142.715 1112.44 142.715C1110.31 142.715 1107.11 141.781 1105.51 140.715C1103.77 139.648 1098.04 138.181 1092.71 137.381C1087.37 136.581 1080.44 135.381 1077.24 134.581C1073.24 133.515 1070.17 133.515 1066.44 134.581C1059.11 136.581 1058.17 136.448 1057.11 132.981C1055.24 126.715 1052.71 125.381 1042.97 125.381C1037.91 125.381 1032.44 124.715 1030.84 123.781C1029.24 122.981 1024.97 121.648 1021.24 120.848C1015.37 119.515 1014.57 118.848 1014.17 115.648C1013.77 112.448 1012.71 111.781 1002.57 108.581C990.041 104.715 984.175 104.715 969.775 108.981C958.041 112.448 949.908 117.115 946.308 122.581C942.575 128.181 942.441 133.248 945.908 140.048C948.975 146.181 948.175 149.515 942.441 154.848C936.441 160.448 930.175 163.115 925.375 162.181C923.108 161.648 917.908 158.981 913.775 156.048C904.041 149.248 885.508 143.115 870.175 141.515C862.841 140.715 856.708 139.381 854.575 137.915C850.708 135.381 847.241 129.515 847.241 125.648C847.241 120.715 842.308 116.448 835.641 115.381C832.175 114.848 827.241 113.381 824.575 112.048C822.041 110.848 816.975 109.248 813.241 108.715C809.641 108.181 805.508 107.248 804.175 106.448C802.575 105.648 798.708 105.648 792.708 106.848C783.908 108.315 783.241 108.315 776.175 104.848C767.641 100.848 763.908 100.448 762.175 103.648C760.308 106.715 756.575 104.848 756.575 100.715C756.575 97.1148 752.441 94.3148 751.508 97.1148C750.841 99.2481 747.108 99.1148 747.508 97.1148C747.775 96.1814 746.441 95.2481 744.575 94.9814C737.241 94.0481 731.775 89.1148 733.241 84.9814C733.641 84.0481 736.041 82.1814 738.575 80.9814C741.108 79.7814 744.708 77.5148 746.575 75.7814C751.508 71.6481 758.175 61.6481 756.708 60.8481C756.175 60.4481 755.241 58.3148 754.841 56.1814C754.175 53.2481 752.575 51.3814 748.575 49.3814C744.175 47.1148 743.241 46.0481 743.241 42.7148C743.241 40.4481 743.775 38.7148 744.441 38.7148C747.508 38.7148 753.908 31.5148 754.708 27.2481C755.108 24.7148 755.241 22.1814 754.708 21.7814C754.308 21.3814 751.641 22.4481 748.975 24.3148C741.908 28.8481 739.241 29.7814 739.241 27.2481C739.241 26.1814 738.308 24.9814 737.108 24.4481C735.641 23.9148 735.508 23.3814 736.575 22.7148C739.375 20.9814 736.441 18.4481 732.441 18.9814C730.308 19.3814 728.841 18.9814 728.975 18.1814C729.375 16.4481 724.841 15.9148 720.575 17.2481ZM177.641 524.981C176.308 525.248 174.175 525.248 172.975 524.981C171.641 524.581 172.708 524.315 175.241 524.315C177.775 524.315 178.841 524.581 177.641 524.981ZM195.241 558.715C195.241 559.381 194.041 560.048 192.441 560.048C190.975 560.048 190.175 559.381 190.575 558.715C190.975 557.915 192.308 557.381 193.375 557.381C194.441 557.381 195.241 557.915 195.241 558.715Z" fill="#1B1B1B" stroke="#CCFF00" stroke-width="33"/>
<path d="M212.975 191.248C209.775 193.915 209.641 194.715 211.108 196.581C213.508 199.381 214.175 199.248 218.441 195.381C225.375 188.848 220.308 184.981 212.975 191.248Z" fill="#1B1B1B" stroke="#CCFF00" stroke-width="33"/>
<path d="M121.108 198.048C120.041 200.582 124.175 207.115 126.308 206.315C127.908 205.782 130.041 197.915 128.841 196.715C127.375 195.248 121.775 196.182 121.108 198.048Z" fill="#1B1B1B" stroke="#CCFF00" stroke-width="33"/>
<path d="M205.108 202.982C203.908 205.382 201.374 208.982 199.508 210.982L196.041 214.715H199.774C205.641 214.715 211.108 211.115 212.308 206.315C212.974 204.048 213.241 201.248 212.841 200.315C211.774 197.115 207.374 198.715 205.108 202.982Z" fill="#1B1B1B" stroke="#CCFF00" stroke-width="33"/>
<path d="M155.908 203.248C154.441 204.181 151.241 205.515 148.974 206.048C146.574 206.448 144.574 207.248 144.574 207.648C144.574 210.048 150.308 217.115 151.774 216.581C154.574 215.515 163.508 204.181 162.574 202.715C161.374 200.848 158.974 201.115 155.908 203.248Z" fill="#1B1B1B" stroke="#CCFF00" stroke-width="33"/>
<path d="M136.574 211.381C134.574 213.781 135.908 216.048 139.241 216.048C140.574 216.048 142.174 215.381 142.574 214.715C143.508 213.248 140.974 209.381 139.241 209.381C138.708 209.381 137.508 210.315 136.574 211.381Z" fill="#1B1B1B" stroke="#CCFF00" stroke-width="33"/>
<path d="M170.174 212.315C165.774 216.715 170.974 224.448 176.441 221.515C179.641 219.781 180.441 217.381 179.108 213.648C177.908 210.448 172.841 209.648 170.174 212.315Z" fill="#1B1B1B" stroke="#CCFF00" stroke-width="33"/>
<path d="M119.374 218.848C116.841 219.915 116.574 220.448 117.908 222.048C120.174 224.848 123.641 224.581 125.508 221.515C126.841 219.381 126.708 218.848 125.108 218.181C123.908 217.781 122.974 217.381 122.841 217.515C122.708 217.515 121.108 218.181 119.374 218.848Z" fill="#1B1B1B" stroke="#CCFF00" stroke-width="33"/>
<path d="M1244.57 222.448C1244.57 223.115 1245.51 224.181 1246.71 224.581C1248.04 225.115 1248.57 224.715 1248.31 223.781C1247.64 221.781 1244.57 220.715 1244.57 222.448Z" fill="#1B1B1B" stroke="#CCFF00" stroke-width="33"/>
<path d="M18.3078 450.181C16.8411 450.848 15.7744 456.048 17.1078 456.048C19.6411 456.048 25.9078 452.715 25.5078 451.515C24.9744 449.915 20.8411 449.115 18.3078 450.181Z" fill="#1B1B1B" stroke="#CCFF00" stroke-width="33"/>
<path d="M23.6411 455.648C20.9745 456.715 21.6411 458.715 24.5745 458.715C26.0411 458.715 27.2411 457.782 27.2411 456.715C27.2411 454.715 26.4411 454.448 23.6411 455.648Z" fill="#1B1B1B" stroke="#CCFF00" stroke-width="33"/>
<path d="M66.7079 455.782C65.6413 457.515 68.0413 462.715 69.9079 462.715C71.7746 462.715 71.5079 459.648 69.5079 456.715C68.1746 455.115 67.3746 454.848 66.7079 455.782Z" fill="#1B1B1B" stroke="#CCFF00" stroke-width="33"/>
<path d="M29.2412 458.715C28.8412 459.381 29.1078 460.048 29.7745 460.048C30.5745 460.048 31.2412 459.381 31.2412 458.715C31.2412 457.915 30.9745 457.381 30.7078 457.381C30.3078 457.381 29.6412 457.915 29.2412 458.715Z" fill="#1B1B1B" stroke="#CCFF00" stroke-width="33"/>
<path d="M37.5075 460.848C35.6409 462.715 38.3075 464.848 41.9075 464.315C46.7075 463.648 47.1075 462.048 42.9742 460.848C39.1075 459.915 38.5742 459.915 37.5075 460.848Z" fill="#1B1B1B" stroke="#CCFF00" stroke-width="33"/>
<path d="M1373.91 469.114C1373.91 469.914 1374.57 470.714 1375.37 470.981C1376.44 471.381 1376.17 472.314 1374.71 473.781C1373.37 474.981 1372.97 476.048 1373.77 476.048C1374.57 476.048 1374.84 476.981 1374.44 478.048C1373.37 480.581 1375.77 480.581 1377.91 478.048C1378.71 476.981 1378.97 475.381 1378.44 474.448C1377.77 473.514 1377.24 471.914 1377.24 470.848C1377.24 468.714 1373.91 467.114 1373.91 469.114Z" fill="#1B1B1B" stroke="#CCFF00" stroke-width="33"/>
<path d="M68.041 471.514C66.441 475.781 70.841 477.781 73.7744 474.181C75.1077 472.581 74.841 471.914 72.7077 470.848C69.241 468.981 68.9744 468.981 68.041 471.514Z" fill="#1B1B1B" stroke="#CCFF00" stroke-width="33"/>
<path d="M1381.24 477.381C1380.17 479.114 1381.11 480.581 1383.11 479.914C1383.91 479.514 1384.04 478.581 1383.37 477.514C1382.57 476.181 1382.04 476.181 1381.24 477.381Z" fill="#1B1B1B" stroke="#CCFF00" stroke-width="33"/>
<path d="M61.9077 492.048C61.9077 493.515 62.5744 494.715 63.241 494.715C64.041 494.715 64.5744 493.515 64.5744 492.048C64.5744 490.582 64.041 489.382 63.241 489.382C62.5744 489.382 61.9077 490.582 61.9077 492.048Z" fill="#1B1B1B" stroke="#CCFF00" stroke-width="33"/>
<path d="M50.8411 491.648C47.6411 494.715 52.9744 501.248 57.3744 499.515C59.9077 498.582 59.7744 496.582 56.5744 493.382C53.7744 490.582 52.3077 490.182 50.8411 491.648Z" fill="#1B1B1B" stroke="#CCFF00" stroke-width="33"/>
<path d="M1433.24 512.048C1432.31 513.648 1433.51 516.048 1435.37 516.048C1436.97 516.048 1436.97 512.448 1435.37 511.381C1434.71 510.981 1433.77 511.248 1433.24 512.048Z" fill="#1B1B1B" stroke="#CCFF00" stroke-width="33"/>
<path d="M1431.24 520.048C1431.24 520.715 1431.77 521.381 1432.44 521.381C1433.24 521.381 1434.17 520.715 1434.57 520.048C1434.97 519.248 1434.44 518.715 1433.37 518.715C1432.17 518.715 1431.24 519.248 1431.24 520.048Z" fill="#1B1B1B" stroke="#CCFF00" stroke-width="33"/>
<path d="M1663.24 542.048C1662.04 543.381 1662.44 544.581 1664.44 546.581C1668.04 550.181 1675.37 550.181 1683.24 546.581C1688.84 544.048 1688.97 543.781 1686.57 542.315C1682.57 540.048 1665.11 539.915 1663.24 542.048Z" fill="#1B1B1B" stroke="#CCFF00" stroke-width="33"/>
<path d="M1635.24 550.581C1635.24 551.914 1641.91 553.914 1642.97 552.714C1644.04 551.781 1643.11 551.248 1638.97 550.181C1636.84 549.781 1635.24 549.914 1635.24 550.581Z" fill="#1B1B1B" stroke="#CCFF00" stroke-width="33"/>
<path d="M1655.24 552.048C1655.24 552.715 1655.91 553.381 1656.57 553.381C1657.37 553.381 1657.91 552.715 1657.91 552.048C1657.91 551.248 1657.37 550.715 1656.57 550.715C1655.91 550.715 1655.24 551.248 1655.24 552.048Z" fill="#1B1B1B" stroke="#CCFF00" stroke-width="33"/>
<path d="M165.108 566.981C164.441 568.048 164.841 568.181 166.308 567.648C167.641 567.115 168.575 567.381 168.575 568.181C168.575 568.981 169.375 569.381 170.441 568.981C171.375 568.581 172.975 568.981 173.775 569.781C174.975 570.981 175.641 570.848 176.575 569.381C178.441 566.581 178.175 565.381 175.908 565.381C174.841 565.381 173.908 565.915 173.908 566.715C173.908 567.515 172.708 567.515 170.441 566.715C166.175 565.115 166.308 565.115 165.108 566.981Z" fill="#1B1B1B" stroke="#CCFF00" stroke-width="33"/>
<path d="M179.908 568.048C179.508 568.715 179.641 569.381 180.441 569.381C181.108 569.381 182.175 568.715 182.575 568.048C182.975 567.248 182.841 566.715 182.041 566.715C181.375 566.715 180.308 567.248 179.908 568.048Z" fill="#1B1B1B" stroke="#CCFF00" stroke-width="33"/>
<path d="M169.241 572.048C168.841 572.715 169.108 573.381 169.774 573.381C170.574 573.381 171.241 572.715 171.241 572.048C171.241 571.248 170.974 570.715 170.708 570.715C170.308 570.715 169.641 571.248 169.241 572.048Z" fill="#1B1B1B" stroke="#CCFF00" stroke-width="33"/>
<path d="M180.574 571.915C180.574 572.715 179.774 572.981 178.974 572.715C176.308 571.781 173.774 574.048 174.708 576.448C175.641 578.848 177.908 579.515 177.908 577.381C177.908 576.581 177.241 576.048 176.441 576.048C175.774 576.048 175.508 575.381 175.908 574.715C176.574 573.648 177.374 573.648 178.574 574.715C179.774 575.648 180.708 575.515 181.774 574.181C182.841 572.848 182.974 572.048 181.908 571.381C181.241 570.981 180.574 571.115 180.574 571.915Z" fill="#1B1B1B" stroke="#CCFF00" stroke-width="33"/>
<path d="M168.841 576.314C169.508 578.314 172.575 578.714 172.708 576.714C172.708 575.914 171.775 575.114 170.441 574.981C169.108 574.581 168.441 575.114 168.841 576.314Z" fill="#1B1B1B" stroke="#CCFF00" stroke-width="33"/>
<path d="M706.308 731.648C705.375 732.048 704.575 732.981 704.575 733.914C704.575 734.981 703.241 737.381 701.641 739.381C698.841 742.981 698.841 743.114 701.241 744.848C705.241 747.781 706.975 747.114 709.908 741.514C713.375 734.714 711.508 729.781 706.308 731.648Z" fill="#1B1B1B" stroke="#CCFF00" stroke-width="33"/>
<path d="M677.108 778.848C676.708 779.648 676.974 780.981 677.774 781.781C678.841 782.848 679.241 782.448 679.241 780.314C679.241 777.114 678.574 776.581 677.108 778.848Z" fill="#1B1B1B" stroke="#CCFF00" stroke-width="33"/>
<path d="M1368.04 923.648C1368.17 927.248 1368.71 929.914 1369.11 929.648C1369.51 929.514 1370.44 929.381 1371.11 929.381C1372.84 929.381 1373.77 920.981 1372.31 918.981C1369.37 915.514 1367.77 917.381 1368.04 923.648Z" fill="#1B1B1B" stroke="#CCFF00" stroke-width="33"/>
<path d="M1358.44 937.915C1357.37 940.715 1358.44 948.715 1359.77 948.315C1360.44 948.048 1361.51 948.715 1362.17 949.915C1362.84 951.115 1363.91 952.048 1364.44 952.048C1366.71 952.048 1367.24 947.648 1365.51 945.515C1364.44 944.315 1363.24 941.781 1362.71 939.648C1361.77 935.781 1359.64 934.848 1358.44 937.915Z" fill="#1B1B1B" stroke="#CCFF00" stroke-width="33"/>
<path d="M1369.64 980.581C1367.51 982.181 1365.91 983.915 1365.91 984.448C1365.91 986.315 1369.51 985.381 1371.77 982.848C1375.37 978.848 1373.77 977.248 1369.64 980.581Z" fill="#1B1B1B" stroke="#CCFF00" stroke-width="33"/>
<path d="M1513.91 1021.38C1513.91 1022.05 1514.57 1022.71 1515.24 1022.71C1516.04 1022.71 1516.57 1022.05 1516.57 1021.38C1516.57 1020.58 1516.04 1020.05 1515.24 1020.05C1514.57 1020.05 1513.91 1020.58 1513.91 1021.38Z" fill="#1B1B1B" stroke="#CCFF00" stroke-width="33"/>
<path d="M1444.04 1058.18C1442.57 1061.91 1443.24 1064.98 1445.91 1067.38C1450.04 1071.11 1451.91 1068.45 1449.77 1061.51C1448.17 1055.91 1445.51 1054.45 1444.04 1058.18Z" fill="#1B1B1B" stroke="#CCFF00" stroke-width="33"/>
<path d="M1571.64 1071.65C1570.31 1075.65 1566.97 1078.71 1564.17 1078.71C1561.64 1078.71 1561.64 1078.85 1563.64 1081.11C1564.97 1082.45 1565.91 1084.98 1565.91 1086.85C1565.91 1091.65 1561.64 1098.98 1558.31 1100.18C1555.64 1101.11 1555.24 1100.85 1555.24 1098.05C1555.24 1096.18 1554.57 1094.71 1553.91 1094.71C1551.77 1094.71 1550.44 1099.11 1552.31 1099.78C1554.17 1100.31 1554.44 1104.85 1552.71 1106.05C1552.04 1106.45 1551.11 1105.51 1550.57 1104.05C1550.17 1102.58 1549.24 1101.38 1548.57 1101.38C1546.44 1101.38 1542.97 1107.78 1544.04 1109.65C1544.71 1110.58 1545.24 1112.98 1545.37 1114.98C1545.51 1117.78 1544.97 1118.71 1543.11 1118.71C1539.91 1118.71 1538.84 1120.71 1540.31 1123.65C1541.77 1126.31 1538.71 1130.45 1537.24 1128.05C1535.77 1125.65 1534.04 1126.71 1530.44 1132.05C1527.91 1135.78 1527.24 1138.31 1527.77 1140.71C1528.31 1142.58 1528.04 1144.05 1527.24 1144.05C1526.57 1144.05 1525.91 1142.98 1525.91 1141.65C1525.91 1137.91 1524.57 1137.25 1520.71 1139.25C1515.11 1142.18 1510.84 1147.51 1511.64 1150.71C1512.04 1152.18 1511.77 1153.11 1511.11 1152.58C1510.44 1152.18 1509.91 1150.98 1509.91 1149.91C1509.91 1148.45 1509.37 1148.31 1507.37 1149.38C1505.91 1150.05 1503.24 1150.71 1501.37 1150.71C1499.51 1150.71 1497.51 1151.51 1496.97 1152.45C1495.51 1154.85 1490.17 1156.18 1489.51 1154.31C1489.24 1153.38 1487.51 1153.91 1485.24 1155.78C1482.97 1157.65 1479.64 1158.71 1476.71 1158.71C1470.57 1158.71 1468.57 1160.58 1468.57 1166.71C1468.57 1169.91 1467.11 1173.38 1463.91 1177.91C1459.24 1184.58 1459.24 1184.58 1460.04 1195.25C1460.57 1201.51 1462.04 1208.18 1463.37 1210.98C1464.84 1213.78 1465.91 1217.65 1465.91 1219.65C1465.91 1221.65 1466.84 1224.58 1468.04 1226.05C1469.37 1227.91 1469.77 1230.18 1469.24 1233.51C1468.71 1236.31 1468.97 1238.85 1469.77 1239.25C1470.57 1239.78 1469.77 1242.05 1467.77 1244.98C1466.04 1247.65 1462.57 1253.78 1460.17 1258.71C1457.91 1263.65 1454.84 1268.18 1453.37 1268.85C1452.04 1269.51 1449.37 1273.65 1447.64 1278.05C1442.97 1289.25 1443.64 1298.18 1450.31 1308.71C1454.31 1314.98 1454.84 1316.98 1453.64 1319.11C1451.37 1323.38 1452.97 1335.65 1456.31 1339.11C1457.91 1340.85 1459.24 1342.98 1459.24 1343.91C1459.24 1346.71 1469.91 1356.05 1472.97 1356.05C1474.57 1356.05 1478.71 1357.51 1482.17 1359.38C1485.64 1361.25 1489.24 1362.71 1490.17 1362.71C1491.24 1362.71 1496.17 1360.71 1501.24 1358.31C1506.44 1355.78 1513.51 1353.38 1517.11 1352.98C1526.31 1351.65 1529.24 1349.25 1531.91 1341.11C1533.24 1337.25 1535.37 1331.78 1536.71 1329.11C1538.17 1326.31 1540.97 1316.71 1543.11 1307.78C1545.24 1298.71 1548.97 1287.11 1551.24 1282.05C1553.51 1276.85 1556.31 1268.98 1557.37 1264.31C1558.44 1259.65 1560.57 1252.85 1562.04 1248.98C1563.64 1245.11 1568.44 1231.65 1572.71 1219.11C1579.37 1199.65 1580.57 1194.71 1580.57 1186.85C1580.57 1179.25 1580.97 1177.25 1583.11 1175.78C1584.44 1174.85 1586.31 1171.51 1587.24 1168.45C1588.71 1163.51 1588.71 1162.31 1586.71 1159.38C1585.51 1157.51 1584.84 1155.38 1585.24 1154.71C1585.64 1154.05 1585.24 1152.31 1584.44 1150.98C1582.84 1148.31 1583.51 1144.05 1585.64 1144.05C1586.31 1144.05 1587.77 1146.45 1588.97 1149.38C1591.24 1155.11 1594.84 1157.51 1596.71 1154.58C1597.37 1153.51 1598.84 1149.78 1600.04 1146.31C1602.17 1139.91 1602.17 1139.91 1598.57 1134.71C1595.91 1130.98 1595.11 1128.31 1595.37 1124.45C1595.64 1121.65 1595.37 1118.58 1594.84 1117.78C1594.31 1116.85 1594.17 1114.71 1594.57 1112.98C1595.11 1110.85 1594.44 1107.65 1592.71 1104.31C1591.11 1101.25 1589.91 1097.11 1589.91 1094.85C1589.91 1092.45 1588.44 1089.51 1585.91 1086.71C1583.77 1084.31 1581.91 1081.65 1581.91 1080.71C1581.91 1079.65 1580.84 1078.05 1579.37 1077.11C1578.04 1076.18 1576.71 1074.18 1576.44 1072.85C1575.77 1069.38 1572.84 1068.58 1571.64 1071.65Z" fill="#1B1B1B" stroke="#CCFF00" stroke-width="33"/>
<path d="M1468.97 1071.78C1465.11 1072.31 1465.11 1074.05 1468.84 1076.58C1472.44 1079.11 1474.97 1077.38 1473.11 1073.78C1472.31 1072.18 1470.84 1071.51 1468.97 1071.78Z" fill="#1B1B1B" stroke="#CCFF00" stroke-width="33"/>
<path d="M1452.57 1076.05C1452.57 1077.78 1456.31 1079.38 1457.64 1078.18C1458.04 1077.65 1457.64 1076.71 1456.57 1076.05C1453.91 1074.31 1452.57 1074.45 1452.57 1076.05Z" fill="#1B1B1B" stroke="#CCFF00" stroke-width="33"/>
<path d="M1483.64 1087.38C1483.64 1089.38 1484.31 1090.71 1485.37 1090.71C1486.44 1090.71 1487.24 1089.78 1487.24 1088.71C1487.24 1087.65 1488.04 1086.71 1488.97 1086.71C1490.04 1086.71 1489.91 1086.18 1488.57 1085.38C1485.24 1083.25 1483.64 1083.91 1483.64 1087.38Z" fill="#1B1B1B" stroke="#CCFF00" stroke-width="33"/>
<path d="M1588.04 1173.25C1586.71 1174.71 1585.91 1176.98 1586.17 1178.31C1586.57 1180.18 1587.24 1179.78 1589.11 1176.31C1591.77 1170.98 1591.37 1169.65 1588.04 1173.25Z" fill="#1B1B1B" stroke="#CCFF00" stroke-width="33"/>
<path d="M1433.24 1178.71C1433.64 1179.38 1434.31 1180.05 1434.71 1180.05C1434.97 1180.05 1435.24 1179.38 1435.24 1178.71C1435.24 1177.91 1434.57 1177.38 1433.77 1177.38C1433.11 1177.38 1432.84 1177.91 1433.24 1178.71Z" fill="#1B1B1B" stroke="#CCFF00" stroke-width="33"/>
<path d="M1276.57 1277.38C1276.57 1278.85 1277.24 1280.05 1277.91 1280.05C1278.71 1280.05 1279.24 1278.85 1279.24 1277.38C1279.24 1275.91 1278.71 1274.71 1277.91 1274.71C1277.24 1274.71 1276.57 1275.91 1276.57 1277.38Z" fill="#1B1B1B" stroke="#CCFF00" stroke-width="33"/>
</svg>
