<svg width="1740" height="1357" viewBox="0 0 1740 1357" fill="none" xmlns="http://www.w3.org/2000/svg">
<path d="M470.633 18.0528C468.633 19.2528 464.5 20.1862 461.7 20.1862C455.833 20.1862 454.5 21.6528 456.633 25.6528C458.1 28.4528 458.767 28.4528 471.7 27.7862C479.033 27.2528 488.233 26.5862 491.833 26.1862C497.967 25.6528 497.7 25.7862 488.633 28.1862C477.3 31.2528 477.167 31.2528 478.367 34.3195C479.033 35.9195 480.233 36.3195 483.3 35.6528C485.567 35.2528 489.3 35.6528 491.833 36.7195C494.233 37.7862 500.9 38.9862 506.633 39.5195C512.5 40.0528 521.3 41.2528 526.367 42.3195C538.233 44.5862 544.5 42.0528 538.233 37.2528C536.9 36.3195 535.167 34.3195 534.367 32.8528C533.033 30.5862 531.433 30.1862 524.367 30.1862C519.7 30.1862 514.5 29.3862 513.033 28.5862C511.433 27.6528 507.7 26.5862 504.767 26.0528C500.633 25.3862 499.567 24.7195 500.1 22.9862C501.033 19.1195 497.7 17.7862 485.833 16.8528C476.9 16.1862 473.7 16.4528 470.633 18.0528Z" fill="#1B1B1B" stroke="#CCFF00" stroke-width="33"/>
<path d="M555.434 36.3192C551.967 37.6525 549.3 43.5192 550.367 47.6525C551.434 51.5192 555.434 52.7192 561.034 50.8525C563.434 50.0525 570.234 49.5192 576.234 49.6525C588.1 50.0525 592.1 48.4525 589.834 44.1858C588.5 41.7858 581.567 40.4525 567.567 39.7858C564.234 39.6525 561.834 38.9858 561.834 38.0525C561.834 35.7858 559.034 34.9858 555.434 36.3192Z" fill="#1B1B1B" stroke="#CCFF00" stroke-width="33"/>
<path d="M583.3 57.3857C582.233 59.119 582.233 61.1191 583.167 63.5191C585.033 68.5858 585.033 68.5858 578.633 67.6524C573.567 66.8524 572.767 67.1191 572.1 69.5191C571.567 71.5191 570.367 72.1858 566.633 72.1858C564.1 72.1858 559.033 72.8524 555.3 73.6524C549.967 74.7191 547.967 74.5858 544.633 72.9858C538.767 69.9191 525.567 70.1858 523.567 73.2524C522.367 75.3858 519.7 75.9191 508.5 76.7191C499.567 77.2524 493.567 78.3191 490.767 79.9191C488.367 81.1191 484.367 82.4524 481.833 82.8524C474.633 83.9191 476.233 86.5858 487.033 92.0524C492.5 94.7191 496.767 97.3858 496.367 98.1858C496.1 98.9858 491.7 99.3858 485.833 99.1191C480.367 98.8524 474.9 98.7191 473.833 98.8524C472.767 98.9858 464.767 99.2524 456.1 99.5191C447.567 99.6524 440.1 100.186 439.7 100.586C438.233 102.052 441.833 106.719 444.767 107.119C446.633 107.386 447.967 108.719 448.5 110.852C449.3 113.919 449.833 114.186 455.567 113.786C459.433 113.519 463.033 114.052 465.433 115.386C467.433 116.586 472.5 118.719 476.5 120.186C480.5 121.652 483.567 122.852 483.167 122.852C482.767 122.986 477.967 122.986 472.5 122.986C461.167 122.986 451.433 121.786 450.367 120.052C449.967 119.386 447.7 118.852 445.433 118.852C443.033 118.852 438.1 117.652 434.233 116.186C426.767 113.386 423.833 114.452 427.7 118.719C430.633 121.919 430.367 123.252 427.3 121.519C423.3 119.519 415.033 119.786 415.967 122.052C417.167 124.986 422.5 126.719 430.1 126.319C436.233 126.052 438.1 126.452 441.167 129.119C443.167 130.852 444.5 132.719 444.1 133.119C443.167 133.919 413.167 128.586 408.9 126.852C407.167 126.186 405.833 124.452 405.833 122.986C405.833 118.586 403.033 113.919 399.567 112.319C394.5 110.052 393.033 110.586 396.233 113.652C399.567 116.586 399.033 118.852 395.167 118.852C393.7 118.852 391.967 120.052 391.167 121.386C390.1 123.652 390.633 124.719 394.1 128.052C396.5 130.319 399.167 132.186 400.1 132.186C402.767 132.186 405.833 136.186 405.833 139.919C405.967 142.186 407.967 145.786 411.033 149.386L416.233 155.119L432.233 155.386C445.567 155.652 448.767 156.052 451.967 158.186C454.1 159.652 457.033 161.386 458.5 162.186C459.967 162.986 461.3 164.719 461.567 166.186C462.233 169.786 464.5 172.186 468.1 173.652C472.633 175.386 471.833 177.519 466.767 177.519C461.967 177.519 458.767 174.986 457.167 169.652C456.5 167.652 453.833 165.519 448.9 163.252C442.233 160.186 440.633 159.919 433.967 160.986C428.633 161.786 426.367 162.852 426.1 164.452C425.833 165.652 426.767 166.986 428.233 167.519C430.367 168.052 431.033 169.786 431.433 175.252C432.1 182.586 431.033 184.986 426.5 186.986C425.033 187.652 422.367 189.252 420.5 190.719C417.433 193.119 416.367 193.119 404.767 191.652C397.967 190.719 391.7 189.252 390.9 188.452C389.967 187.519 388.233 186.852 386.9 186.852C385.567 186.852 384.5 186.186 384.5 185.519C384.5 183.786 387.967 183.786 391.433 185.652C392.9 186.452 397.433 187.519 401.433 188.052C409.167 189.119 409.833 188.719 416.1 178.186C419.3 172.852 419.433 172.052 417.3 169.652C416.1 168.319 415.167 166.452 415.433 165.386C415.7 164.452 413.433 162.452 410.5 160.852C407.567 159.252 403.833 155.919 402.233 153.386C400.633 150.852 398.1 147.652 396.767 146.186C395.3 144.719 393.833 141.919 393.3 139.919C392.9 138.052 389.433 133.652 385.7 130.319C381.967 126.986 379.3 123.652 379.833 122.852C381.167 120.719 378.1 113.919 375.433 112.719C374.1 112.186 366.9 111.119 359.3 110.319C347.167 108.986 345.167 108.986 342.9 110.852C340.633 112.719 340.5 113.386 341.967 116.586C344.233 121.652 341.967 126.319 336.5 127.519C331.7 128.586 331.3 132.586 335.967 133.252C339.167 133.652 343.167 139.919 343.167 144.719C343.167 148.586 346.5 150.852 352.233 150.852C354.367 150.852 357.167 152.052 358.5 153.519C359.833 154.986 362.233 156.186 363.833 156.186C367.3 156.186 371.167 160.052 371.167 163.386C371.167 166.052 371.167 166.052 354.767 162.319C349.7 161.119 344.5 159.652 343.167 158.852C338.367 156.186 337.967 157.652 341.833 163.786C344.1 167.252 345.833 171.119 345.833 172.319C345.833 173.786 342.9 176.319 338.233 178.986C329.033 184.319 320.5 191.786 320.5 194.452C320.5 195.652 322.367 200.186 324.5 204.719C326.767 209.119 329.7 216.986 331.167 222.186C336.767 241.652 345.833 283.652 345.833 290.319C345.833 294.986 346.5 297.786 347.967 298.986C351.3 301.652 357.167 310.986 359.7 317.386C361.7 322.586 361.7 323.519 359.833 326.319C358.633 328.186 355.167 330.186 351.3 331.386C335.433 336.052 333.567 339.119 340.5 349.919C345.967 358.586 354.233 362.586 361.567 360.452C364.767 359.386 368.9 356.586 372.367 352.852L377.967 346.852L381.167 350.052C383.7 352.586 384.5 354.852 384.5 358.986C384.5 362.052 385.167 368.452 385.967 373.119C386.767 377.786 387.033 384.852 386.5 388.852C385.7 395.386 385.033 396.719 379.967 400.852L374.233 405.519L363.7 401.119C357.833 398.586 350.233 394.986 346.5 393.119C336.9 388.052 329.567 387.252 323.167 390.319L317.967 392.852L320.633 397.119C322.9 400.586 323.033 401.786 321.7 404.052C319.833 406.852 315.7 407.786 301.167 408.986C290.5 409.919 288.367 411.386 283.833 420.186C282.1 423.519 279.167 427.652 277.3 429.519C274.367 432.186 273.3 432.452 271.433 431.119C267.3 428.186 265.833 427.919 263.7 429.652C262.1 430.986 261.7 432.986 262.233 437.919C262.767 443.519 263.567 445.252 268.367 449.519C273.567 454.319 273.833 454.986 273.833 462.319C273.967 467.252 274.9 471.919 276.367 474.719L278.767 479.252L281.567 475.252C283.833 472.052 285.7 471.119 290.767 470.452C295.7 469.919 297.7 468.986 300.5 465.386L304.1 461.119L310.1 463.919C315.167 466.452 316.5 466.586 320.367 465.119C324.233 463.652 324.9 463.786 326.633 466.052C327.7 467.652 328.5 471.786 328.5 476.319C328.5 480.586 329.167 484.452 329.833 484.852C333.167 486.986 330.5 487.519 323.433 486.319C319.033 485.652 314.633 485.519 313.433 485.919C310.633 486.986 310.5 492.986 313.167 494.052C315.833 494.986 315.7 498.852 313.033 498.852C311.967 498.852 309.833 498.186 308.367 497.386C306.367 496.452 305.167 496.452 303.833 497.519C301.3 499.652 303.567 504.186 307.167 504.186C308.5 504.186 309.967 505.386 310.5 506.719C310.9 508.186 312.767 510.186 314.5 511.386C316.367 512.586 317.833 514.452 317.833 515.519C317.833 516.719 319.033 517.519 320.9 517.519C322.767 517.519 324.367 518.719 325.167 520.452C326.1 522.586 327.7 523.519 330.5 523.519C334.1 523.652 334.5 524.052 335.433 529.519C336.767 537.386 341.967 549.652 343.7 549.119C345.167 548.586 345.433 544.452 344.367 539.519C343.967 537.652 344.9 536.586 347.567 535.652C351.033 534.452 351.7 534.719 356.633 540.586C359.567 544.052 362.9 546.852 363.833 546.852C364.767 546.852 366.633 547.786 367.7 548.986C369.3 550.586 369.567 551.652 368.367 553.786C367.167 556.052 366.1 556.319 362.1 555.652C359.3 555.119 354.633 554.452 351.567 554.052L345.833 553.252V558.719C345.833 563.786 346.1 564.319 349.967 565.119C354.9 566.052 355.967 568.186 353.967 573.519C352.233 578.719 352.9 580.186 358.633 583.919C363.433 587.119 364.9 589.652 367.967 601.252C371.567 614.852 372.367 614.186 351.567 614.586C334.1 614.986 333.3 614.852 329.967 611.786C323.967 606.319 320.1 604.186 315.833 604.186C310.233 604.186 306.367 601.119 305.3 595.919C302.9 584.186 302.9 582.852 305.3 579.119C306.767 577.119 308.1 573.386 308.5 570.852C309.167 566.452 309.433 566.186 314.233 566.319C322.633 566.586 319.167 560.586 309.567 558.319C307.567 557.919 303.833 554.852 301.167 551.652C295.967 545.252 297.033 545.652 274.233 542.986C261.967 541.652 250.5 536.852 240.767 528.852C235.033 524.186 228.233 522.719 226.5 525.519C224.767 528.186 217.967 526.852 213.433 522.852C205.833 516.186 195.833 514.052 190.367 518.052C187.567 520.186 187.433 519.919 194.1 524.052C197.967 526.319 199.433 528.452 200.9 533.252C203.3 541.386 202.1 543.519 193.433 547.386C187.833 549.786 184.367 550.319 175.167 550.186C168.9 550.052 162.233 549.252 160.1 548.452C158.1 547.519 153.7 546.986 150.367 547.119C145.167 547.386 143.7 546.852 141.3 543.919C137.7 539.519 132.233 538.452 111.167 538.319C96.3667 538.186 93.8333 538.586 88.9 541.119C85.8333 542.852 82.5 545.386 81.3 546.986C79.4333 549.652 78.5 549.786 70.2333 549.119C65.1667 548.719 60.2333 548.186 59.1667 547.919C56.5 547.386 55.8333 552.319 58.3667 553.786C64.5 557.252 57.0333 559.919 39.5667 560.452C31.9667 560.719 25.3 561.519 24.6333 562.186C24.1 562.986 23.1667 565.786 22.7667 568.586C21.9667 573.519 22.1 573.786 27.9667 576.186C34.6333 579.119 35.5667 582.452 31.0333 586.986C29.1667 588.852 27.4333 589.519 25.4333 588.852C18.2333 586.586 16.5 586.586 16.5 588.452C16.5 591.786 21.3 594.986 27.4333 595.786C34.1 596.719 36.5 598.186 36.5 601.519C36.5 602.852 37.7 604.186 39.3 604.586C41.7 605.252 41.8333 605.652 40.3667 608.052C38.9 610.319 39.0333 611.119 41.0333 613.386C43.0333 615.519 45.1667 616.186 50.6333 616.186C57.0333 616.186 58.1 616.586 60.7667 620.186C63.4333 623.786 64.3667 624.186 71.0333 624.186C77.9667 624.186 78.6333 623.786 80.7667 620.186C84.1 614.319 88.9 613.652 97.0333 618.186C100.767 620.186 104.767 622.719 105.967 623.652C109.167 626.586 119.967 624.452 126.633 619.786C131.567 616.319 132.767 616.052 136.367 617.252C139.567 618.452 141.567 618.319 145.167 616.719C149.3 615.119 149.833 615.119 149.833 616.719C149.833 617.786 149.167 619.119 148.367 619.652C147.433 620.186 147.033 626.186 147.033 636.052C147.167 656.319 145.967 669.386 143.833 672.719C142.767 674.319 141.033 679.386 139.833 684.186C137.567 693.119 134.767 699.519 132.633 700.852C131.967 701.252 126.1 700.986 119.7 700.186C113.3 699.519 107.7 699.119 107.433 699.386C106.767 700.186 115.967 719.652 117.567 720.719C118.367 721.119 119.967 724.719 121.033 728.586C122.1 732.452 125.167 738.052 127.567 740.852C130.1 743.786 132.367 747.386 132.633 748.852C133.567 753.252 137.567 752.852 140.5 747.919C142.367 744.852 143.167 741.252 143.167 735.786C143.167 731.652 143.7 728.186 144.367 728.186C146.367 728.186 147.3 732.186 145.833 734.852C144.367 737.652 144.1 746.719 145.3 750.052C145.7 751.252 147.433 752.186 149.033 752.186C153.3 752.186 157.3 755.519 162.5 763.252C165.033 767.119 169.833 773.786 173.033 778.186C176.233 782.586 179.3 788.319 179.7 790.986C180.1 793.519 181.7 796.852 183.167 798.186C184.633 799.519 185.833 801.386 185.833 802.452C185.833 803.386 187.433 804.852 189.433 805.652C197.7 808.719 206.233 820.586 206.767 829.519C207.567 845.786 208.5 849.519 213.567 857.252C217.433 863.119 219.433 864.986 222.367 865.252C228.233 865.919 233.567 872.186 235.433 880.452C236.367 884.986 238.1 888.452 240.1 889.919C241.7 891.252 243.167 893.119 243.167 894.052C243.167 894.986 245.833 898.852 249.167 902.719C252.5 906.586 255.167 910.852 255.167 912.319C255.167 913.786 256.633 915.519 258.367 916.319C261.567 917.786 264.5 922.586 264.5 926.186C264.5 927.252 263.3 928.719 261.833 929.519C258.367 931.386 258.367 936.052 261.967 942.852C263.433 945.786 265.033 950.719 265.433 953.786C265.967 956.986 267.033 960.852 268.1 962.452C269.3 964.319 269.7 966.852 269.167 969.786C268.367 973.786 268.767 974.719 271.7 976.586C276.9 980.052 281.7 979.386 296.633 972.852C304.233 969.652 311.833 966.852 313.567 966.852C317.567 966.852 324.767 963.786 327.033 961.119C328.367 959.519 329.433 959.252 331.167 960.186C334.233 961.786 339.3 960.052 342.9 956.052C346.1 952.719 363.833 944.319 367.833 944.186C369.3 944.186 373.7 942.719 377.7 940.852L384.9 937.519L384.233 931.652C383.567 926.052 383.7 925.652 388.767 922.319C391.7 920.452 396.633 918.452 399.567 918.052C402.633 917.519 407.433 916.052 410.233 914.586C413.967 912.719 415.833 912.452 417.7 913.519C421.033 915.252 425.433 915.252 426.5 913.519C427.033 912.719 426.367 910.586 425.167 908.719C422.1 903.919 423.433 901.919 430.1 900.852C437.033 899.652 439.167 898.186 439.167 894.319C439.167 892.586 441.7 888.986 445.167 885.519C451.033 879.786 455.167 871.119 455.167 864.586C455.167 862.319 455.967 861.519 458.233 861.519C461.7 861.519 464.5 859.252 464.5 856.319C464.5 855.252 467.033 851.786 470.1 848.586C474.767 843.919 475.567 842.052 475.7 837.252C475.833 832.986 475.3 831.519 473.833 831.519C470.5 831.519 464.233 824.319 465.167 821.386C465.833 819.519 465.167 818.586 462.5 817.519C460.633 816.852 457.7 816.186 456.1 816.186C449.833 816.186 443.567 813.119 436.9 806.986C430.767 801.386 429.7 799.786 429.033 794.052C428.5 790.452 427.033 786.186 425.567 784.586C423.167 782.052 423.167 781.652 425.167 780.452C426.367 779.786 427.167 778.186 427.033 776.852C426.367 773.919 423.167 772.586 423.167 775.252C423.167 776.319 421.433 779.252 419.167 781.652C417.033 784.186 415.167 786.852 415.167 787.652C415.167 788.452 413.967 790.186 412.5 791.519C411.033 792.852 409.833 794.986 409.833 796.186C409.833 799.519 403.033 805.252 396.1 807.652C390.367 809.652 389.7 809.519 385.967 807.386C382.767 805.519 381.567 805.252 380.233 806.586C378.367 808.452 374.633 808.719 371.433 806.986C370.233 806.319 368.1 805.386 366.767 804.986C364.633 804.319 364.5 803.119 365.3 792.986C366.233 781.652 366.233 781.652 362.633 780.052C360.767 779.119 358.767 778.852 358.233 779.386C357.7 779.919 357.433 783.786 357.567 788.186C357.7 792.452 357.3 796.319 356.633 796.719C354.633 798.052 350.9 793.386 351.7 790.452C352.1 788.586 351.033 786.586 348.367 784.052C345.3 781.119 344.233 778.852 343.7 773.919C343.3 769.252 342.367 766.852 340.1 765.252C334.1 760.719 328.5 753.919 324.767 746.719C318.1 733.919 315.7 730.452 312.767 729.386C308.367 727.652 309.167 725.786 316.5 721.252C320.233 718.986 323.167 716.586 323.167 716.052C323.167 713.919 328.367 714.852 329.7 717.119C330.633 718.986 331.3 719.119 332.9 717.786C334.767 716.186 339.167 716.852 339.167 718.719C339.167 719.119 341.567 722.719 344.5 726.452C347.3 730.319 351.567 737.786 353.833 743.119C356.1 748.452 358.633 753.252 359.567 753.786C360.5 754.319 363.433 754.852 366.1 754.852C368.767 754.852 371.3 755.386 371.7 756.052C373.033 758.052 386.9 765.519 389.433 765.519C390.767 765.519 393.833 766.719 396.233 768.186C402.233 771.786 403.7 771.652 409.967 765.919C414.767 761.652 416.233 760.986 422.1 760.986C427.967 760.986 429.3 761.519 432.633 765.252C435.433 768.319 436.5 770.986 436.5 774.319C436.5 780.852 442.367 786.052 450.1 786.319C459.567 786.719 476.767 789.519 483.167 791.786C490.233 794.319 494.367 794.319 510.5 792.186C517.167 791.252 524.1 790.586 526.233 790.719C528.233 790.719 533.3 790.986 537.567 791.119C543.167 791.386 546.367 790.852 548.9 789.119C555.567 784.719 562.633 786.719 561.033 792.719C560.367 795.786 560.767 796.452 565.033 798.186C568.233 799.519 570.633 801.919 572.5 805.519C573.967 808.452 577.033 811.786 579.3 812.986C581.567 814.052 586.1 817.519 589.433 820.452C595.567 826.186 603.967 828.719 609.567 826.719C613.967 825.119 614.233 827.652 610.233 830.852C607.567 832.852 605.433 833.519 602.5 832.986C600.367 832.586 597.567 832.852 596.5 833.519C594.9 834.586 596.9 837.119 607.033 846.852C613.833 853.386 620.233 858.852 621.033 858.852C621.967 858.852 625.7 857.919 629.433 856.852C637.033 854.586 639.167 851.119 638.233 842.719C637.833 839.652 638.233 837.519 639.567 836.452C641.3 834.986 641.967 835.652 643.833 840.719C645.033 843.919 645.7 847.252 645.167 848.052C644.767 848.852 645.567 851.119 647.033 852.986C650.367 857.252 650.633 861.786 647.833 866.052C645.3 869.786 646.1 873.386 653.033 892.852C656.367 902.319 657.833 908.452 657.833 913.786C657.833 920.319 658.367 922.052 661.7 925.786C663.7 928.186 667.433 934.052 669.833 938.852C672.233 943.652 675.7 949.252 677.567 951.252C681.033 954.852 681.567 956.586 685.7 979.919C686.5 983.919 688.1 986.852 691.3 989.919C696.9 994.986 707.167 1018.72 708.233 1028.45C708.633 1032.72 709.833 1035.65 711.967 1037.65C713.7 1039.25 715.167 1041.79 715.167 1042.99C715.167 1046.05 719.033 1048.19 724.9 1048.19C729.033 1048.19 729.7 1047.65 731.833 1042.19C733.033 1038.72 736.1 1034.45 738.633 1032.45C741.3 1030.32 743.167 1027.65 743.167 1025.92C743.167 1024.32 743.833 1022.59 744.5 1022.19C745.3 1021.65 745.567 1020.19 745.167 1018.72C744.5 1016.72 745.033 1016.19 747.567 1016.19C752.767 1016.19 754.5 1012.99 752.633 1006.99C750.5 999.519 750.767 992.452 753.967 983.119C756.233 976.452 756.5 974.052 755.3 971.119C754.633 969.119 753.967 964.719 753.967 961.386C753.967 958.052 753.3 952.719 752.5 949.519C750.1 940.586 754.1 933.519 761.567 933.519C763.433 933.519 764.367 932.319 765.033 929.386C765.7 925.786 766.233 925.386 769.033 926.052C773.167 927.119 778.5 922.852 780.5 916.852C781.3 914.319 783.567 910.986 785.567 909.386C787.567 907.919 789.433 905.386 789.833 903.786C790.233 902.052 791.833 900.719 793.433 900.452C795.167 900.186 797.967 897.386 800.5 893.386C804.9 886.586 820.233 872.186 823.033 872.186C823.967 872.186 826.1 870.719 827.833 868.852C830.5 866.186 831.167 864.319 831.167 858.452C831.167 853.119 831.833 850.719 833.567 849.119C834.9 847.786 836.5 846.852 837.167 846.852C837.833 846.852 839.433 845.786 840.767 844.586C842.9 842.719 843.567 842.586 844.367 844.052C845.167 845.386 846.233 845.519 847.833 844.452C849.167 843.786 852.5 843.519 855.3 843.786C861.567 844.719 867.167 843.386 867.167 840.986C867.167 839.786 868.233 839.386 870.367 839.786C872.1 840.186 873.967 839.786 874.367 838.986C874.9 838.186 876.5 837.519 877.833 837.519C879.7 837.519 880.5 836.319 880.767 832.586C881.033 828.586 881.7 827.519 883.833 827.519C888.1 827.519 892.767 838.719 893.033 849.386C893.167 857.386 893.7 858.852 898.367 864.852C901.167 868.452 903.7 871.786 903.833 871.919C904.1 872.186 906.1 871.386 908.367 870.052C913.433 867.119 918.1 868.852 921.167 874.719C923.033 878.452 923.033 878.852 920.5 880.186C915.3 882.986 918.5 889.386 923.967 887.252C927.433 885.919 932.1 891.919 935.167 901.652C937.833 909.652 937.967 911.786 936.633 916.052C934.633 922.852 934.767 928.852 937.033 930.719C938.1 931.652 942.367 932.052 947.833 931.786C955.833 931.386 957.3 930.852 959.833 927.786C961.3 925.786 963.567 924.186 964.9 924.186C966.633 924.186 967.167 922.986 967.167 918.852C967.167 912.186 970.367 910.186 974.1 914.719C975.433 916.452 976.5 918.719 976.5 919.919C976.5 921.119 978.1 923.652 979.967 925.652C982.633 928.452 983.7 931.252 984.5 937.786C985.033 942.452 986.5 948.586 987.833 951.519C989.3 954.852 989.833 958.319 989.3 961.386C988.633 965.386 989.167 966.586 991.967 968.852C995.033 971.386 995.3 972.452 995.433 983.652C995.7 994.452 995.967 995.919 998.367 996.986C1002.23 998.586 1002.63 1002.72 999.3 1004.99C995.7 1007.52 995.567 1014.72 999.033 1018.99C1001.57 1022.05 1001.57 1022.19 998.5 1027.52C996.367 1031.25 995.3 1035.39 995.033 1040.85C994.767 1048.72 994.767 1048.85 998.233 1048.45C1001.03 1048.19 1003.43 1049.79 1009.97 1056.45C1014.37 1061.12 1019.03 1066.59 1020.1 1068.85C1021.17 1070.99 1023.7 1074.45 1025.57 1076.59C1028.37 1079.52 1029.3 1082.19 1030.23 1090.59C1030.9 1096.19 1031.3 1102.32 1031.3 1104.05C1031.17 1105.79 1032.9 1109.12 1035.03 1111.52C1037.17 1113.92 1040.23 1119.92 1041.83 1124.85C1044.1 1131.52 1045.57 1134.05 1048.23 1135.25C1050.23 1136.19 1054.37 1139.39 1057.43 1142.45C1060.63 1145.52 1065.97 1148.85 1069.43 1150.05C1075.03 1151.92 1075.97 1151.92 1078.77 1150.19C1081.03 1148.72 1081.83 1146.85 1081.83 1143.39C1081.83 1138.85 1080.5 1136.85 1073.3 1131.12C1071.57 1129.79 1071.17 1126.59 1071.17 1115.12C1071.17 1102.85 1070.63 1099.92 1067.97 1093.92C1066.1 1090.19 1063.17 1086.05 1061.43 1084.85C1059.57 1083.65 1057.83 1081.52 1057.43 1080.19C1057.03 1078.59 1055.57 1077.52 1054.1 1077.52C1052.37 1077.52 1050.9 1076.19 1050.1 1073.65C1049.03 1070.85 1047.43 1069.39 1043.57 1068.19C1035.03 1065.65 1032.77 1064.05 1030.37 1058.99C1029.17 1056.32 1026.37 1051.25 1024.1 1047.79C1021.97 1044.32 1019.7 1039.52 1019.3 1037.12C1018.63 1034.19 1017.43 1032.72 1015.3 1032.19C1013.03 1031.65 1011.43 1029.65 1009.7 1025.12C1006.77 1017.65 1007.57 1012.59 1013.17 1001.92C1015.97 996.719 1016.5 993.919 1016.5 984.052C1016.5 973.519 1016.77 972.186 1019.43 970.319C1021.03 969.119 1023.83 968.186 1025.43 968.186C1028.23 968.186 1028.5 968.719 1028.23 973.786L1027.83 979.386L1034.37 980.452C1038.9 981.119 1041.97 982.452 1044.1 984.719C1045.83 986.586 1048.63 988.186 1050.37 988.186C1052.37 988.186 1053.97 989.386 1054.9 991.519C1055.7 993.386 1057.03 994.852 1057.83 994.852C1058.5 994.852 1059.17 997.252 1059.17 1000.19C1059.17 1004.45 1059.7 1005.52 1061.57 1005.52C1062.9 1005.52 1065.03 1007.25 1066.23 1009.52C1068.1 1012.59 1069.57 1013.52 1072.9 1013.52C1075.83 1013.65 1078.77 1015.12 1082.1 1018.05C1086.9 1022.19 1087.03 1022.59 1085.57 1027.12C1083.7 1033.39 1085.17 1041.52 1088.23 1041.52C1091.3 1041.52 1093.17 1040.05 1095.03 1036.45C1095.83 1034.85 1097.43 1033.52 1098.5 1033.52C1100.9 1033.52 1111.17 1020.59 1111.17 1017.52C1111.17 1014.19 1113.57 1012.72 1120.37 1011.65C1128.37 1010.45 1129.97 1009.39 1136.37 1001.12C1141.83 993.919 1141.83 993.652 1142.1 982.719C1142.23 969.119 1140.9 961.919 1137.7 957.652C1136.23 955.919 1135.17 952.986 1135.17 951.252C1135.17 947.519 1132.23 941.386 1129.3 938.986C1128.1 937.919 1127.17 935.786 1127.17 933.919C1127.17 931.652 1125.83 930.052 1123.03 928.452C1120.77 927.252 1116.37 924.186 1113.3 921.786C1110.37 919.386 1106.37 916.452 1104.63 915.119C1097.43 909.786 1093.83 905.652 1093.83 902.319C1093.83 899.786 1093.17 898.852 1091.17 898.852C1089.7 898.852 1088.5 898.319 1088.5 897.652C1088.5 896.986 1087.43 895.386 1086.23 894.186C1085.03 892.852 1083.57 888.319 1082.9 883.919C1081.83 876.186 1081.97 875.652 1085.83 871.252C1088.63 868.186 1089.83 865.386 1089.83 862.186C1089.83 858.319 1090.37 857.519 1092.77 857.519C1094.37 857.519 1097.17 856.052 1099.03 854.319C1104.1 849.786 1113.3 846.452 1116.5 848.186C1117.83 848.852 1120.37 849.386 1122.1 849.119C1124.9 848.852 1125.17 849.252 1124.77 853.786C1124.37 858.586 1126.23 863.919 1129.03 865.786C1131.43 867.386 1137.43 866.986 1139.03 864.986C1139.97 863.919 1140.23 860.852 1139.7 857.119C1138.5 848.586 1140.23 846.852 1149.7 846.852C1154.23 846.852 1159.43 845.786 1163.03 844.186C1166.23 842.719 1169.57 841.519 1170.63 841.519C1171.57 841.519 1173.43 840.052 1174.63 838.186C1176.5 835.386 1177.43 834.986 1182.37 835.652C1188.23 836.452 1193.57 834.586 1200.37 829.386C1202.1 827.919 1205.57 826.852 1208.1 826.852C1211.57 826.852 1212.9 826.186 1213.7 823.786C1214.37 822.186 1217.97 818.319 1221.7 815.119C1225.43 811.919 1228.5 808.452 1228.5 807.386C1228.5 806.319 1230.63 804.186 1233.17 802.719C1236.37 800.719 1237.83 798.986 1237.83 796.719C1237.83 794.852 1239.17 792.719 1241.03 791.519C1244.1 789.519 1244.23 788.586 1244.37 776.852C1244.37 768.719 1245.03 762.986 1246.23 760.586C1247.3 758.586 1248.5 755.119 1249.03 753.119C1249.57 750.852 1251.17 748.986 1253.17 748.186C1254.9 747.519 1256.77 745.519 1257.03 743.919C1258.23 737.786 1259.17 723.119 1258.37 721.119C1257.83 719.786 1254.77 718.852 1248.37 718.186C1238.23 717.119 1237.03 715.386 1244.63 712.852C1248.1 711.652 1249.3 710.452 1249.57 707.652C1249.83 705.652 1249.43 703.252 1248.77 702.452C1248.1 701.519 1247.17 698.186 1246.63 694.986C1245.43 687.252 1243.7 684.186 1240.37 684.186C1233.97 684.186 1227.17 678.586 1222.37 669.386C1216.23 657.652 1209.97 650.586 1203.3 647.519C1194.77 643.786 1194.77 642.852 1204.9 624.986C1207.3 620.586 1208.9 619.519 1213.83 618.319C1218.37 617.252 1220.23 615.919 1221.57 613.119C1224.37 607.252 1222.77 604.986 1216.63 606.052C1213.17 606.586 1210.1 606.186 1207.7 604.852C1200.5 601.119 1189.43 602.986 1188.1 608.052C1187.7 609.652 1186.5 610.852 1185.3 610.852C1182.63 610.852 1172.9 602.186 1171.83 598.719C1171.3 596.986 1169.7 596.186 1167.03 596.186C1162.23 596.186 1151.17 587.786 1151.17 584.186C1151.17 582.319 1152.5 581.919 1159.43 581.786C1165.03 581.652 1168.23 580.986 1169.7 579.519C1171.7 577.519 1171.7 577.252 1169.57 575.652C1166.23 573.252 1166.5 571.786 1171.03 568.452C1173.17 566.852 1175.57 563.652 1176.37 561.252C1177.57 557.519 1178.9 556.452 1183.83 554.986C1190.63 552.986 1192.5 553.786 1195.83 560.186C1197.43 563.386 1197.43 564.186 1195.03 568.186C1192.77 571.786 1192.5 573.119 1193.83 576.319C1194.77 578.319 1195.03 581.786 1194.5 584.052C1193.03 591.119 1197.7 589.252 1204.5 580.052C1205.83 578.186 1209.83 575.519 1213.43 574.186C1219.03 572.052 1220.77 571.919 1229.83 573.386C1235.3 574.319 1240.77 575.652 1241.97 576.319C1245.17 577.919 1246.1 583.252 1244.5 589.919C1243.43 593.919 1243.43 596.719 1244.37 599.252C1245.7 602.852 1246.1 602.986 1254.77 602.719C1266.1 602.319 1271.7 604.586 1272.23 610.052C1272.5 612.186 1272.1 614.452 1271.3 615.252C1268.63 617.919 1269.7 622.586 1273.7 625.386C1277.7 628.319 1280.5 636.052 1280.5 644.586C1280.5 655.786 1284.37 662.852 1290.5 662.852C1294.63 662.852 1295.57 661.252 1293.83 656.852C1290.77 648.852 1295.03 645.652 1310.5 644.319C1318.77 643.652 1319.97 643.119 1321.43 640.186C1323.57 635.519 1321.7 627.519 1317.3 622.986C1315.43 620.986 1313.83 618.452 1313.83 617.386C1313.83 616.319 1307.03 608.719 1298.77 600.452C1287.3 589.119 1282.77 585.519 1280.1 585.519C1276.23 585.519 1274.37 583.386 1274.9 579.786C1275.17 578.319 1274.5 577.519 1272.63 577.519C1271.17 577.519 1269.17 576.186 1268.37 574.586C1267.03 572.052 1267.17 571.386 1269.83 569.652C1271.57 568.452 1274.9 565.652 1277.3 563.252C1282.63 558.319 1283.3 552.452 1279.17 546.186C1275.97 541.386 1275.83 538.052 1278.63 536.986C1279.83 536.452 1280.5 535.252 1279.97 534.186C1279.57 533.119 1279.97 532.186 1280.9 532.186C1281.83 532.186 1283.17 530.319 1283.83 527.919C1284.63 525.652 1286.37 522.986 1287.83 522.052C1290.1 520.586 1291.3 520.852 1296.37 524.186C1305.83 530.586 1312.37 529.519 1322.63 519.919C1326.37 516.452 1326.77 515.386 1326.23 510.319C1325.7 506.452 1326.23 503.519 1327.57 501.386C1328.63 499.652 1329.97 496.052 1330.5 493.519C1330.9 490.986 1332.37 486.319 1333.43 483.119C1335.17 478.319 1335.3 476.052 1333.97 468.186C1331.83 455.252 1332.1 452.186 1335.43 448.586C1337.83 445.919 1338.1 444.986 1336.77 443.119C1335.97 441.919 1333.3 436.986 1331.17 432.186C1328.9 427.386 1325.03 421.386 1322.63 418.852C1317.17 413.252 1314.5 408.052 1312.37 399.386C1311.3 394.719 1309.3 391.386 1305.3 387.519C1302.37 384.586 1297.83 379.386 1295.57 375.786C1292.9 372.052 1290.23 369.519 1288.77 369.519C1287.3 369.519 1284.23 368.186 1281.7 366.452C1276.37 362.852 1261.17 357.786 1256.63 358.052C1253.57 358.186 1252.1 359.786 1250.63 364.452C1249.57 368.186 1245.43 367.252 1242.9 362.852C1241.03 359.652 1239.7 358.852 1236.1 358.852C1232.9 358.852 1230.63 357.786 1227.83 354.852C1224.23 351.119 1223.3 350.852 1214.77 350.852C1205.83 350.852 1205.57 350.719 1206.37 347.786C1206.77 346.186 1207.17 343.786 1207.17 342.586C1207.17 341.119 1209.03 339.386 1211.83 338.319C1215.3 336.852 1216.5 335.519 1216.5 333.252C1216.5 331.519 1217.03 329.386 1217.7 328.319C1218.5 327.119 1218.37 325.519 1217.57 324.186C1215.57 321.119 1217.17 317.519 1220.5 317.519C1222.23 317.519 1223.17 316.586 1223.17 314.852C1223.17 313.386 1223.83 310.986 1224.77 309.519C1225.97 307.519 1225.97 306.319 1224.63 303.786C1223.17 301.119 1223.3 299.786 1225.43 295.386L1227.83 290.186H1246.5C1256.77 290.052 1265.97 289.652 1266.9 288.986C1267.83 288.452 1269.83 288.452 1271.57 289.119C1273.17 289.652 1277.57 290.186 1281.17 290.319C1284.9 290.452 1289.03 290.719 1290.5 290.986C1292.63 291.386 1293.03 290.852 1292.77 288.719C1292.63 287.119 1293.3 285.119 1294.37 284.319C1296.1 282.852 1297.3 283.119 1301.03 285.519C1304.9 287.786 1306.9 288.186 1311.97 287.386C1318.9 286.319 1322.23 288.586 1320.9 293.519C1320.23 295.919 1320.9 296.186 1326.37 296.186C1329.83 296.186 1333.7 295.652 1335.03 294.986C1336.37 294.186 1338.1 294.186 1339.17 294.852C1340.5 295.652 1341.97 295.386 1343.43 293.919C1344.9 292.719 1348.63 291.786 1353.43 291.652C1359.43 291.519 1361.3 290.986 1361.57 289.252C1361.97 286.986 1358.9 285.919 1348.5 285.252C1344.5 284.852 1343.83 284.319 1343.43 281.119C1343.17 278.986 1343.7 276.452 1344.77 275.252C1345.83 273.919 1346.37 270.319 1345.97 264.719L1345.57 256.186H1352.1C1355.57 256.319 1361.97 255.919 1366.1 255.386C1373.57 254.586 1373.7 254.719 1379.3 260.052C1382.5 263.119 1386.37 265.519 1387.97 265.519C1389.57 265.519 1391.17 266.452 1391.7 267.519C1392.9 270.852 1397.7 269.919 1399.43 265.786C1400.37 263.786 1402.1 260.719 1403.43 258.986C1406.77 254.586 1406.5 253.919 1400.5 250.852C1397.57 249.386 1395.17 247.652 1395.17 246.986C1395.17 245.652 1405.57 243.786 1407.3 244.986C1407.97 245.386 1410.9 248.852 1413.83 252.586C1416.77 256.452 1420.5 261.119 1422.1 263.119L1425.03 266.852L1421.97 270.052C1418.23 273.919 1416.63 281.386 1416.5 293.919C1416.5 305.119 1415.03 308.186 1409.83 308.186C1405.43 308.186 1405.17 308.586 1407.17 312.186C1407.97 313.652 1408.77 317.386 1408.9 320.452C1409.43 328.719 1418.9 340.319 1438.1 355.652C1446.77 362.586 1455.17 370.319 1456.77 372.852C1458.5 375.386 1463.57 379.519 1468.37 382.186C1473.3 385.119 1481.3 391.652 1487.43 398.052C1499.43 410.452 1500.9 410.319 1500.23 396.719C1499.83 390.319 1498.9 387.519 1496.1 383.786C1494.1 381.119 1492.5 378.719 1492.5 378.319C1492.5 378.052 1494.1 377.519 1496.23 377.252C1501.57 376.719 1501.97 370.586 1497.03 365.386C1492.37 360.452 1493.43 357.786 1500.77 357.252C1508.23 356.719 1509.17 353.252 1502.9 350.052C1500.5 348.852 1495.7 345.386 1492.23 342.319C1485.57 336.719 1485.7 334.852 1492.9 334.852C1495.03 334.852 1496.9 333.919 1497.43 332.719C1498.5 329.919 1491.57 324.319 1486.9 324.186C1484.5 324.186 1482.37 322.852 1480.23 320.052C1473.3 310.719 1468.5 306.586 1465.7 307.252C1459.57 308.852 1449.83 302.186 1449.83 296.319C1449.83 294.452 1448.1 291.252 1445.83 288.852C1441.17 284.052 1441.43 279.252 1446.37 280.852C1453.17 283.119 1455.83 282.319 1457.17 277.786C1458.77 272.319 1462.9 272.319 1465.57 277.786C1467.97 282.852 1470.5 282.452 1473.43 276.452C1475.3 272.719 1476.77 271.386 1479.7 271.119C1487.17 270.186 1495.17 272.319 1499.57 276.052C1504.1 279.919 1511.83 282.319 1513.17 280.186C1513.57 279.519 1513.03 277.119 1511.83 274.852C1509.97 271.252 1509.97 270.719 1511.83 270.052C1512.9 269.652 1513.83 267.786 1513.83 265.919C1513.83 260.452 1516.23 257.519 1520.63 257.519C1523.57 257.519 1524.9 256.719 1525.83 254.319C1526.5 252.452 1528.23 250.319 1529.83 249.519C1531.3 248.719 1532.5 246.852 1532.5 245.519C1532.5 242.719 1535.7 241.919 1537.17 244.186C1537.57 244.852 1540.77 245.519 1544.23 245.519C1547.7 245.519 1552.5 246.052 1554.77 246.719C1557.17 247.386 1560.77 247.519 1562.77 246.986C1566.37 246.052 1565.7 245.386 1548.5 232.586C1527.17 216.719 1486.1 188.852 1454.5 168.852L1431.83 154.452L1416.5 154.319C1404.1 154.186 1400.23 153.652 1396.5 151.652C1391.43 148.852 1380.9 148.586 1367.7 150.586C1363.03 151.386 1359.03 151.119 1355.17 150.052C1347.7 147.786 1333.43 147.252 1332.9 149.119C1331.97 151.652 1338.23 154.852 1343.83 154.852C1350.1 154.852 1355.17 157.919 1355.17 161.652C1355.17 164.986 1350.63 164.986 1343.83 161.519C1340.9 160.052 1336.23 158.852 1333.43 158.852C1330.63 158.852 1325.97 157.519 1323.03 155.786C1318.5 153.252 1317.83 152.452 1318.63 149.252C1319.3 146.052 1319.03 145.652 1316.9 146.452C1315.57 146.852 1312.77 148.719 1310.77 150.452C1306.23 154.052 1305.97 154.052 1282.63 151.386C1269.03 149.786 1263.3 149.652 1260.23 150.719C1257.97 151.519 1252.23 152.186 1247.7 152.186C1239.97 152.186 1238.77 151.786 1234.23 147.652C1227.03 141.386 1225.3 140.719 1208.37 137.119C1188.1 132.719 1162.9 131.519 1154.9 134.319C1147.97 136.852 1139.57 136.186 1131.17 132.319C1127.83 130.852 1123.03 129.519 1120.5 129.519C1117.97 129.519 1112.37 128.586 1108.23 127.652C1104.1 126.586 1100.37 126.052 1099.97 126.452C1099.7 126.852 1098.63 126.719 1097.83 126.186C1096.77 125.519 1096.77 124.719 1097.97 123.386C1098.77 122.319 1099.3 121.252 1099.03 120.986C1098.77 120.586 1093.97 119.786 1088.37 118.986C1082.9 118.186 1077.3 117.252 1076.1 116.719C1074.37 116.052 1073.3 117.119 1071.83 120.719C1069.43 126.319 1065.17 127.519 1066.1 122.186C1067.17 116.852 1064.23 115.652 1048.77 115.252C1040.9 114.986 1027.97 113.919 1019.83 112.719C1005.97 110.852 1005.03 110.852 1003.43 113.119C1002.5 114.452 1000.63 115.386 999.167 115.119C997.833 114.852 996.367 115.386 995.833 116.186C994.5 118.452 997.7 121.519 1001.57 121.519C1003.43 121.519 1006.23 122.986 1007.97 124.986L1011.17 128.319L991.567 127.919C980.633 127.786 968.5 128.052 964.5 128.719C957.833 129.652 956.233 129.519 950.1 126.319C946.367 124.452 942.9 122.852 942.5 122.852C941.033 122.852 941.967 126.052 944.1 128.452C945.967 130.586 946.1 131.119 944.367 132.852C941.567 135.652 924.5 133.386 919.7 129.652C917.7 128.186 915.167 126.852 914.1 126.852C912.9 126.852 908.1 124.852 903.3 122.452C896.1 118.986 893.033 118.186 886.233 118.319C875.833 118.452 873.7 115.786 881.833 112.586C889.7 109.519 888.5 106.452 879.167 105.386C875.167 104.986 870.767 104.186 869.567 103.652C868.367 103.119 865.833 103.519 863.833 104.452C860.9 106.052 858.9 105.919 848.1 103.252C836.633 100.319 829.833 100.186 829.833 102.586C829.833 104.052 838.633 108.186 841.567 108.186C844.5 108.186 849.567 111.652 848.367 112.719C847.967 113.252 844.367 112.719 840.367 111.786C836.367 110.719 825.167 109.919 815.433 109.786C798.633 109.519 797.3 109.252 789.7 105.519C782.233 101.919 780.767 101.652 764.1 101.386C752.633 101.252 745.3 101.652 743.433 102.719C740.9 104.052 739.833 103.786 735.967 100.852C730.9 96.9858 729.433 96.7191 727.167 99.5191C724.9 102.319 720.1 102.052 716.1 98.8524C711.7 95.3858 700.5 96.4524 700.5 100.319C700.5 101.519 701.567 102.986 702.9 103.252C704.367 103.652 703.967 103.919 701.7 104.052C699.7 104.052 695.567 105.119 692.5 106.186C684.233 109.119 681.567 108.852 682.1 105.252C682.367 103.519 683.567 102.052 685.167 101.786C686.633 101.519 689.7 99.5191 691.833 97.3858C694.1 95.3858 697.967 92.8524 700.5 91.9191C711.167 88.3191 716.5 83.2524 712.367 80.8524C711.7 80.3191 710.5 78.4524 709.833 76.8524C708.9 74.4524 707.3 73.5191 703.567 72.8524C700.767 72.4524 693.7 70.5858 687.833 68.8524C676.233 65.1191 667.033 64.7191 651.833 66.9858C635.833 69.3858 635.833 69.3858 636.233 64.9858C636.767 61.1191 636.767 61.1191 630.767 61.9191C622.233 63.1191 615.167 61.6524 613.967 58.4524C613.033 56.0524 611.433 55.7857 598.767 55.2524C585.7 54.719 584.633 54.8524 583.3 57.3857ZM418.1 468.186C419.033 469.652 420.5 470.852 421.433 470.852C422.367 470.852 423.7 469.652 424.5 468.186C425.3 466.719 426.767 465.519 427.833 465.519C430.233 465.519 430.233 466.586 427.833 470.852C424.367 476.852 425.3 482.319 430.367 486.186C436.633 490.852 437.167 493.119 433.033 496.852C430.233 499.386 429.7 500.986 429.967 506.052C430.233 509.386 430.1 512.319 429.7 512.586C429.433 512.986 426.633 513.519 423.7 514.052C419.3 514.719 417.967 514.452 417.3 512.719C416.633 510.986 415.167 510.719 409.167 511.519C401.967 512.319 401.833 512.319 401.833 508.986C401.833 506.986 400.767 504.986 399.167 504.186C396.633 502.852 396.367 501.652 396.767 491.786L397.167 480.852L401.033 480.452C403.433 480.186 405.033 478.986 405.433 477.386C405.833 476.052 407.3 474.852 408.767 474.852C410.767 474.852 411.167 474.186 410.5 472.186C409.567 469.119 411.833 465.519 414.633 465.519C415.7 465.519 417.167 466.719 418.1 468.186Z" fill="#1B1B1B" stroke="#CCFF00" stroke-width="33"/>
<path d="M532.633 58.7194C531.7 59.3861 531.3 60.5861 531.7 61.3861C532.767 63.1194 537.833 60.9861 537.833 58.8528C537.833 57.2528 535.167 57.1194 532.633 58.7194Z" fill="#1B1B1B" stroke="#CCFF00" stroke-width="33"/>
<path d="M917.034 72.8526C916.5 73.9193 917.834 76.9859 919.7 79.5193C922.767 83.3859 924.1 84.1859 928.367 84.1859C931.3 84.1859 934.9 85.2526 936.634 86.5859C941.7 90.4526 943.967 90.8526 951.434 88.9859C962.767 86.0526 973.434 85.2526 978.234 86.7193C982.9 88.3193 992.634 85.9193 993.567 82.9859C994.367 80.4526 991.034 77.3859 987.967 77.7859C982.634 78.4526 957.167 74.7193 952.1 72.5859C946.5 70.1859 944.5 71.1193 946.9 74.8526C948.9 78.1859 949.034 78.1859 938.367 74.1859C928.234 70.3193 918.234 69.7859 917.034 72.8526Z" fill="#1B1B1B" stroke="#CCFF00" stroke-width="33"/>
<path d="M904.5 76.8525C904.5 79.1192 907.433 82.8525 909.3 82.8525C912.633 82.8525 911.033 76.9859 907.567 76.4525C905.833 76.1859 904.5 76.3192 904.5 76.8525Z" fill="#1B1B1B" stroke="#CCFF00" stroke-width="33"/>
<path d="M1001.83 81.5192C1001.83 84.0526 1005.97 85.5192 1013.3 85.5192C1018.63 85.5192 1023.57 86.4526 1027.3 88.1859C1033.97 91.1192 1047.03 91.7859 1049.57 89.2526C1053.03 85.7859 1051.3 84.1859 1043.97 84.1859C1040.1 84.1859 1034.77 83.2526 1032.1 82.1859C1027.57 80.3192 1001.83 79.6526 1001.83 81.5192Z" fill="#1B1B1B" stroke="#CCFF00" stroke-width="33"/>
<path d="M972.5 95.5195C972.5 96.9862 973.967 97.5195 977.567 97.5195C982.233 97.3862 982.367 97.2529 979.967 95.5195C976.5 92.9862 972.5 92.9862 972.5 95.5195Z" fill="#1B1B1B" stroke="#CCFF00" stroke-width="33"/>
<path d="M985.167 101.519C983.833 102.986 983.033 104.453 983.3 104.719C983.567 104.986 989.833 105.919 997.033 106.719C1004.37 107.519 1011.7 108.586 1013.57 109.119C1016.1 109.653 1016.63 109.386 1016.23 107.519C1015.7 104.719 1005.3 100.986 994.633 99.6527C988.633 98.8527 987.3 99.1194 985.167 101.519Z" fill="#1B1B1B" stroke="#CCFF00" stroke-width="33"/>
<path d="M1322.9 148.319C1319.7 150.186 1319.97 151.652 1323.43 152.719C1327.43 153.652 1329.7 151.386 1327.17 148.852C1325.7 147.519 1324.5 147.386 1322.9 148.319Z" fill="#1B1B1B" stroke="#CCFF00" stroke-width="33"/>
<path d="M1543.17 349.119C1543.17 350.853 1550.23 357.519 1552.1 357.519C1555.7 357.519 1553.7 353.919 1548.23 350.453C1544.23 348.053 1543.17 347.653 1543.17 349.119Z" fill="#1B1B1B" stroke="#CCFF00" stroke-width="33"/>
<path d="M1564.5 352.719C1564.5 354.586 1569.3 358.853 1571.57 358.853C1572.1 358.853 1571.3 356.986 1569.57 354.853C1566.37 350.453 1564.5 349.786 1564.5 352.719Z" fill="#1B1B1B" stroke="#CCFF00" stroke-width="33"/>
<path d="M1293.03 358.186C1292.5 359.519 1293.43 361.653 1295.57 363.919C1298.1 366.453 1298.9 368.453 1298.23 370.586C1297.7 372.986 1299.57 375.653 1307.97 384.586C1313.57 390.586 1320.63 397.119 1323.57 399.119C1328.77 402.719 1337.7 415.119 1337.83 418.719C1337.83 419.653 1340.23 422.719 1343.17 425.386C1346.5 428.453 1349.83 433.253 1351.83 438.186C1354.37 444.719 1355.7 446.319 1358.9 447.119C1362.23 448.053 1362.9 448.986 1363.7 453.386C1364.1 456.319 1366.5 461.386 1369.17 464.719C1371.7 468.186 1373.83 471.653 1373.83 472.719C1373.83 475.119 1378.23 478.853 1380.9 478.853C1382.37 478.853 1383.17 477.786 1383.17 475.519C1383.17 471.653 1385.17 471.253 1392.1 473.786C1395.3 474.986 1396.9 474.986 1397.97 473.919C1399.03 472.853 1398.1 471.653 1394.37 469.786C1386.37 465.653 1371.17 451.119 1371.17 447.519C1371.17 445.919 1369.97 442.986 1368.5 441.119C1365.3 437.119 1365.17 435.386 1367.83 434.319C1370.77 433.253 1375.7 435.519 1379.43 439.519C1381.57 441.786 1383.43 442.719 1384.9 442.053C1388.23 440.853 1387.7 439.386 1382.9 436.053C1380.5 434.453 1375.43 430.186 1371.57 426.586C1367.83 423.119 1363.97 420.186 1363.03 420.186C1359.57 420.186 1352.77 413.386 1348.63 405.653C1345.17 398.986 1343.43 397.253 1340.37 396.586C1338.23 396.186 1335.83 394.719 1335.03 393.386C1334.37 391.919 1332.9 390.853 1331.97 390.853C1330.9 390.853 1328.77 388.186 1327.17 384.853C1324.23 378.719 1313.03 368.186 1309.43 368.186C1308.23 368.186 1305.97 366.453 1304.23 364.319C1302.5 362.319 1299.57 359.519 1297.57 358.186C1294.1 356.053 1293.83 356.053 1293.03 358.186Z" fill="#1B1B1B" stroke="#CCFF00" stroke-width="33"/>
<path d="M1650.37 381.653C1649.43 383.386 1652.1 385.519 1655.17 385.519C1657.43 385.519 1661.43 383.253 1660.5 382.453C1658.77 380.986 1651.17 380.453 1650.37 381.653Z" fill="#1B1B1B" stroke="#CCFF00" stroke-width="33"/>
<path d="M1667.17 387.519C1667.17 389.919 1670.37 391.519 1672.37 390.319C1674.5 388.986 1672.5 385.519 1669.7 385.519C1668.37 385.519 1667.17 386.453 1667.17 387.519Z" fill="#1B1B1B" stroke="#CCFF00" stroke-width="33"/>
<path d="M1719.97 394.453C1718.5 395.919 1719.17 397.519 1721.17 397.519C1722.23 397.519 1723.17 396.986 1723.17 396.319C1723.17 394.586 1721.03 393.386 1719.97 394.453Z" fill="#1B1B1B" stroke="#CCFF00" stroke-width="33"/>
<path d="M1484.9 407.786C1482.77 408.586 1482.63 412.186 1484.5 412.186C1485.97 412.186 1487.97 408.452 1487.03 407.652C1486.77 407.386 1485.7 407.519 1484.9 407.786Z" fill="#1B1B1B" stroke="#CCFF00" stroke-width="33"/>
<path d="M1490.77 412.853C1487.97 415.653 1486.63 420.186 1488.1 421.653C1490.5 424.053 1496.5 420.586 1496.5 416.986C1496.5 412.453 1493.43 410.186 1490.77 412.853Z" fill="#1B1B1B" stroke="#CCFF00" stroke-width="33"/>
<path d="M1491.97 427.919C1491.57 428.719 1491.83 429.786 1492.63 430.186C1494.63 431.519 1495.97 429.786 1494.23 428.053C1493.3 427.119 1492.5 427.119 1491.97 427.919Z" fill="#1B1B1B" stroke="#CCFF00" stroke-width="33"/>
<path d="M1473.03 480.986C1471.57 483.119 1471.17 484.719 1472.1 485.653C1473.97 487.519 1477.83 485.653 1477.83 482.719C1477.83 481.386 1478.5 480.186 1479.17 480.186C1479.97 480.186 1480.5 479.519 1480.5 478.853C1480.5 476.186 1475.17 477.653 1473.03 480.986Z" fill="#1B1B1B" stroke="#CCFF00" stroke-width="33"/>
<path d="M1455.7 491.653C1453.3 495.12 1452.63 502.053 1454.37 503.786C1455.83 505.253 1459.83 502.186 1460.23 499.253C1460.5 497.653 1461.83 495.386 1463.3 494.053C1467.03 490.72 1466.5 488.186 1461.83 488.186C1459.03 488.186 1457.17 489.253 1455.7 491.653Z" fill="#1B1B1B" stroke="#CCFF00" stroke-width="33"/>
<path d="M1385.83 491.519C1384.37 493.253 1384.9 494.319 1389.03 498.053C1392.1 501.119 1393.83 503.919 1393.83 506.053C1393.83 507.919 1394.5 509.519 1395.17 509.519C1396.63 509.519 1398.63 513.786 1399.43 518.319C1399.7 520.053 1399.03 520.853 1397.03 520.986C1392.23 521.253 1391.03 522.719 1392.63 525.786C1393.83 527.919 1393.57 529.253 1391.3 532.319C1389.7 534.319 1388.5 536.853 1388.5 537.919C1388.5 540.453 1391.3 542.853 1394.23 542.853C1395.57 542.853 1398.37 544.719 1400.37 546.853C1403.7 550.586 1404.23 550.853 1408.63 549.386C1411.17 548.453 1413.7 547.253 1414.37 546.719C1416.23 545.119 1411.57 540.586 1406.5 538.853C1402.37 537.519 1399.57 534.053 1401.17 532.453C1401.57 532.053 1403.43 532.453 1405.3 533.386C1408.23 534.719 1409.3 534.586 1411.17 532.853C1414.37 529.919 1416.23 530.319 1422.37 535.253C1434.1 544.853 1437.83 544.986 1437.83 535.786C1437.83 529.119 1439.3 527.253 1445.17 526.586C1448.1 526.319 1449.3 525.386 1449.57 523.119C1449.83 521.386 1449.43 519.253 1448.63 518.319C1447.83 517.386 1447.57 514.719 1447.97 512.453C1449.03 506.986 1447.7 503.386 1445.43 505.253C1444.5 506.053 1439.7 507.119 1434.9 507.653C1426.77 508.453 1425.3 508.186 1417.3 504.453C1412.37 502.186 1405.03 497.919 1400.9 494.853C1393.03 489.253 1388.63 488.186 1385.83 491.519Z" fill="#1B1B1B" stroke="#CCFF00" stroke-width="33"/>
<path d="M1415.17 551.386C1412.63 552.319 1410.5 553.786 1410.5 554.719C1410.5 555.519 1409.57 556.853 1408.5 557.519C1406.9 558.453 1406.9 559.119 1408.23 560.453C1409.03 561.253 1409.83 564.586 1409.83 567.519C1409.83 572.986 1412.77 577.519 1416.1 577.519C1417.7 577.519 1419.17 586.853 1419.3 597.919C1419.43 603.253 1418.77 606.453 1417.3 608.053C1416.1 609.386 1415.17 611.119 1415.17 611.919C1415.17 614.053 1409.97 616.586 1407.57 615.653C1406.37 615.119 1405.83 613.786 1406.23 612.186C1407.03 609.253 1404.77 608.053 1401.57 609.786C1399.83 610.586 1399.17 612.586 1399.17 616.319C1399.17 619.253 1398.23 623.786 1397.17 626.319C1396.1 628.986 1395.57 632.586 1395.97 634.319C1396.9 638.053 1396.63 638.186 1390.63 635.386C1386.5 633.386 1384.9 633.253 1375.57 634.986C1365.43 636.719 1364.9 636.986 1357.83 644.319C1353.83 648.586 1349.3 652.186 1347.97 652.453C1344.63 652.986 1343.97 654.986 1346.23 658.053C1348.9 661.653 1363.3 662.186 1367.7 658.719C1369.43 657.386 1372.1 656.186 1373.57 656.186C1374.9 656.186 1377.57 655.119 1379.3 653.653C1381.43 652.053 1385.57 650.986 1392.23 650.586L1401.83 649.919V655.519C1401.83 661.253 1403.83 664.186 1409.03 666.053C1411.97 667.119 1417.83 663.653 1417.83 660.853C1417.83 659.919 1418.9 658.053 1420.1 656.719C1422.23 654.586 1422.1 654.319 1418.63 651.519C1416.5 649.786 1415.3 647.786 1415.7 646.986C1417.3 644.453 1421.43 645.386 1423.7 648.986C1425.97 652.186 1426.37 652.319 1435.57 651.386C1445.7 650.453 1449.57 648.719 1447.17 646.319C1443.17 642.319 1448.37 638.453 1452.63 642.319C1455.3 644.719 1455.43 644.719 1457.97 641.653C1461.3 637.519 1461.17 634.453 1457.17 629.786C1455.03 627.253 1453.17 622.719 1452.37 617.919C1451.57 613.653 1450.1 608.186 1449.03 605.653C1447.3 601.653 1447.43 600.853 1449.3 598.719C1451.3 596.453 1451.3 595.786 1448.5 588.586C1442.9 574.453 1439.57 568.853 1433.97 564.453C1431.03 562.053 1427.43 560.186 1426.23 560.453C1424.23 560.719 1423.83 559.919 1423.83 555.519C1423.83 549.519 1422.37 548.719 1415.17 551.386Z" fill="#1B1B1B" stroke="#CCFF00" stroke-width="33"/>
<path d="M120.5 635.519C119.567 636.586 116.9 637.519 114.5 637.519C109.7 637.519 105.033 641.653 106.233 644.853C106.767 646.186 108.767 646.853 112.233 646.853C122.1 646.853 133.7 634.986 125.033 633.786C123.567 633.519 121.433 634.319 120.5 635.519Z" fill="#1B1B1B" stroke="#CCFF00" stroke-width="33"/>
<path d="M1382.37 658.186C1381.83 659.386 1379.83 660.186 1377.3 660.186C1373.83 660.186 1372.77 660.986 1370.9 665.253C1368.9 669.519 1368.77 670.986 1370.1 674.586C1372.77 681.386 1381.7 682.186 1379.97 675.519C1378.77 670.719 1381.97 668.986 1387.83 670.986C1393.57 673.119 1395.17 671.653 1395.17 663.786C1395.17 659.653 1394.63 658.586 1391.7 657.519C1386.77 655.653 1383.17 655.919 1382.37 658.186Z" fill="#1B1B1B" stroke="#CCFF00" stroke-width="33"/>
<path d="M1339.43 666.586C1336.63 668.986 1335.57 670.719 1336.37 671.519C1337.03 672.319 1337.83 674.319 1338.1 676.186C1338.63 680.852 1342.5 681.119 1344.77 676.586C1346.77 672.319 1350.77 671.652 1353.03 675.119C1354.1 676.852 1354.1 678.186 1352.9 680.052C1351.83 681.652 1351.83 682.986 1352.77 683.919C1353.57 684.719 1353.57 686.052 1352.37 687.786C1351.03 690.052 1351.17 690.986 1352.9 693.652C1354.23 695.386 1355.17 697.786 1355.17 699.119C1355.17 701.386 1359.97 705.519 1362.5 705.519C1364.1 705.386 1369.83 696.719 1369.83 694.186C1369.83 693.119 1369.17 691.919 1368.37 691.519C1367.57 690.986 1367.03 687.519 1367.17 683.652C1367.43 673.919 1367.57 674.186 1363.7 669.652C1361.17 666.586 1359.17 665.519 1355.83 665.519C1353.3 665.519 1350.9 664.852 1350.5 664.186C1349.03 661.786 1343.97 662.852 1339.43 666.586Z" fill="#1B1B1B" stroke="#CCFF00" stroke-width="33"/>
<path d="M1293.83 667.519C1292.9 668.586 1292.37 669.919 1292.77 670.186C1293.97 671.519 1301.97 669.119 1301.43 667.653C1300.63 665.253 1295.83 665.253 1293.83 667.519Z" fill="#1B1B1B" stroke="#CCFF00" stroke-width="33"/>
<path d="M1363.03 714.319C1361.57 716.186 1361.7 716.319 1364.5 715.919C1366.23 715.786 1367.83 714.719 1368.23 713.786C1368.9 711.519 1365.17 711.786 1363.03 714.319Z" fill="#1B1B1B" stroke="#CCFF00" stroke-width="33"/>
<path d="M1356.5 745.519C1351.83 750.186 1353.3 751.786 1360.23 750.053C1363.57 749.119 1364.23 744.853 1361.17 743.653C1359.97 743.253 1357.97 744.053 1356.5 745.519Z" fill="#1B1B1B" stroke="#CCFF00" stroke-width="33"/>
<path d="M414.767 765.252C412.633 767.652 412.633 767.919 414.633 769.519C417.3 771.786 421.167 769.786 421.167 766.052C421.167 762.586 417.567 762.186 414.767 765.252Z" fill="#1B1B1B" stroke="#CCFF00" stroke-width="33"/>
<path d="M1346.63 771.119C1345.17 773.253 1344.9 774.453 1346.1 775.786C1348.1 778.319 1349.83 777.919 1349.83 774.986C1349.83 773.653 1350.77 772.053 1351.97 771.653C1353.03 771.253 1353.57 770.319 1353.17 769.519C1351.83 767.253 1348.77 768.053 1346.63 771.119Z" fill="#1B1B1B" stroke="#CCFF00" stroke-width="33"/>
<path d="M347.167 774.053C347.167 775.119 347.7 776.319 348.367 776.719C349.7 777.653 351.433 774.186 350.233 772.986C348.767 771.519 347.167 772.186 347.167 774.053Z" fill="#1B1B1B" stroke="#CCFF00" stroke-width="33"/>
<path d="M1265.57 794.452C1261.57 799.252 1257.57 813.519 1258.1 820.986C1258.77 828.852 1264.77 839.252 1268.23 838.586C1269.3 838.319 1270.9 835.386 1271.83 831.786C1272.77 828.186 1274.1 824.719 1275.03 823.786C1277.17 821.652 1276.9 818.052 1274.37 815.519C1272.5 813.786 1272.37 812.719 1273.7 810.052C1278.37 799.786 1271.83 787.119 1265.57 794.452Z" fill="#1B1B1B" stroke="#CCFF00" stroke-width="33"/>
<path d="M1128.37 873.519C1118.23 878.853 1113.97 887.919 1118.5 894.453C1122.37 900.053 1140.5 899.919 1140.5 894.319C1140.5 893.253 1141.43 891.786 1142.5 890.853C1143.7 889.919 1144.23 888.053 1143.83 886.719C1143.3 885.119 1143.7 883.919 1145.03 883.386C1147.17 882.586 1147.83 876.986 1146.37 872.986C1145.17 869.919 1134.5 870.319 1128.37 873.519Z" fill="#1B1B1B" stroke="#CCFF00" stroke-width="33"/>
<path d="M1276.77 895.252C1274.1 898.319 1273.7 903.786 1275.03 913.652C1275.83 919.119 1276.9 924.986 1277.3 926.852C1278.1 929.652 1277.83 929.919 1276.37 928.452C1273.97 926.319 1270.5 926.452 1268.5 928.852C1267.3 930.319 1267.97 932.586 1272.1 940.186C1275.3 946.052 1278.1 949.786 1279.83 950.186C1290.63 952.319 1290.23 952.052 1289.57 956.586C1288.5 963.519 1289.3 964.186 1298.63 964.186C1306.5 964.186 1307.3 964.452 1310.1 968.186C1313.57 972.986 1315.97 973.252 1316.9 969.252C1317.7 966.452 1317.83 966.452 1320.5 968.852C1323.3 971.386 1324.1 974.852 1321.83 974.852C1319.7 974.852 1320.37 978.586 1322.77 980.052C1324.9 981.252 1324.9 981.519 1322.5 986.052C1321.03 988.586 1320.23 990.986 1320.5 991.252C1320.9 991.652 1323.97 992.319 1327.57 992.719L1333.83 993.652V988.852C1333.83 986.186 1334.5 982.852 1335.3 981.252C1336.5 979.119 1336.23 978.052 1333.97 976.052C1332.37 974.586 1331.17 971.786 1331.17 969.519C1331.17 965.252 1324.9 959.652 1321.43 960.986C1320.37 961.386 1319.17 960.719 1318.77 959.652C1318.1 958.052 1315.97 957.519 1310.5 957.519C1304.1 957.519 1303.17 957.252 1303.17 954.852C1303.17 953.519 1302.1 951.652 1300.63 950.986C1299.03 950.052 1297.97 947.519 1297.43 943.652C1296.63 938.586 1297.3 936.452 1302.1 927.519L1307.43 917.119L1303.43 908.986C1301.17 904.452 1298.77 899.252 1298.1 897.386C1296.77 894.186 1296.1 893.919 1287.43 893.786C1281.43 893.652 1277.57 894.186 1276.77 895.252Z" fill="#1B1B1B" stroke="#CCFF00" stroke-width="33"/>
<path d="M918.767 970.053C915.833 972.986 914.767 991.253 917.167 996.986C918.5 1000.32 919.833 1001.52 921.433 1001.25C923.433 1000.85 923.833 998.719 924.233 984.453C924.633 970.586 924.367 968.186 922.767 968.186C921.567 968.186 919.833 968.986 918.767 970.053Z" fill="#1B1B1B" stroke="#CCFF00" stroke-width="33"/>
<path d="M1287.17 969.786C1287.17 970.586 1288.63 972.853 1290.5 975.119C1293.97 979.253 1294.77 983.386 1292.5 984.853C1290.1 986.319 1291.03 988.186 1294.23 988.186C1295.97 988.186 1298.37 987.119 1299.57 985.786C1302.37 982.719 1302.5 974.453 1299.83 972.186C1297.17 969.919 1287.17 968.186 1287.17 969.786Z" fill="#1B1B1B" stroke="#CCFF00" stroke-width="33"/>
<path d="M399.567 979.652C398.633 980.052 397.833 981.519 397.833 982.986C397.833 984.986 398.767 985.519 402.5 985.519C405.033 985.519 407.167 984.986 407.167 984.319C407.167 983.652 408.633 982.852 410.5 982.586C416.633 981.919 414.633 979.519 407.833 979.252C404.233 979.119 400.367 979.252 399.567 979.652Z" fill="#1B1B1B" stroke="#CCFF00" stroke-width="33"/>
<path d="M1342.1 985.119C1341.3 987.253 1339.83 991.786 1339.03 995.519C1336.63 1006.05 1334.9 1007.92 1327.57 1008.45C1321.43 1008.85 1321.17 1008.99 1320.5 1013.65C1319.97 1016.19 1318.63 1019.79 1317.43 1021.52C1314.1 1026.19 1314.63 1029.25 1319.3 1033.65C1325.57 1039.52 1327.7 1038.85 1332.37 1028.72C1334.63 1023.92 1337.17 1017.65 1337.97 1014.72C1338.9 1011.79 1340.37 1008.85 1341.17 1008.19C1342.77 1006.85 1343.7 1008.45 1346.37 1016.45C1347.3 1019.39 1352.23 1019.65 1353.43 1016.72C1353.83 1015.65 1353.57 1013.25 1352.77 1011.65C1351.7 1009.25 1351.83 1007.79 1353.3 1005.65C1355.43 1002.72 1354.9 993.919 1352.23 986.853C1349.83 980.586 1344.23 979.653 1342.1 985.119Z" fill="#1B1B1B" stroke="#CCFF00" stroke-width="33"/>
<path d="M1307.97 985.253C1307.43 986.186 1307.7 989.119 1308.5 992.053C1309.43 995.653 1309.43 998.453 1308.5 1000.85C1306.5 1006.19 1306.9 1011.79 1309.3 1012.72C1311.97 1013.79 1322.77 1007.12 1323.57 1003.92C1324.63 1000.32 1320.77 996.053 1316.77 996.453C1313.83 996.853 1313.17 996.186 1312.5 992.853C1311.3 987.119 1309.03 983.519 1307.97 985.253Z" fill="#1B1B1B" stroke="#CCFF00" stroke-width="33"/>
<path d="M1279.7 987.519C1278.37 990.853 1280.23 993.786 1283.43 993.253C1287.17 992.719 1287.83 990.453 1285.17 987.653C1282.5 984.986 1280.63 984.986 1279.7 987.519Z" fill="#1B1B1B" stroke="#CCFF00" stroke-width="33"/>
<path d="M1272.5 1008.05C1272.5 1010.32 1271.83 1012.45 1271.17 1012.85C1270.37 1013.39 1268.1 1016.19 1266.23 1019.25C1264.23 1022.32 1259.17 1028.45 1254.9 1032.85C1247.57 1040.45 1245.57 1044.45 1248.37 1046.19C1250.5 1047.39 1258.9 1042.59 1259.7 1039.65C1260.1 1038.05 1262.1 1035.92 1264.23 1034.72C1267.03 1033.12 1268.37 1031.12 1269.03 1027.79C1269.57 1024.85 1270.77 1022.85 1272.37 1022.45C1273.7 1022.19 1275.83 1019.79 1277.17 1017.12C1279.17 1012.85 1279.17 1012.05 1277.17 1008.32C1274.5 1003.12 1272.5 1002.99 1272.5 1008.05Z" fill="#1B1B1B" stroke="#CCFF00" stroke-width="33"/>
<path d="M917.167 1009.52C917.567 1010.19 918.9 1010.85 919.967 1010.85C921.033 1010.85 921.833 1010.19 921.833 1009.52C921.833 1008.72 920.633 1008.19 919.033 1008.19C917.567 1008.19 916.767 1008.72 917.167 1009.52Z" fill="#1B1B1B" stroke="#CCFF00" stroke-width="33"/>
<path d="M1338.9 1021.65C1335.97 1023.25 1335.83 1028.99 1338.63 1030.05C1339.7 1030.45 1342.1 1029.79 1343.97 1028.59C1350.37 1024.45 1345.43 1017.65 1338.9 1021.65Z" fill="#1B1B1B" stroke="#CCFF00" stroke-width="33"/>
<path d="M755.167 1024.85C753.833 1026.45 753.833 1027.39 755.567 1029.92C757.7 1033.25 757.433 1042.45 754.9 1047.12C754.233 1048.59 754.233 1050.59 755.167 1052.19C756.233 1054.05 756.1 1055.52 754.9 1057.39C753.567 1059.52 753.567 1060.99 754.9 1064.59C755.833 1066.99 756.5 1070.85 756.5 1072.99C756.5 1078.45 758.633 1080.19 765.433 1080.19C770.367 1080.19 771.967 1079.39 776.633 1074.85C781.833 1069.79 782.1 1069.25 781.167 1063.92C780.633 1060.72 779.433 1057.25 778.633 1056.19C775.567 1052.45 769.833 1041.25 769.833 1038.85C769.833 1037.52 768.9 1035.79 767.7 1034.72C766.5 1033.79 764.633 1030.85 763.433 1028.32C760.9 1022.99 757.833 1021.65 755.167 1024.85Z" fill="#1B1B1B" stroke="#CCFF00" stroke-width="33"/>
<path d="M1356.1 1026.45C1355.57 1026.85 1355.17 1029.12 1355.17 1031.52C1355.17 1036.59 1353.43 1038.85 1346.77 1042.59C1340.77 1046.05 1339.17 1046.19 1339.17 1043.65C1339.17 1040.59 1336.77 1039.92 1331.83 1041.52C1328.9 1042.45 1326.37 1044.59 1325.17 1046.99C1323.97 1049.12 1322.23 1050.85 1321.3 1050.85C1320.37 1050.85 1317.97 1052.05 1315.97 1053.65C1313.3 1055.79 1312.5 1057.52 1312.5 1061.52C1312.5 1068.32 1316.5 1071.12 1319.7 1066.59C1320.9 1064.99 1321.83 1062.59 1321.83 1061.25C1321.83 1058.05 1323.7 1057.25 1327.57 1058.72C1329.97 1059.65 1331.57 1059.52 1333.3 1058.19C1336.23 1056.05 1349.3 1055.52 1350.5 1057.52C1350.9 1058.19 1349.83 1059.52 1347.97 1060.32C1343.57 1062.32 1342.63 1065.39 1344.5 1072.05C1345.7 1076.45 1347.03 1078.05 1353.03 1081.39C1364.63 1088.05 1367.7 1086.59 1363.17 1076.59C1361.7 1073.25 1360.77 1069.25 1361.3 1067.92C1362.37 1064.19 1366.37 1065.52 1366.9 1069.79C1367.43 1074.05 1370.37 1076.85 1373.17 1075.65C1374.77 1075.12 1375.17 1072.45 1375.17 1063.79C1375.17 1053.65 1374.9 1052.32 1371.83 1049.52C1369.43 1047.25 1368.77 1045.52 1369.3 1043.39C1370.1 1040.19 1367.03 1034.05 1361.83 1028.45C1358.9 1025.39 1357.57 1024.85 1356.1 1026.45Z" fill="#1B1B1B" stroke="#CCFF00" stroke-width="33"/>
<path d="M1478.77 1057.12C1477.43 1058.32 1477.57 1065.52 1478.9 1065.52C1479.97 1065.52 1481.03 1063.65 1484.23 1057.12C1484.9 1055.92 1479.97 1055.79 1478.77 1057.12Z" fill="#1B1B1B" stroke="#CCFF00" stroke-width="33"/>
<path d="M937.433 1063.12C936.767 1065.25 938.767 1069.52 940.633 1069.52C942.5 1069.52 941.567 1062.59 939.7 1061.92C938.767 1061.65 937.833 1062.19 937.433 1063.12Z" fill="#1B1B1B" stroke="#CCFF00" stroke-width="33"/>
<path d="M1242.1 1068.99C1240.37 1070.19 1239.17 1072.45 1239.17 1074.45C1239.17 1076.59 1237.17 1080.45 1233.97 1084.19C1231.17 1087.52 1228.63 1091.52 1228.23 1092.85C1227.83 1094.99 1226.63 1095.52 1222.63 1095.52C1218.5 1095.52 1217.3 1096.05 1216.37 1098.45C1215.7 1100.19 1214.37 1101.52 1213.17 1101.52C1212.1 1101.52 1210.1 1103.52 1208.9 1105.92C1204.23 1114.59 1197.57 1124.19 1195.17 1125.52C1193.83 1126.32 1189.97 1126.85 1186.77 1126.85C1181.03 1126.85 1180.63 1127.12 1177.3 1132.72C1175.43 1136.05 1173.83 1140.45 1173.83 1142.72C1173.83 1147.79 1171.7 1149.12 1168.5 1146.19C1167.03 1144.85 1165.03 1144.32 1163.43 1144.72C1161.83 1145.25 1160.1 1144.59 1158.5 1142.85C1155.43 1139.39 1154.1 1139.52 1149.3 1143.52C1145.83 1146.32 1145.3 1147.79 1144.77 1155.25C1144.37 1161.39 1144.77 1164.99 1146.5 1168.05C1148.1 1171.25 1148.23 1172.85 1147.17 1174.19C1146.1 1175.52 1146.5 1176.72 1148.77 1179.25C1157.03 1188.05 1157.83 1189.65 1158.37 1198.32C1158.77 1203.79 1159.83 1207.65 1161.17 1209.12C1162.5 1210.45 1163.03 1212.45 1162.63 1214.32C1162.1 1216.05 1162.5 1217.52 1163.43 1217.79C1164.9 1218.32 1175.17 1217.12 1179.03 1216.05C1180.23 1215.79 1181.3 1216.85 1181.83 1218.85C1182.5 1221.65 1183.43 1222.19 1187.83 1222.32C1190.77 1222.45 1194.63 1221.79 1196.5 1220.85C1199.3 1219.39 1200.63 1219.39 1204.5 1221.12C1207.03 1222.19 1210.9 1223.12 1213.03 1223.25C1216.37 1223.52 1217.17 1224.32 1218.37 1228.85C1220.37 1235.92 1223.43 1236.19 1231.57 1230.05C1239.43 1224.32 1245.83 1212.19 1245.83 1202.99C1245.83 1197.52 1246.37 1196.59 1252.63 1190.99L1259.57 1184.85L1259.7 1174.59C1259.97 1161.65 1261.43 1159.65 1269.97 1160.59C1273.97 1161.12 1277.03 1160.72 1278.5 1159.65C1280.63 1158.05 1280.5 1157.65 1276.37 1152.99C1273.97 1150.19 1270.63 1147.39 1269.03 1146.85C1266.5 1145.79 1266.1 1144.99 1266.77 1140.32C1267.43 1135.79 1267.03 1134.59 1264.1 1131.92C1259.43 1127.52 1257.7 1116.05 1261.17 1112.19C1262.5 1110.72 1264.37 1109.52 1265.17 1109.52C1266.1 1109.52 1268.23 1108.45 1269.83 1107.12L1272.9 1104.59L1269.97 1102.59C1267.3 1100.72 1267.17 1100.32 1269.17 1098.32C1270.37 1097.12 1272.77 1096.19 1274.37 1096.19C1276.1 1096.19 1278.23 1095.25 1279.17 1094.19C1280.63 1092.45 1280.37 1091.52 1277.83 1088.85C1276.1 1086.99 1273.57 1085.52 1272.23 1085.52C1269.83 1085.52 1262.1 1080.85 1260.23 1078.19C1259.7 1077.52 1259.7 1076.45 1259.97 1075.92C1260.37 1075.25 1258.77 1072.99 1256.5 1070.85C1251.7 1066.32 1246.77 1065.79 1242.1 1068.99Z" fill="#1B1B1B" stroke="#CCFF00" stroke-width="33"/>
<path d="M1312.77 1075.12C1313.57 1077.52 1315.7 1077.79 1318.5 1075.52C1321.03 1073.65 1320.9 1073.65 1316.77 1073.52C1313.83 1073.52 1312.5 1074.05 1312.77 1075.12Z" fill="#1B1B1B" stroke="#CCFF00" stroke-width="33"/>
<path d="M1303.43 1080.32C1301.7 1080.99 1300.77 1082.05 1301.17 1082.85C1302.23 1084.59 1306.77 1084.59 1307.97 1082.72C1309.3 1080.45 1306.77 1078.99 1303.43 1080.32Z" fill="#1B1B1B" stroke="#CCFF00" stroke-width="33"/>
<path d="M962.367 1086.19C960.9 1089.79 963.167 1097.52 967.034 1101.92C969.034 1104.19 971.567 1107.52 972.367 1109.25C973.3 1110.99 976.634 1113.52 979.834 1114.85C983.034 1116.19 986.367 1118.72 987.3 1120.45C988.234 1122.19 989.967 1124.32 991.434 1125.25C992.9 1126.45 993.834 1128.72 993.834 1131.65C993.834 1138.32 995.834 1141.25 1001.3 1142.32C1007.17 1143.39 1008.9 1146.19 1011.97 1159.39C1014.23 1168.59 1014.9 1170.05 1018.23 1171.12C1020.23 1171.92 1021.83 1172.99 1021.83 1173.65C1021.83 1174.32 1023.17 1176.19 1024.77 1177.79C1026.37 1179.39 1029.03 1184.45 1030.63 1188.99C1032.23 1193.52 1035.03 1199.79 1036.9 1202.99C1038.77 1206.19 1041.83 1211.79 1043.57 1215.52C1045.3 1219.12 1048.1 1223.39 1049.83 1224.85C1051.43 1226.32 1053.57 1229.12 1054.63 1231.12C1055.7 1233.25 1058.5 1235.65 1060.9 1236.72C1065.57 1238.72 1079.17 1251.65 1079.17 1254.19C1079.17 1254.99 1080.37 1256.85 1081.7 1258.05C1084.1 1260.19 1084.5 1260.19 1088.5 1258.19C1092.37 1256.19 1092.9 1256.19 1096.1 1258.19C1101.03 1261.39 1101.83 1259.39 1101.83 1242.99C1101.83 1230.19 1102.1 1228.72 1105.3 1224.59L1108.63 1220.19L1102.9 1213.52C1099.3 1209.39 1096.1 1206.85 1094.37 1206.85C1090.77 1206.85 1083.17 1195.65 1083.17 1190.59C1083.17 1186.72 1080.37 1183.79 1077.17 1184.45C1073.03 1185.25 1071.83 1181.12 1074.23 1174.05C1076.1 1168.05 1076.1 1167.39 1074.23 1165.25C1073.03 1163.79 1070.23 1162.85 1067.57 1162.85C1063.17 1162.85 1063.03 1162.72 1063.83 1158.45C1064.9 1152.72 1061.97 1149.52 1055.83 1149.52C1051.7 1149.52 1051.3 1149.12 1050.9 1145.12C1050.5 1141.25 1050.1 1140.85 1046.37 1141.12C1043.17 1141.39 1041.57 1140.72 1039.97 1138.19C1038.63 1136.05 1036.5 1134.85 1034.37 1134.85C1032.23 1134.85 1029.57 1133.25 1027.43 1130.99C1025.43 1128.72 1021.97 1124.99 1019.7 1122.45C1017.3 1119.92 1014.77 1116.59 1013.97 1114.99C1013.03 1113.52 1011.43 1112.19 1010.37 1112.19C1007.43 1112.19 999.167 1105.25 999.167 1102.72C999.167 1101.52 997.167 1098.32 994.767 1095.65C990.5 1091.12 989.967 1090.85 981.567 1090.85C974.1 1090.85 972.1 1090.32 968.767 1087.52C964.1 1083.65 963.3 1083.52 962.367 1086.19Z" fill="#1B1B1B" stroke="#CCFF00" stroke-width="33"/>
<path d="M1460.5 1102.19C1460.5 1103.25 1461.7 1104.72 1463.17 1105.52C1465.3 1106.72 1466.1 1106.59 1466.63 1104.99C1467.03 1103.92 1467.03 1102.32 1466.5 1101.52C1465.3 1099.52 1460.5 1099.92 1460.5 1102.19Z" fill="#1B1B1B" stroke="#CCFF00" stroke-width="33"/>
<path d="M1378.37 1106.19C1377.43 1108.45 1378.9 1111.12 1380.63 1110.19C1382.23 1109.12 1382.23 1104.19 1380.5 1104.19C1379.7 1104.19 1378.77 1105.12 1378.37 1106.19Z" fill="#1B1B1B" stroke="#CCFF00" stroke-width="33"/>
<path d="M967.033 1128.99C965.7 1130.72 965.7 1131.25 967.3 1132.32C968.367 1132.99 970.233 1133.52 971.433 1133.52C972.633 1133.52 974.5 1133.92 975.7 1134.32C978.633 1135.52 978.5 1131.79 975.433 1129.12C972.367 1126.32 969.3 1126.19 967.033 1128.99Z" fill="#1B1B1B" stroke="#CCFF00" stroke-width="33"/>
<path d="M1401.97 1134.05C1400.63 1135.65 1400.63 1136.99 1401.7 1139.52C1403.83 1144.32 1405.17 1144.19 1405.57 1138.99C1406.1 1133.65 1404.23 1131.25 1401.97 1134.05Z" fill="#1B1B1B" stroke="#CCFF00" stroke-width="33"/>
<path d="M1394.77 1142.59C1393.43 1143.92 1391.57 1147.92 1390.37 1151.39C1388.37 1156.99 1388.37 1158.05 1390.37 1162.85C1393.3 1170.32 1393.03 1173.12 1388.9 1178.05L1385.43 1182.19L1389.97 1182.59C1392.5 1182.85 1395.57 1184.05 1396.77 1185.12C1398.63 1186.85 1399.57 1186.85 1401.03 1185.52C1402.77 1184.19 1402.77 1183.52 1400.37 1180.32C1398.63 1178.05 1397.83 1175.12 1398.1 1172.72C1398.37 1169.52 1399.17 1168.72 1402.5 1168.45C1409.43 1167.79 1410.1 1167.25 1408.37 1164.05C1407.3 1161.92 1407.3 1160.45 1408.5 1158.19C1409.3 1156.59 1409.83 1153.52 1409.57 1151.39C1409.17 1147.52 1407.57 1146.85 1402.9 1148.85C1401.03 1149.52 1400.5 1149.12 1400.5 1147.12C1400.5 1143.65 1399.17 1140.19 1397.83 1140.19C1397.3 1140.19 1395.97 1141.25 1394.77 1142.59Z" fill="#1B1B1B" stroke="#CCFF00" stroke-width="33"/>
<path d="M1354.9 1148.85C1354.1 1150.72 1352.63 1152.19 1351.57 1152.19C1350.63 1152.19 1349.17 1153.65 1348.5 1155.52C1347.3 1158.59 1346.77 1158.85 1337.57 1158.59C1332.23 1158.59 1326.63 1157.92 1325.17 1157.12C1323.7 1156.32 1318.63 1154.85 1313.97 1153.92C1305.43 1152.19 1305.3 1152.19 1302.23 1155.39C1300.5 1157.25 1296.77 1159.52 1293.83 1160.32C1288.63 1161.92 1286.9 1164.32 1287.43 1169.52C1287.97 1176.05 1286.9 1184.19 1285.17 1185.79C1284.1 1186.72 1282.37 1188.32 1281.17 1189.25C1279.83 1190.45 1279.17 1193.39 1279.17 1198.19C1279.17 1202.99 1278.23 1206.85 1276.37 1210.05C1274.77 1212.85 1273.83 1216.45 1274.1 1219.12C1274.5 1223.12 1274.9 1223.52 1278.77 1223.25C1287.17 1222.59 1289.57 1232.32 1284.37 1246.19C1282.9 1250.32 1281.97 1254.45 1282.37 1255.52C1283.3 1258.05 1294.5 1258.32 1295.97 1255.92C1296.63 1254.99 1297.17 1245.12 1297.17 1233.79C1297.43 1212.99 1298.1 1210.19 1302.63 1211.12C1304.77 1211.52 1305.17 1212.85 1305.17 1220.85C1305.17 1229.52 1305.3 1230.05 1308.5 1230.85C1310.9 1231.52 1311.7 1232.45 1311.43 1234.32C1311.17 1235.65 1310.77 1238.59 1310.77 1240.85C1310.5 1244.32 1311.03 1244.85 1314.1 1245.25C1317.03 1245.65 1318.1 1244.99 1319.17 1242.19C1320.23 1239.25 1321.17 1238.72 1324.77 1239.12C1328.5 1239.52 1329.17 1238.99 1329.57 1236.32C1329.97 1234.32 1328.77 1231.92 1326.37 1229.39C1323.03 1225.92 1322.9 1225.25 1324.5 1222.19C1326.1 1219.12 1325.83 1218.45 1319.97 1211.52C1312.77 1203.25 1312.63 1199.92 1319.57 1197.65C1321.83 1196.72 1325.83 1194.19 1328.23 1191.79C1330.63 1189.39 1333.97 1187.52 1335.57 1187.52C1339.03 1187.52 1340.37 1182.72 1337.57 1180.59C1335.17 1178.59 1321.83 1180.05 1321.83 1182.32C1321.83 1183.39 1319.7 1184.19 1316.23 1184.45C1311.7 1184.72 1310.5 1185.39 1310.5 1187.39C1310.5 1191.12 1306.63 1193.12 1303.83 1190.85C1302.63 1189.92 1301.97 1188.32 1302.37 1187.39C1302.77 1186.45 1301.7 1184.59 1299.97 1183.25C1297.83 1181.65 1296.63 1178.99 1296.1 1175.25C1295.17 1167.39 1296.77 1166.32 1307.7 1168.32C1315.03 1169.65 1317.17 1169.65 1321.7 1167.92C1324.77 1166.72 1327.57 1166.32 1328.63 1166.99C1331.3 1168.59 1349.43 1168.45 1352.63 1166.85C1355.3 1165.39 1363.17 1150.99 1363.17 1147.52C1363.17 1144.05 1356.63 1144.99 1354.9 1148.85Z" fill="#1B1B1B" stroke="#CCFF00" stroke-width="33"/>
<path d="M664.1 1163.12C663.167 1166.72 663.967 1168.32 666.5 1167.25C669.033 1166.32 669.167 1160.19 666.633 1160.19C665.7 1160.19 664.5 1161.52 664.1 1163.12Z" fill="#1B1B1B" stroke="#CCFF00" stroke-width="33"/>
<path d="M1085.03 1173.65C1084.63 1174.45 1084.77 1175.65 1085.57 1176.45C1087.57 1178.45 1091.7 1177.12 1092.23 1174.45C1092.63 1172.85 1091.83 1172.19 1089.3 1172.19C1087.43 1172.19 1085.57 1172.85 1085.03 1173.65Z" fill="#1B1B1B" stroke="#CCFF00" stroke-width="33"/>
<path d="M1002.77 1175.65C1000.9 1177.52 1001.83 1180.32 1004.23 1179.92C1005.43 1179.65 1006.5 1178.59 1006.5 1177.65C1006.5 1175.52 1004.1 1174.32 1002.77 1175.65Z" fill="#1B1B1B" stroke="#CCFF00" stroke-width="33"/>
<path d="M1430.63 1183.79C1429.43 1184.99 1429.7 1188.19 1431.03 1188.19C1432.63 1188.19 1433.97 1184.45 1432.63 1183.65C1431.97 1183.25 1431.17 1183.25 1430.63 1183.79Z" fill="#1B1B1B" stroke="#CCFF00" stroke-width="33"/>
<path d="M1006.23 1186.45C1001.97 1187.92 1006.63 1196.19 1011.57 1196.19C1014.23 1196.19 1014.23 1196.32 1012.37 1191.12C1010.9 1186.85 1009.03 1185.52 1006.23 1186.45Z" fill="#1B1B1B" stroke="#CCFF00" stroke-width="33"/>
<path d="M1330.77 1191.92C1327.57 1195.39 1327.97 1196.19 1332.9 1196.19C1338.1 1196.19 1341.7 1194.19 1339.83 1192.45C1336.9 1189.65 1332.9 1189.52 1330.77 1191.92Z" fill="#1B1B1B" stroke="#CCFF00" stroke-width="33"/>
<path d="M1390.1 1193.79C1388.23 1195.65 1387.97 1199.65 1389.7 1200.85C1390.37 1201.25 1391.43 1200.85 1391.83 1200.05C1392.37 1199.39 1394.77 1198.85 1397.3 1199.12C1399.7 1199.25 1401.83 1198.99 1401.83 1198.45C1401.83 1197.92 1401.83 1196.99 1401.83 1196.45C1401.83 1195.12 1395.97 1192.19 1393.43 1192.19C1392.5 1192.19 1391.03 1192.85 1390.1 1193.79Z" fill="#1B1B1B" stroke="#CCFF00" stroke-width="33"/>
<path d="M1098.5 1196.32C1095.03 1198.45 1092.9 1201.39 1092.63 1204.45C1092.5 1204.99 1094.77 1205.52 1097.43 1205.79C1101.57 1206.05 1102.5 1206.85 1103.3 1209.92C1104.37 1214.05 1111.97 1222.45 1113.3 1221.12C1113.83 1220.72 1114.5 1217.79 1114.77 1214.59C1115.43 1209.39 1115.03 1208.59 1111.97 1206.99C1110.1 1205.92 1108.5 1203.92 1108.5 1202.59C1108.5 1199.25 1106.37 1195.39 1104.23 1194.59C1103.3 1194.19 1100.77 1194.99 1098.5 1196.32Z" fill="#1B1B1B" stroke="#CCFF00" stroke-width="33"/>
<path d="M1348.1 1197.39C1347.83 1198.85 1348.1 1200.59 1348.9 1201.39C1350.77 1203.25 1358.5 1203.25 1361.97 1201.39C1364.63 1200.05 1364.63 1199.92 1362.37 1197.39C1359.17 1193.79 1349.03 1193.79 1348.1 1197.39Z" fill="#1B1B1B" stroke="#CCFF00" stroke-width="33"/>
<path d="M1422.37 1198.05C1421.17 1201.39 1422.77 1204.05 1426.5 1204.99C1430.63 1206.05 1434.1 1203.39 1433.57 1199.65C1433.3 1197.52 1432.1 1196.72 1428.1 1196.45C1424.63 1196.19 1422.9 1196.59 1422.37 1198.05Z" fill="#1B1B1B" stroke="#CCFF00" stroke-width="33"/>
<path d="M1021.17 1205.65C1019.83 1207.65 1021.3 1208.72 1023.83 1207.65C1025.03 1207.25 1025.57 1206.32 1025.17 1205.52C1024.1 1203.79 1022.23 1203.79 1021.17 1205.65Z" fill="#1B1B1B" stroke="#CCFF00" stroke-width="33"/>
<path d="M1370.77 1206.45C1369.17 1207.92 1369.7 1209.52 1371.83 1209.52C1372.9 1209.52 1373.83 1208.59 1373.83 1207.52C1373.83 1205.39 1372.23 1204.85 1370.77 1206.45Z" fill="#1B1B1B" stroke="#CCFF00" stroke-width="33"/>
<path d="M1125.97 1211.65C1123.3 1214.45 1123.03 1215.39 1124.23 1218.19C1125.97 1221.92 1126.9 1222.19 1131.7 1220.05C1136.5 1217.79 1136.9 1214.05 1132.63 1210.99C1129.03 1208.45 1129.03 1208.45 1125.97 1211.65Z" fill="#1B1B1B" stroke="#CCFF00" stroke-width="33"/>
<path d="M1402.1 1214.99C1399.57 1215.92 1399.03 1216.99 1399.43 1221.12L1399.83 1226.19L1409.97 1225.79C1419.3 1225.39 1420.37 1225.52 1424.23 1228.85C1429.43 1233.25 1435.57 1233.12 1436.23 1228.59C1437.3 1221.39 1429.17 1215.79 1417.17 1215.52C1413.57 1215.39 1409.3 1214.99 1407.83 1214.59C1406.37 1214.05 1403.83 1214.32 1402.1 1214.99Z" fill="#1B1B1B" stroke="#CCFF00" stroke-width="33"/>
<path d="M1374.23 1218.59C1373.43 1219.12 1373.03 1221.12 1373.43 1223.25C1374.37 1228.05 1380.63 1231.52 1384.5 1229.52C1387.43 1227.92 1388.1 1222.59 1385.57 1220.45C1383.17 1218.59 1376.1 1217.39 1374.23 1218.59Z" fill="#1B1B1B" stroke="#CCFF00" stroke-width="33"/>
<path d="M1330.63 1240.85C1330.23 1241.92 1328.77 1242.85 1327.57 1242.85C1319.7 1242.85 1316.5 1251.92 1322.37 1257.39C1327.3 1262.05 1330.63 1260.19 1331.57 1252.59C1331.97 1248.45 1333.17 1245.65 1335.03 1244.32C1337.3 1242.59 1337.57 1241.79 1336.23 1240.45C1334.1 1238.32 1331.57 1238.45 1330.63 1240.85Z" fill="#1B1B1B" stroke="#CCFF00" stroke-width="33"/>
<path d="M1460.5 1256.05C1459.57 1257.92 1459.57 1258.99 1460.63 1259.52C1462.37 1260.59 1462.63 1260.32 1463.7 1256.45C1464.9 1252.85 1462.5 1252.45 1460.5 1256.05Z" fill="#1B1B1B" stroke="#CCFF00" stroke-width="33"/>
<path d="M1481.97 1257.79C1481.3 1259.52 1479.57 1261.92 1478.1 1263.39C1474.9 1266.19 1471.83 1274.05 1473.17 1276.19C1474.63 1278.59 1478.9 1277.65 1481.57 1274.32C1482.9 1272.45 1485.17 1268.32 1486.37 1264.85C1488.23 1260.05 1488.37 1258.32 1487.17 1256.85C1484.9 1254.05 1483.3 1254.32 1481.97 1257.79Z" fill="#1B1B1B" stroke="#CCFF00" stroke-width="33"/>
<path d="M1293.83 1262.19C1291.7 1264.72 1293.03 1268.32 1295.83 1267.39C1297.97 1266.45 1298.63 1262.19 1296.63 1260.99C1295.97 1260.59 1294.77 1261.12 1293.83 1262.19Z" fill="#1B1B1B" stroke="#CCFF00" stroke-width="33"/>
<path d="M1100.9 1262.99C1100.1 1264.05 1099.03 1266.45 1098.5 1268.59C1097.83 1271.25 1096.77 1272.19 1094.37 1272.19C1091.57 1272.19 1091.17 1272.59 1091.97 1275.79C1093.3 1281.12 1093.83 1281.65 1096.63 1280.85C1097.97 1280.45 1100.37 1279.92 1101.7 1279.39C1103.7 1278.85 1104.9 1279.79 1106.5 1282.85C1108.37 1286.45 1109.03 1286.85 1113.03 1286.19C1115.7 1285.65 1119.3 1286.05 1122.5 1287.39C1125.7 1288.72 1131.43 1289.52 1138.5 1289.52C1145.43 1289.52 1151.03 1290.19 1153.43 1291.39C1166.63 1297.92 1169.17 1298.59 1182.23 1298.72C1190.1 1298.72 1197.7 1299.65 1201.17 1300.85C1208.63 1303.39 1210.77 1302.45 1212.63 1296.05C1214.1 1291.52 1213.97 1290.45 1211.83 1288.19C1209.83 1285.92 1207.97 1285.52 1202.1 1285.79C1194.9 1286.19 1194.9 1286.19 1193.43 1281.52C1192.1 1277.65 1191.03 1276.85 1186.5 1275.92C1183.57 1275.25 1180.5 1273.79 1179.57 1272.72C1178.5 1271.25 1176.9 1270.85 1174.63 1271.39C1172.1 1272.05 1171.17 1271.65 1171.17 1270.19C1171.17 1266.85 1167.57 1267.92 1164.5 1272.19C1161.3 1276.72 1159.43 1277.12 1153.43 1273.92C1151.03 1272.72 1146.23 1271.65 1142.5 1271.52C1136.77 1271.39 1135.83 1270.85 1135.43 1268.45C1134.77 1264.19 1131.83 1263.12 1116.37 1262.19C1105.3 1261.39 1102.1 1261.52 1100.9 1262.99Z" fill="#1B1B1B" stroke="#CCFF00" stroke-width="33"/>
<path d="M1194.23 1274.19C1193.17 1277.12 1197.57 1281.52 1201.7 1281.52C1205.83 1281.52 1211.17 1278.19 1211.17 1275.65C1211.17 1271.92 1195.7 1270.72 1194.23 1274.19Z" fill="#1B1B1B" stroke="#CCFF00" stroke-width="33"/>
<path d="M1437.57 1282.85C1430.1 1292.45 1428.9 1294.32 1429.43 1295.79C1430.63 1299.25 1434.9 1297.39 1440.63 1290.72C1443.83 1286.99 1446.77 1283.79 1447.03 1283.39C1447.97 1282.59 1444.23 1278.85 1442.5 1278.85C1441.57 1278.85 1439.3 1280.59 1437.57 1282.85Z" fill="#1B1B1B" stroke="#CCFF00" stroke-width="33"/>
<path d="M1370.37 1286.45C1367.97 1286.72 1365.03 1288.19 1363.83 1289.52C1361.7 1291.92 1361.7 1292.19 1363.7 1292.99C1366.77 1294.19 1374.63 1292.45 1376.5 1290.19C1377.97 1288.32 1377.3 1285.25 1375.43 1285.79C1374.9 1285.79 1372.63 1286.19 1370.37 1286.45Z" fill="#1B1B1B" stroke="#CCFF00" stroke-width="33"/>
<path d="M1249.17 1298.99C1241.03 1304.45 1239.03 1307.12 1241.83 1308.85C1243.97 1310.19 1269.43 1305.52 1272.23 1303.39C1275.43 1300.99 1272.77 1296.99 1267.7 1296.45C1265.57 1296.19 1263.3 1295.39 1262.63 1294.72C1260.37 1292.59 1257.3 1293.52 1249.17 1298.99Z" fill="#1B1B1B" stroke="#CCFF00" stroke-width="33"/>
<path d="M1215.17 1296.45C1215.17 1297.39 1216.23 1299.52 1217.57 1301.25C1219.83 1304.19 1220.1 1304.19 1224.23 1302.19C1226.77 1300.85 1228.5 1298.99 1228.5 1297.39C1228.5 1295.25 1227.57 1294.85 1221.83 1294.85C1217.43 1294.85 1215.17 1295.39 1215.17 1296.45Z" fill="#1B1B1B" stroke="#CCFF00" stroke-width="33"/>
<path d="M1231.83 1300.19C1227.57 1306.99 1227.7 1307.79 1232.5 1308.45C1237.43 1309.25 1239.17 1307.39 1240.1 1300.19C1240.77 1295.39 1240.5 1294.85 1237.97 1294.85C1236.23 1294.85 1234.1 1296.72 1231.83 1300.19Z" fill="#1B1B1B" stroke="#CCFF00" stroke-width="33"/>
<path d="M1286.1 1299.12C1275.83 1305.52 1277.03 1308.59 1290.37 1309.92C1296.77 1310.59 1299.17 1310.19 1303.7 1307.79C1306.77 1306.32 1312.23 1304.59 1315.83 1304.19C1322.23 1303.52 1322.5 1303.39 1322.5 1299.52C1322.5 1294.99 1322.63 1294.99 1312.23 1298.19C1304.77 1300.45 1304.63 1300.45 1301.03 1297.65C1296.23 1293.92 1294.37 1294.05 1286.1 1299.12Z" fill="#1B1B1B" stroke="#CCFF00" stroke-width="33"/>
<path d="M1330.1 1296.45C1327.3 1299.25 1328.37 1301.52 1332.5 1301.52C1335.57 1301.52 1336.5 1300.85 1336.5 1298.99C1336.5 1297.65 1335.57 1296.05 1334.37 1295.65C1331.7 1294.59 1331.97 1294.59 1330.1 1296.45Z" fill="#1B1B1B" stroke="#CCFF00" stroke-width="33"/>
<path d="M1363.3 1298.72C1353.57 1300.72 1351.57 1301.65 1348.37 1305.52C1346.23 1307.92 1340.77 1312.19 1336.23 1314.85C1328.63 1319.12 1327.83 1320.05 1327.43 1324.32C1326.63 1332.99 1333.3 1334.05 1340.37 1326.32C1342.23 1324.45 1344.63 1322.85 1345.97 1322.85C1347.17 1322.85 1349.03 1321.52 1350.23 1319.79C1351.3 1318.19 1354.77 1315.52 1357.97 1313.92C1368.9 1308.59 1379.03 1304.19 1380.37 1304.19C1382.9 1304.19 1381.97 1300.45 1378.9 1298.32C1377.3 1297.12 1375.57 1296.19 1375.17 1296.32C1374.77 1296.32 1369.43 1297.39 1363.3 1298.72Z" fill="#1B1B1B" stroke="#CCFF00" stroke-width="33"/>
<path d="M1272.1 1312.72C1271.03 1315.25 1274.9 1320.19 1277.83 1320.19C1279.17 1320.19 1281.57 1321.65 1283.3 1323.52C1287.43 1327.79 1290.9 1327.79 1291.97 1323.52C1293.03 1319.12 1291.83 1316.19 1288.9 1316.19C1287.57 1316.19 1285.83 1315.12 1284.9 1313.65C1283.03 1310.72 1273.17 1309.92 1272.1 1312.72Z" fill="#1B1B1B" stroke="#CCFF00" stroke-width="33"/>
<path d="M1318.63 1334.19C1315.57 1336.45 1316.77 1340.19 1320.5 1340.19C1323.7 1340.19 1328.9 1335.39 1327.83 1333.52C1326.63 1331.65 1321.57 1331.92 1318.63 1334.19Z" fill="#1B1B1B" stroke="#CCFF00" stroke-width="33"/>
</svg>
