<svg width="1739" height="1194" viewBox="0 0 1739 1194" fill="none" xmlns="http://www.w3.org/2000/svg">
<path d="M1286.14 18.2823C1285.61 19.6157 1286.28 21.4823 1287.88 23.2157C1290.28 25.6157 1291.08 25.749 1296.41 24.149C1307.48 21.0823 1306.81 18.4157 1294.68 16.949C1288.14 16.149 1286.81 16.2823 1286.14 18.2823Z" fill="#1B1B1B" stroke="#CCFF00" stroke-width="33"/>
<path d="M1412.68 23.6154C1408.81 25.3488 1405.61 27.4821 1405.61 28.2821C1405.61 28.9488 1405.61 30.0154 1405.61 30.5488C1405.61 32.0154 1430.14 32.1488 1431.88 30.6821C1434.28 28.6821 1434.01 22.0154 1431.48 21.0821C1427.08 19.3488 1419.34 20.4154 1412.68 23.6154Z" fill="#1B1B1B" stroke="#CCFF00" stroke-width="33"/>
<path d="M1208.54 27.2154C1206.41 29.3487 1206.54 32.4154 1209.08 36.0154C1211.61 39.6154 1215.21 39.6154 1222.28 36.2821C1225.21 34.8154 1228.41 33.7487 1229.34 33.6154C1230.14 33.6154 1230.94 32.8154 1230.94 31.8821C1230.94 30.6821 1227.48 29.2154 1221.74 27.8821C1210.81 25.2154 1210.54 25.2154 1208.54 27.2154Z" fill="#1B1B1B" stroke="#CCFF00" stroke-width="33"/>
<path d="M1172.28 28.1489C1159.34 28.9489 1158.28 29.2156 1157.88 31.7489C1157.61 33.2156 1158.68 36.0156 1160.14 37.7489C1162.68 40.8156 1162.81 40.9489 1166.54 38.6823C1170.28 36.5489 1170.54 36.5489 1173.34 39.2156C1176.01 42.0156 1176.41 42.0156 1184.41 40.1489C1193.61 37.8823 1195.74 35.8823 1194.41 30.5489C1193.74 27.6156 1192.81 26.9489 1189.88 27.2156C1187.88 27.3489 1180.01 27.7489 1172.28 28.1489Z" fill="#1B1B1B" stroke="#CCFF00" stroke-width="33"/>
<path d="M1358.41 30.5487C1357.21 33.3487 1359.88 37.6153 1363.74 39.082C1367.88 40.5487 1383.61 39.482 1388.14 37.2153C1392.68 35.082 1393.34 31.2153 1389.34 30.4153C1387.61 30.0153 1380.14 29.482 1372.68 29.2153C1361.61 28.682 1358.94 28.9487 1358.41 30.5487Z" fill="#1B1B1B" stroke="#CCFF00" stroke-width="33"/>
<path d="M1260.68 34.5488C1259.74 36.9488 1264.54 41.6154 1267.74 41.6154C1271.21 41.6154 1271.34 37.7488 1268.14 34.9488C1264.28 31.7488 1261.74 31.6154 1260.68 34.5488Z" fill="#1B1B1B" stroke="#CCFF00" stroke-width="33"/>
<path d="M1294.01 33.2154C1291.88 34.0154 1291.74 38.4154 1293.61 39.6154C1295.88 40.9487 1303.08 38.9487 1303.88 36.6821C1305.21 33.3487 1299.08 31.0821 1294.01 33.2154Z" fill="#1B1B1B" stroke="#CCFF00" stroke-width="33"/>
<path d="M1324.28 34.9488C1312.68 38.0154 1310.94 38.9488 1310.94 41.2154C1310.94 44.2821 1322.28 48.6821 1325.61 46.9488C1327.08 46.1488 1328.28 44.9488 1328.28 44.2821C1328.28 43.6154 1330.68 42.4154 1333.74 41.6154C1339.08 40.1488 1341.74 37.0821 1339.48 34.9488C1336.94 32.6821 1332.68 32.6821 1324.28 34.9488Z" fill="#1B1B1B" stroke="#CCFF00" stroke-width="33"/>
<path d="M744.811 39.2156C743.611 43.2156 745.878 48.2822 749.744 50.4156C754.278 52.6822 755.078 58.1489 751.078 60.2822C746.811 62.4156 745.744 62.0156 738.278 54.4156C730.144 46.2822 726.411 45.0822 717.478 47.7489L711.078 49.7489L713.744 52.4156C716.678 55.3489 716.678 58.6822 713.611 60.5489C711.478 62.0156 705.344 58.8156 697.211 52.1489C691.478 47.4822 687.211 45.3489 685.611 46.2822C684.811 46.6822 683.078 50.0156 681.478 53.6156C678.811 59.7489 676.011 62.4156 673.611 60.9489C673.078 60.5489 670.678 56.9489 668.411 52.9489C662.811 43.0822 660.944 42.4156 647.078 44.8156C632.144 47.3489 625.611 52.1489 630.411 56.9489C632.144 58.6822 634.011 58.9489 638.411 58.2822C645.344 57.3489 648.411 58.6822 652.278 64.9489C654.811 69.2156 655.744 69.6156 661.078 69.6156C666.144 69.6156 667.211 70.1489 668.544 72.9489C671.478 79.3489 678.944 78.5489 688.411 70.8156C693.344 66.8156 702.811 65.7489 705.211 68.9489C706.144 70.4156 706.944 72.8156 706.944 74.5489C706.944 77.0822 706.278 77.6156 703.078 77.6156C699.478 77.6156 684.944 82.2822 682.678 84.1489C682.144 84.6822 682.278 85.8822 682.944 86.9489C683.744 88.2822 686.411 88.9489 691.611 88.9489C698.678 88.9489 702.011 91.2156 696.278 92.0156C692.811 92.5489 691.478 95.7489 693.611 98.2822C694.678 99.6156 697.344 100.149 701.078 100.016C705.744 99.8822 708.278 100.816 715.344 105.349C722.678 110.149 724.811 110.949 731.078 110.949C739.344 110.949 744.678 108.682 745.478 104.949C745.744 103.482 748.544 99.4822 751.611 96.1489C757.611 89.7489 760.811 82.0156 759.478 76.9489C758.278 71.8822 761.744 70.5489 770.011 72.9489C778.678 75.4822 781.344 78.2822 786.278 89.3489C790.544 98.8156 792.411 100.282 800.278 100.282C806.811 100.282 812.278 97.6156 816.144 92.8156C820.011 87.8822 819.611 83.4822 814.944 78.0156C812.811 75.6156 810.944 72.6822 810.944 71.6156C810.944 68.6822 804.811 65.2156 801.344 66.1489C799.344 66.5489 795.344 65.3489 790.011 62.8156C784.944 60.2822 780.678 59.0822 779.078 59.6156C775.611 60.6822 766.944 56.9489 766.944 54.4156C766.944 52.9489 768.278 52.2822 770.944 52.2822C773.211 52.2822 776.944 51.3489 779.078 50.1489C784.278 47.4822 787.344 48.1489 788.278 52.2822C789.211 55.8822 788.678 55.7489 806.944 54.9489C813.078 54.5489 815.078 55.0822 819.478 58.0156C826.144 62.6822 833.211 62.6822 842.811 58.2822C847.878 55.8822 851.211 55.0822 854.278 55.7489C857.611 56.2822 859.344 55.7489 862.811 52.8156C865.211 50.8156 868.944 48.8156 871.211 48.4156C876.811 47.2156 878.544 44.1489 876.544 39.6156C874.944 36.2822 874.411 36.0156 869.878 37.0822C864.544 38.2822 846.544 38.4156 785.211 37.4822C749.078 36.9489 745.478 37.0822 744.811 39.2156Z" fill="#1B1B1B" stroke="#CCFF00" stroke-width="33"/>
<path d="M1236.68 40.2821C1232.28 42.0154 1232.68 46.6821 1237.34 47.7488C1239.34 48.1488 1242.54 49.0821 1244.68 49.8821C1248.54 51.3488 1252.28 49.6154 1252.28 46.2821C1252.28 41.8821 1242.28 38.0154 1236.68 40.2821Z" fill="#1B1B1B" stroke="#CCFF00" stroke-width="33"/>
<path d="M1542.94 100.282C1541.88 100.949 1538.94 101.615 1536.41 101.615C1532.54 101.615 1530.68 102.815 1525.74 108.149L1519.61 114.815L1503.88 114.015C1490.54 113.349 1487.48 113.615 1482.94 115.615C1478.14 117.749 1476.54 117.882 1468.54 116.415C1458.81 114.682 1455.61 115.215 1453.48 119.082C1452.54 120.949 1450.68 121.615 1445.88 121.615C1442.41 121.615 1436.81 122.549 1433.34 123.615C1429.88 124.549 1425.08 125.082 1422.68 124.682C1416.94 123.882 1412.81 127.082 1410.28 134.282C1408.54 139.482 1408.41 139.615 1402.41 139.215C1398.41 138.949 1395.21 139.615 1392.81 141.215C1388.41 144.015 1385.21 151.215 1386.41 155.615C1387.34 159.482 1381.61 165.615 1376.81 165.615C1372.81 165.615 1369.34 169.215 1369.88 172.815C1370.28 175.215 1371.08 175.615 1376.01 175.215C1379.08 175.082 1381.61 175.482 1381.61 176.149C1381.61 178.682 1377.34 181.482 1372.54 182.282C1363.61 183.615 1361.08 184.949 1359.74 188.682C1358.68 191.615 1358.94 193.082 1361.34 196.282C1362.94 198.415 1364.28 201.082 1364.28 202.149C1364.28 204.282 1357.08 207.215 1354.28 206.015C1350.94 204.815 1346.01 206.682 1345.21 209.482C1343.74 215.082 1352.68 221.615 1361.74 221.615C1364.54 221.615 1366.94 222.815 1369.48 225.482C1375.08 231.482 1378.41 231.882 1382.81 227.082C1384.94 224.815 1387.34 222.949 1388.14 222.949C1388.81 222.949 1391.21 225.749 1393.21 229.215C1395.21 232.815 1397.48 236.149 1398.28 236.682C1398.94 237.215 1403.61 237.482 1408.54 237.215C1415.08 236.815 1418.81 237.215 1422.68 238.949C1426.41 240.682 1428.54 240.949 1430.14 240.015C1432.81 238.549 1437.21 239.082 1445.48 242.282C1448.68 243.482 1453.48 244.282 1456.14 244.015C1460.28 243.615 1460.94 243.082 1461.34 240.015C1462.01 234.682 1455.34 230.949 1445.48 230.949C1438.94 230.949 1437.61 230.415 1434.14 226.815C1432.01 224.549 1428.54 221.882 1426.54 220.815C1424.54 219.749 1421.74 217.082 1420.41 214.949C1419.08 212.815 1416.01 209.615 1413.48 207.882C1407.08 203.615 1406.54 197.615 1412.28 192.282L1416.54 188.282L1413.08 186.949C1406.28 184.415 1410.01 178.815 1418.28 179.349C1422.68 179.615 1423.61 179.082 1425.88 175.215C1427.21 172.682 1430.14 169.215 1432.28 167.482C1434.41 165.615 1436.54 162.815 1437.08 161.215C1438.81 155.349 1441.61 153.615 1449.34 153.615C1456.28 153.615 1456.94 153.349 1462.14 147.749C1465.21 144.549 1469.48 140.949 1471.61 139.882C1476.14 137.615 1489.21 134.949 1495.88 134.949C1498.41 134.949 1502.68 133.749 1505.48 132.282C1508.28 130.949 1514.28 129.082 1518.68 128.415C1523.08 127.749 1528.41 126.282 1530.54 125.215C1532.54 124.149 1538.68 122.949 1544.14 122.549C1556.28 121.615 1567.88 116.415 1569.08 111.482C1570.14 107.215 1566.41 102.949 1561.74 102.949C1559.88 102.815 1556.81 102.015 1554.94 100.949C1551.08 98.6821 1545.74 98.4154 1542.94 100.282Z" fill="#1B1B1B" stroke="#CCFF00" stroke-width="33"/>
<path d="M315.478 228.815C315.078 229.882 312.411 232.415 309.478 234.415C302.945 238.949 302.411 242.149 308.678 240.949C317.611 239.082 324.145 233.482 322.545 229.082C321.478 226.415 316.411 226.282 315.478 228.815Z" fill="#1B1B1B" stroke="#CCFF00" stroke-width="33"/>
<path d="M943.478 234.682C933.478 246.549 930.944 247.749 930.944 240.416C930.944 236.016 928.811 233.616 924.811 233.616C921.211 233.616 916.278 239.482 916.278 243.749C916.278 247.082 910.544 252.282 906.944 252.282C902.278 252.282 902.678 248.149 907.878 243.349L912.811 238.549L910.011 236.282C908.011 234.682 904.411 234.016 897.744 233.882L888.278 233.616L885.878 238.549C881.078 248.949 869.478 252.282 854.944 247.482C846.811 244.816 842.811 245.349 840.678 249.616C839.478 252.016 837.744 253.082 834.011 253.616C830.011 254.149 828.811 254.949 828.544 257.216C828.011 260.949 823.611 261.349 820.011 258.016C817.878 256.016 816.678 256.016 811.478 257.349C808.278 258.282 804.144 258.949 802.278 258.949C800.011 258.949 798.411 260.149 796.944 262.949C795.344 266.016 794.011 266.949 791.078 266.949C784.944 266.949 769.211 273.349 765.478 277.482C763.478 279.616 760.944 284.149 759.744 287.749C754.944 301.216 755.344 300.949 744.678 300.949C733.878 300.949 729.611 303.482 729.611 309.749C729.611 312.949 727.744 314.949 716.944 322.949L704.278 332.416V338.282C704.278 344.282 704.278 344.282 699.611 344.282C693.478 344.282 692.011 347.349 691.744 360.016L691.611 370.016L684.278 371.482C675.078 373.349 674.144 374.016 673.078 378.949C672.544 382.149 671.478 383.216 668.411 383.749C666.278 384.282 663.078 386.016 661.478 387.749C659.878 389.482 657.078 390.949 655.344 390.949C653.611 390.949 650.811 392.416 649.078 394.282C647.344 396.149 644.944 397.616 643.744 397.616C642.544 397.616 641.211 398.682 640.811 399.882C638.944 405.882 638.144 406.282 630.678 405.882C622.144 405.349 620.944 406.282 620.944 414.149C620.944 420.282 619.211 421.216 607.611 421.482C599.744 421.749 595.078 424.016 593.078 428.682C592.278 430.549 588.278 434.282 584.278 437.082C577.878 441.349 576.011 442.016 570.011 441.749C559.211 441.482 558.278 443.082 557.211 462.282C556.411 475.882 556.678 478.549 558.544 480.549C559.878 482.016 561.744 482.682 563.744 482.149C566.011 481.616 567.344 482.282 568.944 484.816C571.878 489.216 570.678 494.816 565.611 499.616C560.544 504.549 560.544 507.616 565.744 510.416L569.878 512.549L569.478 524.016L568.944 535.616H575.211C580.411 535.616 582.144 536.282 585.611 539.882C594.144 548.549 603.344 548.816 626.944 540.949C639.478 536.816 642.144 535.349 648.144 529.616C652.678 525.082 656.011 522.949 658.278 522.949C662.144 522.949 666.944 516.416 666.944 511.216C666.944 506.416 670.944 505.882 674.544 510.416C676.278 512.549 679.744 516.416 682.278 519.082C685.344 522.149 686.944 525.082 686.944 527.482C686.944 533.882 690.411 538.682 696.278 540.282C700.411 541.349 701.744 542.549 702.411 545.349C702.811 547.349 704.944 554.016 707.078 560.282C710.278 569.216 712.411 572.949 717.344 577.882C723.344 584.149 723.478 584.282 721.878 588.816C720.278 593.082 720.411 593.882 723.478 598.549C725.344 601.349 727.078 605.216 727.478 607.216C727.878 609.349 728.544 612.416 728.944 614.149C729.878 618.682 732.678 619.216 739.744 616.282C743.078 614.816 747.478 613.616 749.478 613.616C754.278 613.616 756.278 611.349 755.478 607.082C754.411 602.149 756.944 596.549 760.944 594.682C763.478 593.482 766.011 593.616 771.611 594.949C777.078 596.282 779.744 596.282 782.144 595.216C786.544 593.216 790.944 583.349 792.278 572.549C792.944 567.616 794.144 561.882 794.811 559.749C795.611 557.749 796.278 551.482 796.278 545.882C796.278 533.882 798.011 529.616 803.611 527.882C805.878 527.216 809.078 525.216 810.944 523.482C814.278 520.416 814.544 520.416 817.478 522.549C820.544 524.682 820.811 524.549 823.211 521.749C824.544 519.882 825.611 516.549 825.611 513.482C825.611 509.216 826.278 508.016 829.478 506.416C836.144 502.949 835.744 493.616 828.944 493.616C825.611 493.616 824.411 492.549 818.144 484.549C814.944 480.549 814.144 480.282 807.878 480.549C801.478 480.949 800.944 480.682 799.744 477.216C798.811 474.682 798.811 472.282 800.011 469.349C801.344 465.749 801.211 464.416 799.078 460.816C796.544 456.549 796.544 456.416 799.078 454.149C800.411 452.949 801.611 450.549 801.611 449.082C801.744 443.482 806.544 435.082 810.278 434.149C812.278 433.616 815.078 431.216 816.944 428.282C819.078 424.949 821.478 422.949 824.144 422.282C826.278 421.882 831.344 418.549 835.478 414.949C839.478 411.482 844.678 408.149 846.944 407.616C849.211 407.082 853.878 404.016 857.078 400.816C860.411 397.616 864.011 394.949 864.944 394.949C867.878 394.949 868.144 391.482 865.478 387.082C860.411 378.816 862.678 373.616 872.944 369.749C879.344 367.216 879.611 366.949 879.211 362.416C878.811 357.882 879.078 357.616 884.544 356.149C890.944 354.416 905.878 355.216 921.611 358.016C931.478 359.749 931.611 359.882 931.344 363.616C931.078 366.282 932.144 368.682 934.278 370.949C938.411 375.216 937.478 376.282 930.278 376.282C924.278 376.282 922.144 377.882 918.411 385.349C917.078 388.016 914.278 390.549 911.744 391.616C909.211 392.682 906.011 395.616 904.544 398.016C902.678 401.349 900.678 402.816 897.344 403.482C894.811 403.882 891.078 406.149 888.944 408.282C886.544 410.816 883.744 412.282 881.478 412.282C879.344 412.282 877.078 413.082 876.411 413.882C875.611 414.816 872.944 418.149 870.411 421.082C867.744 424.149 865.611 427.882 865.611 429.482C865.611 433.482 869.078 440.016 874.544 446.149C879.211 451.349 879.344 451.882 876.144 459.882C874.678 463.616 874.811 465.082 877.744 472.549C880.544 479.616 881.611 480.949 884.678 481.349C886.811 481.616 889.344 483.349 890.944 485.749C893.611 489.482 894.144 489.616 901.078 488.816C908.011 487.882 908.411 488.016 912.678 492.549C921.478 501.882 927.078 502.416 941.478 495.616C948.278 492.282 952.944 490.949 957.478 490.949C960.944 490.949 968.544 489.749 974.278 488.282C981.211 486.549 989.078 485.616 997.744 485.616C1007.61 485.616 1011.74 485.082 1014.94 483.216C1019.08 481.082 1019.21 481.082 1020.68 483.482C1024.28 489.216 1026.54 490.549 1035.61 491.482C1046.41 492.549 1052.81 495.082 1054.94 498.949C1057.34 503.349 1055.74 503.482 1049.08 499.616C1043.34 496.282 1042.41 496.149 1036.54 497.482C1033.08 498.416 1026.28 501.749 1021.21 505.082C1009.21 512.949 1002.81 513.882 993.611 509.082C989.744 507.082 983.744 505.082 980.011 504.682C972.944 503.882 958.144 505.882 948.278 508.949C944.944 510.016 939.744 511.216 936.544 511.749C924.678 513.616 926.011 520.949 940.811 535.082C950.144 543.749 950.944 545.082 950.678 549.482C950.544 552.149 950.944 556.416 951.478 559.082C952.411 563.749 952.278 564.016 946.144 567.616C936.811 573.082 934.678 572.549 924.411 562.416C913.878 552.016 911.611 551.616 901.078 558.282C895.211 562.016 892.811 564.682 888.944 571.882L884.144 580.949L887.744 589.482C892.411 600.282 893.344 610.282 890.411 616.149C887.744 621.082 881.078 625.616 876.278 625.616C871.611 625.616 869.611 627.882 869.611 633.082C869.611 638.149 868.011 639.616 860.278 641.616C848.411 644.682 844.678 644.816 843.078 641.882C842.278 640.416 842.144 638.949 842.544 638.416C843.878 637.082 839.078 632.549 835.344 631.616C833.478 631.216 830.144 631.482 827.744 632.149C825.478 632.949 819.078 633.882 813.611 634.149C808.144 634.416 803.478 634.816 803.344 634.816C803.078 634.949 802.144 637.082 801.078 639.616C800.011 642.149 798.278 644.282 797.344 644.416C796.411 644.549 790.678 644.682 784.678 644.816C775.611 644.949 773.211 645.482 770.678 647.882C761.744 655.882 754.811 655.749 740.944 646.949C732.811 641.749 729.211 640.282 724.944 640.282C716.144 640.282 709.211 642.816 704.678 647.749C699.078 653.749 694.811 653.749 691.344 647.882C689.211 644.549 686.811 642.949 679.878 640.549C671.744 637.616 671.078 637.082 670.678 633.216C670.278 629.616 669.744 628.816 666.278 628.549C661.611 628.016 660.278 626.416 660.278 621.216C660.278 619.216 659.611 616.416 658.678 615.082C657.344 612.949 657.744 611.882 661.344 608.282C663.744 606.016 665.611 603.482 665.611 602.816C665.611 600.149 671.211 596.282 674.944 596.282C681.478 596.282 684.278 587.882 678.411 585.616C673.211 583.749 671.744 579.616 673.611 572.816C675.078 567.882 674.944 566.416 672.811 562.016C669.078 554.549 665.611 554.682 660.811 562.149C658.678 565.482 656.678 568.282 656.278 568.416C655.878 568.416 651.211 568.549 645.878 568.682C636.678 568.949 635.878 569.216 632.278 573.216C627.344 578.816 623.744 590.549 624.944 597.616C625.478 600.549 627.611 605.349 629.744 608.282C631.878 611.216 634.011 615.616 634.544 618.016C634.944 620.416 637.878 627.349 641.078 633.349C648.544 647.749 648.544 650.816 641.344 657.616C638.144 660.549 635.078 662.949 634.411 662.949C633.611 662.949 631.478 661.482 629.611 659.616C626.011 656.149 624.278 655.749 615.478 656.016C610.411 656.282 609.878 656.682 609.078 660.416C608.411 664.016 607.878 664.416 605.344 663.616C597.611 661.349 596.144 661.482 588.011 665.482C583.344 667.749 576.678 671.749 573.078 674.282C568.144 677.882 565.344 678.949 560.811 678.949C555.344 678.949 554.944 679.216 554.944 682.549C554.944 684.682 552.544 690.149 549.611 694.949C543.878 704.282 543.211 708.149 546.278 714.149C547.344 716.149 548.278 719.082 548.278 720.549C548.278 722.949 547.611 723.082 537.344 722.149C526.411 721.349 526.278 721.349 520.944 725.616C516.411 729.216 514.811 729.749 510.678 729.082C508.011 728.682 504.278 728.949 502.278 729.882C498.944 731.349 498.544 732.282 496.944 742.282C496.011 748.149 492.144 756.282 489.211 758.682C488.144 759.616 484.411 760.682 480.811 761.216C477.211 761.616 473.878 762.549 473.478 763.216C473.078 763.882 473.344 766.816 474.144 769.749C475.878 776.282 474.011 778.949 469.611 775.882C467.478 774.416 464.278 774.016 455.478 774.682L444.144 775.349L438.411 769.082C432.011 762.282 429.078 761.616 423.744 765.749C419.611 769.082 419.344 771.216 423.078 776.149C426.278 780.549 428.944 790.816 427.211 792.549C426.544 793.216 421.744 793.882 416.678 794.016C408.944 794.282 406.678 793.749 404.278 791.616C399.878 787.749 392.011 788.149 387.344 792.549C383.878 795.882 382.811 796.149 372.678 795.882C359.344 795.616 356.944 797.082 362.678 802.282C366.144 805.349 366.544 806.549 366.011 810.949C365.211 816.682 367.744 819.082 374.411 818.682C376.544 818.549 382.811 819.216 388.278 820.149C397.478 821.749 398.678 822.416 403.611 827.749C407.478 831.882 410.144 833.616 412.678 833.616C416.011 833.616 416.278 834.016 416.278 839.349C416.278 844.149 417.078 845.749 421.344 850.016C424.011 852.682 428.278 855.482 430.678 856.416C435.344 858.016 435.344 858.149 437.211 873.482C438.678 885.882 437.078 899.482 432.811 911.616C430.944 916.682 428.944 923.216 428.411 925.882C426.411 935.482 421.611 938.282 405.211 939.349C394.544 940.149 393.344 939.882 390.944 937.349C388.278 934.416 388.011 934.549 377.611 938.282C369.344 941.349 358.944 940.282 348.811 935.216C340.944 931.349 340.811 931.216 321.611 931.749C304.411 932.149 301.744 932.016 297.211 929.616C294.544 928.149 291.211 926.949 289.878 926.949C286.011 926.949 282.011 930.549 281.211 934.949C280.411 938.949 280.278 938.949 271.611 938.949C264.011 938.949 262.411 939.349 259.611 942.282C254.678 947.082 255.211 952.416 261.611 961.216C267.744 969.749 267.878 971.082 264.278 980.282C260.678 989.349 260.944 991.749 265.611 994.549C268.011 995.882 269.611 998.016 269.611 999.616C269.611 1004.68 263.344 1020.02 259.211 1025.35C256.011 1029.35 254.944 1032.02 254.944 1036.15C254.944 1039.88 254.278 1042.02 252.944 1042.55C249.078 1043.88 246.944 1050.55 246.944 1060.42V1069.88L251.478 1069.08C258.411 1067.75 260.544 1072.02 260.411 1087.75C260.411 1094.68 260.011 1100.95 259.611 1101.75C259.078 1102.42 259.078 1104.42 259.478 1106.15C260.144 1108.68 261.744 1109.35 270.144 1110.82C279.744 1112.55 280.278 1112.55 284.278 1109.62C290.678 1105.08 296.411 1104.15 302.678 1106.95C307.744 1109.22 310.678 1113.48 309.078 1116.02C307.344 1118.95 311.211 1126.95 315.744 1129.75C318.411 1131.35 321.078 1134.02 321.611 1135.75C323.478 1140.42 326.944 1139.75 332.278 1133.62C339.078 1125.75 347.078 1124.15 382.544 1123.35C402.278 1122.95 411.211 1122.28 412.144 1121.22C412.811 1120.28 414.544 1116.28 415.878 1112.42C418.811 1103.75 424.011 1100.28 434.278 1100.28C437.878 1100.28 441.611 1099.75 442.411 1099.22C444.411 1097.88 446.944 1090.02 446.944 1085.08C446.944 1079.75 449.078 1077.62 454.144 1077.62C460.678 1077.62 463.878 1076.28 465.344 1072.95C466.144 1071.22 468.811 1069.22 471.344 1068.42C474.278 1067.35 476.278 1065.75 476.811 1063.88C477.744 1060.15 474.278 1054.95 470.944 1054.95C465.344 1054.95 464.544 1045.62 468.944 1033.62C470.011 1031.08 471.744 1025.48 472.811 1021.35C475.744 1010.95 479.878 1006.55 490.811 1002.28C499.211 999.082 504.944 995.749 516.144 987.616C518.678 985.749 522.278 984.282 524.144 984.282C532.811 984.282 538.144 974.016 534.278 964.816C533.211 962.149 532.278 957.082 532.278 953.749C532.278 945.749 535.478 942.549 546.278 939.616C559.744 936.149 569.744 937.482 576.144 943.349C580.544 947.482 587.078 949.616 595.078 949.616C600.544 949.616 602.811 948.682 610.544 943.349C619.744 937.082 630.144 932.282 634.811 932.282C639.611 932.282 643.344 927.749 644.144 920.816L644.944 914.282L650.411 914.549C653.344 914.682 661.344 916.682 668.144 919.082C682.011 923.882 684.544 926.149 691.744 940.682C694.411 945.749 699.078 952.682 702.278 956.149C705.611 959.749 708.544 964.549 709.478 967.749C711.078 973.749 712.811 974.949 719.078 974.949C722.411 974.949 723.478 975.749 724.944 979.616C726.544 983.216 728.811 985.082 735.878 988.682C740.944 991.216 747.078 994.549 749.611 996.149C753.078 998.149 756.411 998.949 762.678 998.949C771.611 998.949 772.278 999.482 774.144 1008.28C775.078 1013.08 781.344 1016.28 789.878 1016.28C799.078 1016.28 800.278 1017.22 799.878 1023.62C799.611 1028.42 800.011 1029.08 804.811 1031.75C813.078 1036.42 824.144 1048.02 824.944 1052.82C826.811 1063.48 826.411 1066.28 823.211 1066.68C819.611 1067.22 818.144 1069.75 816.944 1078.02C816.144 1082.82 816.544 1085.08 818.144 1087.62C822.011 1093.48 825.611 1091.88 832.278 1081.22C835.611 1076.02 838.944 1070.02 839.878 1068.02C841.078 1065.35 842.411 1064.28 844.811 1064.28C846.678 1064.28 848.944 1063.08 850.144 1061.35C854.944 1054.55 850.944 1045.75 841.878 1042.82C839.211 1042.02 836.144 1040.68 835.344 1039.88C832.678 1037.88 833.344 1032.68 836.544 1029.62C838.144 1028.15 839.611 1025.22 839.744 1023.35C840.011 1017.08 843.344 1016.42 852.011 1020.95C858.944 1024.68 859.611 1025.35 860.011 1029.88C860.411 1033.88 861.078 1035.08 863.611 1035.75C868.811 1037.08 873.478 1032.68 873.611 1026.55C873.611 1022.28 872.944 1021.22 869.478 1019.22C867.211 1018.02 857.478 1012.28 847.878 1006.68C838.278 1000.95 828.278 995.882 825.611 995.482C817.744 994.282 817.211 993.882 818.278 990.549C822.011 978.682 819.878 976.416 803.478 975.482C789.744 974.682 781.211 972.016 778.678 967.882C777.611 966.282 775.078 960.682 772.944 955.616C770.811 950.416 767.478 943.882 765.611 940.949C763.611 938.016 760.411 932.549 758.411 928.816C754.544 921.482 750.678 918.949 744.144 918.949C741.344 918.949 738.811 917.616 736.011 914.949C732.144 911.082 732.011 910.416 732.944 903.882C733.611 900.016 734.144 893.616 734.144 889.616L734.278 882.416L739.478 880.949C742.278 880.149 745.744 877.882 747.211 875.882C750.411 871.349 753.611 871.349 757.611 875.616C760.144 878.282 760.544 879.749 759.878 884.549C759.478 888.016 759.878 891.882 760.944 894.549C762.678 898.682 763.211 898.949 768.944 898.949C774.144 898.949 775.211 899.349 776.278 902.282C777.878 906.549 780.678 906.549 782.944 902.282C785.744 897.082 788.544 897.882 787.478 903.749C786.811 907.349 787.211 909.082 789.211 911.349C790.678 912.949 792.544 916.816 793.478 920.016C794.811 924.816 796.144 926.282 801.744 929.349C805.478 931.349 813.078 935.482 818.544 938.549C826.678 943.082 830.011 944.282 835.211 944.282C842.678 944.282 844.944 946.016 850.944 956.682C854.678 963.216 859.078 966.949 863.478 966.949C864.411 966.949 869.211 968.949 874.411 971.349C879.478 973.882 885.611 976.682 888.011 977.616C896.544 980.949 896.411 980.282 894.278 1017.88L893.744 1028.02L898.144 1030.68C901.878 1032.95 902.678 1034.28 903.211 1039.48C904.144 1046.95 906.144 1049.62 910.811 1049.62C915.344 1049.62 920.144 1054.55 924.811 1063.88C926.944 1068.15 929.344 1071.08 931.211 1071.62C932.944 1072.15 936.811 1073.75 939.744 1075.08C944.411 1077.08 946.544 1077.35 953.078 1076.28C958.811 1075.35 963.078 1075.48 970.011 1076.95C980.944 1079.22 982.678 1080.42 983.211 1086.02C983.611 1090.15 983.878 1090.28 989.344 1090.28C993.078 1090.28 995.744 1091.08 996.678 1092.42C998.411 1094.68 1003.34 1097.62 1005.48 1097.62C1008.01 1097.62 1010.94 1093.35 1010.94 1089.75C1010.94 1085.88 1005.21 1079.48 998.278 1075.75L994.278 1073.62L999.611 1074.42C1002.54 1074.95 1005.21 1075.48 1005.48 1075.75C1005.74 1076.02 1007.08 1075.62 1008.41 1074.82C1013.61 1072.15 1010.28 1066.15 1000.94 1061.22C998.811 1060.02 995.611 1058.42 993.878 1057.48C991.478 1056.15 990.278 1056.15 987.478 1057.62C985.078 1058.95 983.478 1059.08 981.878 1058.15C978.811 1056.15 978.278 1051.75 980.944 1049.62C984.144 1046.95 983.344 1045.08 976.411 1039.22C970.144 1033.88 969.878 1033.48 969.344 1025.35C968.411 1013.35 971.611 1010.02 976.278 1018.02C977.744 1020.55 980.411 1023.22 982.278 1024.02C984.144 1024.82 985.611 1026.42 985.611 1027.48C985.611 1030.82 988.411 1031.35 991.344 1028.55C992.944 1027.08 995.611 1025.48 997.344 1024.95C999.878 1024.28 1000.28 1023.35 1000.01 1018.68C999.478 1010.82 1003.34 1008.28 1016.28 1008.02C1032.68 1007.75 1038.41 1009.22 1041.48 1014.42C1044.54 1019.62 1048.28 1020.15 1059.61 1017.08C1067.74 1014.95 1071.88 1012.95 1076.28 1008.95C1079.34 1006.15 1081.21 1005.75 1095.61 1005.35L1111.61 1004.82V1000.15C1111.61 995.749 1111.34 995.616 1105.48 994.816C1092.81 992.949 1084.28 985.882 1084.28 977.349C1084.28 973.082 1083.48 971.349 1080.28 968.549C1075.74 964.549 1075.48 961.749 1077.88 950.682C1079.74 942.149 1080.68 940.682 1086.81 937.882C1093.34 934.682 1094.41 930.416 1092.41 916.016C1090.01 899.749 1090.68 898.949 1105.88 896.949L1112.14 896.149L1113.08 885.349C1114.01 874.949 1114.14 874.549 1118.54 872.016C1120.94 870.549 1124.01 867.482 1125.08 865.349C1126.14 863.216 1128.54 860.816 1130.41 860.016C1132.28 859.082 1134.14 856.816 1134.68 854.416C1136.01 849.216 1141.88 847.882 1144.28 852.149C1145.08 853.749 1147.08 854.949 1148.94 854.949C1150.68 854.949 1153.08 856.149 1154.14 857.749C1156.01 860.549 1168.94 865.616 1173.88 865.616C1175.21 865.616 1180.28 864.682 1185.08 863.482C1194.01 861.216 1197.08 861.882 1195.61 865.882C1195.21 866.949 1190.68 869.882 1185.48 872.282C1180.41 874.816 1174.94 878.149 1173.34 879.882C1170.81 882.549 1170.68 883.216 1172.41 884.949C1173.48 886.016 1177.88 887.216 1182.28 887.749C1193.88 888.949 1196.28 890.949 1196.28 898.682C1196.28 903.349 1197.08 905.882 1198.94 908.016C1203.88 913.216 1213.61 910.816 1213.61 904.416C1213.61 899.749 1216.81 898.682 1222.28 901.216L1227.34 903.616L1229.48 900.282C1230.68 898.549 1232.94 895.482 1234.54 893.616L1237.48 890.282L1243.21 893.349C1250.28 896.949 1256.41 897.082 1259.48 893.749C1265.21 887.349 1256.14 881.749 1244.41 884.416C1233.34 886.949 1226.54 883.482 1221.21 872.816C1219.74 870.016 1217.74 868.416 1214.94 867.882C1212.81 867.349 1210.94 866.416 1210.94 865.616C1210.94 864.149 1211.88 863.749 1218.28 862.282C1220.41 861.749 1224.68 858.816 1227.61 855.616L1232.94 849.882L1248.81 849.216C1264.14 848.549 1264.68 848.416 1268.81 844.416C1275.74 837.749 1285.74 835.349 1288.01 840.016C1288.81 841.482 1288.14 846.816 1286.14 855.616C1284.41 862.949 1282.94 871.349 1282.94 874.282C1282.94 881.749 1280.01 885.616 1274.14 885.616C1270.54 885.616 1269.61 886.149 1269.61 888.282C1269.61 893.349 1277.08 898.682 1288.28 901.616C1291.61 902.416 1295.74 904.549 1297.61 906.282C1299.48 908.016 1303.61 910.016 1306.94 910.816C1310.81 911.616 1314.14 913.482 1316.28 916.016C1318.14 918.149 1324.14 925.082 1329.48 931.349C1336.94 940.016 1340.68 943.349 1344.14 944.282C1351.21 946.149 1354.41 945.882 1359.21 942.949C1362.68 940.949 1366.01 940.282 1374.01 940.282C1390.01 940.282 1397.21 944.282 1406.41 958.682C1412.14 967.616 1415.88 969.082 1424.68 966.149C1437.61 961.882 1450.54 965.749 1461.21 977.349L1468.28 984.949L1485.88 986.016C1495.61 986.682 1508.41 987.349 1514.28 987.616C1522.14 987.749 1526.14 988.549 1529.61 990.682C1535.74 994.149 1541.74 995.349 1548.28 994.282L1553.48 993.349L1546.14 984.549C1542.01 979.616 1536.28 972.682 1533.34 969.216C1530.41 965.749 1525.48 961.216 1522.54 959.349C1514.68 954.416 1513.74 952.682 1513.61 943.216C1513.61 934.016 1512.94 932.282 1505.34 921.882C1500.68 915.616 1499.74 914.949 1494.94 914.949C1486.54 914.949 1486.01 911.882 1492.28 897.616C1494.28 892.816 1496.54 886.549 1497.08 883.616C1498.14 878.682 1498.68 878.282 1503.74 877.349C1516.14 875.349 1530.68 864.416 1528.81 858.549C1528.14 856.282 1528.54 856.149 1532.14 856.949C1534.81 857.482 1537.08 857.216 1538.28 856.282C1539.48 855.349 1541.88 854.949 1544.14 855.349C1546.14 855.749 1548.41 855.616 1549.08 854.949C1549.74 854.282 1552.41 853.616 1554.94 853.349C1558.81 853.082 1559.74 852.282 1560.68 848.949C1561.34 846.682 1562.41 844.016 1562.94 842.949C1564.54 839.482 1572.28 839.882 1581.88 843.749C1586.81 845.749 1591.34 847.082 1591.74 846.682C1592.14 846.149 1590.28 842.549 1587.61 838.682C1584.94 834.416 1583.21 830.549 1583.61 829.349C1584.14 828.149 1582.94 823.616 1581.08 819.082C1579.08 814.416 1577.61 808.416 1577.61 804.949C1577.61 797.216 1574.01 790.282 1567.08 784.549C1563.34 781.616 1560.14 777.082 1557.08 770.416C1554.68 765.082 1551.21 759.749 1549.48 758.549C1547.88 757.349 1546.81 756.016 1547.21 755.482C1547.74 755.082 1547.21 752.682 1546.14 750.282C1545.08 747.749 1544.28 745.482 1544.28 745.082C1544.28 743.216 1553.48 741.882 1562.41 742.549C1570.54 743.082 1574.14 742.816 1578.28 741.082C1581.21 739.749 1587.34 738.416 1592.01 738.016C1598.94 737.349 1600.28 736.816 1600.28 734.682C1600.28 733.349 1600.94 731.082 1601.88 729.749C1603.08 727.749 1602.68 725.882 1599.08 719.616C1596.68 715.482 1594.94 711.882 1595.21 711.749C1595.48 711.749 1599.08 709.882 1603.34 707.749C1610.28 704.282 1611.88 704.016 1621.34 704.549C1631.88 705.216 1637.88 707.349 1654.94 716.816C1658.28 718.682 1669.21 723.616 1679.34 727.749L1697.61 735.349L1703.34 730.949C1716.68 720.282 1718.94 718.149 1718.94 715.749C1718.94 714.416 1719.88 709.749 1721.08 705.216C1722.94 697.882 1722.94 696.016 1720.94 683.749C1719.74 676.282 1718.28 663.882 1717.61 656.016C1716.54 640.549 1714.54 635.482 1707.88 630.416L1704.01 627.616L1701.21 631.616C1696.01 639.082 1685.48 648.416 1679.48 651.082C1666.54 656.549 1652.68 652.682 1641.21 640.416C1634.28 632.949 1628.28 622.016 1628.28 616.682C1628.28 608.816 1633.48 605.616 1656.14 598.949C1672.54 594.149 1676.54 587.616 1671.61 573.482C1668.81 565.482 1660.41 551.616 1652.68 542.149L1646.28 534.282L1645.48 518.282C1644.94 508.149 1643.74 498.949 1642.01 492.949C1640.41 487.749 1636.41 470.949 1633.08 455.616C1622.54 407.349 1611.74 372.816 1602.28 357.482C1597.74 350.149 1597.61 349.482 1599.34 345.349C1602.41 338.016 1616.28 326.949 1636.68 315.749C1648.81 308.949 1648.81 305.749 1635.88 286.682C1629.34 276.816 1628.81 276.282 1622.94 275.482C1619.61 275.082 1613.74 273.216 1609.74 271.349C1605.21 269.216 1598.54 267.616 1591.74 266.949C1585.74 266.416 1578.54 265.082 1575.61 264.016C1572.41 262.816 1562.14 261.616 1550.54 261.082C1533.48 260.282 1530.81 260.416 1530.14 262.149C1528.54 266.416 1530.81 270.682 1535.61 272.282C1541.34 274.149 1545.08 280.282 1542.94 284.282C1542.14 285.749 1540.94 286.949 1540.28 286.949C1539.61 286.949 1536.94 288.682 1534.54 290.949C1532.01 293.082 1528.94 294.949 1527.88 294.949C1526.68 294.949 1523.21 291.349 1520.28 286.949C1514.54 278.549 1510.81 276.816 1508.41 281.482C1505.61 286.682 1497.08 288.549 1472.94 289.082L1450.28 289.482L1446.54 294.282C1441.61 300.282 1436.41 300.549 1430.81 295.082C1428.68 292.949 1426.94 290.016 1426.94 288.549C1426.94 285.082 1422.01 278.949 1419.08 278.949C1417.88 278.949 1414.81 280.416 1412.54 282.149C1410.01 283.882 1405.48 285.616 1401.61 286.016C1398.01 286.416 1392.28 288.282 1388.68 290.149C1385.21 292.149 1380.68 293.616 1378.68 293.616C1373.21 293.616 1363.48 297.749 1353.74 304.016C1347.21 308.282 1343.88 309.616 1339.74 309.616C1332.81 309.616 1331.88 310.282 1328.54 317.882C1323.88 328.416 1315.74 330.416 1300.01 324.816C1297.08 323.749 1292.94 322.949 1291.08 322.949C1286.54 322.949 1284.28 320.682 1284.28 316.016C1284.28 311.349 1288.28 309.082 1296.94 308.949C1302.81 308.949 1303.61 308.549 1304.01 305.882C1304.28 304.149 1303.61 301.482 1302.54 299.882C1299.88 295.882 1285.21 288.549 1276.28 286.949C1264.14 284.549 1246.14 284.282 1243.48 286.149C1241.34 287.749 1241.48 288.149 1245.08 290.282C1260.81 300.016 1260.41 299.349 1256.81 310.682C1255.61 314.416 1254.94 318.282 1255.34 319.349C1255.74 320.282 1259.48 321.882 1263.74 322.816C1268.14 323.749 1272.68 325.082 1274.01 325.749C1276.81 327.349 1276.94 331.349 1274.14 333.749C1272.81 334.816 1272.28 336.682 1272.68 338.816C1274.41 347.349 1274.41 347.616 1270.81 348.016C1268.94 348.282 1263.34 346.949 1258.28 344.949C1253.34 343.082 1244.94 341.216 1239.74 340.816C1225.48 339.749 1224.81 339.482 1221.08 333.082C1219.21 329.882 1216.14 326.282 1214.41 325.082C1212.14 323.749 1210.41 320.816 1209.48 316.949C1207.74 310.149 1206.28 308.949 1197.61 307.749C1193.88 307.216 1188.94 305.082 1184.94 302.282C1177.48 296.949 1171.48 294.949 1162.81 294.949C1155.08 294.949 1150.28 293.216 1139.08 286.816C1132.41 282.816 1128.94 281.616 1124.28 281.616C1120.81 281.616 1112.81 279.749 1106.28 277.616C1099.48 275.349 1091.61 273.616 1087.74 273.616C1083.88 273.616 1079.88 272.682 1078.41 271.616C1075.08 269.082 1071.74 269.082 1064.68 271.749C1057.21 274.682 1053.34 273.482 1050.54 267.616C1046.54 259.216 1031.61 255.082 1024.41 260.149C1018.94 264.149 1009.21 265.082 1001.74 262.416C998.544 261.216 993.744 260.282 991.078 260.282C985.344 260.282 982.944 258.416 982.944 253.882C982.944 251.349 983.478 250.949 985.611 251.482C987.078 251.882 989.344 252.549 990.678 252.949C994.144 253.882 1007.34 251.216 1008.54 249.216C1009.88 246.949 1008.14 245.616 1002.14 244.816C999.344 244.416 994.144 242.949 990.678 241.482C983.078 238.416 974.944 238.282 969.478 241.082C967.211 242.149 963.878 242.949 961.878 242.682C958.944 242.416 958.144 241.482 957.611 237.616C956.944 233.216 956.678 232.949 951.344 232.549C947.078 232.282 945.211 232.816 943.478 234.682ZM859.878 769.082C859.478 769.482 858.278 769.616 857.344 769.216C856.278 768.816 856.678 768.416 858.144 768.416C859.611 768.282 860.411 768.682 859.878 769.082Z" fill="#1B1B1B" stroke="#CCFF00" stroke-width="33"/>
<path d="M864.945 236.282C863.478 236.949 860.678 237.482 858.678 237.482C856.545 237.615 854.945 238.149 854.945 238.682C854.945 240.549 864.145 244.282 869.078 244.282C872.678 244.282 874.011 243.615 875.211 240.815C876.545 238.015 876.411 237.215 874.811 236.149C872.545 234.682 868.545 234.815 864.945 236.282Z" fill="#1B1B1B" stroke="#CCFF00" stroke-width="33"/>
<path d="M1490.54 247.616C1485.34 252.816 1488.94 256.549 1501.61 259.616C1507.08 260.816 1513.34 262.816 1515.34 263.882C1520.14 266.282 1522.94 265.349 1522.94 261.216C1522.94 257.082 1520.54 254.949 1516.14 254.949C1513.74 254.949 1511.08 253.482 1508.54 250.816C1503.74 245.616 1494.14 243.882 1490.54 247.616Z" fill="#1B1B1B" stroke="#CCFF00" stroke-width="33"/>
<path d="M1324.41 270.415C1320.81 274.949 1320.94 277.082 1324.94 280.949C1327.48 283.615 1329.48 284.282 1335.21 284.282C1344.01 284.282 1356.01 281.615 1356.81 279.349C1358.01 276.282 1352.94 272.549 1343.34 269.749C1330.81 266.015 1327.74 266.149 1324.41 270.415Z" fill="#1B1B1B" stroke="#CCFF00" stroke-width="33"/>
<path d="M742.678 276.282C732.811 279.749 725.611 284.015 725.611 286.549C725.611 290.149 736.411 288.015 742.411 283.215C745.344 281.082 748.944 278.815 750.678 278.282C753.611 277.482 754.144 274.815 751.478 274.015C750.811 273.882 746.944 274.815 742.678 276.282Z" fill="#1B1B1B" stroke="#CCFF00" stroke-width="33"/>
<path d="M745.078 284.416C740.945 289.216 740.945 289.882 744.011 292.549C747.611 295.749 754.545 293.216 756.811 287.882C758.945 282.682 757.478 280.282 752.278 280.282C749.745 280.282 747.345 281.616 745.078 284.416Z" fill="#1B1B1B" stroke="#CCFF00" stroke-width="33"/>
<path d="M720.278 295.349L712.945 298.149L718.945 299.882C728.678 302.815 737.611 299.882 735.478 294.415C734.411 291.615 729.478 291.882 720.278 295.349Z" fill="#1B1B1B" stroke="#CCFF00" stroke-width="33"/>
<path d="M699.611 301.482C698.811 302.949 704.011 306.282 705.211 305.082C705.611 304.682 705.611 303.482 705.211 302.282C704.278 300.016 700.811 299.616 699.611 301.482Z" fill="#1B1B1B" stroke="#CCFF00" stroke-width="33"/>
<path d="M162.544 337.216C162.011 337.616 161.611 339.482 161.611 341.082C161.611 343.216 160.678 344.416 158.678 344.816C156.944 345.216 153.878 345.882 151.611 346.282C149.478 346.682 146.278 347.482 144.544 347.882C142.811 348.282 140.144 348.016 138.544 347.216C135.344 345.749 124.678 344.149 114.944 343.882C109.478 343.616 108.944 343.882 108.544 346.949C107.478 357.216 104.678 359.616 100.011 354.282C96.9444 350.682 89.2111 347.616 86.2778 348.816C85.0778 349.216 84.2778 351.216 84.2778 353.482C84.2778 356.949 83.3444 357.882 77.7444 360.816C74.1444 362.549 70.8111 363.749 70.4111 363.349C70.0111 362.816 69.6111 360.549 69.6111 358.149C69.6111 351.082 67.3444 346.949 62.2778 344.816C53.6111 341.216 50.0111 341.082 46.1444 344.149C44.1444 345.616 40.6778 346.949 38.4111 346.949C33.8778 346.949 31.7444 348.016 22.5444 354.816C15.4778 360.016 14.9444 361.882 19.2111 364.816C23.3444 367.749 24.6778 367.482 29.4778 363.482C32.5444 360.949 35.6111 359.882 41.6111 359.349C50.8111 358.416 53.6111 360.016 53.6111 365.749C53.6111 368.682 52.6778 370.016 49.6111 371.616C46.0111 373.482 44.1444 373.482 34.6778 372.149C24.6778 370.549 23.8778 370.549 22.1444 372.949C18.5444 377.882 20.8111 382.949 26.5444 382.949C30.5444 382.949 36.1444 385.749 39.4778 389.349C41.3444 391.482 41.6111 393.216 40.9444 397.216C40.2778 401.349 40.6778 402.816 42.5444 404.549C46.1444 407.616 54.1444 408.282 62.4111 406.149C72.2778 403.616 73.3444 403.749 82.2778 407.749L89.7444 411.216L98.0111 408.149C106.011 405.082 107.611 404.949 145.878 404.816C176.944 404.816 185.878 404.416 187.611 402.949C191.078 400.149 193.611 394.149 193.611 389.216C193.611 383.216 197.878 378.016 205.211 374.816C208.278 373.482 211.078 371.616 211.078 370.682C211.744 363.349 208.544 359.216 201.744 358.682C197.611 358.282 196.678 357.616 195.611 354.016C194.811 351.616 192.678 348.149 190.944 346.282C187.611 342.816 185.078 342.549 178.678 344.949C177.211 345.482 175.078 344.282 172.144 341.082C168.144 336.549 164.544 335.082 162.544 337.216Z" fill="#1B1B1B" stroke="#CCFF00" stroke-width="33"/>
<path d="M320.278 436.949C320.278 439.882 325.078 448.415 327.078 448.949C329.878 449.882 335.878 447.215 336.811 444.682C337.878 442.149 332.944 437.615 329.344 437.615C327.611 437.615 324.944 437.215 323.344 436.815C321.611 436.282 320.278 436.415 320.278 436.949Z" fill="#1B1B1B" stroke="#CCFF00" stroke-width="33"/>
<path d="M432.544 478.549C427.478 480.549 428.011 488.016 433.611 490.949C436.944 492.682 444.811 489.616 446.811 485.749C449.744 480.416 440.144 475.482 432.544 478.549Z" fill="#1B1B1B" stroke="#CCFF00" stroke-width="33"/>
<path d="M849.878 486.415C847.878 487.749 846.944 489.615 847.211 491.349C847.478 493.749 848.544 494.282 852.144 494.282C857.611 494.282 860.411 490.949 858.144 487.215C856.144 484.149 853.478 483.749 849.878 486.415Z" fill="#1B1B1B" stroke="#CCFF00" stroke-width="33"/>
<path d="M401.344 513.882C396.944 515.349 396.411 519.482 400.144 521.482C401.878 522.549 404.411 522.282 408.811 520.816C415.611 518.416 416.811 515.616 411.478 513.616C407.478 512.016 406.144 512.016 401.344 513.882Z" fill="#1B1B1B" stroke="#CCFF00" stroke-width="33"/>
<path d="M904.144 519.082L899.744 523.216L902.944 525.749C909.211 530.549 920.278 527.882 920.278 521.482C920.278 519.482 913.344 514.949 910.278 514.949C909.344 514.949 906.544 516.816 904.144 519.082Z" fill="#1B1B1B" stroke="#CCFF00" stroke-width="33"/>
<path d="M919.611 530.282C916.678 531.349 911.878 532.149 908.944 532.149C902.678 532.282 893.611 534.682 893.611 536.149C893.611 536.682 894.944 539.882 896.678 543.082C900.944 550.949 904.944 551.482 912.544 545.082C915.611 542.415 920.411 539.615 923.211 538.815C926.811 537.882 928.411 536.682 929.078 534.282C930.544 528.149 928.678 527.349 919.611 530.282Z" fill="#1B1B1B" stroke="#CCFF00" stroke-width="33"/>
<path d="M360.544 532.549C359.744 533.349 358.944 535.882 358.944 537.882C358.944 543.082 355.078 546.416 346.011 549.082C341.744 550.282 337.744 551.616 336.944 552.016C335.478 552.816 338.278 549.082 342.011 545.349C344.278 542.949 344.944 538.282 343.478 534.416C341.211 528.549 325.478 534.816 320.944 543.349C318.544 547.882 318.411 548.549 320.278 551.882C321.744 554.549 323.611 555.749 326.544 556.016C330.544 556.416 330.678 556.682 329.611 559.749C326.544 567.616 329.744 573.216 335.878 570.816C340.011 569.349 342.944 571.216 342.944 575.482C342.944 577.082 344.811 579.882 347.211 581.749C351.478 585.216 351.478 585.349 350.144 592.816C348.544 601.616 349.344 602.949 356.411 602.016C362.411 601.216 365.611 603.082 365.611 607.749C365.611 609.349 366.278 611.216 366.944 611.616C369.744 613.349 368.144 617.882 362.944 622.816C357.344 628.016 356.144 632.682 359.744 634.149C366.011 636.549 378.144 633.482 383.078 628.149C387.478 623.349 388.944 624.682 390.144 634.949C390.944 641.349 391.878 642.949 397.078 647.749C404.278 654.416 405.078 659.749 399.478 664.149C392.411 669.749 383.478 670.416 376.544 665.882C371.611 662.682 370.411 665.482 369.611 681.349L368.944 695.616L364.144 697.882C357.878 700.816 353.344 706.549 353.878 710.816C354.278 714.282 354.411 714.282 371.344 715.349C391.344 716.549 395.344 717.749 394.678 722.016C394.278 724.682 393.344 725.082 385.344 725.749C378.411 726.282 375.211 727.349 370.811 730.416C367.744 732.549 362.811 735.882 359.744 737.882C353.878 741.749 344.278 752.816 344.278 755.749C344.278 760.682 355.744 759.216 362.411 753.349C366.011 750.149 367.744 749.482 370.678 750.282C382.278 753.216 383.478 752.949 390.944 745.749C398.411 738.549 400.811 737.749 406.944 740.949C411.744 743.482 415.878 742.682 425.078 737.482C431.744 733.749 432.411 733.616 452.144 733.616C473.744 733.616 479.078 732.549 485.611 726.416C487.478 724.682 490.144 722.549 491.611 721.749C494.011 720.282 493.878 720.149 490.144 720.816C485.211 721.616 480.278 718.682 480.278 714.949C480.278 712.282 484.411 708.949 493.611 704.282C496.944 702.682 500.011 700.549 500.544 699.749C502.011 697.616 500.411 686.816 498.011 683.216C496.411 680.549 495.344 680.149 491.078 680.949C484.011 682.149 478.811 678.016 479.878 671.882C480.411 668.149 480.011 667.216 477.478 666.149C475.478 665.216 474.011 662.949 473.078 658.816C471.744 653.616 471.078 652.949 467.611 652.549C463.211 652.016 460.011 649.082 461.078 646.282C462.278 643.216 459.078 639.082 453.611 636.282C450.678 634.816 445.744 631.882 442.678 629.749C437.344 626.149 436.944 625.349 436.944 619.749C436.811 614.149 436.278 612.949 430.011 606.682L423.078 599.749L412.411 600.149C397.211 600.549 390.811 595.749 400.944 591.482C403.611 590.416 406.411 588.016 407.211 586.149C408.011 584.416 410.278 582.549 412.144 582.149C421.878 580.149 423.344 577.749 425.078 560.149C425.878 551.749 425.744 551.082 422.811 549.082C419.744 547.216 418.811 547.349 408.944 550.416C396.144 554.416 387.478 554.282 387.878 550.282C388.011 548.816 389.344 546.682 390.944 545.616C395.611 542.416 400.278 537.882 400.278 536.416C400.278 533.616 396.011 530.816 393.078 531.882C390.144 532.949 380.144 532.816 368.944 531.616C364.544 531.082 361.744 531.349 360.544 532.549Z" fill="#1B1B1B" stroke="#CCFF00" stroke-width="33"/>
<path d="M834.278 551.082C824.811 553.349 820.011 560.682 825.478 564.549C826.944 565.616 828.278 568.149 828.544 570.282C829.211 577.082 836.144 576.016 836.278 569.082C836.278 567.749 838.144 564.549 840.278 562.016C842.544 559.616 844.278 556.416 844.278 555.216C844.278 552.816 841.878 549.482 840.411 549.749C839.878 549.882 837.211 550.416 834.278 551.082Z" fill="#1B1B1B" stroke="#CCFF00" stroke-width="33"/>
<path d="M798.011 575.216C795.611 578.549 793.478 590.016 794.944 591.482C797.611 594.149 803.344 589.482 805.211 582.949C807.344 575.749 806.678 573.616 802.544 573.616C800.678 573.616 798.678 574.416 798.011 575.216Z" fill="#1B1B1B" stroke="#CCFF00" stroke-width="33"/>
<path d="M334.011 582.549C331.211 583.616 332.011 589.349 334.944 590.282C338.278 591.349 340.278 590.149 340.278 586.949C340.278 584.149 336.544 581.616 334.011 582.549Z" fill="#1B1B1B" stroke="#CCFF00" stroke-width="33"/>
<path d="M709.878 599.616C707.344 602.416 705.878 602.949 698.944 602.949C691.611 602.949 690.944 603.216 690.144 606.282C688.944 610.949 690.278 613.349 695.078 616.016C697.344 617.216 701.344 619.616 703.878 621.349C706.544 623.082 709.211 624.149 709.878 624.016C710.544 623.749 712.278 620.549 713.611 616.949C714.811 613.216 716.678 608.416 717.744 606.016C719.344 602.282 719.211 601.482 716.944 599.082C713.878 595.482 713.344 595.616 709.878 599.616Z" fill="#1B1B1B" stroke="#CCFF00" stroke-width="33"/>
<path d="M335.744 601.882C332.811 605.882 335.344 608.282 338.944 604.949C340.411 603.616 341.611 601.749 341.611 600.682C341.611 597.882 338.011 598.682 335.744 601.882Z" fill="#1B1B1B" stroke="#CCFF00" stroke-width="33"/>
<path d="M343.744 610.815C342.678 612.415 346.544 615.349 348.278 614.282C349.344 613.615 349.344 612.815 348.144 611.482C346.411 609.349 344.811 609.082 343.744 610.815Z" fill="#1B1B1B" stroke="#CCFF00" stroke-width="33"/>
<path d="M299.744 619.349C291.744 621.349 286.678 623.482 284.011 625.882C279.078 630.415 279.344 631.882 284.944 634.149C290.411 636.415 291.744 638.949 289.744 642.815C287.078 647.749 283.211 647.615 275.744 642.415C267.611 636.815 260.811 636.015 256.944 640.282C253.211 644.415 255.211 649.215 261.611 650.949C267.611 652.549 267.878 653.082 264.811 657.349C263.611 659.215 261.344 660.282 259.078 660.282C255.078 660.282 253.078 662.815 254.411 666.149C254.811 667.215 258.011 668.415 262.278 668.949C266.144 669.349 270.411 670.549 271.744 671.482C274.011 673.215 273.611 673.749 266.811 680.015C262.944 683.749 258.411 686.815 257.078 686.949C253.878 686.949 241.611 700.015 241.611 703.349C241.611 704.682 244.278 708.415 247.611 711.749C253.211 717.215 254.144 717.615 260.678 717.615C271.211 717.615 289.478 712.282 295.611 707.349C302.011 702.282 309.611 700.149 320.011 700.415C324.411 700.549 328.678 700.149 329.611 699.615C334.811 696.415 340.678 671.882 339.344 658.282C338.811 651.482 339.078 649.749 341.478 646.682C343.078 644.682 346.011 642.282 348.011 641.349C350.011 640.415 351.611 638.815 351.611 637.882C351.611 635.215 338.544 617.749 335.878 616.815C334.544 616.415 332.678 616.815 331.611 617.615C330.411 618.682 328.011 618.949 325.344 618.415C315.611 616.415 311.078 616.549 299.744 619.349Z" fill="#1B1B1B" stroke="#CCFF00" stroke-width="33"/>
<path d="M767.478 618.282C766.544 620.682 769.078 624.282 771.744 624.282C774.411 624.282 776.544 619.749 774.678 617.882C772.411 615.615 768.278 615.882 767.478 618.282Z" fill="#1B1B1B" stroke="#CCFF00" stroke-width="33"/>
<path d="M689.211 626.416C688.678 626.949 688.278 628.416 688.278 629.482C688.278 632.549 702.811 636.016 704.411 633.349C706.544 630.016 702.411 626.282 696.011 625.882C692.811 625.616 689.744 625.882 689.211 626.416Z" fill="#1B1B1B" stroke="#CCFF00" stroke-width="33"/>
<path d="M665.078 954.016C663.744 955.882 660.811 958.149 658.411 958.949C649.878 961.749 648.011 974.816 655.878 977.749C658.678 978.816 658.944 979.482 658.278 983.482C657.478 987.216 657.878 988.282 660.144 989.482C665.078 992.149 669.611 988.149 672.411 978.549C674.144 972.549 672.278 956.682 669.611 953.216L667.344 950.416L665.078 954.016Z" fill="#1B1B1B" stroke="#CCFF00" stroke-width="33"/>
<path d="M662.944 1001.22C658.278 1003.75 655.611 1004.42 651.211 1003.88C642.544 1002.95 637.611 1009.48 644.944 1012.28C647.878 1013.35 648.144 1014.02 646.944 1016.15C644.678 1020.68 645.344 1024.02 649.211 1025.88C652.411 1027.48 652.811 1028.42 652.944 1034.95C653.078 1038.95 652.278 1044.02 651.344 1046.02C649.744 1049.35 649.744 1050.28 651.611 1053.08C652.678 1054.82 654.278 1056.28 654.944 1056.28C655.611 1056.28 656.278 1057.62 656.544 1059.22C656.811 1061.48 658.011 1062.42 660.678 1062.68C663.478 1063.08 665.478 1061.88 669.744 1057.75C672.678 1054.68 676.144 1052.28 677.611 1052.28C680.944 1052.28 681.878 1048.82 680.278 1042.28C679.611 1039.35 679.344 1031.88 679.878 1025.62C680.811 1012.02 678.944 1004.15 674.011 1000.42C669.878 997.082 670.411 997.082 662.944 1001.22Z" fill="#1B1B1B" stroke="#CCFF00" stroke-width="33"/>
<path d="M517.878 1038.42C516.278 1039.48 514.945 1041.22 514.945 1042.28C514.945 1044.42 524.545 1049.62 528.678 1049.62C534.678 1049.62 537.478 1044.42 534.278 1039.48C532.678 1036.95 531.078 1036.28 526.545 1036.28C523.478 1036.28 519.478 1037.22 517.878 1038.42Z" fill="#1B1B1B" stroke="#CCFF00" stroke-width="33"/>
<path d="M490.678 1054.55C485.744 1055.88 487.344 1063.62 492.944 1065.08C499.611 1066.68 502.944 1059.62 497.344 1055.75C495.744 1054.55 494.011 1053.75 493.611 1053.75C493.211 1053.88 492.011 1054.15 490.678 1054.55Z" fill="#1B1B1B" stroke="#CCFF00" stroke-width="33"/>
<path d="M801.078 1078.95C795.744 1082.42 787.478 1083.22 778.944 1081.35C770.411 1079.62 748.411 1079.88 746.011 1081.88C745.078 1082.68 744.278 1085.62 744.278 1088.42C744.278 1094.15 747.878 1098.95 752.278 1098.95C753.611 1098.95 756.944 1100.68 759.344 1102.95C764.011 1107.08 767.478 1108.02 768.944 1105.62C770.544 1102.95 773.478 1104.42 773.878 1107.88C774.144 1110.95 774.944 1111.62 777.744 1111.62C780.011 1111.62 782.411 1112.95 784.278 1115.22C786.278 1117.88 788.411 1118.95 791.344 1118.95C793.744 1118.95 798.144 1120.15 801.344 1121.62C806.011 1123.75 807.611 1123.88 810.411 1122.68C816.944 1119.75 816.278 1110.95 809.211 1108.95C803.078 1107.08 802.811 1102.82 808.811 1096.28C814.144 1090.42 814.544 1087.88 811.744 1080.95C809.478 1075.62 806.944 1075.22 801.078 1078.95Z" fill="#1B1B1B" stroke="#CCFF00" stroke-width="33"/>
<path d="M949.078 1084.28C943.745 1085.88 938.945 1090.82 938.945 1094.55C938.945 1097.08 940.278 1098.28 945.345 1100.55C948.811 1102.02 951.745 1103.35 951.878 1103.48C952.011 1103.62 952.545 1106.28 952.945 1109.48C954.011 1118.82 955.745 1120.68 961.611 1119.75C967.345 1118.82 969.078 1120.28 970.411 1126.82C971.611 1132.42 973.611 1133.48 973.611 1128.42C973.611 1123.08 976.545 1122.95 981.478 1128.28C983.478 1130.55 985.478 1131.88 986.011 1131.48C987.345 1130.02 985.478 1114.68 983.345 1110.55C980.811 1105.48 981.878 1103.08 986.145 1103.88C990.678 1104.82 990.678 1102.55 986.145 1096.42C981.211 1089.88 979.078 1088.28 974.678 1088.28C972.545 1088.28 968.545 1087.08 965.611 1085.62C960.145 1082.82 955.478 1082.42 949.078 1084.28Z" fill="#1B1B1B" stroke="#CCFF00" stroke-width="33"/>
<path d="M1014.94 1085.48C1014.94 1087.35 1016.41 1088.82 1019.34 1090.02C1021.61 1091.08 1024.41 1092.82 1025.48 1094.15C1026.81 1095.75 1027.74 1095.88 1029.08 1094.82C1031.74 1092.55 1029.34 1088.15 1024.14 1086.28C1021.61 1085.35 1018.54 1084.15 1017.34 1083.62C1015.48 1082.95 1014.94 1083.35 1014.94 1085.48Z" fill="#1B1B1B" stroke="#CCFF00" stroke-width="33"/>
<path d="M1018.94 1115.48C1012.81 1117.75 1012.68 1121.08 1018.68 1120.68C1023.21 1120.55 1028.81 1116.82 1027.48 1114.82C1026.54 1113.22 1024.68 1113.48 1018.94 1115.48Z" fill="#1B1B1B" stroke="#CCFF00" stroke-width="33"/>
<path d="M1037.21 1129.22C1035.61 1130.68 1039.08 1133.62 1042.41 1133.62C1046.68 1133.62 1046.54 1131.22 1042.14 1129.62C1038.14 1128.02 1038.28 1128.02 1037.21 1129.22Z" fill="#1B1B1B" stroke="#CCFF00" stroke-width="33"/>
<path d="M999.744 1150.02C996.944 1152.02 996.544 1158.02 998.944 1160.82C999.744 1161.88 1003.34 1163.22 1006.68 1163.62C1017.48 1165.08 1023.34 1167.08 1029.61 1170.95C1036.81 1175.48 1051.48 1178.55 1054.41 1176.15C1058.41 1172.82 1054.94 1160.55 1049.21 1158.02C1047.61 1157.22 1040.41 1156.95 1032.94 1157.22C1019.61 1157.88 1019.61 1157.88 1014.41 1153.75C1011.61 1151.48 1008.41 1149.62 1007.48 1149.62C1006.54 1149.62 1005.08 1149.35 1004.01 1148.95C1003.08 1148.55 1001.08 1149.08 999.744 1150.02Z" fill="#1B1B1B" stroke="#CCFF00" stroke-width="33"/>
</svg>
