<svg width="1738" height="1048" viewBox="0 0 1738 1048" fill="none" xmlns="http://www.w3.org/2000/svg">
<path d="M1586.86 17.5809C1574.86 18.1142 1566.32 19.0476 1564.32 20.1142C1561.79 21.5809 1559.79 21.5809 1554.32 20.3809C1549.26 19.1809 1543.92 19.1809 1532.86 20.2476C1524.86 21.0476 1512.06 21.7142 1504.59 21.7142C1492.32 21.7142 1490.59 21.9809 1486.06 25.1809C1481.26 28.3809 1480.86 28.3809 1477.39 26.3809C1471.79 23.0476 1467.39 23.7142 1464.19 28.2476C1460.72 33.0476 1459.39 33.1809 1451.39 28.9142C1443.26 24.6476 1441.39 24.7809 1438.19 29.9809C1434.86 35.3142 1431.66 35.9809 1426.72 32.3809C1423.66 30.1142 1422.46 29.8476 1420.46 31.0476C1418.46 32.3809 1417.26 32.1142 1414.06 29.7142C1410.32 27.0476 1409.52 26.9142 1391.52 28.1142C1374.86 29.3142 1371.52 29.9809 1360.19 34.3809C1348.32 38.9142 1346.46 39.3142 1331.52 39.5809C1314.19 39.8476 1299.39 42.2476 1298.32 44.9142C1298.06 45.8476 1298.59 48.2476 1299.66 50.2476C1300.72 52.2476 1301.52 53.9809 1301.52 54.2476C1301.52 55.3142 1288.86 57.5809 1283.39 57.5809C1274.99 57.5809 1235.79 62.9142 1234.46 64.2476C1233.79 64.7809 1233.66 66.5142 1234.19 67.9809C1234.99 70.6476 1235.92 70.7809 1255.39 70.6476C1266.46 70.5142 1276.46 70.9142 1277.52 71.5809C1278.72 72.3809 1275.26 73.7142 1267.12 75.7142C1255.92 78.5142 1254.32 78.6476 1249.39 76.9142C1242.32 74.3809 1235.92 75.5809 1236.46 79.4476C1236.86 81.8476 1237.66 82.2476 1242.46 81.8476C1248.19 81.3142 1248.19 81.3142 1247.39 85.3142C1246.59 89.0476 1246.86 89.1809 1252.19 90.1142C1256.32 90.7809 1258.72 90.3809 1260.99 88.9142C1265.26 86.2476 1271.66 86.3809 1273.52 89.1809C1274.72 91.3142 1275.12 91.1809 1278.19 87.5809C1281.26 83.9809 1281.79 83.8476 1282.99 85.8476C1284.72 89.0476 1288.32 88.9142 1292.59 85.5809C1296.72 82.3809 1299.12 82.1142 1298.59 85.0476C1298.19 86.9142 1299.66 87.3142 1306.99 87.4476C1313.12 87.5809 1316.72 88.2476 1318.32 89.7142C1319.79 90.9142 1322.59 92.2476 1324.59 92.7809C1327.52 93.4476 1328.19 94.3809 1327.92 96.6476C1327.66 98.9142 1328.32 99.7142 1330.99 99.9809C1333.92 100.381 1334.59 101.314 1336.06 107.981C1338.06 116.914 1336.46 125.448 1331.39 134.381C1326.72 142.248 1327.12 144.648 1332.59 143.581C1334.86 143.181 1338.46 142.114 1340.32 141.448C1343.12 140.381 1344.86 140.781 1349.92 143.848C1356.99 148.114 1358.06 149.714 1355.52 153.048C1353.92 155.314 1353.52 155.314 1348.72 153.181C1341.92 150.248 1331.52 149.581 1331.52 152.114C1331.52 153.181 1334.06 154.648 1337.52 155.448C1352.99 159.448 1358.06 164.648 1354.19 172.114C1352.06 176.381 1352.06 176.381 1344.32 175.448C1336.99 174.648 1336.46 174.781 1332.32 178.781C1330.06 181.048 1327.52 182.914 1326.86 182.914C1326.32 182.914 1323.92 184.514 1321.66 186.381C1316.59 190.514 1315.79 197.448 1320.19 198.514C1323.12 199.314 1323.79 201.581 1321.12 201.581C1318.72 201.581 1314.86 205.981 1314.86 208.648C1314.86 209.848 1316.46 212.248 1318.46 214.114C1322.06 217.448 1322.06 217.581 1320.59 226.381C1318.72 236.781 1320.32 242.514 1326.06 246.248C1328.86 248.114 1329.12 248.914 1327.79 250.914C1326.59 253.048 1326.72 254.114 1328.99 257.181C1330.59 259.181 1332.46 263.181 1333.39 265.981C1334.32 268.648 1336.19 271.581 1337.52 272.248C1341.26 274.248 1352.99 273.848 1354.72 271.714C1356.06 270.114 1357.12 270.248 1361.52 272.781C1365.52 274.914 1366.99 276.648 1367.66 279.848C1368.59 284.648 1369.66 285.314 1372.19 282.248C1373.52 280.648 1375.39 280.381 1379.39 280.914C1384.72 281.714 1384.99 281.581 1391.12 273.981C1394.59 269.714 1398.86 264.914 1400.32 263.314C1402.59 261.048 1403.12 259.448 1402.46 255.714C1401.66 250.914 1404.32 246.514 1406.19 249.581C1407.66 251.848 1409.39 251.048 1411.52 246.914C1412.72 244.648 1414.59 242.914 1415.92 242.914C1419.52 242.914 1424.19 239.048 1424.19 236.114C1424.19 234.514 1423.26 233.581 1421.52 233.581C1417.39 233.581 1418.32 230.914 1422.72 230.114C1426.32 229.314 1426.59 228.914 1425.92 224.781C1425.12 220.248 1425.12 220.248 1430.59 220.248C1433.79 220.248 1436.19 219.581 1436.59 218.381C1436.99 217.314 1440.59 216.248 1445.66 215.714C1455.79 214.514 1458.59 213.181 1459.12 209.314C1459.39 207.581 1460.59 206.114 1461.92 205.848C1463.92 205.448 1464.32 205.848 1463.52 208.248C1462.72 210.914 1462.99 211.048 1469.79 210.648C1474.99 210.381 1476.86 209.714 1476.86 208.248C1476.86 206.781 1478.46 206.248 1482.59 205.981C1489.39 205.714 1492.19 204.114 1501.79 194.381C1506.59 189.581 1510.46 186.914 1512.99 186.648C1516.32 186.381 1516.86 185.581 1517.26 181.848C1517.79 176.648 1518.32 176.648 1522.99 181.048C1526.59 184.514 1526.59 184.514 1533.66 182.381C1537.66 181.314 1546.06 179.848 1552.46 179.048C1559.92 178.248 1566.32 176.514 1570.46 174.514C1576.19 171.581 1586.32 167.448 1604.59 160.914C1611.12 158.648 1612.32 157.048 1608.72 155.714C1604.86 154.248 1575.66 156.514 1572.46 158.514C1570.72 159.581 1568.32 160.114 1567.26 159.714C1563.92 158.381 1568.99 153.848 1574.72 152.914C1583.39 151.448 1585.52 149.981 1585.52 145.581C1585.52 141.581 1585.79 141.448 1590.46 141.848C1594.32 142.114 1595.79 143.048 1597.52 146.248C1599.39 149.581 1600.59 150.248 1604.99 150.381C1607.79 150.381 1611.26 150.914 1612.46 151.448C1617.26 153.581 1619.52 151.848 1619.39 146.248C1619.26 141.581 1618.86 140.914 1616.32 141.314C1614.32 141.581 1613.52 141.048 1613.52 139.048C1613.52 135.981 1611.12 134.114 1607.79 134.648C1606.46 134.914 1603.92 134.248 1602.32 133.048C1599.12 131.048 1594.06 121.981 1595.39 120.648C1596.06 119.848 1601.26 121.314 1614.72 126.248C1618.32 127.581 1621.12 127.848 1621.79 127.181C1622.59 126.381 1622.59 125.581 1621.66 125.048C1616.99 122.114 1625.26 115.048 1633.52 114.781C1636.06 114.781 1640.86 113.714 1644.19 112.248C1649.39 110.114 1650.19 109.448 1649.79 106.248L1649.39 102.648L1656.59 103.581C1662.19 104.248 1664.06 103.981 1665.39 102.381C1667.52 99.7142 1666.19 97.5809 1662.32 97.5809C1660.59 97.5809 1658.46 96.6476 1657.52 95.4476C1656.06 93.7142 1656.19 93.3142 1658.46 92.7809C1660.59 92.2476 1661.12 91.0476 1660.99 87.1809C1660.86 83.0476 1661.39 82.2476 1663.92 81.8476C1665.92 81.5809 1666.86 80.6476 1666.59 79.1809C1666.32 77.4476 1664.46 76.7809 1659.79 76.5142C1656.32 76.2476 1653.52 75.5809 1653.52 74.7809C1653.52 74.1142 1654.06 73.5809 1654.72 73.5809C1655.52 73.5809 1658.86 71.1809 1662.19 68.2476C1665.52 65.3142 1669.26 62.9142 1670.32 62.9142C1672.99 62.9142 1672.59 60.2476 1669.39 56.7809C1666.06 53.1809 1667.26 50.3809 1671.66 51.3142C1673.39 51.5809 1675.52 51.0476 1676.32 50.1142C1677.12 49.0476 1679.26 48.2476 1680.99 48.2476C1682.59 48.2476 1684.99 47.3142 1686.06 46.1142C1687.52 44.6476 1689.39 44.2476 1692.06 44.9142C1694.86 45.4476 1696.72 44.9142 1699.66 42.5142C1702.32 40.2476 1706.06 39.0476 1711.52 38.3809C1720.32 37.4476 1723.79 35.4476 1718.72 34.3809C1702.06 30.9142 1692.99 30.5142 1686.06 32.7809C1682.46 33.8476 1675.52 35.0476 1670.72 35.3142C1664.59 35.5809 1661.12 36.5142 1659.52 37.9809C1658.32 39.1809 1656.32 40.2476 1654.99 40.2476C1653.79 40.2476 1649.52 41.4476 1645.52 42.7809C1641.52 44.2476 1637.79 45.0476 1637.26 44.7809C1635.12 43.4476 1636.32 41.8476 1641.26 39.5809C1645.79 37.3142 1648.06 35.3142 1648.19 33.5809C1648.19 33.1809 1642.46 33.0476 1635.52 33.3142C1623.12 33.8476 1620.59 33.0476 1624.59 29.8476C1625.52 29.0476 1632.32 28.1142 1639.52 27.9809C1648.06 27.7142 1652.86 27.0476 1653.12 25.9809C1653.52 25.0476 1651.39 24.1142 1647.26 23.5809C1633.66 21.8476 1623.26 19.9809 1617.66 18.1142C1614.32 17.0476 1610.46 16.3809 1608.99 16.5142C1607.39 16.6476 1597.52 17.0476 1586.86 17.5809Z" fill="#1B1B1B" stroke="#CCFF00" stroke-width="33"/>
<path d="M1255.79 21.1807C1255.12 21.714 1242.72 22.2474 1228.06 22.3807L1201.39 22.6474L1198.19 26.114C1194.86 29.714 1190.32 30.6474 1188.86 28.2474C1187.79 26.514 1176.06 27.714 1169.39 30.2474C1166.19 31.4474 1156.99 32.2474 1142.99 32.514C1131.26 32.6474 1121.52 33.1807 1121.52 33.714C1121.52 34.2474 1123.39 36.3807 1125.52 38.514L1129.52 42.3807L1152.99 42.6474C1165.92 42.914 1177.12 43.314 1177.79 43.714C1178.46 44.114 1178.32 45.314 1177.39 46.3807C1175.52 48.6474 1154.72 49.0474 1150.59 46.7807C1148.46 45.5807 1147.26 45.9807 1144.32 48.6474C1142.46 50.3807 1139.12 52.3807 1136.86 52.7807C1132.99 53.714 1132.99 53.714 1135.39 51.0474C1137.92 48.2474 1137.52 44.2474 1134.59 44.2474C1133.79 44.2474 1131.66 45.5807 1129.92 47.1807L1126.72 50.114L1125.92 47.1807C1125.39 44.914 1124.19 44.2474 1120.72 44.2474C1117.12 44.2474 1115.92 43.5807 1114.86 41.0474C1114.19 39.0474 1111.92 37.1807 1109.12 36.3807C1105.12 35.0474 1102.99 35.314 1093.12 38.7807C1086.86 40.914 1080.59 43.314 1079.12 44.114C1077.66 44.914 1074.32 45.5807 1071.79 45.5807C1065.52 45.5807 1060.32 49.8474 1062.32 53.1807C1064.32 56.3807 1077.52 58.114 1085.12 56.2474C1088.19 55.5807 1091.79 54.914 1093.12 54.914C1095.26 54.914 1095.26 55.0474 1093.26 57.0474C1091.66 58.6474 1088.32 59.314 1080.32 59.4474C1070.99 59.5807 1069.52 59.8474 1069.52 61.8474C1069.52 65.5807 1074.86 67.8474 1085.66 68.7807C1094.72 69.5807 1095.92 69.314 1098.19 66.914C1099.52 65.4474 1101.92 64.2474 1103.39 64.2474C1104.99 64.2474 1110.59 63.0474 1115.92 61.5807C1121.12 60.114 1128.06 58.914 1131.26 58.914C1139.39 58.914 1145.39 56.514 1146.32 53.0474C1146.99 50.3807 1147.52 50.6474 1153.66 56.514C1157.26 60.114 1160.19 63.0474 1160.19 63.314C1160.19 63.4474 1151.52 63.4474 1140.86 63.1807L1121.66 62.6474L1118.46 66.114C1116.46 68.2474 1113.79 69.5807 1111.39 69.5807C1106.72 69.5807 1104.86 70.7807 1103.66 74.2474C1103.12 76.3807 1101.66 77.0474 1097.92 77.1807C1090.86 77.5807 1078.32 82.2474 1077.79 84.7807C1077.12 88.114 1081.12 88.7807 1092.19 87.0474C1099.79 85.714 1103.26 85.714 1105.26 86.7807C1107.26 87.8474 1109.12 87.714 1112.99 86.114C1117.12 84.3807 1118.99 84.2474 1123.12 85.4474C1127.12 86.6474 1129.52 86.6474 1134.59 85.0474C1141.66 83.0474 1146.19 84.114 1143.12 87.1807C1142.32 87.9807 1141.52 89.5807 1141.52 90.6474C1141.52 92.6474 1142.06 92.6474 1154.86 88.914C1158.86 87.714 1165.52 86.3807 1169.52 85.8474C1176.06 85.0474 1176.86 84.514 1177.26 81.5807C1177.92 77.314 1179.92 74.914 1182.86 74.914C1184.06 74.914 1186.19 73.714 1187.66 72.114C1189.26 70.3807 1191.26 69.5807 1193.26 69.9807C1195.12 70.3807 1198.46 70.114 1200.72 69.5807C1202.99 68.914 1206.46 68.114 1208.59 67.714C1210.99 67.1807 1212.19 65.9807 1212.19 64.2474C1212.19 62.7807 1213.66 60.6474 1215.39 59.5807C1217.12 58.3807 1220.19 55.0474 1222.06 52.2474C1226.32 45.8474 1230.46 45.314 1239.92 50.114C1244.99 52.6474 1247.52 53.1807 1253.52 52.6474C1257.79 52.2474 1261.92 50.914 1263.52 49.5807C1265.39 47.9807 1269.26 47.0474 1275.52 46.6474C1281.39 46.2474 1286.99 44.914 1290.46 43.0474C1293.52 41.5807 1297.92 40.2474 1300.06 40.2474C1305.79 40.2474 1308.19 39.0474 1308.19 36.114C1308.19 33.5807 1309.26 33.4474 1328.32 33.714C1340.86 33.8474 1348.99 33.314 1349.79 32.514C1352.46 29.8474 1349.79 27.0474 1343.92 26.3807C1340.72 25.9807 1333.12 25.0474 1326.86 24.114C1320.59 23.314 1303.52 22.3807 1288.86 22.2474C1274.19 22.114 1260.99 21.5807 1259.52 21.0474C1258.06 20.514 1256.32 20.514 1255.79 21.1807Z" fill="#1B1B1B" stroke="#CCFF00" stroke-width="33"/>
<path d="M979.257 59.7142C976.857 62.3809 974.857 65.1809 974.857 65.7142C974.857 67.8475 980.857 68.3809 988.857 67.1809C997.923 65.7142 1001.12 66.7809 1002.32 71.5809C1002.72 73.4475 1003.26 74.9142 1003.52 74.9142C1004.59 74.9142 1016.32 67.8475 1016.99 66.7809C1017.39 65.9809 1016.86 64.1142 1015.92 62.6475C1013.79 59.4475 1003.26 56.3809 990.857 55.4475C983.79 54.7809 983.39 54.9142 979.257 59.7142Z" fill="#1B1B1B" stroke="#CCFF00" stroke-width="33"/>
<path d="M923.923 60.7807C922.59 61.714 921.523 63.314 921.523 64.3807C921.523 65.8473 923.79 66.2473 931.923 66.114C946.19 65.8473 945.79 65.9807 945.257 62.514C944.857 59.8473 944.057 59.5807 935.523 59.314C929.257 59.0473 925.39 59.5807 923.923 60.7807Z" fill="#1B1B1B" stroke="#CCFF00" stroke-width="33"/>
<path d="M1030.86 63.5807C1027.79 67.1807 1031.66 69.314 1041.92 69.714C1057.79 70.2473 1057.52 63.8473 1041.52 62.2473C1034.19 61.4473 1032.46 61.714 1030.86 63.5807Z" fill="#1B1B1B" stroke="#CCFF00" stroke-width="33"/>
<path d="M895.923 67.8474C894.59 68.114 893.523 69.5807 893.523 71.0474C893.523 72.914 894.457 73.5807 896.857 73.5807C900.857 73.5807 908.19 70.114 908.19 68.2474C908.19 66.914 900.323 66.6474 895.923 67.8474Z" fill="#1B1B1B" stroke="#CCFF00" stroke-width="33"/>
<path d="M925.524 68.2474C924.457 68.9141 920.457 69.5807 916.857 69.5807C910.057 69.5807 904.19 72.2474 904.19 75.4474C904.19 77.7141 919.79 76.6474 923.79 74.1141C925.39 73.0474 928.324 72.2474 930.19 72.2474C933.924 72.2474 934.857 69.0474 931.39 67.7141C928.59 66.6474 927.924 66.7807 925.524 68.2474Z" fill="#1B1B1B" stroke="#CCFF00" stroke-width="33"/>
<path d="M955.39 72.914C953.657 75.4474 953.523 76.6474 954.723 78.114C957.923 81.9807 962.723 77.8474 962.857 71.1807C962.857 68.2474 957.657 69.4474 955.39 72.914Z" fill="#1B1B1B" stroke="#CCFF00" stroke-width="33"/>
<path d="M862.857 73.4474C860.99 74.1141 855.657 75.3141 850.99 76.1141C843.79 77.5807 842.323 77.4474 840.323 75.7141C837.257 72.9141 835.39 73.0474 833.257 75.9807C831.79 77.9807 808.057 85.5807 798.19 87.1807C796.59 87.4474 795.523 88.6474 795.523 90.1141C795.523 92.2474 796.857 92.6474 805.39 93.0474C812.59 93.4474 816.057 93.0474 818.323 91.5807C820.057 90.5141 822.99 89.5807 824.99 89.5807C826.99 89.5807 830.857 88.9141 833.657 88.1141C837.657 86.9141 839.257 86.9141 840.723 88.1141C842.457 89.5807 843.523 89.3141 846.723 87.0474C848.857 85.4474 852.323 84.2474 854.457 84.2474C856.457 84.2474 860.057 83.0474 862.19 81.5807C864.457 80.1141 867.523 78.9141 869.123 78.9141C873.123 78.9141 874.457 76.2474 871.523 73.9807C868.723 71.9807 867.657 71.9807 862.857 73.4474Z" fill="#1B1B1B" stroke="#CCFF00" stroke-width="33"/>
<path d="M1036.19 74.114C1036.19 76.6473 1039.26 77.4473 1048.59 77.314C1054.99 77.314 1056.19 76.914 1055.92 75.0473C1055.39 71.9807 1036.19 71.0473 1036.19 74.114Z" fill="#1B1B1B" stroke="#CCFF00" stroke-width="33"/>
<path d="M1073.79 73.714C1068.06 75.4473 1068.99 78.3807 1074.99 77.9807C1082.46 77.314 1085.52 76.2473 1085.52 74.2473C1085.52 71.9807 1080.72 71.714 1073.79 73.714Z" fill="#1B1B1B" stroke="#CCFF00" stroke-width="33"/>
<path d="M1019.92 81.1807C1015.79 82.2473 1017.39 85.4473 1022.72 86.914C1025.66 87.714 1031.26 87.9807 1035.12 87.4473C1040.99 86.7807 1042.59 87.0473 1044.19 88.914C1046.19 91.314 1046.32 91.314 1037.39 97.714C1033.26 100.647 1034.86 104.247 1040.32 104.247C1042.72 104.247 1045.79 105.314 1047.12 106.514C1049.39 108.514 1049.92 108.514 1054.32 106.514C1060.72 103.447 1063.26 103.581 1062.19 106.914C1061.12 110.247 1063.52 110.381 1074.19 107.181C1084.99 103.981 1106.19 104.114 1111.26 107.581C1115.92 110.647 1132.72 109.847 1137.66 106.514C1139.39 105.181 1141.79 104.247 1143.12 104.247C1144.72 104.247 1145.52 103.181 1145.52 101.181C1145.52 93.0473 1133.12 89.714 1114.46 92.914C1108.06 93.9807 1101.12 94.914 1098.99 94.914C1096.72 94.914 1094.59 95.4473 1094.19 96.2473C1092.99 98.2473 1084.99 97.8473 1082.06 95.5807C1078.72 93.0473 1074.86 93.0473 1071.26 95.5807C1068.72 97.4473 1068.46 97.314 1067.92 94.2473C1067.52 92.514 1068.06 90.2473 1069.12 89.1807C1070.72 87.5807 1070.19 87.0473 1065.66 84.914C1062.59 83.5807 1058.72 82.914 1056.72 83.314C1054.72 83.714 1050.32 83.1807 1046.99 82.114C1041.26 80.3807 1024.99 79.8473 1019.92 81.1807Z" fill="#1B1B1B" stroke="#CCFF00" stroke-width="33"/>
<path d="M902.59 83.7141C898.323 85.9808 898.323 86.1141 900.457 89.4474C902.723 93.0474 900.857 96.2474 896.59 96.2474C890.19 96.1141 879.923 92.7808 878.057 90.2474C875.523 86.7808 856.19 85.7141 851.523 88.7808C849.79 89.9808 847.123 90.9141 845.79 90.9141C844.457 90.9141 841.923 91.9808 840.457 93.4474C838.857 94.7808 836.19 95.5808 834.59 95.3141C830.857 94.6474 822.457 99.7141 823.257 101.981C823.523 102.914 824.723 103.314 825.657 103.047C826.723 102.647 829.257 102.381 831.257 102.381C833.257 102.247 835.39 101.581 835.923 100.781C836.457 99.9808 841.257 99.3141 846.59 99.1808C854.057 99.0474 856.19 99.4474 856.19 100.914C856.19 103.181 851.79 104.514 846.857 103.981C844.723 103.714 843.523 104.381 843.123 105.847C842.457 109.047 848.723 110.381 855.79 108.514C858.99 107.581 863.257 106.914 865.257 106.914C867.257 106.914 873.123 105.714 878.19 104.247C884.723 102.381 891.523 101.581 900.59 101.581C922.323 101.581 936.723 95.9808 930.59 89.8474C928.323 87.5808 925.923 87.8474 921.523 91.1808C916.323 95.0475 913.523 92.9141 916.857 87.8474C918.057 85.8474 918.723 83.7141 918.19 82.9141C916.99 80.9141 906.723 81.3141 902.59 83.7141Z" fill="#1B1B1B" stroke="#CCFF00" stroke-width="33"/>
<path d="M977.657 84.3808C970.857 87.0474 965.79 94.6474 969.39 96.7808C970.057 97.1808 970.323 98.6474 970.057 99.9808C969.523 101.847 970.457 102.247 976.723 102.647C982.59 102.914 985.523 102.247 991.923 98.9141C1000.86 94.3808 1006.86 89.3141 1006.86 86.2474C1006.86 83.1808 1003.52 82.3808 999.79 84.7808C996.857 86.7808 996.323 86.7808 994.857 84.9141C992.99 82.6474 982.857 82.2474 977.657 84.3808Z" fill="#1B1B1B" stroke="#CCFF00" stroke-width="33"/>
<path d="M948.19 86.2474C948.19 87.4474 949.124 88.6474 950.19 89.0474C951.257 89.5807 952.19 91.0474 952.19 92.3807C952.19 95.714 955.124 96.914 958.724 95.0474C961.39 93.5807 961.79 89.314 959.657 85.8474C958.19 83.4474 948.19 83.714 948.19 86.2474Z" fill="#1B1B1B" stroke="#CCFF00" stroke-width="33"/>
<path d="M932.457 97.8473C929.257 101.047 930.59 103.314 935.123 102.381C939.523 101.581 942.857 99.3139 942.857 97.4473C942.857 95.7139 934.323 95.9806 932.457 97.8473Z" fill="#1B1B1B" stroke="#CCFF00" stroke-width="33"/>
<path d="M1003.92 99.0472C1000.72 100.914 1000.86 103.847 1004.32 105.714C1008.19 107.714 1018.99 106.381 1020.86 103.714C1021.79 102.514 1023.52 101.581 1024.86 101.581C1026.72 101.581 1026.86 101.181 1025.52 99.5806C1023.52 97.1806 1007.66 96.7806 1003.92 99.0472Z" fill="#1B1B1B" stroke="#CCFF00" stroke-width="33"/>
<path d="M750.99 109.447C749.523 110.914 748.19 113.447 748.19 114.781C748.19 116.647 746.723 117.847 743.257 118.914C740.457 119.847 733.523 123.181 727.923 126.381C722.19 129.714 715.657 132.647 713.523 133.181C708.19 134.114 707.523 135.714 710.857 138.514C712.323 139.847 713.523 141.847 713.523 143.047C713.523 147.981 717.123 148.781 725.39 145.714C729.657 144.247 735.79 142.914 739.123 142.914C743.523 142.914 745.79 142.114 747.657 140.114C751.123 136.247 756.99 133.447 759.39 134.381C760.59 134.781 764.323 133.447 767.79 131.181C771.39 129.047 776.857 126.781 780.19 126.247C783.523 125.847 788.857 124.647 792.19 123.581C795.523 122.647 801.523 121.447 805.523 120.914C817.79 119.581 819.39 116.514 810.323 111.581C806.19 109.314 804.857 109.181 799.523 110.647C791.523 112.781 788.057 112.647 784.457 110.114C782.457 108.781 776.99 107.847 767.657 107.314C754.857 106.647 753.657 106.781 750.99 109.447Z" fill="#1B1B1B" stroke="#CCFF00" stroke-width="33"/>
<path d="M1008.19 113.581C1004.06 114.114 999.523 115.181 997.923 115.981C996.323 116.914 993.523 117.581 991.656 117.581C989.523 117.581 988.19 118.381 988.19 119.447C988.19 120.514 986.723 121.714 984.856 122.114C980.456 123.181 977.39 132.647 980.323 135.581C982.99 138.247 990.59 136.114 994.19 131.714C997.39 127.847 999.123 127.447 1006.06 128.914C1010.72 129.847 1012.59 129.314 1021.39 124.914C1026.99 122.114 1032.99 119.181 1034.86 118.381C1036.72 117.447 1038.19 115.981 1038.19 114.914C1038.19 113.314 1035.92 112.914 1026.86 112.781C1020.59 112.781 1012.19 113.047 1008.19 113.581Z" fill="#1B1B1B" stroke="#CCFF00" stroke-width="33"/>
<path d="M1068.19 114.914C1066.32 115.447 1057.92 118.247 1049.52 120.914C1035.39 125.314 1033.66 126.247 1026.46 133.047C1018.72 140.647 1017.92 142.914 1023.39 142.914C1027.12 142.914 1034.99 145.447 1036.86 147.314C1037.79 148.114 1034.72 148.247 1028.19 147.714C1020.46 147.047 1017.52 147.314 1015.52 148.781C1012.99 150.647 1012.99 150.781 1016.19 153.447C1018.72 155.447 1021.39 156.114 1027.66 156.247C1032.06 156.247 1036.19 156.781 1036.99 157.447C1037.66 158.114 1042.72 158.914 1048.19 159.314C1053.66 159.581 1062.72 160.647 1068.19 161.714C1073.66 162.781 1082.06 163.447 1086.86 163.447C1096.72 163.181 1105.79 159.981 1104.72 157.047C1104.32 155.981 1104.72 154.781 1105.52 154.247C1106.46 153.714 1109.39 155.847 1112.72 159.714C1115.79 163.181 1120.46 166.781 1122.99 167.714L1127.52 169.314L1123.39 169.447C1118.32 169.581 1112.72 173.714 1113.79 176.381C1114.72 178.914 1125.39 178.114 1126.46 175.447C1127.26 173.314 1130.46 172.914 1131.12 174.914C1131.39 175.581 1134.19 177.581 1137.52 179.314C1143.39 182.381 1143.52 182.647 1143.52 189.047C1143.52 194.247 1143.12 195.581 1141.26 195.581C1140.06 195.581 1137.92 196.647 1136.59 197.981C1135.12 199.181 1132.46 200.247 1130.59 200.247C1128.72 200.247 1126.86 201.047 1126.46 202.114C1126.06 203.181 1123.52 204.781 1120.99 205.714C1116.19 207.447 1114.86 210.381 1117.66 213.181C1119.79 215.314 1117.92 215.981 1106.86 217.581C1099.12 218.647 1096.19 218.514 1091.39 216.914C1083.66 214.381 1082.46 214.381 1079.66 217.447C1078.32 218.914 1075.39 220.247 1072.99 220.514C1069.39 220.914 1068.72 221.447 1068.19 225.581C1066.72 234.381 1068.72 235.181 1082.46 231.447C1086.72 230.381 1095.79 229.314 1102.46 229.181C1113.26 228.914 1114.72 229.181 1114.19 231.047C1113.39 233.581 1115.92 236.114 1120.99 237.447C1125.66 238.647 1126.59 241.181 1122.59 241.847C1120.72 242.114 1119.39 243.314 1119.12 245.047C1118.86 247.314 1119.52 247.847 1123.12 247.847C1130.99 248.114 1136.06 249.714 1136.86 252.381C1137.79 255.047 1139.52 255.581 1149.52 256.781C1152.72 257.047 1156.06 258.381 1156.99 259.447C1158.86 261.981 1164.19 262.247 1167.39 259.847C1169.66 258.114 1169.66 257.847 1167.66 253.847C1166.46 251.447 1164.86 249.581 1164.19 249.581C1161.92 249.581 1150.86 241.047 1150.86 239.314C1150.86 237.314 1154.32 236.914 1155.52 238.914C1155.92 239.581 1158.06 240.247 1160.06 240.247C1162.86 240.247 1164.86 241.447 1167.39 244.781C1169.79 247.981 1171.52 249.181 1173.39 248.647C1175.12 248.247 1176.46 248.914 1177.52 251.047L1179.26 254.114L1181.12 250.514C1182.06 248.514 1183.52 246.914 1184.19 246.914C1184.99 246.914 1185.52 245.714 1185.52 244.247C1185.52 242.514 1186.46 241.581 1188.19 241.581C1191.79 241.581 1192.99 238.247 1190.86 234.247C1189.92 232.514 1189.52 230.114 1190.06 228.781C1191.12 225.981 1188.59 222.914 1185.26 222.914C1182.06 222.914 1174.86 215.581 1174.86 212.381C1174.99 209.447 1180.86 202.914 1183.66 202.914C1188.46 202.914 1196.06 208.647 1198.72 214.381C1201.12 219.314 1201.92 219.981 1206.72 220.514C1213.12 221.047 1214.86 220.647 1214.86 218.247C1214.86 215.181 1218.59 213.047 1221.79 214.514C1224.19 215.581 1225.52 215.047 1229.12 211.447C1231.52 209.047 1233.52 206.381 1233.52 205.714C1233.52 205.047 1235.12 204.514 1236.99 204.647C1241.39 204.914 1244.19 201.314 1242.06 197.847C1240.99 196.247 1237.79 195.181 1231.12 194.381C1222.72 193.314 1221.52 192.781 1221.52 190.381C1221.52 185.314 1219.26 183.581 1212.59 183.447C1209.12 183.314 1203.26 182.247 1199.79 180.914C1188.86 176.914 1190.06 171.847 1201.39 173.047C1204.86 173.447 1208.32 173.181 1209.26 172.514C1211.66 170.914 1209.79 166.914 1206.32 166.781C1203.52 166.781 1203.52 166.781 1206.59 165.581C1210.19 164.114 1210.32 160.914 1206.99 155.447C1204.86 151.981 1203.39 151.181 1197.52 150.514C1192.06 149.847 1189.52 148.647 1185.26 144.781C1179.92 139.981 1179.12 139.847 1171.26 142.247C1168.86 143.047 1167.79 142.247 1164.99 137.714C1160.46 130.647 1156.32 128.114 1150.06 128.514C1147.12 128.647 1142.32 128.247 1139.26 127.714C1134.19 126.781 1133.52 127.047 1131.52 130.114C1129.12 133.714 1124.46 134.647 1121.92 132.114C1120.86 131.047 1118.86 131.447 1114.86 133.581C1111.12 135.581 1109.39 135.847 1109.79 134.647C1110.06 133.714 1112.59 131.847 1115.26 130.514C1117.92 129.181 1120.19 127.581 1120.19 127.181C1120.19 126.647 1118.99 124.381 1117.66 122.114C1114.19 116.381 1106.99 115.314 1096.46 118.781C1092.19 120.247 1087.26 121.047 1085.52 120.647C1083.52 120.114 1082.19 120.514 1081.26 121.981C1080.72 123.181 1078.06 124.514 1075.66 124.914C1072.59 125.581 1069.66 127.714 1066.32 131.581C1061.12 137.847 1060.32 140.247 1063.39 140.247C1066.19 140.247 1067.39 142.781 1065.52 144.914C1064.32 146.381 1063.26 146.381 1060.72 145.314C1055.66 142.914 1055.39 138.514 1059.79 131.314C1063.12 125.981 1064.72 124.781 1070.32 123.181C1080.46 120.247 1082.86 119.181 1082.86 117.047C1082.86 116.114 1080.99 114.914 1078.72 114.381C1073.66 113.447 1072.46 113.447 1068.19 114.914Z" fill="#1B1B1B" stroke="#CCFF00" stroke-width="33"/>
<path d="M898.19 116.114C896.857 117.314 897.657 119.981 899.924 122.914C902.19 125.714 902.59 125.714 909.924 124.114C915.524 122.781 917.524 121.714 917.524 119.981C917.524 118.781 916.724 117.314 915.924 116.647C914.057 115.581 899.124 115.047 898.19 116.114Z" fill="#1B1B1B" stroke="#CCFF00" stroke-width="33"/>
<path d="M957.523 116.381C946.857 116.781 937.79 117.314 937.257 117.447C934.723 117.847 936.59 120.114 940.323 121.447C945.657 123.314 944.723 125.847 938.323 127.447C934.323 128.514 932.457 128.247 928.857 126.381C925.39 124.514 923.923 124.247 921.657 125.581C917.79 127.581 918.59 129.581 924.857 133.181C927.79 134.781 930.723 137.847 931.657 140.247C933.39 144.114 933.923 144.514 937.79 143.714C940.19 143.314 945.923 142.514 950.59 141.714C963.79 139.847 974.857 130.247 967.39 127.314C965.39 126.514 965.39 126.247 967.657 124.647C968.99 123.714 971.523 122.914 973.39 122.914C978.057 122.914 980.59 121.047 979.923 118.247C979.39 115.181 980.323 115.181 957.523 116.381Z" fill="#1B1B1B" stroke="#CCFF00" stroke-width="33"/>
<path d="M1120.59 117.714C1118.06 120.381 1118.46 122.648 1122.06 124.914C1124.86 126.781 1126.19 126.781 1131.12 125.448C1134.59 124.514 1140.46 124.248 1145.92 124.781C1154.06 125.581 1154.86 125.448 1154.86 123.048C1154.86 118.381 1151.26 117.181 1136.46 116.514C1125.92 116.114 1121.79 116.381 1120.59 117.714Z" fill="#1B1B1B" stroke="#CCFF00" stroke-width="33"/>
<path d="M873.923 125.847C871.657 128.247 869.523 131.981 869.257 134.247C868.723 139.047 862.59 143.181 860.057 140.647C858.857 139.447 858.99 138.247 860.723 135.714C863.657 131.047 863.39 128.914 859.523 127.181C854.99 125.047 852.857 125.181 850.857 127.581C849.79 128.781 846.99 129.581 843.523 129.581C839.657 129.581 837.523 128.914 836.99 127.581C835.923 124.781 831.39 125.047 824.59 128.381C818.057 131.581 815.923 130.914 819.523 126.914C822.99 123.047 820.99 122.114 813.79 124.114C810.323 125.047 801.257 127.314 793.523 128.914C785.79 130.647 776.057 133.581 771.923 135.581C763.523 139.447 761.657 142.914 767.923 142.914C771.39 142.914 774.857 144.914 774.857 147.047C774.857 147.581 771.257 148.247 766.857 148.514C758.057 149.181 756.857 149.847 758.057 152.914C758.857 155.181 759.523 155.181 791.657 152.781C799.39 152.247 801.657 152.647 803.39 154.381C807.123 157.981 805.123 159.581 797.39 159.447C793.39 159.314 781.923 159.447 771.79 159.847C756.857 160.381 753.123 160.914 752.59 162.647C750.99 166.514 756.19 168.381 767.123 167.981C772.723 167.847 777.79 168.114 778.323 168.647C778.857 169.181 777.923 171.181 776.057 173.047C773.39 175.847 773.257 176.647 774.857 177.714C777.523 179.447 792.057 178.381 802.857 175.581C807.657 174.381 817.257 172.914 824.19 172.381C831.923 171.847 838.59 170.514 841.257 169.047C845.39 166.914 845.923 166.914 848.59 168.781C850.19 169.981 852.723 171.714 854.19 172.781C856.323 174.381 859.257 174.514 870.19 173.314C886.857 171.714 887.657 171.447 885.523 168.914C882.457 165.314 886.19 162.914 894.857 162.914C905.39 162.914 906.19 160.247 897.123 156.114C893.39 154.381 889.123 152.914 887.657 152.914C883.39 152.914 883.123 146.381 887.257 143.581C889.923 141.847 890.723 139.981 891.39 133.314C892.59 123.714 890.99 121.581 882.857 121.581C879.123 121.581 877.123 122.647 873.923 125.847Z" fill="#1B1B1B" stroke="#CCFF00" stroke-width="33"/>
<path d="M970.19 139.847C968.723 140.247 966.457 141.447 965.257 142.647C963.923 143.714 962.857 144.114 962.857 143.447C962.857 142.781 960.19 145.181 956.857 148.781C953.657 152.381 949.657 155.981 948.057 156.781C943.79 158.914 944.457 160.647 950.323 162.914C958.19 165.981 959.257 166.781 957.39 169.047C956.59 170.114 954.59 170.914 952.99 170.914C949.257 170.914 946.323 172.914 947.39 174.781C947.923 175.581 949.79 176.247 951.657 176.247C953.39 176.247 954.857 176.781 954.857 177.581C954.857 178.247 953.123 178.914 950.99 178.914C948.857 178.914 946.457 179.847 945.523 180.914C944.59 181.981 942.057 182.914 939.79 182.914C937.523 182.914 933.79 183.581 931.257 184.514C927.923 185.714 927.123 186.647 927.523 188.781C928.457 192.514 926.457 195.314 923.39 194.647C919.523 193.981 919.523 189.714 923.657 185.447C927.657 181.314 927.657 181.181 917.523 179.047C910.857 177.581 907.923 178.781 901.39 185.847C897.79 189.847 897.79 189.847 890.457 188.114C884.723 186.914 881.257 186.914 875.39 188.114C868.057 189.581 867.39 189.447 862.59 186.247C858.99 183.847 856.59 183.047 854.057 183.714C850.19 184.647 843.923 179.847 845.123 176.781C846.19 173.847 839.39 173.047 831.79 175.314C827.923 176.514 822.057 177.847 818.59 178.381C814.19 178.914 812.19 179.847 812.19 181.181C812.19 183.181 817.257 183.181 832.19 181.181C836.59 180.647 834.723 183.714 829.923 184.647C817.523 187.447 814.057 188.781 810.59 192.514L806.857 196.514L801.657 190.781L796.59 185.047L790.057 186.514C783.123 188.247 750.19 189.314 748.857 187.981C748.323 187.447 748.323 185.847 748.857 184.381C749.523 181.981 750.723 181.581 756.723 181.581C765.657 181.581 768.457 179.181 764.19 174.914C761.657 172.381 760.323 172.114 753.79 172.914C748.59 173.447 743.657 173.047 738.19 171.447C733.79 170.247 727.657 168.781 724.59 168.114C721.523 167.581 716.723 165.847 713.923 164.247C706.99 160.647 700.323 160.781 694.19 165.047C688.723 168.647 685.523 168.514 685.523 164.514C685.523 163.047 684.59 161.181 683.523 160.247C681.79 158.781 680.723 159.181 676.99 162.781C673.923 165.714 671.523 167.047 669.39 166.647C666.723 166.381 666.19 165.314 665.79 160.514C665.257 153.847 662.59 153.047 656.59 158.114C652.457 161.581 646.457 163.714 637.257 165.047C633.79 165.447 628.99 167.314 626.723 169.047C623.123 171.581 620.723 172.247 613.923 172.247C606.59 172.247 604.99 172.781 602.057 175.714C597.79 179.847 592.99 179.581 592.457 175.181C592.057 173.047 592.723 172.247 594.457 172.247C595.79 172.247 599.923 170.781 603.523 168.914C608.057 166.781 612.457 165.714 617.257 165.581C623.923 165.581 634.857 161.181 634.857 158.514C634.857 157.181 620.323 158.914 615.39 160.914C610.59 162.914 601.79 164.514 594.19 164.914C582.59 165.581 574.59 167.847 571.257 171.581C568.323 174.647 567.123 175.047 562.99 174.381C560.323 173.981 554.59 171.847 550.323 169.581C544.857 166.781 540.59 165.581 536.057 165.581C531.257 165.581 528.723 164.781 525.79 162.247C521.123 158.381 519.39 158.114 513.657 161.047C509.79 162.914 508.857 162.914 503.123 161.047C493.257 157.847 467.39 154.514 458.59 155.314C451.79 155.847 450.323 155.581 448.19 153.314C446.057 151.047 444.59 150.647 439.657 151.314C434.857 151.981 433.123 151.581 430.323 149.447C424.99 145.314 417.257 144.647 412.59 147.981C409.523 150.114 406.19 150.647 394.19 151.181C381.79 151.581 378.723 152.114 373.923 154.914C368.857 157.714 367.79 157.847 364.99 156.247C361.39 154.381 357.79 155.047 343.923 160.114C339.657 161.714 334.723 162.914 332.723 162.914C330.723 162.914 327.257 164.647 324.59 166.914C321.39 169.847 318.723 170.914 315.123 170.914C312.323 170.914 307.923 172.114 305.123 173.581C302.057 175.314 297.523 176.247 293.257 176.247C289.123 176.381 285.123 177.181 283.657 178.247C282.19 179.314 279.923 180.247 278.59 180.247C275.123 180.247 275.657 182.781 279.523 184.247C284.057 185.981 286.323 191.047 284.323 194.781C282.857 197.314 283.123 197.581 286.857 197.581C291.523 197.581 291.923 199.181 288.457 204.914C286.323 208.381 285.123 208.914 280.057 208.914C276.857 209.047 273.123 209.581 271.923 210.114C270.19 210.914 269.523 210.647 269.523 209.181C269.523 207.981 270.723 206.647 272.19 206.247C277.657 204.514 274.59 202.914 265.923 202.914C258.99 202.914 255.79 203.581 252.19 205.847C249.657 207.447 245.123 208.914 242.19 209.047C237.523 209.447 219.657 215.047 217.923 216.781C216.323 218.381 219.39 220.247 223.923 220.381C227.523 220.514 228.057 220.781 225.523 221.181C223.79 221.581 220.857 222.914 219.123 224.247C216.457 226.514 216.323 226.781 218.323 227.981C220.99 229.447 250.59 228.381 253.923 226.647C255.923 225.581 256.19 225.847 255.39 229.181C254.057 234.914 253.657 235.181 248.057 234.247C243.123 233.447 242.723 233.581 240.99 237.581C238.19 244.514 223.657 248.914 213.123 246.247C210.057 245.447 208.057 246.114 202.323 250.114C198.457 252.781 193.79 254.914 191.923 254.914C189.923 254.914 186.057 256.914 182.857 259.581C179.257 262.647 175.923 264.247 173.39 264.247C168.723 264.247 167.257 267.047 169.39 271.714C170.59 274.514 170.457 275.181 168.457 275.714C162.057 277.714 160.59 280.247 162.19 286.514C163.123 290.247 164.457 290.247 176.457 286.781C179.923 285.847 183.257 285.447 183.657 285.981C184.857 287.181 178.99 293.581 176.59 293.581C175.657 293.581 174.19 295.047 173.523 296.914C172.857 298.647 170.457 301.047 168.19 302.247C166.057 303.314 164.19 304.647 164.19 305.047C164.19 306.114 180.457 304.114 183.123 302.781C187.123 300.647 191.923 302.781 192.457 306.647L192.857 310.247L196.99 305.847C200.59 301.981 201.39 301.714 204.99 302.914C207.79 303.847 210.19 303.981 212.59 303.047C215.523 301.847 216.19 301.981 216.19 303.581C216.19 304.914 214.723 305.581 211.79 305.581C208.323 305.581 206.99 306.381 205.79 308.914C204.857 310.781 203.123 312.247 201.657 312.247C200.19 312.247 197.923 313.714 196.457 315.581C194.323 318.247 192.59 318.914 188.323 318.914C182.19 318.914 176.857 321.181 172.99 325.447C171.523 327.047 168.857 328.247 166.457 328.247C164.19 328.247 159.39 329.714 155.657 331.447C145.257 336.247 140.19 337.847 132.19 338.781C128.19 339.314 123.523 340.381 121.923 341.314C120.323 342.247 117.39 342.914 115.39 342.914C111.923 342.914 98.99 350.514 98.8567 352.514C98.8567 354.247 104.457 355.181 107.923 353.847C109.923 353.047 113.257 352.114 115.39 351.581C117.39 351.181 120.723 349.714 122.59 348.514C124.59 347.181 128.99 346.114 132.857 346.114C141.79 345.847 148.323 344.381 151.123 341.981C152.59 340.647 154.723 340.247 157.39 340.914C160.723 341.581 162.19 341.047 166.457 337.181C170.857 333.181 172.723 332.381 180.857 331.581C191.523 330.381 196.99 328.114 198.19 324.247C198.59 322.781 200.057 321.581 201.257 321.581C202.59 321.581 204.99 320.647 206.59 319.447C208.323 318.247 211.923 317.314 214.59 317.181C217.257 317.181 220.457 316.381 221.657 315.314C222.857 314.247 226.99 313.047 230.723 312.381C235.39 311.714 238.857 310.114 241.39 307.714C243.39 305.714 247.257 303.847 249.923 303.314C254.057 302.647 254.723 302.114 255.123 298.381C255.523 293.847 256.59 293.314 269.923 290.781C274.99 289.847 279.123 288.114 281.923 285.714C287.657 280.781 293.923 277.581 298.19 277.581C300.19 277.581 303.657 276.114 305.923 274.381C310.99 270.514 319.523 269.181 319.523 272.247C319.523 273.581 317.657 274.514 313.39 274.914C309.923 275.314 304.59 277.447 300.723 279.847C297.123 282.114 292.457 284.381 290.323 284.781C288.057 285.314 284.457 287.447 282.057 289.581C279.657 291.581 276.99 293.581 276.057 293.847C275.123 294.114 274.723 295.314 275.257 296.647C276.457 299.981 282.99 299.447 290.323 295.581C294.457 293.447 298.723 292.247 302.723 292.247C307.257 292.247 309.523 291.581 311.257 289.581C312.99 287.581 315.257 286.914 320.457 286.781C332.457 286.514 334.19 285.581 334.19 279.581C334.19 275.047 334.59 274.247 337.39 273.847C342.323 273.047 346.19 274.647 350.323 278.781C354.323 282.914 364.19 287.314 368.857 287.181C370.323 287.047 373.657 286.647 376.19 286.247C381.657 285.314 397.39 290.381 401.923 294.514C403.523 295.981 405.79 297.581 407.123 297.981C408.323 298.381 409.657 300.514 410.19 302.647C410.723 305.581 412.323 307.181 416.323 308.914C422.19 311.581 422.19 312.647 416.057 312.514C412.457 312.381 412.057 312.781 412.857 315.314C414.19 319.581 414.057 321.581 411.657 328.114C410.323 331.314 409.657 334.781 410.057 335.847C411.257 338.647 417.39 334.914 422.19 328.381C424.857 324.781 427.257 322.914 429.257 322.914C431.523 322.914 432.857 321.581 434.323 318.114C436.19 313.714 436.19 313.047 434.057 310.781C431.923 308.381 431.923 308.247 434.857 308.247C437.657 308.247 437.79 308.647 436.99 314.247C436.323 318.647 436.59 321.047 438.057 323.181C441.657 328.247 440.857 336.781 436.19 341.981C432.723 345.981 432.59 346.647 434.323 348.381C435.39 349.581 436.59 353.447 436.99 357.047C437.79 363.314 437.523 363.981 434.057 366.647C426.057 372.647 425.523 373.581 428.19 377.581C429.39 379.314 429.923 379.047 432.323 376.381C436.19 371.581 438.59 374.647 435.39 380.114L432.857 384.381L437.257 387.714C442.19 391.714 442.857 394.914 438.59 394.914C436.323 394.914 434.857 396.381 433.123 400.381C429.923 407.181 430.857 409.581 436.723 409.581C440.057 409.581 441.523 410.247 442.19 412.114C442.59 413.581 445.39 415.581 448.19 416.781C452.99 418.647 453.523 419.314 453.523 423.581C453.523 426.914 454.323 428.781 456.723 430.247C458.857 431.714 460.057 433.981 460.59 437.981C461.257 442.781 460.857 444.114 457.923 447.181C454.723 450.514 454.19 450.647 451.657 448.914C448.457 446.647 443.39 446.247 442.19 448.247C440.723 450.514 436.457 449.714 435.523 446.914C435.123 445.447 433.523 444.247 432.057 444.247C430.057 444.247 429.523 445.314 429.257 449.847C428.99 457.447 428.99 457.714 430.19 461.847C430.99 464.914 430.457 466.114 426.99 469.314C424.457 471.581 422.723 474.647 422.323 477.314C422.057 479.981 419.79 483.714 416.323 487.581C413.39 490.781 410.857 494.114 410.857 494.781C410.857 496.514 400.723 508.914 394.59 514.514C389.123 519.714 387.657 522.381 384.19 533.581C381.657 541.847 378.99 547.314 376.457 550.114C372.723 553.981 372.457 555.047 371.923 567.847C371.39 578.647 371.657 581.847 373.257 583.314C375.39 585.447 375.79 594.114 374.19 601.314C373.39 605.181 373.523 605.847 376.057 606.514C380.323 607.581 379.523 614.381 375.257 613.981C373.39 613.714 372.19 614.381 372.19 615.447C372.19 619.047 377.657 629.581 380.323 630.914C382.323 632.114 382.857 633.581 382.59 637.981L382.19 643.581L387.79 643.181C392.323 642.781 393.39 643.181 394.19 645.314C394.59 646.781 396.323 648.381 397.923 648.781C399.523 649.181 403.123 652.247 405.923 655.581C410.723 661.314 411.123 662.247 411.523 671.981C411.79 677.581 412.857 685.714 414.057 689.981C415.257 694.247 416.19 700.381 416.19 703.581C416.19 708.247 416.99 710.514 420.19 713.981C422.457 716.514 424.19 719.447 424.19 720.514C424.19 721.581 425.39 723.581 426.857 724.914C430.457 728.114 430.19 730.381 426.057 734.381C423.257 737.181 421.923 737.714 418.19 737.047C412.323 735.847 410.723 738.514 415.123 742.247C416.857 743.714 418.723 745.981 419.257 747.314C420.19 749.847 428.723 753.847 431.257 752.781C432.19 752.514 435.523 754.514 438.723 757.447C444.457 762.781 444.457 762.914 443.657 769.847C442.59 779.181 444.857 785.181 452.057 792.114C456.857 796.781 457.657 798.247 457.123 801.314C455.657 808.381 460.59 810.247 467.39 805.181C469.923 803.314 469.923 802.781 468.19 797.447C465.923 790.381 463.523 787.181 459.657 786.647C456.723 786.247 456.19 784.114 454.057 763.047C453.657 759.047 452.057 753.981 450.723 751.714C449.39 749.447 448.19 746.647 448.19 745.447C448.19 744.247 447.257 742.514 446.19 741.581C444.99 740.514 444.19 737.581 444.19 733.714C444.19 729.847 443.123 725.847 441.39 723.047C439.257 719.447 438.99 718.247 440.457 717.314C441.79 716.381 441.657 715.714 439.523 714.247C431.79 708.381 431.923 708.781 432.723 697.847C433.123 692.247 433.523 685.847 433.523 683.714L433.657 679.847L436.723 682.781C438.99 684.914 440.857 685.581 442.723 684.914C444.59 684.381 445.79 684.781 446.323 686.114C446.723 687.314 448.323 688.247 449.657 688.247C451.923 688.247 452.19 689.314 452.19 697.047C452.19 703.314 453.39 709.314 456.057 717.447C458.19 723.714 460.19 730.381 460.457 732.247C460.723 734.781 461.923 735.714 465.923 736.647C470.457 737.714 470.857 738.247 470.857 742.514C470.857 746.114 471.923 748.247 475.657 751.981C480.323 756.647 480.457 756.914 478.323 760.381C477.123 762.381 476.19 765.047 476.19 766.514C476.19 767.847 482.323 775.181 490.057 782.781C497.79 790.514 504.323 798.247 504.857 799.981C505.257 801.847 507.523 805.981 509.79 809.047C512.857 813.314 513.657 815.714 513.123 818.514C512.723 820.914 513.39 823.981 515.257 827.314L518.19 832.514L514.857 834.914C511.657 837.314 511.657 837.581 513.923 839.181C516.19 840.914 516.057 841.181 512.857 845.581C508.59 851.314 508.59 852.914 513.39 857.714C515.657 859.847 517.79 862.781 518.19 864.247C518.723 865.714 520.19 866.914 521.657 866.914C523.523 866.914 524.99 868.514 526.323 871.714C527.923 875.447 528.857 876.381 530.99 875.847C532.457 875.447 535.657 876.247 537.923 877.581C540.323 878.914 544.857 880.381 547.923 880.914C551.123 881.447 554.723 883.047 555.923 884.514C560.323 889.581 572.057 897.581 575.257 897.581C576.99 897.581 580.723 899.047 583.523 901.047C595.923 909.447 611.79 914.247 619.923 911.981C622.723 911.314 626.457 908.914 628.457 906.781C631.257 903.847 633.257 902.914 637.123 902.914C642.323 902.914 648.19 905.847 648.19 908.381C648.19 911.181 656.723 922.514 664.99 930.514C672.99 938.381 673.923 938.914 679.657 938.914C683.657 938.914 687.523 939.981 690.457 941.714C692.857 943.314 698.59 945.581 703.123 947.047C711.257 949.447 711.523 949.447 715.923 946.914C721.523 943.447 721.923 943.581 721.257 947.581C720.723 950.247 722.19 952.781 728.59 959.981C739.657 972.514 740.323 973.847 740.59 982.514C740.723 988.914 741.257 990.647 744.19 993.181C746.057 994.781 748.59 996.247 750.057 996.247C752.057 996.247 752.323 995.581 751.657 992.781C750.457 987.981 753.123 989.981 755.523 995.714C756.59 998.247 758.857 1000.78 760.723 1001.58C763.523 1002.65 764.057 1003.85 764.457 1009.18L764.857 1015.58L774.457 1015.18C785.123 1014.78 788.99 1016.11 790.857 1021.05C791.657 1023.05 793.123 1024.25 794.857 1024.25C796.59 1024.25 798.057 1025.58 798.857 1027.58C800.323 1031.58 804.057 1031.85 808.323 1028.38L811.523 1025.85L808.59 1022.65C804.857 1018.65 804.723 1017.58 808.057 1017.58C809.523 1017.58 810.99 1016.38 811.523 1015.05C812.723 1010.91 817.523 1005.58 819.923 1005.58C820.99 1005.58 824.857 1007.58 828.457 1009.98C834.457 1013.98 836.457 1017.71 833.523 1019.58C831.523 1020.78 831.923 1023.71 834.323 1026.11C836.19 1028.11 836.723 1028.11 840.19 1025.98C843.79 1023.98 846.857 1019.31 846.857 1015.98C846.857 1012.91 835.79 999.981 831.657 998.247C829.39 997.314 824.723 996.114 821.39 995.581C815.657 994.781 814.857 995.047 810.99 998.781C808.59 1001.05 805.39 1002.91 803.523 1002.91C801.79 1002.91 798.19 1003.98 795.657 1005.18C789.523 1007.98 784.19 1006.11 784.19 1000.91C784.19 998.914 782.99 996.781 780.99 995.447C779.123 994.381 777.523 992.381 777.257 991.181C776.99 989.981 775.657 988.914 774.323 988.914C772.323 988.914 771.39 986.914 769.257 979.181L766.723 969.314L770.057 959.847C772.457 952.647 773.123 948.647 772.59 943.847C771.923 938.647 772.323 936.647 774.457 933.714C775.923 931.714 777.657 927.714 778.057 924.781C779.123 918.781 776.99 915.981 770.59 914.381C768.057 913.847 766.857 912.647 766.857 910.914C766.857 907.047 759.79 904.647 750.19 905.181C742.59 905.714 735.923 905.714 724.59 905.447C721.79 905.447 717.39 905.847 714.723 906.247C707.257 907.581 706.857 904.781 713.39 898.781C717.79 894.647 718.857 892.781 718.857 888.914C718.857 886.247 719.79 882.247 720.99 879.981C722.19 877.714 722.857 874.914 722.457 873.581C722.19 872.381 722.457 870.247 723.123 868.914C724.19 867.047 724.723 866.914 725.657 868.381C726.19 869.314 727.123 869.847 727.523 869.314C728.857 867.981 730.723 858.914 730.857 853.981C730.857 851.047 731.657 849.181 733.657 848.247C735.123 847.314 737.257 844.647 738.323 842.247C739.39 839.714 741.39 837.047 742.99 836.247C745.123 835.047 745.523 833.981 744.857 831.181C743.523 825.847 741.523 824.114 738.323 825.047C736.723 825.581 733.923 825.981 731.923 825.847C729.923 825.714 725.257 826.781 721.523 828.247C717.79 829.714 712.99 830.914 710.857 830.914C702.057 830.914 697.523 836.381 697.523 847.047C697.523 849.447 696.723 850.781 694.857 851.314C693.39 851.714 691.79 853.047 691.39 854.514C689.523 860.114 687.79 862.647 686.057 861.981C682.99 860.781 680.057 864.114 680.99 867.714C681.657 870.247 681.257 870.914 679.123 870.914C677.657 870.914 675.657 869.581 674.59 867.981C672.59 865.047 672.59 865.047 666.323 867.447C662.857 868.781 656.323 870.647 651.79 871.581C643.657 873.314 643.523 873.314 639.923 869.981C637.923 867.981 634.057 866.114 631.257 865.714C626.323 864.914 626.19 864.647 625.123 858.247C624.457 854.514 623.657 850.247 623.39 848.647C623.123 847.047 621.39 844.247 619.79 842.647C617.657 840.647 615.657 835.447 613.657 827.581L610.723 815.581L613.39 806.914C614.723 802.114 616.323 795.581 616.857 792.247C618.057 785.181 620.19 780.514 626.323 772.114C630.057 766.914 630.857 764.647 630.857 759.047C630.857 755.181 629.923 750.381 628.857 748.114C626.857 744.247 626.857 744.114 631.657 739.847C634.323 737.581 637.923 734.781 639.79 733.847C641.523 732.914 643.523 730.647 644.19 728.781C645.257 726.114 646.323 725.581 650.59 725.581C654.59 725.581 656.59 724.647 659.657 721.447C661.79 719.181 664.99 716.781 666.723 716.114C668.457 715.447 669.523 714.381 668.99 713.981C668.19 713.047 681.79 708.247 685.257 708.247C686.19 708.247 688.723 709.581 690.857 711.181C694.723 713.981 694.857 713.981 699.39 711.581C703.257 709.447 704.323 709.314 706.057 710.781C707.257 711.847 708.19 714.114 708.19 715.847C708.19 718.914 708.59 719.181 713.257 718.381C725.657 716.381 728.19 716.514 729.657 719.047C730.323 720.514 732.457 721.581 734.323 721.581C737.523 721.581 737.79 721.181 736.99 717.314C736.457 714.914 735.923 711.847 735.79 710.514C735.523 709.314 734.19 707.314 732.723 706.381C728.723 703.447 732.057 701.314 742.457 699.981C749.923 699.181 751.79 699.314 752.99 700.914C754.323 702.647 755.523 702.647 760.99 701.447C768.59 699.714 779.79 701.314 779.123 704.114C778.457 707.447 781.79 709.581 787.523 709.581C790.99 709.581 793.79 708.781 794.857 707.447C797.657 704.247 803.123 705.714 805.523 710.247C806.59 712.381 808.59 715.047 809.923 716.247C811.79 717.847 812.457 720.647 812.723 729.981C812.857 736.381 812.59 741.981 811.923 742.381C810.057 743.581 810.723 747.447 813.523 750.914C814.99 752.781 816.19 755.181 816.19 756.381C816.19 757.581 817.657 760.781 819.523 763.447C821.39 766.114 822.857 769.847 822.857 771.581C822.857 775.181 824.19 775.847 830.323 775.181C833.39 774.781 834.857 773.981 834.857 772.381C834.857 771.181 835.79 767.581 836.99 764.247C840.59 753.981 840.723 734.914 837.39 719.581C833.257 700.381 833.657 694.647 839.79 685.581C845.657 677.047 854.323 668.247 856.857 668.247C857.79 668.247 860.457 666.781 862.59 664.914C864.857 663.047 867.79 661.581 869.39 661.581C871.257 661.581 872.19 660.781 872.19 659.047C872.19 655.181 879.39 648.247 883.257 648.247C885.39 648.247 889.123 646.114 892.723 643.047C896.057 640.114 899.923 637.447 901.39 636.914C902.857 636.514 905.123 633.714 906.323 630.781C908.323 626.247 909.257 625.581 912.99 625.581C917.523 625.581 920.857 622.781 919.79 619.714C919.39 618.781 919.657 615.447 920.457 612.381C921.39 608.647 921.39 606.381 920.457 605.181C919.523 604.114 919.523 601.447 920.19 597.581C920.857 594.247 921.39 589.314 921.523 586.514C921.523 579.714 926.057 570.914 929.523 570.914C932.857 570.914 932.857 571.714 928.857 578.114C926.59 581.847 925.923 584.514 926.457 587.181C926.857 589.447 926.323 592.114 924.99 594.247C922.857 597.581 922.057 604.781 923.923 603.981C924.457 603.714 928.723 599.447 933.39 594.514C942.19 584.914 942.723 582.914 939.523 574.514C938.59 572.381 938.99 572.114 943.123 572.914C947.123 573.714 948.59 573.181 952.59 569.714C955.123 567.314 958.457 562.781 959.79 559.581L962.19 553.581H969.123C974.99 553.581 976.59 553.047 979.523 549.981C981.39 547.981 982.857 545.981 982.857 545.447C982.857 545.047 985.257 543.314 988.323 541.714C993.257 538.914 994.323 538.781 1002.06 540.114C1013.12 542.114 1012.86 542.114 1014.59 538.114C1015.79 535.714 1015.79 533.981 1014.72 532.114C1013.39 529.581 1013.12 529.581 1010.99 531.447C1009.26 533.047 1008.32 533.181 1007.12 531.981C1004.86 529.714 1005.12 525.981 1007.52 525.047C1008.59 524.647 1009.52 523.181 1009.52 521.714C1009.52 520.247 1012.32 516.381 1015.92 513.047C1020.72 508.381 1023.26 506.914 1026.46 506.914C1032.32 506.914 1037.52 504.781 1037.52 502.247C1037.52 500.781 1038.99 500.247 1042.59 500.247C1045.39 500.247 1048.86 499.314 1050.32 498.247C1051.66 497.181 1054.99 495.714 1057.66 494.914C1060.46 494.114 1062.86 492.514 1063.26 491.047C1063.66 489.447 1065.12 488.647 1067.79 488.514C1069.92 488.514 1074.86 487.181 1078.86 485.714C1087.52 482.381 1086.86 482.514 1086.86 484.781C1086.86 486.781 1079.26 491.714 1074.19 493.047C1072.32 493.447 1070.86 494.514 1070.86 495.181C1070.86 495.981 1069.39 497.981 1067.52 499.714C1064.59 502.381 1064.46 503.181 1065.66 506.781C1068.32 514.247 1076.06 513.181 1086.46 504.114C1088.86 502.114 1092.99 499.981 1095.79 499.447C1098.46 498.914 1102.59 497.447 1104.72 496.247C1106.99 494.914 1111.52 493.447 1114.59 493.047C1121.79 491.981 1130.86 487.447 1130.86 485.047C1130.86 481.714 1127.52 480.381 1116.86 479.447C1106.72 478.514 1098.86 475.181 1095.92 470.514C1094.06 467.581 1094.72 457.581 1096.86 456.781C1099.12 455.847 1099.52 451.447 1097.39 450.247C1096.72 449.714 1094.32 450.114 1092.06 450.914C1088.99 452.247 1087.79 452.247 1086.19 450.914C1082.86 448.114 1086.06 446.381 1094.06 446.781C1100.46 447.047 1101.92 446.514 1105.79 443.047C1109.66 439.581 1110.06 438.781 1108.86 435.447C1106.72 429.581 1102.99 428.381 1092.99 430.514C1076.72 433.847 1069.52 436.114 1065.26 439.314C1058.46 444.381 1046.99 448.914 1045.26 447.181C1044.19 446.114 1045.79 444.781 1050.99 442.247C1054.99 440.381 1060.19 437.447 1062.72 435.581C1065.39 433.581 1068.99 432.247 1071.79 432.247C1075.39 432.247 1077.66 430.914 1083.92 424.781L1091.52 417.314L1129.12 417.981C1165.12 418.514 1166.86 418.514 1169.12 415.981C1170.32 414.514 1175.12 410.781 1179.66 407.581C1185.79 403.181 1189.79 401.314 1195.66 400.381C1204.46 398.914 1218.06 392.114 1220.72 387.847C1223.92 382.781 1224.46 375.447 1222.19 370.914C1220.46 367.714 1219.26 366.914 1215.66 366.914C1211.79 366.914 1211.12 366.381 1210.46 363.314C1210.06 361.314 1210.46 358.647 1211.39 357.314C1212.59 355.181 1212.32 354.381 1210.32 352.781C1208.86 351.714 1206.06 350.914 1204.06 350.914C1201.52 350.914 1200.06 350.114 1199.52 348.247C1198.86 346.247 1197.52 345.581 1193.52 345.581C1188.86 345.581 1188.32 345.181 1187.92 341.981C1187.66 339.314 1186.32 337.714 1183.52 336.514C1176.32 333.314 1175.52 332.647 1175.12 329.181C1174.72 326.247 1175.26 325.714 1178.46 325.314C1182.06 324.914 1182.19 324.647 1181.66 318.247C1181.39 314.647 1180.46 310.381 1179.39 308.914C1178.32 307.581 1177.52 305.047 1177.52 303.581C1177.52 302.114 1176.32 298.514 1174.86 295.581C1173.39 292.647 1172.19 288.247 1172.19 285.581C1172.19 280.914 1170.32 277.581 1167.66 277.581C1165.92 277.581 1154.86 289.581 1154.86 291.581C1154.86 293.581 1145.52 300.247 1142.46 300.247C1141.26 300.247 1137.92 301.447 1134.99 303.047C1129.26 305.981 1126.99 305.447 1122.46 300.514C1120.99 298.914 1118.99 298.114 1117.39 298.514C1115.12 299.181 1114.86 298.514 1114.86 293.181C1114.86 287.047 1118.72 279.181 1123.66 275.581C1124.86 274.781 1125.66 272.914 1125.26 271.447C1124.86 269.314 1123.52 268.914 1116.46 268.514C1109.92 268.247 1108.06 267.714 1108.72 266.247C1109.12 265.181 1107.66 263.314 1105.12 261.714C1102.72 260.247 1099.26 257.714 1097.26 256.114C1093.79 253.314 1093.12 253.181 1086.19 254.781C1081.12 255.981 1074.19 256.114 1064.32 255.581C1050.59 254.647 1049.66 254.781 1048.32 257.314C1047.52 258.781 1046.86 262.114 1046.86 264.514C1046.86 267.047 1045.39 271.047 1043.52 273.847C1041.66 276.514 1040.19 280.514 1040.19 282.647C1040.19 286.514 1034.72 291.447 1023.26 298.247C1018.06 301.314 1017.66 305.981 1022.46 306.647C1029.39 307.714 1031.92 319.447 1026.72 326.114C1024.99 328.381 1024.19 330.914 1024.59 332.914C1024.99 335.581 1024.59 336.247 1022.32 336.247C1019.26 336.247 1014.99 338.781 1009.52 343.714C1006.19 346.781 999.523 349.581 988.19 352.781C976.99 355.981 976.19 356.781 976.19 365.047C976.19 369.047 975.257 374.514 974.057 377.314C972.99 379.981 971.79 383.847 971.523 385.847C971.123 389.181 965.39 398.247 962.323 400.514C961.657 400.914 960.323 401.047 959.39 400.647C958.323 400.247 956.59 400.914 955.523 402.114C952.857 404.647 948.99 404.914 947.257 402.514C945.923 400.781 942.857 393.181 940.59 385.981C939.39 382.381 939.923 379.981 944.457 368.647C947.39 361.447 950.323 354.781 951.123 353.981C954.457 349.981 951.39 348.647 937.39 348.514C929.923 348.381 923.39 347.847 922.99 347.447C922.59 347.047 922.19 345.047 922.19 343.181C922.19 339.581 922.057 339.581 913.923 339.981C905.79 340.514 905.523 340.381 904.057 336.647C901.257 329.447 900.59 328.914 893.657 327.847C889.123 327.047 886.457 325.847 885.523 324.114C883.79 321.047 874.19 320.514 870.057 323.447C866.99 325.581 862.323 326.647 861.79 325.181C861.657 324.647 862.457 322.781 863.657 320.914C864.99 318.781 865.523 316.381 864.99 314.247C864.457 312.381 864.723 309.714 865.523 308.114C867.923 303.581 865.923 300.381 860.057 299.447C853.39 298.381 853.123 294.647 859.657 291.181C861.257 290.381 862.857 287.847 863.257 285.714C864.057 281.847 869.123 277.447 878.723 272.381C880.59 271.447 883.657 269.181 885.523 267.581C887.39 265.981 889.923 264.247 891.257 263.847C892.457 263.314 893.523 262.247 893.523 261.314C893.523 260.381 898.057 257.847 903.523 255.714C912.857 252.114 913.523 251.714 913.523 247.981C913.523 244.381 913.923 243.981 916.857 244.781C918.723 245.181 921.657 245.981 923.523 246.381C929.79 247.981 933.39 241.847 927.923 239.181C925.257 237.981 925.657 237.714 931.523 237.581C935.257 237.581 939.657 237.447 941.523 237.447C943.257 237.314 945.523 236.381 946.323 235.181C947.39 233.581 950.057 232.914 954.457 232.781C957.923 232.647 962.723 232.114 964.857 231.581C970.457 230.114 985.123 219.447 985.923 216.247C986.323 214.647 987.79 213.581 989.257 213.581C990.857 213.581 992.323 213.047 992.723 212.381C993.123 211.714 995.657 210.781 998.323 210.381C1002.46 209.581 1002.99 209.047 1002.59 205.847C1002.19 202.514 1002.59 202.247 1007.66 201.847C1011.39 201.581 1013.92 202.114 1015.26 203.447C1016.46 204.647 1019.12 205.581 1021.39 205.581C1024.59 205.581 1025.52 205.047 1025.52 203.047C1025.52 199.181 1027.66 198.514 1032.06 201.047C1035.52 203.047 1036.59 203.181 1042.19 201.581C1047.26 200.114 1055.79 195.047 1061.52 189.981C1061.92 189.581 1061.12 188.647 1059.79 187.714C1054.59 183.847 1058.86 173.981 1064.19 177.314C1067.26 179.181 1070.32 178.247 1071.26 175.181C1071.66 173.981 1072.32 171.847 1072.86 170.514C1073.66 168.781 1073.12 168.247 1070.59 168.247C1068.72 168.247 1066.19 167.047 1064.99 165.714C1062.32 162.781 1052.46 161.447 1045.92 163.181C1042.46 164.114 1041.26 165.314 1040.06 169.714C1038.46 174.781 1035.26 177.047 1031.12 175.981C1030.19 175.714 1028.72 177.047 1027.79 178.781C1026.86 180.781 1023.52 183.047 1018.86 184.781C1014.86 186.381 1010.06 188.647 1008.19 189.847C1003.79 193.047 999.257 192.914 997.523 189.447C994.99 184.781 996.457 181.314 1001.52 179.581C1005.39 178.247 1006.19 177.314 1006.19 174.114C1006.19 170.647 1005.66 170.247 1001.26 169.847C997.79 169.581 995.923 170.114 994.59 171.847C992.323 175.047 985.523 179.314 984.457 178.381C983.123 176.914 988.057 168.247 990.323 168.247C991.523 168.247 992.19 167.314 991.923 165.847C991.39 163.447 986.857 162.914 982.59 164.914C980.723 165.581 980.19 165.181 980.19 163.047C980.19 160.914 981.257 159.981 983.923 159.447C987.657 158.647 987.79 158.381 987.79 150.781C987.923 143.314 987.657 142.647 984.057 140.914C980.323 138.914 975.39 138.647 970.19 139.847Z" fill="#1B1B1B" stroke="#CCFF00" stroke-width="33"/>
<path d="M1325.79 157.181C1322.06 157.848 1320.99 160.381 1322.06 164.914C1322.99 168.381 1322.99 168.381 1334.19 167.714C1346.86 167.048 1348.72 166.381 1346.99 163.314C1344.99 159.581 1332.19 155.848 1325.79 157.181Z" fill="#1B1B1B" stroke="#CCFF00" stroke-width="33"/>
<path d="M919.79 165.581C916.99 167.981 913.657 169.581 911.39 169.581C906.857 169.581 903.124 171.581 904.59 173.181C905.257 173.714 907.924 174.247 910.59 174.381C913.257 174.514 919.524 175.047 924.324 175.581C935.124 176.781 939.257 175.181 938.59 169.847C938.324 167.314 937.257 166.114 935.257 165.847C933.657 165.581 931.657 164.514 930.857 163.447C928.324 160.514 924.724 161.181 919.79 165.581Z" fill="#1B1B1B" stroke="#CCFF00" stroke-width="33"/>
<path d="M1100.86 166.914C1100.46 167.581 1097.66 168.781 1094.86 169.581C1088.32 171.314 1087.52 174.914 1093.52 174.914C1097.52 174.914 1104.19 169.981 1104.19 166.914C1104.19 165.181 1101.92 165.181 1100.86 166.914Z" fill="#1B1B1B" stroke="#CCFF00" stroke-width="33"/>
<path d="M1108.72 181.981C1103.39 185.047 1097.39 190.914 1098.19 192.247C1098.59 192.914 1102.59 193.581 1106.99 193.581C1114.06 193.581 1115.39 193.181 1119.79 189.181C1126.06 183.314 1125.26 180.247 1117.26 180.247C1114.06 180.381 1110.32 181.047 1108.72 181.981Z" fill="#1B1B1B" stroke="#CCFF00" stroke-width="33"/>
<path d="M1126.32 184.114C1125.79 184.914 1126.72 186.781 1128.19 188.248C1130.46 190.514 1131.39 190.648 1133.66 189.581C1137.66 187.314 1136.32 183.714 1131.26 183.181C1128.99 182.914 1126.72 183.314 1126.32 184.114Z" fill="#1B1B1B" stroke="#CCFF00" stroke-width="33"/>
<path d="M1001.66 215.714C997.79 218.114 993.657 221.314 992.59 222.781C991.523 224.381 989.923 225.581 988.99 225.581C988.057 225.581 986.59 227.047 985.79 228.914C984.59 231.581 983.257 232.247 979.657 232.247C974.99 232.247 970.857 235.047 970.857 238.114C970.857 239.181 972.99 239.714 977.257 239.714C982.723 239.581 983.523 239.981 983.923 242.514C984.457 246.381 985.257 246.381 994.59 241.581C998.99 239.314 1003.12 237.581 1003.92 237.581C1004.72 237.581 1006.59 236.381 1007.92 234.914C1010.32 232.247 1010.46 232.247 1013.52 235.581C1017.26 239.581 1025.26 241.981 1030.32 240.781C1032.59 240.247 1034.19 240.514 1034.99 241.714C1036.46 244.247 1038.59 241.981 1039.66 236.647C1040.46 232.514 1040.32 232.381 1035.39 231.981C1031.39 231.714 1030.06 230.914 1029.79 228.914C1028.99 224.914 1025.52 221.447 1019.26 218.781C1015.12 217.047 1013.52 215.581 1013.52 213.581C1013.52 209.847 1010.19 210.381 1001.66 215.714Z" fill="#1B1B1B" stroke="#CCFF00" stroke-width="33"/>
<path d="M1066.86 237.048C1066.86 239.181 1069.92 242.914 1071.52 242.914C1074.46 242.914 1073.92 239.181 1070.99 237.581C1068.06 236.114 1066.86 235.848 1066.86 237.048Z" fill="#1B1B1B" stroke="#CCFF00" stroke-width="33"/>
<path d="M1055.12 241.847C1055.39 243.581 1056.59 245.047 1057.92 245.314C1060.86 245.847 1062.59 241.714 1060.06 240.114C1056.72 237.981 1054.59 238.781 1055.12 241.847Z" fill="#1B1B1B" stroke="#CCFF00" stroke-width="33"/>
<path d="M996.59 250.381C990.856 253.848 989.256 256.781 992.59 257.848C998.59 259.981 1014.86 253.848 1014.86 249.581C1014.86 245.448 1003.92 245.981 996.59 250.381Z" fill="#1B1B1B" stroke="#CCFF00" stroke-width="33"/>
<path d="M1026.46 256.914C1023.92 258.781 1023.79 264.381 1026.19 265.181C1028.06 265.714 1034.86 259.181 1034.86 256.914C1034.86 254.381 1029.66 254.381 1026.46 256.914Z" fill="#1B1B1B" stroke="#CCFF00" stroke-width="33"/>
<path d="M1171.79 262.514C1171.26 262.914 1170.86 264.514 1170.86 265.848C1170.86 269.581 1175.39 268.381 1175.92 264.514C1176.32 261.714 1173.79 260.381 1171.79 262.514Z" fill="#1B1B1B" stroke="#CCFF00" stroke-width="33"/>
<path d="M139.123 281.181C133.79 281.848 132.59 284.381 135.79 288.114C138.857 291.714 139.923 291.581 145.523 286.914C149.39 283.581 149.79 282.781 148.19 281.581C147.123 280.914 145.657 280.381 144.857 280.514C144.19 280.648 141.523 280.914 139.123 281.181Z" fill="#1B1B1B" stroke="#CCFF00" stroke-width="33"/>
<path d="M252.857 306.114C251.39 307.047 249.657 307.981 248.857 308.114C248.19 308.114 247.523 309.047 247.523 309.847C247.523 311.047 249.39 311.447 253.39 311.314C260.457 310.914 262.457 309.447 259.523 306.381C256.857 303.714 256.19 303.714 252.857 306.114Z" fill="#1B1B1B" stroke="#CCFF00" stroke-width="33"/>
<path d="M234.857 316.247C232.59 318.514 232.457 319.447 233.523 321.714C234.99 324.247 235.257 324.381 238.457 322.114C240.457 320.914 243.523 319.447 245.39 318.914C250.99 317.447 249.657 314.247 243.257 313.847C238.99 313.581 236.99 314.114 234.857 316.247Z" fill="#1B1B1B" stroke="#CCFF00" stroke-width="33"/>
<path d="M427.39 327.447C423.257 329.314 420.857 332.781 422.323 335.047C422.723 335.714 424.057 335.714 425.523 334.914C426.857 334.247 430.19 333.581 432.857 333.581C438.057 333.581 440.19 330.914 437.523 327.581C435.523 325.181 432.857 325.181 427.39 327.447Z" fill="#1B1B1B" stroke="#CCFF00" stroke-width="33"/>
<path d="M989.523 333.848C986.456 338.914 987.256 340.781 991.923 339.581C998.723 337.848 1001.66 329.581 995.523 329.581C993.123 329.581 991.39 330.914 989.523 333.848Z" fill="#1B1B1B" stroke="#CCFF00" stroke-width="33"/>
<path d="M423.257 338.514C422.323 338.781 421.523 340.114 421.523 341.314C421.523 342.381 420.59 344.514 419.257 345.847C417.257 348.114 417.257 348.381 419.257 350.647C420.59 351.981 421.523 354.514 421.523 356.114C421.523 360.381 424.457 359.048 427.123 353.447C431.923 343.581 432.457 341.714 431.79 339.714C430.99 337.714 426.723 337.047 423.257 338.514Z" fill="#1B1B1B" stroke="#CCFF00" stroke-width="33"/>
<path d="M80.8565 353.581C77.9232 355.048 74.8565 356.248 73.9232 356.248C71.6565 356.248 71.6565 361.448 74.0565 362.381C74.9899 362.781 77.7899 361.848 80.3232 360.381C82.8565 358.914 87.1232 357.314 89.9232 356.914C93.6565 356.114 94.8565 355.448 94.3232 353.981C93.9232 352.914 93.5232 351.714 93.5232 351.448C93.5232 349.848 85.3899 351.181 80.8565 353.581Z" fill="#1B1B1B" stroke="#CCFF00" stroke-width="33"/>
<path d="M414.857 354.914C414.857 355.581 415.523 356.247 416.19 356.247C416.99 356.247 417.523 355.581 417.523 354.914C417.523 354.114 416.99 353.581 416.19 353.581C415.523 353.581 414.857 354.114 414.857 354.914Z" fill="#1B1B1B" stroke="#CCFF00" stroke-width="33"/>
<path d="M36.9898 369.848C34.9898 372.381 34.0565 374.648 34.8565 375.448C36.4565 377.048 41.7899 375.448 45.6565 372.381C48.3232 370.248 48.4565 369.581 46.9899 367.714C44.1899 364.381 40.7232 365.181 36.9898 369.848Z" fill="#1B1B1B" stroke="#CCFF00" stroke-width="33"/>
<path d="M401.523 367.981C398.323 370.648 398.19 370.648 400.723 373.448C404.19 377.314 408.99 377.048 411.657 372.914C412.99 370.781 415.123 369.581 417.257 369.581C423.123 369.581 418.723 366.914 411.39 366.114C406.057 365.448 404.19 365.848 401.523 367.981Z" fill="#1B1B1B" stroke="#CCFF00" stroke-width="33"/>
<path d="M18.8566 374.247C17.1233 376.114 16.1899 377.981 16.5899 378.514C18.0566 379.847 24.1899 376.514 24.1899 374.381C24.1899 370.914 22.0566 370.914 18.8566 374.247Z" fill="#1B1B1B" stroke="#CCFF00" stroke-width="33"/>
<path d="M945.257 376.381C943.923 377.048 942.857 378.914 942.857 380.248C942.857 382.381 943.79 382.914 947.257 382.914C952.457 382.914 957.523 379.714 955.523 377.714C953.39 375.581 947.657 374.781 945.257 376.381Z" fill="#1B1B1B" stroke="#CCFF00" stroke-width="33"/>
<path d="M401.923 378.514C398.323 379.181 398.19 380.381 401.39 388.114C402.857 391.581 404.19 393.447 404.723 392.514C405.257 391.581 405.39 390.914 404.99 390.914C404.59 390.914 405.123 388.247 406.057 385.047C407.79 379.581 407.657 377.314 405.657 377.714C405.257 377.847 403.523 378.247 401.923 378.514Z" fill="#1B1B1B" stroke="#CCFF00" stroke-width="33"/>
<path d="M1208.32 400.647C1202.72 402.381 1189.39 414.647 1182.19 424.647C1178.86 429.314 1174.99 432.914 1171.92 434.381C1168.59 435.847 1166.86 437.581 1166.86 439.181C1166.86 443.314 1164.32 446.914 1161.52 446.914C1157.92 446.914 1155.79 451.181 1158.06 454.247C1159.39 456.114 1160.72 456.381 1163.66 455.581C1165.79 455.047 1169.79 454.647 1172.59 454.781C1185.79 455.181 1190.59 455.181 1194.46 454.247C1196.86 453.714 1199.79 453.714 1200.99 454.114C1202.99 454.914 1202.99 455.181 1200.86 457.581C1199.52 459.047 1197.39 460.247 1195.92 460.247C1192.59 460.247 1192.86 462.514 1196.72 464.914C1200.72 467.581 1204.32 466.114 1207.66 460.247C1210.06 456.381 1216.86 452.381 1218.46 454.114C1218.99 454.514 1217.92 456.781 1216.32 459.047C1213.66 462.647 1213.52 463.447 1215.12 465.047C1219.79 469.714 1228.19 469.581 1228.19 464.781C1228.19 463.981 1229.12 462.514 1230.32 461.447C1233.52 458.781 1236.59 452.114 1235.26 450.781C1234.46 449.981 1232.19 450.114 1229.66 451.047C1224.06 453.047 1223.26 451.981 1226.99 447.047C1229.79 443.314 1229.79 442.781 1227.79 440.647C1226.06 438.514 1225.92 437.981 1227.66 435.714C1230.19 432.114 1230.06 429.181 1226.86 425.447C1224.72 422.914 1224.06 422.647 1222.99 424.114C1222.32 425.047 1221.12 425.447 1220.32 425.047C1219.52 424.514 1217.92 425.047 1216.72 426.247C1213.52 429.314 1210.32 428.114 1209.52 423.581C1208.86 420.114 1208.19 419.581 1205.12 419.981C1203.12 420.114 1201.52 419.714 1201.52 418.914C1201.52 417.314 1209.52 409.447 1214.59 405.981C1218.19 403.581 1218.59 398.914 1215.26 399.047C1213.92 399.181 1210.86 399.847 1208.32 400.647Z" fill="#1B1B1B" stroke="#CCFF00" stroke-width="33"/>
<path d="M415.39 412.647C415.923 414.914 418.057 418.514 420.19 420.514C422.457 422.514 424.19 425.047 424.19 426.247C424.19 427.314 425.657 428.914 427.257 429.447C428.99 430.114 431.123 432.381 432.057 434.647C433.257 437.447 435.657 439.314 440.99 441.447C449.923 445.181 452.19 444.514 452.19 438.114C452.19 434.514 451.523 433.181 449.523 432.647C447.79 432.247 446.857 430.781 446.857 428.781C446.857 422.381 444.323 418.781 437.923 415.981C434.323 414.514 430.457 412.247 429.123 411.181C427.79 409.981 424.057 408.914 420.59 408.647L414.59 408.381L415.39 412.647Z" fill="#1B1B1B" stroke="#CCFF00" stroke-width="33"/>
<path d="M1113.52 423.047C1113.52 424.514 1114.59 426.114 1115.92 426.514C1117.12 427.047 1119.52 428.781 1121.12 430.514C1123.79 433.314 1125.26 433.714 1131.79 433.314C1137.92 433.047 1139.66 432.381 1139.92 430.647C1140.19 429.047 1139.12 427.714 1136.59 426.781C1134.59 425.981 1131.12 424.381 1128.86 423.447C1126.72 422.514 1122.32 421.447 1119.26 421.047C1114.32 420.647 1113.52 420.781 1113.52 423.047Z" fill="#1B1B1B" stroke="#CCFF00" stroke-width="33"/>
<path d="M1131.12 453.848C1129.26 455.714 1128.99 458.914 1130.86 458.914C1132.06 458.914 1134.86 454.781 1134.86 453.048C1134.86 451.714 1132.86 452.114 1131.12 453.848Z" fill="#1B1B1B" stroke="#CCFF00" stroke-width="33"/>
<path d="M1100.19 463.581C1097.66 466.648 1099.66 472.114 1103.92 473.048C1105.92 473.581 1108.72 474.781 1110.19 475.714C1113.79 478.248 1116.72 477.981 1119.52 474.914C1120.86 473.448 1122.86 472.248 1123.79 472.248C1124.86 472.248 1125.52 471.448 1125.12 470.514C1124.86 469.581 1122.06 468.914 1118.06 468.914C1109.92 468.781 1103.92 466.381 1104.99 463.581C1106.06 460.914 1102.46 460.914 1100.19 463.581Z" fill="#1B1B1B" stroke="#CCFF00" stroke-width="33"/>
<path d="M1137.52 465.181C1134.99 466.914 1132.46 469.581 1131.92 471.047C1131.39 472.381 1130.32 473.581 1129.52 473.581C1127.12 473.581 1128.06 477.314 1131.12 479.447C1134.19 481.581 1139.66 482.247 1143.39 480.781C1145.66 479.847 1146.32 473.581 1144.19 473.581C1143.52 473.581 1142.86 472.647 1142.86 471.581C1142.86 470.514 1143.39 469.581 1144.06 469.581C1145.52 469.581 1146.59 465.581 1145.92 463.181C1144.99 460.914 1142.86 461.314 1137.52 465.181Z" fill="#1B1B1B" stroke="#CCFF00" stroke-width="33"/>
<path d="M868.724 757.581C868.59 763.181 869.124 765.581 870.19 765.581C872.59 765.581 874.724 762.514 875.657 757.581C876.457 754.114 876.057 752.781 874.19 751.314C869.79 748.247 868.857 749.314 868.724 757.581Z" fill="#1B1B1B" stroke="#CCFF00" stroke-width="33"/>
<path d="M878.057 771.581C875.79 773.314 875.79 773.447 877.923 773.581C879.257 773.581 880.19 774.647 880.19 776.381C880.19 778.247 880.857 778.914 882.457 778.647C884.99 778.114 885.923 773.714 883.923 771.314C882.19 769.047 881.257 769.181 878.057 771.581Z" fill="#1B1B1B" stroke="#CCFF00" stroke-width="33"/>
<path d="M870.323 774.514C868.857 775.981 869.523 777.581 871.523 777.581C872.59 777.581 873.523 777.047 873.523 776.381C873.523 774.647 871.39 773.447 870.323 774.514Z" fill="#1B1B1B" stroke="#CCFF00" stroke-width="33"/>
<path d="M855.79 778.514C854.057 780.248 854.857 785.314 857.123 786.114C860.19 787.314 862.99 784.248 862.057 780.514C861.257 777.714 857.657 776.514 855.79 778.514Z" fill="#1B1B1B" stroke="#CCFF00" stroke-width="33"/>
<path d="M857.79 789.847C858.59 792.247 861.523 792.647 861.523 790.381C861.523 789.181 860.59 788.247 859.39 788.247C858.19 788.247 857.523 788.914 857.79 789.847Z" fill="#1B1B1B" stroke="#CCFF00" stroke-width="33"/>
<path d="M890.857 800.781C890.857 805.847 892.99 808.381 894.323 805.047C895.39 802.247 893.923 796.247 892.19 796.247C891.39 796.247 890.857 798.247 890.857 800.781Z" fill="#1B1B1B" stroke="#CCFF00" stroke-width="33"/>
<path d="M793.79 803.714C788.457 804.648 782.323 806.781 780.19 808.248C775.923 811.314 770.19 821.448 771.79 823.048C773.79 824.914 780.19 822.648 780.19 820.114C780.19 818.114 781.123 817.581 785.39 817.581C789.39 817.581 790.99 816.914 792.723 814.248C794.99 810.781 801.657 808.381 806.457 809.314C809.923 809.981 810.59 812.248 807.523 812.248C804.723 812.248 804.99 815.714 807.923 816.914C809.123 817.448 814.59 818.114 820.057 818.514C828.457 819.181 829.523 819.581 827.523 821.048C823.923 823.714 826.457 825.581 833.657 825.581C842.19 825.581 845.523 827.314 845.523 831.981C845.523 836.248 846.723 838.114 849.923 839.314C851.123 839.848 852.723 841.581 853.523 843.448C855.123 847.981 857.39 848.381 876.99 847.981C896.59 847.581 899.523 846.114 893.257 840.248C891.523 838.648 888.59 837.581 885.79 837.581C882.457 837.581 881.123 836.914 880.59 834.914C880.19 833.448 879.123 832.248 878.19 832.248C877.257 832.248 875.79 831.448 874.857 830.381C874.057 829.314 872.59 828.648 871.523 829.048C869.257 829.981 864.057 827.181 853.123 819.581C847.657 815.848 842.99 813.581 840.59 813.581C836.19 813.581 833.39 811.448 834.457 808.914C834.723 807.848 833.923 806.514 832.59 805.714C830.323 804.648 826.323 803.981 808.19 802.381C805.657 802.114 799.123 802.781 793.79 803.714Z" fill="#1B1B1B" stroke="#CCFF00" stroke-width="33"/>
<path d="M902.324 811.581C902.857 813.581 902.59 814.914 901.657 814.914C900.857 814.914 900.19 815.447 900.19 816.247C900.19 818.381 906.457 817.714 907.39 815.447C908.457 812.647 908.457 812.781 906.057 810.381C902.99 807.314 901.39 807.847 902.324 811.581Z" fill="#1B1B1B" stroke="#CCFF00" stroke-width="33"/>
<path d="M787.657 822.381C784.324 825.581 787.257 828.514 793.39 827.981C797.524 827.581 798.19 827.048 798.19 824.248C798.19 821.448 797.524 820.781 794.057 820.514C791.524 820.248 788.99 820.914 787.657 822.381Z" fill="#1B1B1B" stroke="#CCFF00" stroke-width="33"/>
<path d="M911.923 849.314C905.656 849.714 900.59 852.914 904.323 854.114C905.39 854.381 908.056 855.314 910.19 855.981C913.256 856.914 914.056 857.847 913.79 860.114C913.523 861.714 914.056 863.981 914.99 865.047C918.056 868.914 914.456 870.114 905.79 868.381C895.656 866.114 891.656 866.781 891.123 870.514C890.723 872.914 891.523 873.581 895.123 874.114C897.523 874.381 900.723 874.781 902.19 874.781C912.323 874.914 924.19 876.781 924.19 878.247C924.19 879.981 926.99 881.581 930.323 881.581C931.256 881.581 932.99 879.447 934.056 876.914C936.19 872.114 938.456 871.181 943.123 873.714C945.256 874.914 946.323 874.647 948.323 872.381L950.99 869.581L956.19 872.247C963.123 875.847 963.656 875.714 966.323 870.247C968.99 864.381 967.256 861.581 960.856 861.581C958.19 861.581 955.656 860.514 954.056 858.781C952.723 857.314 948.456 854.514 944.59 852.781C937.656 849.447 927.123 848.381 911.923 849.314Z" fill="#1B1B1B" stroke="#CCFF00" stroke-width="33"/>
<path d="M981.523 868.781C975.39 874.914 989.39 880.514 999.257 875.847C1005.66 872.914 1003.39 870.914 991.123 868.914C985.657 867.981 982.457 867.847 981.523 868.781Z" fill="#1B1B1B" stroke="#CCFF00" stroke-width="33"/>
<path d="M844.19 871.981C844.19 873.314 845.657 875.847 847.524 877.581C850.457 880.381 851.39 880.514 855.39 879.314C857.924 878.514 861.39 878.114 863.124 878.514C867.124 879.314 870.457 875.981 867.924 873.981C866.19 872.781 850.857 869.581 846.324 869.581C845.124 869.581 844.19 870.647 844.19 871.981Z" fill="#1B1B1B" stroke="#CCFF00" stroke-width="33"/>
</svg>
