<svg width="2504" height="2075" viewBox="0 0 2504 2075" fill="none" xmlns="http://www.w3.org/2000/svg">
<path d="M808.528 18.7739C795.212 38.4856 800.422 46.6142 822.809 41.7371C840.178 37.876 840.95 37.4696 840.178 31.3731C839.599 25.2767 838.248 24.4639 824.16 19.5867C812.58 15.7257 810.651 15.5224 808.528 18.7739Z" fill="#1B1B1B" stroke="#CCFF00" stroke-width="33"/>
<path d="M861.985 42.9565C856.196 47.224 849.248 50.8818 846.546 50.8818C836.318 50.8818 832.844 53.1172 830.528 61.2457C829.37 65.7164 827.248 70.1871 825.704 71.4064C822.423 74.4546 822.423 86.2411 825.897 89.2893C827.634 90.915 829.949 90.915 833.616 89.4925C837.09 88.07 840.757 88.2732 845.774 90.1021C852.529 92.3375 853.108 93.1503 854.073 101.685C855.038 110.424 855.617 111.033 865.652 116.52C875.688 122.007 877.425 122.21 897.495 121.6L918.724 120.991L919.303 127.494C920.075 135.012 917.18 136.232 910.811 131.151C905.987 127.29 897.688 127.29 894.407 131.355C892.478 133.996 888.811 134.403 876.46 133.793L860.828 133.184L860.249 138.874C859.477 145.986 863.529 151.066 874.53 156.756C885.53 162.243 887.46 166.307 885.723 180.126C883.986 194.961 887.653 201.26 898.074 201.26C905.215 201.26 913.899 195.57 913.899 191.1C913.899 188.458 921.812 180.939 924.707 180.939C926.058 180.939 928.373 183.377 929.724 186.426C931.654 190.896 933.97 192.319 940.146 193.335C950.76 194.757 956.357 199.025 959.059 207.357C960.795 213.047 962.339 214.672 966.971 215.079C970.252 215.485 981.831 218.737 993.024 222.598C1004.22 226.459 1021.39 230.929 1031.24 232.555C1048.99 235.197 1049.38 235.603 1058.64 245.154C1063.85 250.641 1071.18 257.957 1075.04 261.615C1080.06 266.289 1081.8 269.54 1081.8 274.417C1081.8 278.278 1085.47 287.829 1090.68 298.193C1099.17 314.45 1099.75 316.686 1101.1 335.991C1101.87 347.371 1101.68 360.58 1100.52 365.66C1098.97 373.179 1099.17 375.008 1102.06 377.244C1104.57 379.276 1106.89 379.073 1114.03 376.634C1136.99 368.302 1155.91 382.73 1158.42 410.368C1159.77 424.593 1162.28 427.031 1173.08 424.389C1177.52 423.373 1187.56 422.967 1195.28 423.78C1216.7 425.812 1235.22 425.405 1239.28 422.764C1246.42 418.09 1253.94 404.271 1252.79 398.581C1252.01 395.736 1251.24 392.078 1251.05 390.656C1250.86 389.03 1253.94 386.795 1258.19 385.169C1266.49 382.121 1269 379.276 1269 372.57C1269 369.318 1270.54 367.693 1274.4 366.676C1277.3 366.067 1284.24 363.222 1289.84 360.377L1299.88 355.093L1312.03 358.751C1318.6 360.58 1325.54 363.222 1327.67 364.238C1329.6 365.254 1336.35 367.083 1342.91 367.896C1357.58 370.131 1360.67 373.383 1360.67 386.185C1360.67 397.971 1365.11 404.068 1375.33 406.303C1381.32 407.523 1381.9 408.335 1382.28 415.651C1382.47 420.122 1382.67 424.999 1382.67 426.421C1382.86 427.844 1386.33 430.283 1390.58 432.111C1399.46 435.973 1406.02 443.491 1406.02 450.197C1406.02 457.107 1409.88 459.139 1422.42 458.732C1431.11 458.326 1436.32 459.545 1442.88 462.797C1447.7 465.439 1455.23 467.471 1459.86 467.471C1466.42 467.471 1469.9 469.096 1478.39 475.802C1491.32 486.166 1501.93 488.402 1508.11 481.899C1510.23 479.664 1512.16 476.412 1512.16 474.99C1512.16 470.722 1504.06 463.813 1495.76 460.968C1488.62 458.529 1488.04 457.716 1487.46 450.197C1486.69 435.973 1485.34 432.924 1480.71 432.924C1475.11 432.924 1471.83 430.079 1465.27 419.106C1460.25 410.977 1459.48 410.571 1451.76 410.977L1443.65 411.587L1442.69 402.442C1441.14 390.453 1436.9 382.121 1427.83 374.195C1413.93 361.799 1412.58 360.174 1407.56 349.403C1398.69 330.504 1398.69 326.643 1407.76 317.295C1416.05 308.76 1417.98 300.835 1413.74 292.503C1412.58 290.471 1402.16 283.562 1390.77 277.466C1370.32 266.695 1369.74 266.289 1366.26 256.738C1359.51 236.619 1356.04 229.913 1348.89 221.582C1341.18 212.64 1329.21 205.528 1321.68 205.325C1318.98 205.325 1313.58 200.651 1306.24 191.709C1300.07 184.19 1291.38 174.233 1286.95 169.559L1278.84 161.024L1257.03 161.227L1235.22 161.633L1210.14 148.831C1181.19 133.996 1182.73 135.012 1173.66 127.494C1168.06 122.616 1163.43 121.194 1147.03 118.755C1122.71 115.097 1121.55 114.894 1110.75 107.782C1105.92 104.734 1099.94 101.482 1097.24 100.669C1094.73 99.8564 1090.29 97.2146 1087.4 95.1825C1076.59 86.6475 1054.39 88.8828 1050.73 99.0435C1049.76 101.685 1048.99 106.156 1048.99 109.001C1048.99 113.065 1047.25 114.894 1040.89 117.942C1036.25 120.178 1030.08 122.007 1027.18 122.007C1023.32 122.007 1019.66 124.242 1014.83 129.932C1011.17 134.403 1005.95 138.467 1003.25 139.28C999.007 140.296 998.621 141.312 999.586 147.002C1000.16 150.66 999.972 154.521 999.2 155.74C996.884 159.601 989.744 162.65 983.375 162.65C964.655 162.65 950.953 141.109 946.514 104.937C943.619 81.7703 937.251 57.1814 933.391 55.1493C931.654 54.1332 926.829 52.5075 922.777 51.6947C918.531 50.8818 912.162 48.24 908.496 45.5982C904.636 42.7532 898.846 40.7211 894.793 40.7211C890.934 40.5179 885.723 39.2986 883.021 37.6729C876.074 33.4054 873.565 34.015 861.985 42.9565Z" fill="#1B1B1B" stroke="#CCFF00" stroke-width="33"/>
<path d="M986.849 51.0851C982.41 53.7268 982.41 56.7751 987.042 62.0586C989.164 64.294 993.024 68.5615 995.726 71.6097C999.2 75.674 1002.48 77.2997 1007.31 77.2997C1015.22 77.2997 1016.95 75.2675 1015.22 67.139C1012.9 56.1654 994.761 46.0047 986.849 51.0851Z" fill="#1B1B1B" stroke="#CCFF00" stroke-width="33"/>
<path d="M1396.95 96.6049C1387.11 101.076 1383.25 114.081 1389.81 120.787C1394.25 125.461 1408.72 124.852 1417.79 119.568C1430.34 112.252 1429.95 104.53 1416.83 97.8242C1407.37 92.9471 1405.25 92.7438 1396.95 96.6049Z" fill="#1B1B1B" stroke="#CCFF00" stroke-width="33"/>
<path d="M1508.69 126.477C1501.93 133.59 1508.88 142.328 1521.04 142.328C1528.37 142.328 1529.53 141.718 1530.69 137.248C1532.43 129.729 1527.02 124.039 1517.95 124.039C1514.09 124.039 1510.04 125.055 1508.69 126.477Z" fill="#1B1B1B" stroke="#CCFF00" stroke-width="33"/>
<path d="M1547.48 143.548C1546.9 145.173 1547.48 150.254 1548.64 154.724C1550.37 161.024 1552.11 162.853 1557.13 164.275C1561.18 165.291 1565.04 168.746 1568.32 173.826C1574.11 182.768 1580.29 186.019 1585.69 182.971C1590.52 180.126 1590.71 167.933 1586.08 163.666C1561.18 141.312 1550.37 135.622 1547.48 143.548Z" fill="#1B1B1B" stroke="#CCFF00" stroke-width="33"/>
<path d="M1611.74 192.725C1607.88 200.447 1605.76 215.282 1607.5 222.191C1608.08 225.036 1610.39 227.678 1612.71 228.288C1618.5 229.914 1627.18 224.833 1628.73 218.94C1630.27 212.031 1626.6 199.838 1620.43 192.522L1615.02 186.223L1611.74 192.725Z" fill="#1B1B1B" stroke="#CCFF00" stroke-width="33"/>
<path d="M1563.3 204.105C1560.41 208.576 1560.41 209.592 1563.11 215.282C1564.85 218.533 1566.2 223.207 1566.2 225.442C1566.2 230.726 1560.6 236.416 1556.74 234.79C1554.62 233.977 1550.95 236.619 1544.97 243.935C1534.55 256.331 1525.67 258.973 1515.25 253.08C1508.88 249.422 1508.69 249.422 1501.74 254.096C1495.76 257.754 1492.86 258.363 1484.95 257.347C1479.74 256.737 1471.25 255.518 1465.84 254.909C1453.88 253.283 1450.41 255.925 1450.41 266.289C1450.41 275.433 1457.16 282.546 1466.04 282.546C1469.13 282.546 1478.2 284.984 1486.3 287.829C1498.07 292.097 1503.28 293.113 1512.93 292.3C1526.44 291.081 1547.67 281.733 1557.51 272.588C1561.18 269.337 1566.78 266.085 1570.44 265.272C1579.9 263.037 1584.73 258.973 1593.22 245.561C1599.59 235.603 1600.94 231.539 1600.94 223.614C1600.94 213.046 1599.2 210.405 1590.32 208.169C1587.04 207.356 1582.41 205.121 1579.9 202.886C1573.53 197.805 1566.97 198.212 1563.3 204.105Z" fill="#1B1B1B" stroke="#CCFF00" stroke-width="33"/>
<path d="M1399.07 248.813C1398.49 250.438 1398.3 253.893 1398.69 256.535C1399.07 260.396 1400.61 261.412 1406.4 261.818C1412.19 262.428 1413.74 261.615 1414.7 258.161C1417.21 249.626 1401.97 240.684 1399.07 248.813Z" fill="#1B1B1B" stroke="#CCFF00" stroke-width="33"/>
<path d="M1676.01 255.519C1675.82 256.535 1676.01 259.176 1676.2 261.818C1676.4 264.257 1674.27 269.134 1671.57 272.589C1668.87 276.043 1666.55 279.701 1666.55 280.717C1666.55 283.156 1673.69 290.675 1676.01 290.675C1678.9 290.675 1683.92 304.087 1683.92 311.606C1683.92 321.157 1689.33 325.221 1701.87 325.221C1709.59 325.221 1712.1 324.205 1716.92 319.328C1726.38 309.37 1724.26 299.819 1709.59 285.391C1705.15 280.92 1701.29 275.23 1701.29 272.995C1701.29 268.321 1696.66 263.444 1690.29 261.412C1688.17 260.599 1685.08 258.77 1683.92 257.144C1681.41 253.893 1676.4 253.08 1676.01 255.519Z" fill="#1B1B1B" stroke="#CCFF00" stroke-width="33"/>
<path d="M1423.39 266.289C1420.69 271.572 1423.19 275.23 1428.41 274.011C1430.91 273.604 1432.07 271.572 1432.07 268.321C1432.07 261.818 1426.28 260.599 1423.39 266.289Z" fill="#1B1B1B" stroke="#CCFF00" stroke-width="33"/>
<path d="M1739.31 312.419C1736.22 315.467 1738.15 324.815 1742.78 329.285C1745.68 332.13 1747.61 336.398 1747.61 339.853C1747.61 342.901 1749.34 347.371 1751.27 349.404C1755.33 353.671 1769.99 356.922 1777.33 354.89C1783.12 353.468 1785.05 346.152 1781.19 339.853C1778.1 334.975 1777.33 334.569 1768.45 332.537C1765.36 331.724 1762.85 329.489 1761.89 326.644C1758.99 316.889 1753.4 310.996 1746.84 310.996C1743.36 310.996 1739.89 311.606 1739.31 312.419Z" fill="#1B1B1B" stroke="#CCFF00" stroke-width="33"/>
<path d="M1065.78 356.109C1049.57 374.602 1047.64 377.853 1050.92 384.153C1053.62 389.233 1055.94 389.233 1065.39 383.95C1069.64 381.511 1076.97 378.869 1081.61 378.26C1092.03 376.837 1097.24 370.334 1098.59 357.329C1099.94 344.526 1097.04 339.446 1087.97 339.446C1081.61 339.446 1079.48 341.071 1065.78 356.109Z" fill="#1B1B1B" stroke="#CCFF00" stroke-width="33"/>
<path d="M1798.94 346.761C1797.21 348.59 1795.85 353.264 1795.85 357.735C1795.85 363.831 1797.01 366.473 1801.84 370.741C1805.12 373.586 1808.4 376.024 1809.17 376.024C1809.94 376.024 1814.38 379.682 1819.21 384.153C1823.84 388.623 1830.98 393.297 1834.84 394.72C1841.21 396.752 1842.75 396.549 1846.03 393.297C1851.24 388.42 1851.05 380.901 1845.65 377.853C1843.14 376.634 1836.38 370.741 1830.59 364.847C1820.17 354.28 1806.47 343.51 1803.38 343.51C1802.61 343.51 1800.49 344.932 1798.94 346.761Z" fill="#1B1B1B" stroke="#CCFF00" stroke-width="33"/>
<path d="M1761.5 374.399C1760.15 375.821 1759.19 379.073 1759.19 381.714C1759.19 384.356 1757.64 389.233 1755.91 392.688C1752.43 398.581 1752.43 398.784 1757.06 402.645C1762.47 407.319 1764.01 407.523 1767.29 403.255C1768.64 401.426 1772.5 397.159 1775.98 393.704C1783.12 386.591 1782.35 382.527 1772.12 376.024C1764.78 371.35 1764.59 371.147 1761.5 374.399Z" fill="#1B1B1B" stroke="#CCFF00" stroke-width="33"/>
<path d="M1522.2 392.688C1516.41 398.784 1521.23 410.571 1529.53 410.571C1534.55 410.571 1535.32 409.758 1535.32 404.881C1535.32 398.581 1530.5 390.249 1526.83 390.249C1525.67 390.249 1523.55 391.265 1522.2 392.688Z" fill="#1B1B1B" stroke="#CCFF00" stroke-width="33"/>
<path d="M1874.4 399.8C1873.63 400.41 1873.05 405.897 1873.05 411.587C1873.05 420.122 1874.21 423.779 1878.65 430.486C1885.59 440.443 1887.33 441.662 1892.54 440.037C1899.3 437.801 1900.07 430.892 1895.05 420.731C1892.54 415.651 1890.42 409.758 1890.42 407.522C1890.42 405.084 1889.45 402.239 1888.1 400.816C1885.59 398.174 1876.52 397.565 1874.4 399.8Z" fill="#1B1B1B" stroke="#CCFF00" stroke-width="33"/>
<path d="M1585.5 412.603C1578.16 420.325 1582.02 427.031 1592.83 425.405C1601.32 423.983 1604.22 418.09 1599.01 412.603C1594.18 407.522 1590.32 407.522 1585.5 412.603Z" fill="#1B1B1B" stroke="#CCFF00" stroke-width="33"/>
<path d="M1833.68 422.561C1832.91 423.577 1832.91 425.812 1833.49 427.235C1834.07 428.86 1833.68 432.721 1832.52 435.77C1829.82 443.492 1832.91 448.572 1842.75 453.449C1853.17 458.326 1860.89 458.326 1868.8 453.246C1874.21 449.791 1875.17 448.166 1874.59 442.476C1874.01 436.176 1873.63 435.973 1863.4 434.754C1851.63 433.331 1846.8 431.299 1841.4 424.999C1837.35 420.325 1835.22 419.716 1833.68 422.561Z" fill="#1B1B1B" stroke="#CCFF00" stroke-width="33"/>
<path d="M1503.86 428.047C1501.55 430.486 1502.32 444.101 1504.83 446.743C1507.72 449.791 1518.72 449.994 1523.93 447.149C1531.27 442.882 1526.44 432.518 1516.02 430.486C1513.32 429.876 1509.85 428.86 1508.11 428.047C1506.57 427.234 1504.64 427.438 1503.86 428.047Z" fill="#1B1B1B" stroke="#CCFF00" stroke-width="33"/>
<path d="M1524.13 455.685C1517.37 462.797 1525.67 471.738 1535.32 467.471C1541.69 464.626 1544.01 459.952 1540.92 456.091C1538.22 452.636 1527.22 452.433 1524.13 455.685Z" fill="#1B1B1B" stroke="#CCFF00" stroke-width="33"/>
<path d="M1896.98 472.754C1895.24 480.07 1897.56 492.06 1901.42 496.124C1906.44 501.001 1926.51 498.156 1931.53 491.653C1936.54 484.947 1934.61 482.712 1923.61 482.102C1915.12 481.493 1912.61 480.476 1907.02 474.38C1903.54 470.722 1900.07 467.471 1899.49 467.471C1898.72 467.471 1897.56 469.706 1896.98 472.754Z" fill="#1B1B1B" stroke="#CCFF00" stroke-width="33"/>
<path d="M1561.57 486.979C1557.32 491.247 1557.71 494.498 1562.92 499.578C1568.51 505.065 1573.15 505.268 1575.85 500.188C1578.55 494.498 1578.36 492.466 1573.92 487.792C1569.29 482.915 1565.62 482.712 1561.57 486.979Z" fill="#1B1B1B" stroke="#CCFF00" stroke-width="33"/>
<path d="M1199.91 489.215C1195.47 493.482 1189.87 508.114 1189.87 515.836C1189.87 518.884 1187.94 524.981 1185.82 529.451C1178.29 544.083 1175.98 553.634 1174.63 576.597C1173.47 596.918 1172.7 599.967 1167.68 607.689C1162.66 615.208 1162.47 616.63 1164.4 622.726C1167.68 632.074 1167.29 634.919 1161.7 646.503C1154.75 661.337 1146.84 687.755 1139.7 721.489C1132.17 756.645 1128.31 763.757 1110.75 774.731C1087.78 788.956 1071.18 787.127 1057.68 768.634C1052.85 761.725 1046.1 755.629 1039.34 751.767C1033.55 748.516 1021.78 738.559 1013.29 729.617C1001.9 717.831 994.568 711.937 985.112 707.467C970.444 700.557 968.708 698.525 965.427 686.739C963.304 679.017 962.146 677.594 955.391 675.562C948.058 673.53 940.917 665.198 940.917 659.102C940.917 657.679 946.514 649.957 953.462 641.829C966.199 626.588 967.743 622.523 963.304 613.988C956.742 601.795 967.357 588.18 982.989 588.79C994.761 589.196 997.27 586.961 995.726 577.003C994.761 570.5 995.34 568.265 999.586 562.982C1002.29 559.324 1004.6 555.666 1004.6 554.447C1004.6 553.43 1001.52 549.163 997.849 545.302C991.866 539.002 990.322 538.393 983.761 539.409C969.287 542.05 968.901 541.847 968.322 536.564C967.357 529.248 965.234 527.826 958.479 529.451C954.812 530.264 951.339 533.109 949.216 536.767C947.286 540.018 943.812 543.27 941.496 543.879C936.672 545.302 922.776 540.831 904.25 532.093C897.302 528.842 887.653 525.387 882.635 524.371C877.038 523.152 869.898 519.494 863.529 514.413C847.704 501.814 828.984 498.766 826.089 508.317C823.967 514.82 826.861 519.697 834.774 523.152C838.827 524.777 842.686 527.216 843.458 528.435C845.967 532.499 840.178 542.863 833.037 546.928C829.177 549.163 823.581 552.618 820.686 554.447C815.282 557.901 815.282 557.901 811.422 552.211C806.405 545.302 803.317 545.302 797.141 552.414C794.053 556.072 787.299 559.933 778.614 562.982C760.666 569.484 755.07 576.394 756.035 591.635C756.614 602.812 756.228 603.421 745.227 606.876C741.175 608.298 739.052 610.737 737.315 615.817C735.964 620.288 732.49 624.759 728.051 627.807C724.192 630.449 720.911 634.106 720.911 635.935C720.911 639.39 727.086 653.209 730.946 658.899C734.613 664.182 730.753 669.263 721.876 671.091C715.893 672.514 713.191 671.904 706.244 667.637C696.401 661.54 694.857 661.337 688.682 666.621C685.98 668.856 682.699 670.685 681.348 670.685C679.225 670.685 674.594 662.556 664.751 641.219C662.628 636.748 660.313 631.668 659.348 630.042C658.576 628.416 652.014 623.946 644.874 620.085C629.241 611.753 624.61 612.566 618.048 624.352C611.101 636.951 606.469 640.609 596.048 641.625C584.468 643.048 581.187 646.096 573.275 662.76C565.748 678.407 564.205 679.83 553.976 681.455C543.362 683.081 536.221 691.819 534.677 704.622C534.098 709.905 532.747 716.408 531.783 718.847C529.274 725.146 517.694 729.82 508.431 728.398C499.36 726.772 497.045 730.633 501.869 739.371C504.957 744.858 504.957 745.671 501.869 752.174C494.536 767.212 487.974 770.057 482.185 760.709C479.676 756.645 478.904 751.767 479.097 743.436C479.483 733.275 479.097 731.649 476.202 731.649C471.377 731.649 463.272 740.997 459.412 750.955C457.675 755.425 454.201 761.522 451.499 764.367C445.903 770.463 443.008 780.014 443.008 792.207C443.008 804.197 441.464 806.432 424.095 821.673C411.744 832.24 407.691 837.524 401.516 849.717C390.322 872.68 387.427 875.931 373.725 882.841C361.76 888.734 359.637 889.14 336.672 889.343C311.969 889.547 307.916 890.36 307.916 895.033C307.916 901.13 301.355 904.381 290.933 902.959C278.775 901.536 270.091 904.788 266.231 912.713C262.757 920.029 256.967 921.451 241.142 919.826C230.914 918.809 227.44 919.216 221.265 922.467C217.019 924.703 210.264 927.141 205.826 927.954C200.036 928.97 195.404 931.815 187.685 939.741C181.316 946.243 171.088 953.559 160.666 958.843C145.806 966.565 142.719 969.207 135.771 979.774C127.665 991.967 123.999 994.202 121.876 988.715C120.332 984.041 115.314 985.057 112.033 990.544C109.525 994.405 109.139 998.266 110.297 1007.61C111.647 1021.43 109.525 1028.14 95.6294 1051.71C85.401 1069.19 83.8571 1079.76 89.4538 1094.59C97.9453 1116.94 98.5242 1149.66 90.6117 1156.57C86.366 1160.23 84.4361 1157.18 83.0852 1144.58C81.5413 1129.54 79.6114 1126.09 74.9797 1129.14C72.0849 1131.17 71.6989 1133.81 72.0849 1147.02C72.6638 1160.02 72.2779 1162.46 69.769 1162.46C68.0321 1162.46 65.7163 1160.63 64.3653 1158.4C63.0144 1156.16 60.3126 1154.33 58.5757 1154.33C52.5931 1154.33 53.944 1170.19 60.6986 1178.72C71.6989 1192.95 73.0498 1198.03 71.8919 1219.97L70.9269 1240.09L78.4535 1255.54C88.6818 1276.67 89.4538 1281.55 83.2782 1290.49C80.5763 1294.35 76.9096 1299.84 74.9797 1302.68C70.155 1309.59 69.383 1334.99 73.2428 1362.22C78.4535 1399.21 76.7166 1413.03 64.3653 1433.14C60.1196 1440.05 55.2949 1449.4 53.751 1453.87C50.0842 1465.25 46.6104 1468.5 34.6452 1472.57C14.1884 1479.27 10.3287 1494.11 26.9257 1502.85C29.8205 1504.47 30.9784 1506.91 30.9784 1511.79C31.1714 1520.53 35.0312 1523.37 49.8912 1525C62.6285 1526.42 114.735 1521.54 120.332 1518.29C122.262 1517.27 125.35 1514.63 127.279 1512.19C130.946 1507.93 149.087 1499.8 155.07 1499.8C156.807 1499.8 163.175 1496.55 168.965 1492.69C177.07 1487.2 181.509 1485.57 188.457 1485.57C193.281 1485.57 201.194 1484.15 205.826 1482.32C212.387 1479.88 218.756 1479.48 233.616 1480.29C244.23 1480.9 265.459 1481.71 280.898 1481.92C313.32 1482.53 308.302 1484.76 337.636 1456.72C352.497 1442.29 355.777 1440.05 364.269 1438.63C370.637 1437.62 376.041 1434.97 380.48 1430.91C384.147 1427.45 389.164 1424.61 391.673 1424.61C393.989 1424.61 400.358 1421.56 405.568 1417.9C413.867 1412.21 416.762 1411.4 430.85 1410.59C443.973 1410.18 448.605 1410.79 456.903 1414.45C466.746 1418.72 467.517 1418.72 480.641 1415.67C488.553 1413.84 504.185 1407.13 518.08 1399.61L542.011 1387.01L573.082 1385.8C590.258 1385.19 607.434 1383.36 611.294 1381.93C617.469 1379.7 619.013 1379.7 623.452 1382.75C626.154 1384.78 630.206 1390.27 632.136 1395.35C634.259 1400.22 636.189 1404.49 636.382 1404.49C636.768 1404.69 650.084 1405.71 665.909 1407.13L694.857 1409.37L696.787 1415.87C697.945 1419.53 701.226 1425.02 704.121 1428.27C710.104 1434.97 710.489 1436.19 706.244 1441.07C703.349 1444.32 703.542 1445.74 707.209 1457.12C711.647 1470.54 713.191 1501.63 710.489 1516.26C709.332 1521.95 709.718 1524.39 712.419 1527.03C715.507 1530.48 716.086 1530.28 723.42 1521.34C727.472 1516.06 734.227 1510.16 738.28 1507.93C744.648 1504.47 745.806 1502.85 746.385 1496.34C746.964 1487.81 747.736 1487.2 775.912 1474.8C788.65 1469.11 791.93 1466.67 794.632 1460.98C799.264 1451.64 804.282 1447.57 813.738 1445.95C823.967 1444.12 826.475 1446.96 820.3 1453.06C817.019 1456.31 815.475 1459.97 815.475 1464.44C815.475 1472.97 809.685 1480.09 797.141 1487.2C790.194 1491.06 786.913 1494.51 785.562 1498.99C784.597 1502.44 781.509 1507.93 778.807 1511.58C776.105 1515.04 772.439 1520.12 770.702 1522.96C768.386 1526.22 764.912 1528.25 761.245 1528.65C754.491 1529.26 750.438 1533.94 752.368 1539.22C753.333 1541.66 756.035 1542.47 763.368 1542.47C777.842 1542.47 783.632 1538.61 789.615 1524.18C793.088 1515.65 797.72 1509.96 801.194 1509.96C802.738 1509.96 805.247 1512.4 807.177 1515.24C810.264 1520.53 810.264 1520.93 804.089 1533.53C800.036 1541.86 795.404 1547.96 791.159 1550.81C784.211 1555.28 783.246 1560.36 789.615 1558.93C801.194 1556.29 802.738 1557.1 805.247 1568.89C808.334 1583.12 806.212 1591.85 796.948 1603.03C790.966 1610.55 790.194 1612.58 791.159 1618.68C791.93 1622.54 795.404 1629.25 799.071 1633.92C802.738 1638.59 806.212 1645.71 806.984 1649.77C808.913 1660.74 810.843 1663.79 819.914 1669.28C830.914 1675.78 837.669 1677.2 845.774 1674.36C852.915 1671.92 857.16 1674.16 873.564 1688.99C878.003 1692.85 883.6 1695.7 888.425 1696.31C895.565 1697.32 896.916 1696.71 905.6 1688.38C917.373 1676.8 922.39 1673.95 929.145 1675.58C934.356 1676.8 937.058 1674.97 954.812 1660.13C962.918 1653.23 966.006 1657.29 966.006 1674.56C966.006 1686.55 966.585 1688.79 971.023 1693.66C973.918 1696.51 979.515 1699.96 983.761 1701.39C990.515 1703.42 991.673 1703.22 996.498 1699.15C1008.08 1689.4 1019.66 1682.28 1029.31 1679.44C1038.38 1676.59 1040.11 1675.17 1043.59 1667.45C1046.1 1662.17 1049.76 1657.7 1052.66 1656.48C1062.5 1652.41 1081.41 1650.79 1094.73 1653.02C1113.64 1655.87 1124.83 1655.66 1130.82 1652.21C1134.68 1650.18 1138.73 1643.67 1144.91 1629.86C1157.84 1600.8 1157.84 1601 1169.61 1592.26C1176.75 1586.98 1182.35 1580.68 1186.01 1573.77C1189.1 1567.88 1194.5 1561.37 1197.98 1559.14C1207.05 1553.04 1216.89 1541.86 1244.87 1504.88C1276.52 1463.22 1277.49 1462 1290.23 1453.47C1306.24 1442.7 1346.58 1405.3 1355.07 1393.52C1359.32 1387.83 1370.7 1372.99 1380.74 1360.6C1397.72 1339.67 1407.76 1321.99 1411.04 1307.56C1413.16 1297.6 1417.21 1291.1 1426.86 1280.94C1435.16 1272.2 1436.7 1268.95 1440.76 1253.91C1444.42 1239.28 1444.81 1233.79 1443.84 1218.14C1442.69 1202.5 1443.07 1198.23 1446.35 1189.49C1452.91 1171.61 1454.46 1157.59 1452.53 1125.48C1450.98 1096.42 1450.79 1095.2 1444.42 1084.02C1440.76 1077.72 1431.49 1065.94 1423.77 1057.81C1407.95 1041.14 1407.95 1041.96 1412 1012.29C1414.51 993.592 1414.51 993.186 1410.26 989.731C1407.95 987.699 1401.19 985.26 1395.4 984.651C1378.61 982.415 1374.37 976.116 1371.09 948.479C1370.12 939.741 1367.04 926.532 1364.53 919.216C1361.82 911.9 1359.7 901.943 1359.7 897.066C1359.7 888.124 1359.51 887.921 1349.67 883.247C1338.47 878.167 1334.03 873.696 1330.95 865.161C1328.82 859.471 1328.05 858.861 1318.4 856.626C1312.42 855.203 1296.02 838.337 1290.8 828.379C1287.14 821.063 1288.49 794.646 1293.12 783.062C1296.98 773.308 1296.79 766.399 1292.16 755.832C1288.87 747.906 1288.3 742.42 1288.3 704.419V661.947L1279.8 653.615C1274.01 647.925 1270.93 643.251 1270.54 639.187C1269.77 630.652 1263.79 630.245 1249.89 638.374C1234.07 647.519 1231.36 646.096 1232.91 628.416C1233.49 620.898 1235.22 609.721 1236.77 603.624C1238.89 595.293 1239.08 589.399 1237.73 580.255C1236.77 573.549 1235.42 560.34 1234.65 550.789C1233.29 536.767 1232.14 532.093 1227.7 525.387C1223.26 518.478 1222.49 516.039 1223.64 508.52C1225.19 497.14 1223.64 492.466 1216.89 488.808C1209.56 484.744 1204.73 484.947 1199.91 489.215Z" fill="#1B1B1B" stroke="#CCFF00" stroke-width="33"/>
<path d="M1531.65 503.439C1522.58 511.162 1532.81 517.461 1545.94 512.178C1549.79 510.755 1550.95 508.926 1550.37 505.472C1549.6 499.375 1538.02 498.156 1531.65 503.439Z" fill="#1B1B1B" stroke="#CCFF00" stroke-width="33"/>
<path d="M766.842 507.504C763.947 511.365 765.877 519.087 770.509 521.119C772.632 522.339 775.913 526.2 777.65 529.858C781.316 537.783 785.948 538.393 798.492 532.703C815.089 525.184 824.739 511.772 817.019 506.691C812.966 504.05 769.158 504.659 766.842 507.504Z" fill="#1B1B1B" stroke="#CCFF00" stroke-width="33"/>
<path d="M1591.67 516.648C1590.32 518.071 1589.36 521.119 1589.36 523.761C1589.36 526.403 1588.2 528.435 1587.04 528.435C1583.57 528.638 1594.76 538.596 1598.23 538.596C1599.78 538.596 1604.6 535.141 1609.04 530.873C1618.88 521.119 1618.31 516.242 1606.92 516.242C1602.67 516.242 1598.23 515.836 1596.69 515.226C1595.34 514.616 1593.02 515.226 1591.67 516.648Z" fill="#1B1B1B" stroke="#CCFF00" stroke-width="33"/>
<path d="M1839.08 524.574C1838.51 525.793 1838.89 528.841 1840.24 531.28C1841.98 534.734 1843.72 535.751 1847.38 534.938C1853.17 533.718 1855.1 529.451 1851.82 525.387C1848.93 521.932 1841.01 521.322 1839.08 524.574Z" fill="#1B1B1B" stroke="#CCFF00" stroke-width="33"/>
<path d="M1833.87 566.436C1833.29 567.249 1833.87 571.313 1835.22 575.174C1837.93 583.912 1844.29 585.741 1848.73 578.832C1853.56 571.516 1852.79 567.249 1846.61 567.452C1843.52 567.655 1839.86 567.045 1838.12 566.233C1836.19 565.42 1834.45 565.42 1833.87 566.436Z" fill="#1B1B1B" stroke="#CCFF00" stroke-width="33"/>
<path d="M2053.88 674.749C2050.79 677.391 2048.28 682.268 2047.13 688.365C2044.81 699.338 2046.74 706.248 2052.34 708.28C2056.97 709.702 2066.62 704.825 2070.67 698.729C2074.34 693.445 2074.72 676.578 2071.44 673.124C2067.97 669.466 2059.48 670.279 2053.88 674.749Z" fill="#1B1B1B" stroke="#CCFF00" stroke-width="33"/>
<path d="M2062.18 717.424C2057.93 721.895 2057.55 723.317 2060.06 727.381C2061.02 729.007 2063.14 729.617 2065.65 728.804C2071.06 726.975 2079.93 717.83 2078.58 715.392C2076.46 711.937 2066.23 713.157 2062.18 717.424Z" fill="#1B1B1B" stroke="#CCFF00" stroke-width="33"/>
<path d="M2076.27 736.323C2072.79 738.762 2070.09 742.216 2070.48 743.842C2071.63 752.174 2087.27 745.468 2087.27 736.73C2087.27 730.633 2084.56 730.633 2076.27 736.323Z" fill="#1B1B1B" stroke="#CCFF00" stroke-width="33"/>
<path d="M2460.7 740.794C2452.59 749.126 2455.1 770.26 2464.17 770.26C2471.89 770.26 2486.75 754.003 2486.75 745.468C2486.75 735.104 2469 731.852 2460.7 740.794Z" fill="#1B1B1B" stroke="#CCFF00" stroke-width="33"/>
<path d="M2429.82 772.495C2427.7 773.511 2420.75 778.794 2414.38 784.078C2404.35 792.613 2402.8 795.052 2402.22 801.758C2401.45 810.496 2404.73 820.25 2408.78 821.876C2413.03 823.502 2434.45 818.218 2445.26 812.731C2452.79 808.87 2455.29 806.432 2456.65 801.351C2458.96 792.207 2452.21 777.982 2443.52 773.511C2436.19 769.853 2435.22 769.853 2429.82 772.495Z" fill="#1B1B1B" stroke="#CCFF00" stroke-width="33"/>
<path d="M1896.59 807.244C1891.19 812.934 1896.59 825.127 1904.51 825.127C1907.79 825.127 1911.65 819.234 1911.65 814.154C1911.65 806.838 1901.42 802.164 1896.59 807.244Z" fill="#1B1B1B" stroke="#CCFF00" stroke-width="33"/>
<path d="M2423.64 839.353C2418.05 841.994 2415.35 844.433 2415.35 847.278C2415.35 852.155 2419.01 853.578 2427.89 852.155C2435.42 850.936 2441.59 843.62 2439.66 838.336C2438.31 834.272 2433.68 834.679 2423.64 839.353Z" fill="#1B1B1B" stroke="#CCFF00" stroke-width="33"/>
<path d="M1888.49 875.728C1885.21 882.231 1886.17 886.702 1893.31 899.098C1896.98 905.397 1900.45 914.135 1901.23 917.997C1902.19 923.28 1905.28 928.157 1912.23 934.66C1917.44 939.74 1924.19 947.869 1927.28 952.543C1930.37 957.217 1935.96 962.704 1939.44 964.329C1944.26 966.768 1947.16 970.426 1950.05 977.335C1952.18 982.619 1955.07 987.902 1956.42 989.121C1959.32 991.357 1984.98 991.357 1988.46 989.121C1992.51 986.276 1991.16 973.474 1985.95 966.158C1977.84 954.778 1969.74 950.104 1958.93 950.104H1949.28L1948.12 935.879C1946.58 915.152 1940.6 906.413 1928.05 906.413C1918.6 906.413 1909.72 896.253 1909.72 885.685C1909.72 874.102 1893.31 866.38 1888.49 875.728Z" fill="#1B1B1B" stroke="#CCFF00" stroke-width="33"/>
<path d="M1995.98 999.485C1990.58 1005.58 1991.93 1009.65 1999.46 1011.27C2007.76 1012.9 2012.39 1009.44 2011.62 1002.13C2011.23 997.86 2009.88 996.64 2005.05 996.234C2001.19 995.828 1998.11 996.844 1995.98 999.485Z" fill="#1B1B1B" stroke="#CCFF00" stroke-width="33"/>
<path d="M1984.79 1535.36C1979.39 1538.41 1970.12 1557.92 1968.19 1569.5C1967.03 1577.43 1969.74 1580.47 1979.19 1581.49C1986.91 1582.3 1989.61 1587.99 1983.05 1590.23C1973.79 1593.28 1971.67 1603.23 1971.47 1645.3C1971.47 1647.53 1965.11 1657.29 1957.19 1667.04C1949.28 1676.8 1941.17 1687.16 1939.05 1690.41C1934.61 1696.71 1930.95 1698.95 1914.54 1705.25C1901.61 1710.12 1884.63 1725.98 1884.63 1733.09C1884.63 1735.93 1888.1 1739.79 1895.82 1745.08C1902.58 1749.75 1907.02 1754.43 1907.4 1757.07C1908.75 1767.23 1892.35 1785.11 1875.37 1792.43C1867.26 1795.68 1864.37 1802.79 1867.65 1810.31C1870.93 1817.42 1877.1 1818.03 1895.44 1813.76C1912.23 1809.9 1929.4 1797.71 1940.02 1781.86C1946.58 1772.31 1946.96 1772.11 1957.39 1772.11C1971.86 1772.11 1975.33 1769.87 1975.33 1759.91C1975.33 1753 1976.49 1751.17 1985.95 1742.64C1993.47 1735.93 1997.14 1730.65 1998.88 1724.96C2002.35 1712.56 2006.4 1710.73 2025.7 1712.97C2045.39 1715.41 2051.37 1712.77 2057.55 1699.15C2061.99 1689.4 2064.88 1686.76 2071.44 1686.76C2074.72 1686.76 2076.65 1684.72 2078.78 1679.03C2080.51 1674.97 2084.18 1668.87 2086.88 1665.82C2091.32 1660.95 2092.09 1658.31 2092.09 1647.53V1634.94L2085.34 1635.14C2081.48 1635.14 2075.11 1637.58 2070.86 1640.63C2057.16 1650.18 2037.67 1652.82 2031.3 1646.11C2026.48 1641.03 2026.48 1636.97 2031.11 1632.09C2040.18 1622.54 2042.11 1607.91 2034.77 1602.62C2027.83 1597.34 2024.35 1598.76 2016.44 1609.33C2012.39 1615.02 2007.95 1619.9 2006.6 1620.51C1999.26 1623.76 1998.3 1613.6 2005.25 1606.28C2012.58 1598.56 2014.12 1594.29 2013.74 1580.68C2013.55 1573.57 2014.12 1563.81 2014.9 1558.73L2016.25 1549.59L2006.21 1540.85C1995.21 1531.7 1992.51 1530.89 1984.79 1535.36Z" fill="#1B1B1B" stroke="#CCFF00" stroke-width="33"/>
<path d="M728.245 1560.56C718.981 1561.98 711.262 1567.27 711.262 1572.35C711.262 1574.17 714.542 1574.99 722.455 1575.19C728.438 1575.39 734.227 1575.39 734.999 1575.19C735.964 1574.99 741.754 1574.38 748.122 1573.56C759.702 1572.35 764.912 1568.48 761.824 1563.4C760.088 1560.56 739.631 1558.73 728.245 1560.56Z" fill="#1B1B1B" stroke="#CCFF00" stroke-width="33"/>
<path d="M1002.67 1736.54C997.463 1745.48 996.691 1755.44 1000.94 1758.49C1005.76 1761.74 1014.06 1758.29 1018.11 1751.17C1022.94 1743.05 1022.94 1737.15 1018.5 1732.88C1012.71 1727.4 1007.31 1728.62 1002.67 1736.54Z" fill="#1B1B1B" stroke="#CCFF00" stroke-width="33"/>
<path d="M871.441 1737.76C860.634 1745.48 860.055 1750.56 869.704 1751.38C875.494 1751.99 878.196 1750.77 883.986 1745.08C897.495 1732.07 887.459 1726.38 871.441 1737.76Z" fill="#1B1B1B" stroke="#CCFF00" stroke-width="33"/>
<path d="M1812.07 1770.89C1804.15 1774.95 1795.85 1782.06 1787.56 1791.41C1780.8 1799.13 1769.99 1808.68 1763.82 1812.54C1740.27 1826.97 1732.94 1832.66 1729.27 1839.78C1725.03 1848.31 1721.94 1849.94 1706.12 1853.19C1695.89 1855.02 1693.57 1856.44 1687.01 1864.57C1682.96 1869.65 1678.33 1873.71 1676.78 1873.71C1675.04 1873.71 1669.25 1876.35 1663.85 1879.61C1658.45 1883.06 1645.32 1887.94 1634.71 1890.99C1620.24 1894.85 1612.32 1898.3 1602.87 1905.01C1584.53 1918.01 1580.29 1919.84 1564.85 1920.86C1546.71 1922.28 1534.74 1929.19 1531.46 1940.16C1528.57 1949.71 1524.9 1952.97 1516.79 1952.97C1512.93 1952.97 1508.11 1955.2 1503.48 1959.06C1499.43 1962.52 1493.83 1965.77 1491.13 1966.17C1488.42 1966.78 1482.64 1968.41 1478.39 1969.83C1471.44 1972.07 1470.48 1973.29 1468.55 1981.42L1466.42 1990.56L1457.35 1989.95C1448.48 1989.14 1448.48 1989.34 1444.81 1998.08C1441.34 2006.21 1441.34 2007.02 1444.42 2009.46C1446.55 2011.29 1450.41 2011.69 1456.39 2010.88C1464.69 2009.66 1465.46 2010.07 1471.25 2016.77C1474.53 2020.84 1478.58 2026.73 1480.32 2029.98C1481.86 2033.24 1484.95 2036.69 1487.07 2037.3C1495.18 2039.94 1533.2 2024.29 1556.94 2008.65C1560.99 2006 1569.09 2001.74 1574.88 1999.5C1582.8 1996.45 1587.43 1992.8 1592.83 1985.89C1605.76 1969.02 1617.15 1956.62 1622.36 1953.98C1625.06 1952.36 1630.85 1948.09 1635.1 1944.23C1641.08 1939.15 1645.52 1936.91 1652.85 1936.1C1664.62 1934.68 1672.73 1930.41 1679.68 1922.08C1684.69 1916.18 1685.27 1915.98 1697.43 1917.2C1704.38 1917.81 1713.26 1917.4 1717.12 1916.39C1723.1 1914.56 1724.64 1912.73 1727.54 1905.01C1731.01 1895.46 1743.94 1881.84 1749.34 1881.84C1757.64 1881.84 1766.91 1877.17 1769.99 1871.88C1774.43 1863.96 1786.59 1856.03 1802.22 1851.16C1811.49 1848.11 1816.31 1845.26 1819.01 1841.2C1821.14 1837.95 1825.77 1833.48 1829.24 1831.24C1832.91 1829 1836.77 1824.74 1837.93 1821.89C1839.28 1818.84 1843.72 1815.19 1848.73 1812.95C1853.37 1810.72 1858.58 1806.85 1860.31 1804.42C1864.56 1797.91 1864.17 1787.75 1859.54 1783.28C1855.49 1779.42 1852.4 1779.62 1837.93 1785.72C1826.54 1790.19 1824.03 1788.36 1827.12 1777.79C1829.24 1770.48 1828.28 1763.77 1825.38 1764.18C1824.61 1764.38 1818.43 1767.23 1812.07 1770.89Z" fill="#1B1B1B" stroke="#CCFF00" stroke-width="33"/>
<path d="M884.372 1777.59C882.828 1779.62 877.424 1789.38 872.6 1799.13C864.301 1815.59 863.722 1817.83 864.88 1827.18C866.231 1837.13 866.038 1837.34 858.126 1845.06L850.213 1852.78L851.371 1865.79C852.143 1872.9 852.915 1879.2 853.301 1879.61C853.687 1880.01 852.143 1883.87 849.827 1888.14C841.336 1903.99 850.599 1906.43 874.337 1894.24C893.828 1884.28 917.759 1873.92 930.11 1870.46C941.882 1867.01 944.198 1864.97 946.9 1855.22C949.602 1845.87 952.883 1842.62 962.725 1839.17C970.638 1836.52 973.339 1832.05 977.585 1814.37C980.673 1801.77 985.884 1793.44 992.445 1789.99C995.726 1788.36 997.849 1785.72 997.849 1783.28C997.849 1777.8 987.428 1776.78 976.234 1781.25C970.831 1783.49 965.427 1784.3 960.602 1783.28C954.427 1782.27 952.111 1783.08 943.812 1789.38C931.654 1798.32 924.706 1798.73 920.654 1790.39C917.566 1783.89 911.197 1779.22 908.109 1781.25C907.144 1781.86 902.127 1780.64 897.302 1778.41C886.495 1773.32 888.039 1773.32 884.372 1777.59Z" fill="#1B1B1B" stroke="#CCFF00" stroke-width="33"/>
<path d="M1442.11 2033.84C1440.18 2035.88 1438.83 2038.72 1438.83 2040.14C1438.83 2041.57 1435.74 2044.01 1432.07 2045.63C1424.16 2049.09 1423.77 2050.51 1429.37 2055.79C1433.23 2059.45 1433.42 2059.45 1440.37 2054.98C1444.23 2052.54 1450.79 2049.09 1454.84 2047.26C1459.28 2045.22 1461.99 2042.58 1461.99 2040.35C1461.99 2031 1448.28 2026.73 1442.11 2033.84Z" fill="#1B1B1B" stroke="#CCFF00" stroke-width="33"/>
</svg>
